<?xml version="1.0" encoding="UTF-8" standalone="no"?>
<!DOCTYPE svg PUBLIC "-//W3C//DTD SVG 1.1//EN"
 "http://www.w3.org/Graphics/SVG/1.1/DTD/svg11.dtd">
<!-- Generated by graphviz version 2.43.0 (0)
 -->
<!-- Title: %3 Pages: 1 -->
<svg width="254pt" height="260pt"
 viewBox="0.00 0.00 254.00 260.00" xmlns="http://www.w3.org/2000/svg" xmlns:xlink="http://www.w3.org/1999/xlink">
<g id="graph0" class="graph" transform="scale(1 1) rotate(0) translate(4 256)">
<title>%3</title>
<polygon fill="white" stroke="transparent" points="-4,4 -4,-256 250,-256 250,4 -4,4"/>
<!-- 1347379651481349281 -->
<g id="node1" class="node">
<title>1347379651481349281</title>
<g id="a_node1"><a xlink:href="year_of_birth.svg" xlink:title="Variable(year_of_birth)">
<path fill="lightgrey" stroke="black" d="M132,-252C132,-252 12,-252 12,-252 6,-252 0,-246 0,-240 0,-240 0,-228 0,-228 0,-222 6,-216 12,-216 12,-216 132,-216 132,-216 138,-216 144,-222 144,-228 144,-228 144,-240 144,-240 144,-246 138,-252 132,-252"/>
<text text-anchor="middle" x="72" y="-230.3" font-family="Times,serif" font-size="14.00">Variable(year_of_birth)</text>
</a>
</g>
</g>
<!-- 8312250683758237793 -->
<g id="node3" class="node">
<title>8312250683758237793</title>
<path fill="none" stroke="black" d="M179.5,-180C179.5,-180 96.5,-180 96.5,-180 90.5,-180 84.5,-174 84.5,-168 84.5,-168 84.5,-156 84.5,-156 84.5,-150 90.5,-144 96.5,-144 96.5,-144 179.5,-144 179.5,-144 185.5,-144 191.5,-150 191.5,-156 191.5,-156 191.5,-168 191.5,-168 191.5,-174 185.5,-180 179.5,-180"/>
<text text-anchor="middle" x="138" y="-158.3" font-family="Times,serif" font-size="14.00">YearFromDate()</text>
</g>
<!-- 1347379651481349281&#45;&gt;8312250683758237793 -->
<g id="edge3" class="edge">
<title>1347379651481349281&#45;&gt;8312250683758237793</title>
<path fill="none" stroke="black" d="M88.31,-215.7C96.31,-207.22 106.07,-196.86 114.82,-187.58"/>
<polygon fill="black" stroke="black" points="117.56,-189.78 121.87,-180.1 112.47,-184.98 117.56,-189.78"/>
</g>
<!-- 1745738302869095104 -->
<g id="node2" class="node">
<title>1745738302869095104</title>
<g id="a_node2"><a xlink:href="population.svg" xlink:title="Population()">
<path fill="lightgrey" stroke="black" d="M234,-252C234,-252 174,-252 174,-252 168,-252 162,-246 162,-240 162,-240 162,-228 162,-228 162,-222 168,-216 174,-216 174,-216 234,-216 234,-216 240,-216 246,-222 246,-228 246,-228 246,-240 246,-240 246,-246 240,-252 234,-252"/>
<text text-anchor="middle" x="204" y="-230.3" font-family="Times,serif" font-size="14.00">Population()</text>
</a>
</g>
</g>
<!-- 1745738302869095104&#45;&gt;8312250683758237793 -->
<g id="edge4" class="edge">
<title>1745738302869095104&#45;&gt;8312250683758237793</title>
<path fill="none" stroke="lightgrey" d="M187.69,-215.7C179.69,-207.22 169.93,-196.86 161.18,-187.58"/>
<polygon fill="lightgrey" stroke="lightgrey" points="163.53,-184.98 154.13,-180.1 158.44,-189.78 163.53,-184.98"/>
</g>
<!-- 8593316933886198703 -->
<g id="node4" class="node">
<title>8593316933886198703</title>
<path fill="none" stroke="black" d="M214,-108C214,-108 62,-108 62,-108 56,-108 50,-102 50,-96 50,-96 50,-84 50,-84 50,-78 56,-72 62,-72 62,-72 214,-72 214,-72 220,-72 226,-78 226,-84 226,-84 226,-96 226,-96 226,-102 220,-108 214,-108"/>
<text text-anchor="middle" x="138" y="-86.3" font-family="Times,serif" font-size="14.00">SelectColumn(date_of_birth)</text>
</g>
<!-- 8312250683758237793&#45;&gt;8593316933886198703 -->
<g id="edge1" class="edge">
<title>8312250683758237793&#45;&gt;8593316933886198703</title>
<path fill="none" stroke="black" d="M138,-143.7C138,-135.98 138,-126.71 138,-118.11"/>
<polygon fill="black" stroke="black" points="141.5,-118.1 138,-108.1 134.5,-118.1 141.5,-118.1"/>
</g>
<!-- 9032488707734179919 -->
<g id="node5" class="node">
<title>9032488707734179919</title>
<path fill="lightgrey" stroke="black" d="M210.5,-36C210.5,-36 65.5,-36 65.5,-36 59.5,-36 53.5,-30 53.5,-24 53.5,-24 53.5,-12 53.5,-12 53.5,-6 59.5,0 65.5,0 65.5,0 210.5,0 210.5,0 216.5,0 222.5,-6 222.5,-12 222.5,-12 222.5,-24 222.5,-24 222.5,-30 216.5,-36 210.5,-36"/>
<text text-anchor="middle" x="138" y="-14.3" font-family="Times,serif" font-size="14.00">SelectPatientTable(patients)</text>
</g>
<!-- 8593316933886198703&#45;&gt;9032488707734179919 -->
<g id="edge2" class="edge">
<title>8593316933886198703&#45;&gt;9032488707734179919</title>
<path fill="none" stroke="black" d="M138,-71.7C138,-63.98 138,-54.71 138,-46.11"/>
<polygon fill="black" stroke="black" points="141.5,-46.1 138,-36.1 134.5,-46.1 141.5,-46.1"/>
</g>
</g>
</svg>
