<?xml version="1.0" encoding="UTF-8" standalone="no"?>
<!DOCTYPE svg PUBLIC "-//W3C//DTD SVG 1.1//EN"
 "http://www.w3.org/Graphics/SVG/1.1/DTD/svg11.dtd">
<!-- Generated by graphviz version 2.43.0 (0)
 -->
<!-- Title: %3 Pages: 1 -->
<svg width="265pt" height="332pt"
 viewBox="0.00 0.00 265.00 332.00" xmlns="http://www.w3.org/2000/svg" xmlns:xlink="http://www.w3.org/1999/xlink">
<g id="graph0" class="graph" transform="scale(1 1) rotate(0) translate(4 328)">
<title>%3</title>
<polygon fill="white" stroke="transparent" points="-4,4 -4,-328 261,-328 261,4 -4,4"/>
<!-- 2805302522004550931 -->
<g id="node1" class="node">
<title>2805302522004550931</title>
<g id="a_node1"><a xlink:href="population.svg" xlink:title="Population()">
<path fill="lightgrey" stroke="black" d="M72,-324C72,-324 12,-324 12,-324 6,-324 0,-318 0,-312 0,-312 0,-300 0,-300 0,-294 6,-288 12,-288 12,-288 72,-288 72,-288 78,-288 84,-294 84,-300 84,-300 84,-312 84,-312 84,-318 78,-324 72,-324"/>
<text text-anchor="middle" x="42" y="-302.3" font-family="Times,serif" font-size="14.00">Population()</text>
</a>
</g>
</g>
<!-- 983128339320880667 -->
<g id="node3" class="node">
<title>983128339320880667</title>
<path fill="none" stroke="black" d="M62,-252C62,-252 32,-252 32,-252 26,-252 20,-246 20,-240 20,-240 20,-228 20,-228 20,-222 26,-216 32,-216 32,-216 62,-216 62,-216 68,-216 74,-222 74,-228 74,-228 74,-240 74,-240 74,-246 68,-252 62,-252"/>
<text text-anchor="middle" x="47" y="-230.3" font-family="Times,serif" font-size="14.00">GE()</text>
</g>
<!-- 2805302522004550931&#45;&gt;983128339320880667 -->
<g id="edge1" class="edge">
<title>2805302522004550931&#45;&gt;983128339320880667</title>
<path fill="none" stroke="black" d="M43.24,-287.7C43.79,-279.98 44.45,-270.71 45.06,-262.11"/>
<polygon fill="black" stroke="black" points="48.56,-262.33 45.78,-252.1 41.57,-261.83 48.56,-262.33"/>
</g>
<!-- 6892835163861938934 -->
<g id="node2" class="node">
<title>6892835163861938934</title>
<g id="a_node2"><a xlink:href="year_of_birth.svg" xlink:title="Variable(year_of_birth)">
<path fill="lightgrey" stroke="black" d="M234,-324C234,-324 114,-324 114,-324 108,-324 102,-318 102,-312 102,-312 102,-300 102,-300 102,-294 108,-288 114,-288 114,-288 234,-288 234,-288 240,-288 246,-294 246,-300 246,-300 246,-312 246,-312 246,-318 240,-324 234,-324"/>
<text text-anchor="middle" x="174" y="-302.3" font-family="Times,serif" font-size="14.00">Variable(year_of_birth)</text>
</a>
</g>
</g>
<!-- 4234540445002752955 -->
<g id="node4" class="node">
<title>4234540445002752955</title>
<path fill="none" stroke="black" d="M210.5,-180C210.5,-180 127.5,-180 127.5,-180 121.5,-180 115.5,-174 115.5,-168 115.5,-168 115.5,-156 115.5,-156 115.5,-150 121.5,-144 127.5,-144 127.5,-144 210.5,-144 210.5,-144 216.5,-144 222.5,-150 222.5,-156 222.5,-156 222.5,-168 222.5,-168 222.5,-174 216.5,-180 210.5,-180"/>
<text text-anchor="middle" x="169" y="-158.3" font-family="Times,serif" font-size="14.00">YearFromDate()</text>
</g>
<!-- 6892835163861938934&#45;&gt;4234540445002752955 -->
<g id="edge6" class="edge">
<title>6892835163861938934&#45;&gt;4234540445002752955</title>
<path fill="none" stroke="black" d="M173.4,-287.87C172.54,-263.67 170.98,-219.21 169.96,-190.39"/>
<polygon fill="black" stroke="black" points="173.46,-190.06 169.61,-180.19 166.46,-190.31 173.46,-190.06"/>
</g>
<!-- 983128339320880667&#45;&gt;4234540445002752955 -->
<g id="edge2" class="edge">
<title>983128339320880667&#45;&gt;4234540445002752955</title>
<path fill="none" stroke="black" d="M74.08,-217.46C90.61,-207.98 112.01,-195.7 130.31,-185.2"/>
<polygon fill="black" stroke="black" points="132.07,-188.22 139,-180.21 128.59,-182.15 132.07,-188.22"/>
</g>
<!-- 4686208237491818388 -->
<g id="node5" class="node">
<title>4686208237491818388</title>
<path fill="none" stroke="black" d="M76.5,-180C76.5,-180 17.5,-180 17.5,-180 11.5,-180 5.5,-174 5.5,-168 5.5,-168 5.5,-156 5.5,-156 5.5,-150 11.5,-144 17.5,-144 17.5,-144 76.5,-144 76.5,-144 82.5,-144 88.5,-150 88.5,-156 88.5,-156 88.5,-168 88.5,-168 88.5,-174 82.5,-180 76.5,-180"/>
<text text-anchor="middle" x="47" y="-158.3" font-family="Times,serif" font-size="14.00">Value(2000)</text>
</g>
<!-- 983128339320880667&#45;&gt;4686208237491818388 -->
<g id="edge3" class="edge">
<title>983128339320880667&#45;&gt;4686208237491818388</title>
<path fill="none" stroke="black" d="M47,-215.7C47,-207.98 47,-198.71 47,-190.11"/>
<polygon fill="black" stroke="black" points="50.5,-190.1 47,-180.1 43.5,-190.1 50.5,-190.1"/>
</g>
<!-- 756024969960652086 -->
<g id="node6" class="node">
<title>756024969960652086</title>
<path fill="none" stroke="black" d="M245,-108C245,-108 93,-108 93,-108 87,-108 81,-102 81,-96 81,-96 81,-84 81,-84 81,-78 87,-72 93,-72 93,-72 245,-72 245,-72 251,-72 257,-78 257,-84 257,-84 257,-96 257,-96 257,-102 251,-108 245,-108"/>
<text text-anchor="middle" x="169" y="-86.3" font-family="Times,serif" font-size="14.00">SelectColumn(date_of_birth)</text>
</g>
<!-- 4234540445002752955&#45;&gt;756024969960652086 -->
<g id="edge4" class="edge">
<title>4234540445002752955&#45;&gt;756024969960652086</title>
<path fill="none" stroke="black" d="M169,-143.7C169,-135.98 169,-126.71 169,-118.11"/>
<polygon fill="black" stroke="black" points="172.5,-118.1 169,-108.1 165.5,-118.1 172.5,-118.1"/>
</g>
<!-- 2381488695314895586 -->
<g id="node7" class="node">
<title>2381488695314895586</title>
<g id="a_node7"><a xlink:href="patients.svg" xlink:title="SelectPatientTable(patients)">
<path fill="lightgrey" stroke="black" d="M241.5,-36C241.5,-36 96.5,-36 96.5,-36 90.5,-36 84.5,-30 84.5,-24 84.5,-24 84.5,-12 84.5,-12 84.5,-6 90.5,0 96.5,0 96.5,0 241.5,0 241.5,0 247.5,0 253.5,-6 253.5,-12 253.5,-12 253.5,-24 253.5,-24 253.5,-30 247.5,-36 241.5,-36"/>
<text text-anchor="middle" x="169" y="-14.3" font-family="Times,serif" font-size="14.00">SelectPatientTable(patients)</text>
</a>
</g>
</g>
<!-- 756024969960652086&#45;&gt;2381488695314895586 -->
<g id="edge5" class="edge">
<title>756024969960652086&#45;&gt;2381488695314895586</title>
<path fill="none" stroke="black" d="M169,-71.7C169,-63.98 169,-54.71 169,-46.11"/>
<polygon fill="black" stroke="black" points="172.5,-46.1 169,-36.1 165.5,-46.1 172.5,-46.1"/>
</g>
</g>
</svg>
