<?xml version="1.0" encoding="UTF-8" standalone="no"?>
<!DOCTYPE svg PUBLIC "-//W3C//DTD SVG 1.1//EN"
 "http://www.w3.org/Graphics/SVG/1.1/DTD/svg11.dtd">
<!-- Generated by graphviz version 2.43.0 (0)
 -->
<!-- Title: %3 Pages: 1 -->
<svg width="254pt" height="332pt"
 viewBox="0.00 0.00 254.00 332.00" xmlns="http://www.w3.org/2000/svg" xmlns:xlink="http://www.w3.org/1999/xlink">
<g id="graph0" class="graph" transform="scale(1 1) rotate(0) translate(4 328)">
<title>%3</title>
<polygon fill="white" stroke="transparent" points="-4,4 -4,-328 250,-328 250,4 -4,4"/>
<!-- 2222967132687204406 -->
<g id="node1" class="node">
<title>2222967132687204406</title>
<g id="a_node1"><a xlink:href="population.svg" xlink:title="Population()">
<path fill="lightgrey" stroke="black" d="M72,-324C72,-324 12,-324 12,-324 6,-324 0,-318 0,-312 0,-312 0,-300 0,-300 0,-294 6,-288 12,-288 12,-288 72,-288 72,-288 78,-288 84,-294 84,-300 84,-300 84,-312 84,-312 84,-318 78,-324 72,-324"/>
<text text-anchor="middle" x="42" y="-302.3" font-family="Times,serif" font-size="14.00">Population()</text>
</a>
</g>
</g>
<!-- 3004785664322435387 -->
<g id="node3" class="node">
<title>3004785664322435387</title>
<path fill="none" stroke="black" d="M95,-252C95,-252 65,-252 65,-252 59,-252 53,-246 53,-240 53,-240 53,-228 53,-228 53,-222 59,-216 65,-216 65,-216 95,-216 95,-216 101,-216 107,-222 107,-228 107,-228 107,-240 107,-240 107,-246 101,-252 95,-252"/>
<text text-anchor="middle" x="80" y="-230.3" font-family="Times,serif" font-size="14.00">GE()</text>
</g>
<!-- 2222967132687204406&#45;&gt;3004785664322435387 -->
<g id="edge1" class="edge">
<title>2222967132687204406&#45;&gt;3004785664322435387</title>
<path fill="none" stroke="black" d="M51.39,-287.7C55.76,-279.64 61.06,-269.89 65.9,-260.98"/>
<polygon fill="black" stroke="black" points="69.02,-262.56 70.71,-252.1 62.87,-259.22 69.02,-262.56"/>
</g>
<!-- 5770331073870355720 -->
<g id="node2" class="node">
<title>5770331073870355720</title>
<g id="a_node2"><a xlink:href="year_of_birth.svg" xlink:title="Variable(year_of_birth)">
<path fill="lightgrey" stroke="black" d="M234,-324C234,-324 114,-324 114,-324 108,-324 102,-318 102,-312 102,-312 102,-300 102,-300 102,-294 108,-288 114,-288 114,-288 234,-288 234,-288 240,-288 246,-294 246,-300 246,-300 246,-312 246,-312 246,-318 240,-324 234,-324"/>
<text text-anchor="middle" x="174" y="-302.3" font-family="Times,serif" font-size="14.00">Variable(year_of_birth)</text>
</a>
</g>
</g>
<!-- 3945345614643599942 -->
<g id="node4" class="node">
<title>3945345614643599942</title>
<path fill="none" stroke="black" d="M168.5,-180C168.5,-180 85.5,-180 85.5,-180 79.5,-180 73.5,-174 73.5,-168 73.5,-168 73.5,-156 73.5,-156 73.5,-150 79.5,-144 85.5,-144 85.5,-144 168.5,-144 168.5,-144 174.5,-144 180.5,-150 180.5,-156 180.5,-156 180.5,-168 180.5,-168 180.5,-174 174.5,-180 168.5,-180"/>
<text text-anchor="middle" x="127" y="-158.3" font-family="Times,serif" font-size="14.00">YearFromDate()</text>
</g>
<!-- 5770331073870355720&#45;&gt;3945345614643599942 -->
<g id="edge5" class="edge">
<title>5770331073870355720&#45;&gt;3945345614643599942</title>
<path fill="none" stroke="black" d="M168.33,-287.87C160.29,-263.56 145.48,-218.82 135.94,-190.01"/>
<polygon fill="black" stroke="black" points="139.15,-188.58 132.69,-180.19 132.51,-190.78 139.15,-188.58"/>
</g>
<!-- 3004785664322435387&#45;&gt;3945345614643599942 -->
<g id="edge2" class="edge">
<title>3004785664322435387&#45;&gt;3945345614643599942</title>
<path fill="none" stroke="black" d="M91.62,-215.7C97.14,-207.47 103.85,-197.48 109.93,-188.42"/>
<polygon fill="black" stroke="black" points="112.85,-190.36 115.52,-180.1 107.04,-186.46 112.85,-190.36"/>
</g>
<!-- 2853636737460278390 -->
<g id="node5" class="node">
<title>2853636737460278390</title>
<path fill="none" stroke="black" d="M203,-108C203,-108 51,-108 51,-108 45,-108 39,-102 39,-96 39,-96 39,-84 39,-84 39,-78 45,-72 51,-72 51,-72 203,-72 203,-72 209,-72 215,-78 215,-84 215,-84 215,-96 215,-96 215,-102 209,-108 203,-108"/>
<text text-anchor="middle" x="127" y="-86.3" font-family="Times,serif" font-size="14.00">SelectColumn(date_of_birth)</text>
</g>
<!-- 3945345614643599942&#45;&gt;2853636737460278390 -->
<g id="edge3" class="edge">
<title>3945345614643599942&#45;&gt;2853636737460278390</title>
<path fill="none" stroke="black" d="M127,-143.7C127,-135.98 127,-126.71 127,-118.11"/>
<polygon fill="black" stroke="black" points="130.5,-118.1 127,-108.1 123.5,-118.1 130.5,-118.1"/>
</g>
<!-- 458439007789237982 -->
<g id="node6" class="node">
<title>458439007789237982</title>
<g id="a_node6"><a xlink:href="patients.svg" xlink:title="SelectPatientTable(patients)">
<path fill="lightgrey" stroke="black" d="M199.5,-36C199.5,-36 54.5,-36 54.5,-36 48.5,-36 42.5,-30 42.5,-24 42.5,-24 42.5,-12 42.5,-12 42.5,-6 48.5,0 54.5,0 54.5,0 199.5,0 199.5,0 205.5,0 211.5,-6 211.5,-12 211.5,-12 211.5,-24 211.5,-24 211.5,-30 205.5,-36 199.5,-36"/>
<text text-anchor="middle" x="127" y="-14.3" font-family="Times,serif" font-size="14.00">SelectPatientTable(patients)</text>
</a>
</g>
</g>
<!-- 2853636737460278390&#45;&gt;458439007789237982 -->
<g id="edge4" class="edge">
<title>2853636737460278390&#45;&gt;458439007789237982</title>
<path fill="none" stroke="black" d="M127,-71.7C127,-63.98 127,-54.71 127,-46.11"/>
<polygon fill="black" stroke="black" points="130.5,-46.1 127,-36.1 123.5,-46.1 130.5,-46.1"/>
</g>
</g>
</svg>
