<?xml version="1.0" encoding="UTF-8" standalone="no"?>
<!DOCTYPE svg PUBLIC "-//W3C//DTD SVG 1.1//EN"
 "http://www.w3.org/Graphics/SVG/1.1/DTD/svg11.dtd">
<!-- Generated by graphviz version 2.43.0 (0)
 -->
<!-- Title: %3 Pages: 1 -->
<svg width="254pt" height="116pt"
 viewBox="0.00 0.00 254.00 116.00" xmlns="http://www.w3.org/2000/svg" xmlns:xlink="http://www.w3.org/1999/xlink">
<g id="graph0" class="graph" transform="scale(1 1) rotate(0) translate(4 112)">
<title>%3</title>
<polygon fill="white" stroke="transparent" points="-4,4 -4,-112 250,-112 250,4 -4,4"/>
<!-- 5770331073870355720 -->
<g id="node1" class="node">
<title>5770331073870355720</title>
<g id="a_node1"><a xlink:href="year_of_birth.svg" xlink:title="Variable(year_of_birth)">
<path fill="lightgrey" stroke="black" d="M132,-108C132,-108 12,-108 12,-108 6,-108 0,-102 0,-96 0,-96 0,-84 0,-84 0,-78 6,-72 12,-72 12,-72 132,-72 132,-72 138,-72 144,-78 144,-84 144,-84 144,-96 144,-96 144,-102 138,-108 132,-108"/>
<text text-anchor="middle" x="72" y="-86.3" font-family="Times,serif" font-size="14.00">Variable(year_of_birth)</text>
</a>
</g>
</g>
<!-- 458439007789237982 -->
<g id="node3" class="node">
<title>458439007789237982</title>
<g id="a_node3"><a xlink:href="patients.svg" xlink:title="SelectPatientTable(patients)">
<path fill="lightgrey" stroke="black" d="M210.5,-36C210.5,-36 65.5,-36 65.5,-36 59.5,-36 53.5,-30 53.5,-24 53.5,-24 53.5,-12 53.5,-12 53.5,-6 59.5,0 65.5,0 65.5,0 210.5,0 210.5,0 216.5,0 222.5,-6 222.5,-12 222.5,-12 222.5,-24 222.5,-24 222.5,-30 216.5,-36 210.5,-36"/>
<text text-anchor="middle" x="138" y="-14.3" font-family="Times,serif" font-size="14.00">SelectPatientTable(patients)</text>
</a>
</g>
</g>
<!-- 5770331073870355720&#45;&gt;458439007789237982 -->
<g id="edge1" class="edge">
<title>5770331073870355720&#45;&gt;458439007789237982</title>
<path fill="none" stroke="black" d="M88.31,-71.7C96.31,-63.22 106.07,-52.86 114.82,-43.58"/>
<polygon fill="black" stroke="black" points="117.56,-45.78 121.87,-36.1 112.47,-40.98 117.56,-45.78"/>
</g>
<!-- 2222967132687204406 -->
<g id="node2" class="node">
<title>2222967132687204406</title>
<g id="a_node2"><a xlink:href="population.svg" xlink:title="Population()">
<path fill="lightgrey" stroke="black" d="M234,-108C234,-108 174,-108 174,-108 168,-108 162,-102 162,-96 162,-96 162,-84 162,-84 162,-78 168,-72 174,-72 174,-72 234,-72 234,-72 240,-72 246,-78 246,-84 246,-84 246,-96 246,-96 246,-102 240,-108 234,-108"/>
<text text-anchor="middle" x="204" y="-86.3" font-family="Times,serif" font-size="14.00">Population()</text>
</a>
</g>
</g>
<!-- 2222967132687204406&#45;&gt;458439007789237982 -->
<g id="edge2" class="edge">
<title>2222967132687204406&#45;&gt;458439007789237982</title>
<path fill="none" stroke="black" d="M187.69,-71.7C179.69,-63.22 169.93,-52.86 161.18,-43.58"/>
<polygon fill="black" stroke="black" points="163.53,-40.98 154.13,-36.1 158.44,-45.78 163.53,-40.98"/>
</g>
</g>
</svg>
