<?xml version="1.0" encoding="UTF-8" standalone="no"?>
<!DOCTYPE svg PUBLIC "-//W3C//DTD SVG 1.1//EN"
 "http://www.w3.org/Graphics/SVG/1.1/DTD/svg11.dtd">
<!-- Generated by graphviz version 2.43.0 (0)
 -->
<!-- Title: %3 Pages: 1 -->
<svg width="254pt" height="260pt"
 viewBox="0.00 0.00 254.00 260.00" xmlns="http://www.w3.org/2000/svg" xmlns:xlink="http://www.w3.org/1999/xlink">
<g id="graph0" class="graph" transform="scale(1 1) rotate(0) translate(4 256)">
<title>%3</title>
<polygon fill="white" stroke="transparent" points="-4,4 -4,-256 250,-256 250,4 -4,4"/>
<!-- 2222967132687204406 -->
<g id="node1" class="node">
<title>2222967132687204406</title>
<g id="a_node1"><a xlink:href="population.svg" xlink:title="Population()">
<path fill="lightgrey" stroke="black" d="M72,-252C72,-252 12,-252 12,-252 6,-252 0,-246 0,-240 0,-240 0,-228 0,-228 0,-222 6,-216 12,-216 12,-216 72,-216 72,-216 78,-216 84,-222 84,-228 84,-228 84,-240 84,-240 84,-246 78,-252 72,-252"/>
<text text-anchor="middle" x="42" y="-230.3" font-family="Times,serif" font-size="14.00">Population()</text>
</a>
</g>
</g>
<!-- 3945345614643599942 -->
<g id="node3" class="node">
<title>3945345614643599942</title>
<path fill="none" stroke="black" d="M149.5,-180C149.5,-180 66.5,-180 66.5,-180 60.5,-180 54.5,-174 54.5,-168 54.5,-168 54.5,-156 54.5,-156 54.5,-150 60.5,-144 66.5,-144 66.5,-144 149.5,-144 149.5,-144 155.5,-144 161.5,-150 161.5,-156 161.5,-156 161.5,-168 161.5,-168 161.5,-174 155.5,-180 149.5,-180"/>
<text text-anchor="middle" x="108" y="-158.3" font-family="Times,serif" font-size="14.00">YearFromDate()</text>
</g>
<!-- 2222967132687204406&#45;&gt;3945345614643599942 -->
<g id="edge1" class="edge">
<title>2222967132687204406&#45;&gt;3945345614643599942</title>
<path fill="none" stroke="lightgrey" d="M58.31,-215.7C66.31,-207.22 76.07,-196.86 84.82,-187.58"/>
<polygon fill="lightgrey" stroke="lightgrey" points="87.56,-189.78 91.87,-180.1 82.47,-184.98 87.56,-189.78"/>
</g>
<!-- 5770331073870355720 -->
<g id="node2" class="node">
<title>5770331073870355720</title>
<g id="a_node2"><a xlink:href="year_of_birth.svg" xlink:title="Variable(year_of_birth)">
<path fill="lightgrey" stroke="black" d="M234,-252C234,-252 114,-252 114,-252 108,-252 102,-246 102,-240 102,-240 102,-228 102,-228 102,-222 108,-216 114,-216 114,-216 234,-216 234,-216 240,-216 246,-222 246,-228 246,-228 246,-240 246,-240 246,-246 240,-252 234,-252"/>
<text text-anchor="middle" x="174" y="-230.3" font-family="Times,serif" font-size="14.00">Variable(year_of_birth)</text>
</a>
</g>
</g>
<!-- 5770331073870355720&#45;&gt;3945345614643599942 -->
<g id="edge4" class="edge">
<title>5770331073870355720&#45;&gt;3945345614643599942</title>
<path fill="none" stroke="black" d="M157.69,-215.7C149.69,-207.22 139.93,-196.86 131.18,-187.58"/>
<polygon fill="black" stroke="black" points="133.53,-184.98 124.13,-180.1 128.44,-189.78 133.53,-184.98"/>
</g>
<!-- 2853636737460278390 -->
<g id="node4" class="node">
<title>2853636737460278390</title>
<path fill="none" stroke="black" d="M184,-108C184,-108 32,-108 32,-108 26,-108 20,-102 20,-96 20,-96 20,-84 20,-84 20,-78 26,-72 32,-72 32,-72 184,-72 184,-72 190,-72 196,-78 196,-84 196,-84 196,-96 196,-96 196,-102 190,-108 184,-108"/>
<text text-anchor="middle" x="108" y="-86.3" font-family="Times,serif" font-size="14.00">SelectColumn(date_of_birth)</text>
</g>
<!-- 3945345614643599942&#45;&gt;2853636737460278390 -->
<g id="edge2" class="edge">
<title>3945345614643599942&#45;&gt;2853636737460278390</title>
<path fill="none" stroke="black" d="M108,-143.7C108,-135.98 108,-126.71 108,-118.11"/>
<polygon fill="black" stroke="black" points="111.5,-118.1 108,-108.1 104.5,-118.1 111.5,-118.1"/>
</g>
<!-- 458439007789237982 -->
<g id="node5" class="node">
<title>458439007789237982</title>
<g id="a_node5"><a xlink:href="patients.svg" xlink:title="SelectPatientTable(patients)">
<path fill="lightgrey" stroke="black" d="M180.5,-36C180.5,-36 35.5,-36 35.5,-36 29.5,-36 23.5,-30 23.5,-24 23.5,-24 23.5,-12 23.5,-12 23.5,-6 29.5,0 35.5,0 35.5,0 180.5,0 180.5,0 186.5,0 192.5,-6 192.5,-12 192.5,-12 192.5,-24 192.5,-24 192.5,-30 186.5,-36 180.5,-36"/>
<text text-anchor="middle" x="108" y="-14.3" font-family="Times,serif" font-size="14.00">SelectPatientTable(patients)</text>
</a>
</g>
</g>
<!-- 2853636737460278390&#45;&gt;458439007789237982 -->
<g id="edge3" class="edge">
<title>2853636737460278390&#45;&gt;458439007789237982</title>
<path fill="none" stroke="black" d="M108,-71.7C108,-63.98 108,-54.71 108,-46.11"/>
<polygon fill="black" stroke="black" points="111.5,-46.1 108,-36.1 104.5,-46.1 111.5,-46.1"/>
</g>
</g>
</svg>
