<?xml version="1.0" encoding="UTF-8" standalone="no"?>
<!DOCTYPE svg PUBLIC "-//W3C//DTD SVG 1.1//EN"
 "http://www.w3.org/Graphics/SVG/1.1/DTD/svg11.dtd">
<!-- Generated by graphviz version 2.43.0 (0)
 -->
<!-- Title: %3 Pages: 1 -->
<svg width="593pt" height="260pt"
 viewBox="0.00 0.00 592.50 260.00" xmlns="http://www.w3.org/2000/svg" xmlns:xlink="http://www.w3.org/1999/xlink">
<g id="graph0" class="graph" transform="scale(1 1) rotate(0) translate(4 256)">
<title>%3</title>
<polygon fill="white" stroke="transparent" points="-4,4 -4,-256 588.5,-256 588.5,4 -4,4"/>
<!-- 8246584443075253643 -->
<g id="node1" class="node">
<title>8246584443075253643</title>
<g id="a_node1"><a xlink:href="age_august2021.svg" xlink:title="Variable(age_august2021)">
<path fill="lightgrey" stroke="black" d="M248,-252C248,-252 114,-252 114,-252 108,-252 102,-246 102,-240 102,-240 102,-228 102,-228 102,-222 108,-216 114,-216 114,-216 248,-216 248,-216 254,-216 260,-222 260,-228 260,-228 260,-240 260,-240 260,-246 254,-252 248,-252"/>
<text text-anchor="middle" x="181" y="-230.3" font-family="Times,serif" font-size="14.00">Variable(age_august2021)</text>
</a>
</g>
</g>
<!-- 9023000724029891881 -->
<g id="node6" class="node">
<title>9023000724029891881</title>
<path fill="none" stroke="black" d="M244.5,-180C244.5,-180 117.5,-180 117.5,-180 111.5,-180 105.5,-174 105.5,-168 105.5,-168 105.5,-156 105.5,-156 105.5,-150 111.5,-144 117.5,-144 117.5,-144 244.5,-144 244.5,-144 250.5,-144 256.5,-150 256.5,-156 256.5,-156 256.5,-168 256.5,-168 256.5,-174 250.5,-180 244.5,-180"/>
<text text-anchor="middle" x="181" y="-158.3" font-family="Times,serif" font-size="14.00">DateDifferenceInYears()</text>
</g>
<!-- 8246584443075253643&#45;&gt;9023000724029891881 -->
<g id="edge1" class="edge">
<title>8246584443075253643&#45;&gt;9023000724029891881</title>
<path fill="none" stroke="black" d="M181,-215.7C181,-207.98 181,-198.71 181,-190.11"/>
<polygon fill="black" stroke="black" points="184.5,-190.1 181,-180.1 177.5,-190.1 184.5,-190.1"/>
</g>
<!-- 3893726134244767521 -->
<g id="node2" class="node">
<title>3893726134244767521</title>
<g id="a_node2"><a xlink:href="sex.svg" xlink:title="Variable(sex)">
<path fill="lightgrey" stroke="black" d="M572.5,-252C572.5,-252 507.5,-252 507.5,-252 501.5,-252 495.5,-246 495.5,-240 495.5,-240 495.5,-228 495.5,-228 495.5,-222 501.5,-216 507.5,-216 507.5,-216 572.5,-216 572.5,-216 578.5,-216 584.5,-222 584.5,-228 584.5,-228 584.5,-240 584.5,-240 584.5,-246 578.5,-252 572.5,-252"/>
<text text-anchor="middle" x="540" y="-230.3" font-family="Times,serif" font-size="14.00">Variable(sex)</text>
</a>
</g>
</g>
<!-- 4269434575030179451 -->
<g id="node9" class="node">
<title>4269434575030179451</title>
<path fill="lightgrey" stroke="black" d="M535.5,-36C535.5,-36 390.5,-36 390.5,-36 384.5,-36 378.5,-30 378.5,-24 378.5,-24 378.5,-12 378.5,-12 378.5,-6 384.5,0 390.5,0 390.5,0 535.5,0 535.5,0 541.5,0 547.5,-6 547.5,-12 547.5,-12 547.5,-24 547.5,-24 547.5,-30 541.5,-36 535.5,-36"/>
<text text-anchor="middle" x="463" y="-14.3" font-family="Times,serif" font-size="14.00">SelectPatientTable(patients)</text>
</g>
<!-- 3893726134244767521&#45;&gt;4269434575030179451 -->
<g id="edge5" class="edge">
<title>3893726134244767521&#45;&gt;4269434575030179451</title>
<path fill="none" stroke="lightgrey" d="M533.96,-215.57C523.68,-185.98 502.04,-124.08 483,-72 479.84,-63.37 476.33,-53.98 473.13,-45.53"/>
<polygon fill="lightgrey" stroke="lightgrey" points="476.4,-44.26 469.57,-36.15 469.85,-46.74 476.4,-44.26"/>
</g>
<!-- 2854687987532492382 -->
<g id="node3" class="node">
<title>2854687987532492382</title>
<g id="a_node3"><a xlink:href="population.svg" xlink:title="Population()">
<path fill="lightgrey" stroke="black" d="M72,-252C72,-252 12,-252 12,-252 6,-252 0,-246 0,-240 0,-240 0,-228 0,-228 0,-222 6,-216 12,-216 12,-216 72,-216 72,-216 78,-216 84,-222 84,-228 84,-228 84,-240 84,-240 84,-246 78,-252 72,-252"/>
<text text-anchor="middle" x="42" y="-230.3" font-family="Times,serif" font-size="14.00">Population()</text>
</a>
</g>
</g>
<!-- 2854687987532492382&#45;&gt;9023000724029891881 -->
<g id="edge6" class="edge">
<title>2854687987532492382&#45;&gt;9023000724029891881</title>
<path fill="none" stroke="lightgrey" d="M76,-215.88C94.6,-206.51 117.83,-194.81 137.71,-184.8"/>
<polygon fill="lightgrey" stroke="lightgrey" points="139.51,-187.81 146.87,-180.19 136.36,-181.56 139.51,-187.81"/>
</g>
<!-- 1204418980975433034 -->
<g id="node4" class="node">
<title>1204418980975433034</title>
<g id="a_node4"><a xlink:href="age.svg" xlink:title="Variable(age)">
<path fill="lightgrey" stroke="black" d="M465.5,-252C465.5,-252 400.5,-252 400.5,-252 394.5,-252 388.5,-246 388.5,-240 388.5,-240 388.5,-228 388.5,-228 388.5,-222 394.5,-216 400.5,-216 400.5,-216 465.5,-216 465.5,-216 471.5,-216 477.5,-222 477.5,-228 477.5,-228 477.5,-240 477.5,-240 477.5,-246 471.5,-252 465.5,-252"/>
<text text-anchor="middle" x="433" y="-230.3" font-family="Times,serif" font-size="14.00">Variable(age)</text>
</a>
</g>
</g>
<!-- 2846282322298447408 -->
<g id="node7" class="node">
<title>2846282322298447408</title>
<path fill="none" stroke="black" d="M462,-108C462,-108 310,-108 310,-108 304,-108 298,-102 298,-96 298,-96 298,-84 298,-84 298,-78 304,-72 310,-72 310,-72 462,-72 462,-72 468,-72 474,-78 474,-84 474,-84 474,-96 474,-96 474,-102 468,-108 462,-108"/>
<text text-anchor="middle" x="386" y="-86.3" font-family="Times,serif" font-size="14.00">SelectColumn(date_of_birth)</text>
</g>
<!-- 1204418980975433034&#45;&gt;2846282322298447408 -->
<g id="edge7" class="edge">
<title>1204418980975433034&#45;&gt;2846282322298447408</title>
<path fill="none" stroke="lightgrey" d="M427.33,-215.87C419.29,-191.56 404.48,-146.82 394.94,-118.01"/>
<polygon fill="lightgrey" stroke="lightgrey" points="398.15,-116.58 391.69,-108.19 391.51,-118.78 398.15,-116.58"/>
</g>
<!-- 4443043171866605585 -->
<g id="node5" class="node">
<title>4443043171866605585</title>
<g id="a_node5"><a xlink:href="bmi.svg" xlink:title="Variable(bmi)">
<path fill="lightgrey" stroke="black" d="M358,-252C358,-252 290,-252 290,-252 284,-252 278,-246 278,-240 278,-240 278,-228 278,-228 278,-222 284,-216 290,-216 290,-216 358,-216 358,-216 364,-216 370,-222 370,-228 370,-228 370,-240 370,-240 370,-246 364,-252 358,-252"/>
<text text-anchor="middle" x="324" y="-230.3" font-family="Times,serif" font-size="14.00">Variable(bmi)</text>
</a>
</g>
</g>
<!-- 4443043171866605585&#45;&gt;2846282322298447408 -->
<g id="edge8" class="edge">
<title>4443043171866605585&#45;&gt;2846282322298447408</title>
<path fill="none" stroke="lightgrey" d="M331.48,-215.87C342.14,-191.46 361.8,-146.43 374.37,-117.64"/>
<polygon fill="lightgrey" stroke="lightgrey" points="377.7,-118.75 378.49,-108.19 371.29,-115.95 377.7,-118.75"/>
</g>
<!-- 9023000724029891881&#45;&gt;2846282322298447408 -->
<g id="edge2" class="edge">
<title>9023000724029891881&#45;&gt;2846282322298447408</title>
<path fill="none" stroke="black" d="M230.89,-143.97C259.65,-134.14 296.01,-121.73 326.29,-111.39"/>
<polygon fill="black" stroke="black" points="327.56,-114.65 335.89,-108.11 325.3,-108.03 327.56,-114.65"/>
</g>
<!-- 104228675782178272 -->
<g id="node8" class="node">
<title>104228675782178272</title>
<path fill="none" stroke="black" d="M228.5,-108C228.5,-108 133.5,-108 133.5,-108 127.5,-108 121.5,-102 121.5,-96 121.5,-96 121.5,-84 121.5,-84 121.5,-78 127.5,-72 133.5,-72 133.5,-72 228.5,-72 228.5,-72 234.5,-72 240.5,-78 240.5,-84 240.5,-84 240.5,-96 240.5,-96 240.5,-102 234.5,-108 228.5,-108"/>
<text text-anchor="middle" x="181" y="-86.3" font-family="Times,serif" font-size="14.00">Value(2020&#45;08&#45;31)</text>
</g>
<!-- 9023000724029891881&#45;&gt;104228675782178272 -->
<g id="edge3" class="edge">
<title>9023000724029891881&#45;&gt;104228675782178272</title>
<path fill="none" stroke="black" d="M181,-143.7C181,-135.98 181,-126.71 181,-118.11"/>
<polygon fill="black" stroke="black" points="184.5,-118.1 181,-108.1 177.5,-118.1 184.5,-118.1"/>
</g>
<!-- 2846282322298447408&#45;&gt;4269434575030179451 -->
<g id="edge4" class="edge">
<title>2846282322298447408&#45;&gt;4269434575030179451</title>
<path fill="none" stroke="black" d="M405.03,-71.7C414.54,-63.05 426.21,-52.45 436.57,-43.03"/>
<polygon fill="black" stroke="black" points="439.14,-45.42 444.19,-36.1 434.43,-40.24 439.14,-45.42"/>
</g>
</g>
</svg>
