<?xml version="1.0" encoding="UTF-8" standalone="no"?>
<!DOCTYPE svg PUBLIC "-//W3C//DTD SVG 1.1//EN"
 "http://www.w3.org/Graphics/SVG/1.1/DTD/svg11.dtd">
<!-- Generated by graphviz version 2.43.0 (0)
 -->
<!-- Title: %3 Pages: 1 -->
<svg width="3792pt" height="1484pt"
 viewBox="0.00 0.00 3791.50 1484.00" xmlns="http://www.w3.org/2000/svg" xmlns:xlink="http://www.w3.org/1999/xlink">
<g id="graph0" class="graph" transform="scale(1 1) rotate(0) translate(4 1480)">
<title>%3</title>
<polygon fill="white" stroke="transparent" points="-4,4 -4,-1480 3787.5,-1480 3787.5,4 -4,4"/>
<!-- 6053892981929761181 -->
<g id="node1" class="node">
<title>6053892981929761181</title>
<g id="a_node1"><a xlink:href="coviddeath_date.svg" xlink:title="Variable(coviddeath_date)">
<path fill="lightgrey" stroke="black" d="M3480,-1476C3480,-1476 3345,-1476 3345,-1476 3339,-1476 3333,-1470 3333,-1464 3333,-1464 3333,-1452 3333,-1452 3333,-1446 3339,-1440 3345,-1440 3345,-1440 3480,-1440 3480,-1440 3486,-1440 3492,-1446 3492,-1452 3492,-1452 3492,-1464 3492,-1464 3492,-1470 3486,-1476 3480,-1476"/>
<text text-anchor="middle" x="3412.5" y="-1454.3" font-family="Times,serif" font-size="14.00">Variable(coviddeath_date)</text>
</a>
</g>
</g>
<!-- 6833989018268999817 -->
<g id="node29" class="node">
<title>6833989018268999817</title>
<path fill="none" stroke="black" d="M3427.5,-1404C3427.5,-1404 3397.5,-1404 3397.5,-1404 3391.5,-1404 3385.5,-1398 3385.5,-1392 3385.5,-1392 3385.5,-1380 3385.5,-1380 3385.5,-1374 3391.5,-1368 3397.5,-1368 3397.5,-1368 3427.5,-1368 3427.5,-1368 3433.5,-1368 3439.5,-1374 3439.5,-1380 3439.5,-1380 3439.5,-1392 3439.5,-1392 3439.5,-1398 3433.5,-1404 3427.5,-1404"/>
<text text-anchor="middle" x="3412.5" y="-1382.3" font-family="Times,serif" font-size="14.00">Max()</text>
</g>
<!-- 6053892981929761181&#45;&gt;6833989018268999817 -->
<g id="edge61" class="edge">
<title>6053892981929761181&#45;&gt;6833989018268999817</title>
<path fill="none" stroke="black" d="M3412.5,-1439.7C3412.5,-1431.98 3412.5,-1422.71 3412.5,-1414.11"/>
<polygon fill="black" stroke="black" points="3416,-1414.1 3412.5,-1404.1 3409,-1414.1 3416,-1414.1"/>
</g>
<!-- 3996360175836647291 -->
<g id="node2" class="node">
<title>3996360175836647291</title>
<g id="a_node2"><a xlink:href="death_date.svg" xlink:title="Variable(death_date)">
<path fill="lightgrey" stroke="black" d="M3669,-1476C3669,-1476 3564,-1476 3564,-1476 3558,-1476 3552,-1470 3552,-1464 3552,-1464 3552,-1452 3552,-1452 3552,-1446 3558,-1440 3564,-1440 3564,-1440 3669,-1440 3669,-1440 3675,-1440 3681,-1446 3681,-1452 3681,-1452 3681,-1464 3681,-1464 3681,-1470 3675,-1476 3669,-1476"/>
<text text-anchor="middle" x="3616.5" y="-1454.3" font-family="Times,serif" font-size="14.00">Variable(death_date)</text>
</a>
</g>
</g>
<!-- 4302003814488648782 -->
<g id="node52" class="node">
<title>4302003814488648782</title>
<path fill="lightgrey" stroke="black" d="M2271,-36C2271,-36 2146,-36 2146,-36 2140,-36 2134,-30 2134,-24 2134,-24 2134,-12 2134,-12 2134,-6 2140,0 2146,0 2146,0 2271,0 2271,0 2277,0 2283,-6 2283,-12 2283,-12 2283,-24 2283,-24 2283,-30 2277,-36 2271,-36"/>
<text text-anchor="middle" x="2208.5" y="-14.3" font-family="Times,serif" font-size="14.00">SelectTable(ons_deaths)</text>
</g>
<!-- 3996360175836647291&#45;&gt;4302003814488648782 -->
<g id="edge79" class="edge">
<title>3996360175836647291&#45;&gt;4302003814488648782</title>
<path fill="none" stroke="lightgrey" d="M3616.5,-1439.95C3616.5,-1413.29 3616.5,-1360.11 3616.5,-1315 3616.5,-1315 3616.5,-1315 3616.5,-161 3616.5,-118.81 3617.66,-96.76 3583.5,-72 3531.17,-34.07 2584.51,-22.39 2293.13,-19.69"/>
<polygon fill="lightgrey" stroke="lightgrey" points="2293.08,-16.19 2283.05,-19.6 2293.01,-23.19 2293.08,-16.19"/>
</g>
<!-- 2854687987532492382 -->
<g id="node3" class="node">
<title>2854687987532492382</title>
<g id="a_node3"><a xlink:href="population.svg" xlink:title="Population()">
<path fill="lightgrey" stroke="black" d="M3771.5,-1476C3771.5,-1476 3711.5,-1476 3711.5,-1476 3705.5,-1476 3699.5,-1470 3699.5,-1464 3699.5,-1464 3699.5,-1452 3699.5,-1452 3699.5,-1446 3705.5,-1440 3711.5,-1440 3711.5,-1440 3771.5,-1440 3771.5,-1440 3777.5,-1440 3783.5,-1446 3783.5,-1452 3783.5,-1452 3783.5,-1464 3783.5,-1464 3783.5,-1470 3777.5,-1476 3771.5,-1476"/>
<text text-anchor="middle" x="3741.5" y="-1454.3" font-family="Times,serif" font-size="14.00">Population()</text>
</a>
</g>
</g>
<!-- 2854687987532492382&#45;&gt;4302003814488648782 -->
<g id="edge80" class="edge">
<title>2854687987532492382&#45;&gt;4302003814488648782</title>
<path fill="none" stroke="lightgrey" d="M3741.5,-1439.95C3741.5,-1413.29 3741.5,-1360.11 3741.5,-1315 3741.5,-1315 3741.5,-1315 3741.5,-161 3741.5,-91.35 3678.6,-93.97 3612.5,-72 3487.81,-30.57 2578.45,-21.33 2293.59,-19.45"/>
<polygon fill="lightgrey" stroke="lightgrey" points="2293.34,-15.95 2283.31,-19.38 2293.29,-22.95 2293.34,-15.95"/>
</g>
<!-- 5783553760321246819 -->
<g id="node4" class="node">
<title>5783553760321246819</title>
<path fill="none" stroke="black" d="M1934.5,-324C1934.5,-324 1904.5,-324 1904.5,-324 1898.5,-324 1892.5,-318 1892.5,-312 1892.5,-312 1892.5,-300 1892.5,-300 1892.5,-294 1898.5,-288 1904.5,-288 1904.5,-288 1934.5,-288 1934.5,-288 1940.5,-288 1946.5,-294 1946.5,-300 1946.5,-300 1946.5,-312 1946.5,-312 1946.5,-318 1940.5,-324 1934.5,-324"/>
<text text-anchor="middle" x="1919.5" y="-302.3" font-family="Times,serif" font-size="14.00">Or()</text>
</g>
<!-- 3368789722248875906 -->
<g id="node24" class="node">
<title>3368789722248875906</title>
<path fill="none" stroke="black" d="M1974.5,-180C1974.5,-180 1944.5,-180 1944.5,-180 1938.5,-180 1932.5,-174 1932.5,-168 1932.5,-168 1932.5,-156 1932.5,-156 1932.5,-150 1938.5,-144 1944.5,-144 1944.5,-144 1974.5,-144 1974.5,-144 1980.5,-144 1986.5,-150 1986.5,-156 1986.5,-156 1986.5,-168 1986.5,-168 1986.5,-174 1980.5,-180 1974.5,-180"/>
<text text-anchor="middle" x="1959.5" y="-158.3" font-family="Times,serif" font-size="14.00">In()</text>
</g>
<!-- 5783553760321246819&#45;&gt;3368789722248875906 -->
<g id="edge2" class="edge">
<title>5783553760321246819&#45;&gt;3368789722248875906</title>
<path fill="none" stroke="black" d="M1924.32,-287.87C1931.17,-263.56 1943.78,-218.82 1951.89,-190.01"/>
<polygon fill="black" stroke="black" points="1955.32,-190.76 1954.66,-180.19 1948.58,-188.87 1955.32,-190.76"/>
</g>
<!-- 3130597933434866110 -->
<g id="node44" class="node">
<title>3130597933434866110</title>
<path fill="none" stroke="black" d="M1902.5,-252C1902.5,-252 1872.5,-252 1872.5,-252 1866.5,-252 1860.5,-246 1860.5,-240 1860.5,-240 1860.5,-228 1860.5,-228 1860.5,-222 1866.5,-216 1872.5,-216 1872.5,-216 1902.5,-216 1902.5,-216 1908.5,-216 1914.5,-222 1914.5,-228 1914.5,-228 1914.5,-240 1914.5,-240 1914.5,-246 1908.5,-252 1902.5,-252"/>
<text text-anchor="middle" x="1887.5" y="-230.3" font-family="Times,serif" font-size="14.00">Or()</text>
</g>
<!-- 5783553760321246819&#45;&gt;3130597933434866110 -->
<g id="edge1" class="edge">
<title>5783553760321246819&#45;&gt;3130597933434866110</title>
<path fill="none" stroke="black" d="M1911.59,-287.7C1907.95,-279.73 1903.55,-270.1 1899.51,-261.26"/>
<polygon fill="black" stroke="black" points="1902.66,-259.74 1895.32,-252.1 1896.29,-262.65 1902.66,-259.74"/>
</g>
<!-- 2219790113938973039 -->
<g id="node5" class="node">
<title>2219790113938973039</title>
<path fill="none" stroke="black" d="M2013.5,-468C2013.5,-468 1983.5,-468 1983.5,-468 1977.5,-468 1971.5,-462 1971.5,-456 1971.5,-456 1971.5,-444 1971.5,-444 1971.5,-438 1977.5,-432 1983.5,-432 1983.5,-432 2013.5,-432 2013.5,-432 2019.5,-432 2025.5,-438 2025.5,-444 2025.5,-444 2025.5,-456 2025.5,-456 2025.5,-462 2019.5,-468 2013.5,-468"/>
<text text-anchor="middle" x="1998.5" y="-446.3" font-family="Times,serif" font-size="14.00">Or()</text>
</g>
<!-- 5695113489011505031 -->
<g id="node43" class="node">
<title>5695113489011505031</title>
<path fill="none" stroke="black" d="M2046.5,-180C2046.5,-180 2016.5,-180 2016.5,-180 2010.5,-180 2004.5,-174 2004.5,-168 2004.5,-168 2004.5,-156 2004.5,-156 2004.5,-150 2010.5,-144 2016.5,-144 2016.5,-144 2046.5,-144 2046.5,-144 2052.5,-144 2058.5,-150 2058.5,-156 2058.5,-156 2058.5,-168 2058.5,-168 2058.5,-174 2052.5,-180 2046.5,-180"/>
<text text-anchor="middle" x="2031.5" y="-158.3" font-family="Times,serif" font-size="14.00">In()</text>
</g>
<!-- 2219790113938973039&#45;&gt;5695113489011505031 -->
<g id="edge4" class="edge">
<title>2219790113938973039&#45;&gt;5695113489011505031</title>
<path fill="none" stroke="black" d="M2000.47,-431.97C2005.98,-384.19 2021.62,-248.62 2028.35,-190.27"/>
<polygon fill="black" stroke="black" points="2031.83,-190.64 2029.5,-180.31 2024.88,-189.84 2031.83,-190.64"/>
</g>
<!-- 3677201980262204616 -->
<g id="node50" class="node">
<title>3677201980262204616</title>
<path fill="none" stroke="black" d="M1934.5,-396C1934.5,-396 1904.5,-396 1904.5,-396 1898.5,-396 1892.5,-390 1892.5,-384 1892.5,-384 1892.5,-372 1892.5,-372 1892.5,-366 1898.5,-360 1904.5,-360 1904.5,-360 1934.5,-360 1934.5,-360 1940.5,-360 1946.5,-366 1946.5,-372 1946.5,-372 1946.5,-384 1946.5,-384 1946.5,-390 1940.5,-396 1934.5,-396"/>
<text text-anchor="middle" x="1919.5" y="-374.3" font-family="Times,serif" font-size="14.00">Or()</text>
</g>
<!-- 2219790113938973039&#45;&gt;3677201980262204616 -->
<g id="edge3" class="edge">
<title>2219790113938973039&#45;&gt;3677201980262204616</title>
<path fill="none" stroke="black" d="M1978.97,-431.7C1969.12,-422.97 1957.01,-412.24 1946.3,-402.75"/>
<polygon fill="black" stroke="black" points="1948.61,-400.12 1938.8,-396.1 1943.97,-405.36 1948.61,-400.12"/>
</g>
<!-- 2302033295786081028 -->
<g id="node6" class="node">
<title>2302033295786081028</title>
<path fill="none" stroke="black" d="M1398.5,-180C1398.5,-180 1368.5,-180 1368.5,-180 1362.5,-180 1356.5,-174 1356.5,-168 1356.5,-168 1356.5,-156 1356.5,-156 1356.5,-150 1362.5,-144 1368.5,-144 1368.5,-144 1398.5,-144 1398.5,-144 1404.5,-144 1410.5,-150 1410.5,-156 1410.5,-156 1410.5,-168 1410.5,-168 1410.5,-174 1404.5,-180 1398.5,-180"/>
<text text-anchor="middle" x="1383.5" y="-158.3" font-family="Times,serif" font-size="14.00">In()</text>
</g>
<!-- 904984070174503611 -->
<g id="node14" class="node">
<title>904984070174503611</title>
<path fill="none" stroke="black" d="M195,-108C195,-108 12,-108 12,-108 6,-108 0,-102 0,-96 0,-96 0,-84 0,-84 0,-78 6,-72 12,-72 12,-72 195,-72 195,-72 201,-72 207,-78 207,-84 207,-84 207,-96 207,-96 207,-102 201,-108 195,-108"/>
<text text-anchor="middle" x="103.5" y="-86.3" font-family="Times,serif" font-size="14.00">SelectColumn(cause_of_death_12)</text>
</g>
<!-- 2302033295786081028&#45;&gt;904984070174503611 -->
<g id="edge5" class="edge">
<title>2302033295786081028&#45;&gt;904984070174503611</title>
<path fill="none" stroke="black" d="M1356.26,-160.82C1228.77,-159.77 678.18,-152.79 217.37,-108.13"/>
<polygon fill="black" stroke="black" points="217.48,-104.62 207.19,-107.13 216.8,-111.59 217.48,-104.62"/>
</g>
<!-- 7988303784266193488 -->
<g id="node34" class="node">
<title>7988303784266193488</title>
<path fill="none" stroke="black" d="M1962.5,-108C1962.5,-108 1812.5,-108 1812.5,-108 1806.5,-108 1800.5,-102 1800.5,-96 1800.5,-96 1800.5,-84 1800.5,-84 1800.5,-78 1806.5,-72 1812.5,-72 1812.5,-72 1962.5,-72 1962.5,-72 1968.5,-72 1974.5,-78 1974.5,-84 1974.5,-84 1974.5,-96 1974.5,-96 1974.5,-102 1968.5,-108 1962.5,-108"/>
<text text-anchor="middle" x="1887.5" y="-86.3" font-family="Times,serif" font-size="14.00">Value(frozenset({ICD10C...)</text>
</g>
<!-- 2302033295786081028&#45;&gt;7988303784266193488 -->
<g id="edge6" class="edge">
<title>2302033295786081028&#45;&gt;7988303784266193488</title>
<path fill="none" stroke="black" d="M1410.64,-147C1413.58,-145.84 1416.57,-144.81 1419.5,-144 1576.09,-100.84 1624.46,-129.16 1790.25,-107.94"/>
<polygon fill="black" stroke="black" points="1790.84,-111.39 1800.3,-106.61 1789.93,-104.45 1790.84,-111.39"/>
</g>
<!-- 3276073883975210896 -->
<g id="node7" class="node">
<title>3276073883975210896</title>
<path fill="none" stroke="black" d="M1470.5,-180C1470.5,-180 1440.5,-180 1440.5,-180 1434.5,-180 1428.5,-174 1428.5,-168 1428.5,-168 1428.5,-156 1428.5,-156 1428.5,-150 1434.5,-144 1440.5,-144 1440.5,-144 1470.5,-144 1470.5,-144 1476.5,-144 1482.5,-150 1482.5,-156 1482.5,-156 1482.5,-168 1482.5,-168 1482.5,-174 1476.5,-180 1470.5,-180"/>
<text text-anchor="middle" x="1455.5" y="-158.3" font-family="Times,serif" font-size="14.00">In()</text>
</g>
<!-- 4614194594567192470 -->
<g id="node16" class="node">
<title>4614194594567192470</title>
<path fill="none" stroke="black" d="M420,-108C420,-108 237,-108 237,-108 231,-108 225,-102 225,-96 225,-96 225,-84 225,-84 225,-78 231,-72 237,-72 237,-72 420,-72 420,-72 426,-72 432,-78 432,-84 432,-84 432,-96 432,-96 432,-102 426,-108 420,-108"/>
<text text-anchor="middle" x="328.5" y="-86.3" font-family="Times,serif" font-size="14.00">SelectColumn(cause_of_death_11)</text>
</g>
<!-- 3276073883975210896&#45;&gt;4614194594567192470 -->
<g id="edge7" class="edge">
<title>3276073883975210896&#45;&gt;4614194594567192470</title>
<path fill="none" stroke="black" d="M1428.4,-146.81C1425.46,-145.69 1422.45,-144.72 1419.5,-144 1211.08,-93.22 673.31,-127.34 442.28,-108.06"/>
<polygon fill="black" stroke="black" points="442.45,-104.56 432.18,-107.16 441.83,-111.53 442.45,-104.56"/>
</g>
<!-- 3276073883975210896&#45;&gt;7988303784266193488 -->
<g id="edge8" class="edge">
<title>3276073883975210896&#45;&gt;7988303784266193488</title>
<path fill="none" stroke="black" d="M1482.66,-147.07C1485.6,-145.9 1488.58,-144.84 1491.5,-144 1616.98,-107.85 1656.18,-126.59 1790.05,-107.98"/>
<polygon fill="black" stroke="black" points="1790.89,-111.4 1800.29,-106.51 1789.89,-104.47 1790.89,-111.4"/>
</g>
<!-- 8413680730354321449 -->
<g id="node8" class="node">
<title>8413680730354321449</title>
<path fill="none" stroke="black" d="M2190.5,-180C2190.5,-180 2160.5,-180 2160.5,-180 2154.5,-180 2148.5,-174 2148.5,-168 2148.5,-168 2148.5,-156 2148.5,-156 2148.5,-150 2154.5,-144 2160.5,-144 2160.5,-144 2190.5,-144 2190.5,-144 2196.5,-144 2202.5,-150 2202.5,-156 2202.5,-156 2202.5,-168 2202.5,-168 2202.5,-174 2196.5,-180 2190.5,-180"/>
<text text-anchor="middle" x="2175.5" y="-158.3" font-family="Times,serif" font-size="14.00">In()</text>
</g>
<!-- 2614332915512331978 -->
<g id="node33" class="node">
<title>2614332915512331978</title>
<path fill="none" stroke="black" d="M2863,-108C2863,-108 2680,-108 2680,-108 2674,-108 2668,-102 2668,-96 2668,-96 2668,-84 2668,-84 2668,-78 2674,-72 2680,-72 2680,-72 2863,-72 2863,-72 2869,-72 2875,-78 2875,-84 2875,-84 2875,-96 2875,-96 2875,-102 2869,-108 2863,-108"/>
<text text-anchor="middle" x="2771.5" y="-86.3" font-family="Times,serif" font-size="14.00">SelectColumn(cause_of_death_08)</text>
</g>
<!-- 8413680730354321449&#45;&gt;2614332915512331978 -->
<g id="edge9" class="edge">
<title>8413680730354321449&#45;&gt;2614332915512331978</title>
<path fill="none" stroke="black" d="M2202.51,-158.42C2274.58,-151.45 2477.61,-131.29 2657.84,-108.06"/>
<polygon fill="black" stroke="black" points="2658.3,-111.53 2667.77,-106.77 2657.4,-104.58 2658.3,-111.53"/>
</g>
<!-- 8413680730354321449&#45;&gt;7988303784266193488 -->
<g id="edge10" class="edge">
<title>8413680730354321449&#45;&gt;7988303784266193488</title>
<path fill="none" stroke="black" d="M2148.26,-147.33C2145.34,-146.11 2142.38,-144.97 2139.5,-144 2111.01,-134.42 2042.92,-120.28 1984.69,-109.02"/>
<polygon fill="black" stroke="black" points="1985.17,-105.55 1974.69,-107.09 1983.85,-112.42 1985.17,-105.55"/>
</g>
<!-- 1867876203223978848 -->
<g id="node9" class="node">
<title>1867876203223978848</title>
<path fill="none" stroke="black" d="M1506.5,-972C1506.5,-972 1476.5,-972 1476.5,-972 1470.5,-972 1464.5,-966 1464.5,-960 1464.5,-960 1464.5,-948 1464.5,-948 1464.5,-942 1470.5,-936 1476.5,-936 1476.5,-936 1506.5,-936 1506.5,-936 1512.5,-936 1518.5,-942 1518.5,-948 1518.5,-948 1518.5,-960 1518.5,-960 1518.5,-966 1512.5,-972 1506.5,-972"/>
<text text-anchor="middle" x="1491.5" y="-950.3" font-family="Times,serif" font-size="14.00">Or()</text>
</g>
<!-- 1867876203223978848&#45;&gt;2302033295786081028 -->
<g id="edge12" class="edge">
<title>1867876203223978848&#45;&gt;2302033295786081028</title>
<path fill="none" stroke="black" d="M1473.08,-935.64C1448.63,-910.62 1408.5,-861.83 1408.5,-811 1408.5,-811 1408.5,-811 1408.5,-305 1408.5,-264.6 1398.56,-218.71 1391.22,-190.3"/>
<polygon fill="black" stroke="black" points="1394.52,-189.08 1388.56,-180.32 1387.75,-190.88 1394.52,-189.08"/>
</g>
<!-- 2109201246090540905 -->
<g id="node18" class="node">
<title>2109201246090540905</title>
<path fill="none" stroke="black" d="M1506.5,-900C1506.5,-900 1476.5,-900 1476.5,-900 1470.5,-900 1464.5,-894 1464.5,-888 1464.5,-888 1464.5,-876 1464.5,-876 1464.5,-870 1470.5,-864 1476.5,-864 1476.5,-864 1506.5,-864 1506.5,-864 1512.5,-864 1518.5,-870 1518.5,-876 1518.5,-876 1518.5,-888 1518.5,-888 1518.5,-894 1512.5,-900 1506.5,-900"/>
<text text-anchor="middle" x="1491.5" y="-878.3" font-family="Times,serif" font-size="14.00">Or()</text>
</g>
<!-- 1867876203223978848&#45;&gt;2109201246090540905 -->
<g id="edge11" class="edge">
<title>1867876203223978848&#45;&gt;2109201246090540905</title>
<path fill="none" stroke="black" d="M1491.5,-935.7C1491.5,-927.98 1491.5,-918.71 1491.5,-910.11"/>
<polygon fill="black" stroke="black" points="1495,-910.1 1491.5,-900.1 1488,-910.1 1495,-910.1"/>
</g>
<!-- 7284720839878089381 -->
<g id="node10" class="node">
<title>7284720839878089381</title>
<path fill="none" stroke="black" d="M2638,-108C2638,-108 2455,-108 2455,-108 2449,-108 2443,-102 2443,-96 2443,-96 2443,-84 2443,-84 2443,-78 2449,-72 2455,-72 2455,-72 2638,-72 2638,-72 2644,-72 2650,-78 2650,-84 2650,-84 2650,-96 2650,-96 2650,-102 2644,-108 2638,-108"/>
<text text-anchor="middle" x="2546.5" y="-86.3" font-family="Times,serif" font-size="14.00">SelectColumn(cause_of_death_06)</text>
</g>
<!-- 7284720839878089381&#45;&gt;4302003814488648782 -->
<g id="edge13" class="edge">
<title>7284720839878089381&#45;&gt;4302003814488648782</title>
<path fill="none" stroke="black" d="M2464.25,-71.97C2412.3,-61.21 2345.34,-47.34 2292.97,-36.49"/>
<polygon fill="black" stroke="black" points="2293.53,-33.04 2283.03,-34.44 2292.11,-39.89 2293.53,-33.04"/>
</g>
<!-- 6092982997653517587 -->
<g id="node11" class="node">
<title>6092982997653517587</title>
<path fill="none" stroke="black" d="M1320,-108C1320,-108 1137,-108 1137,-108 1131,-108 1125,-102 1125,-96 1125,-96 1125,-84 1125,-84 1125,-78 1131,-72 1137,-72 1137,-72 1320,-72 1320,-72 1326,-72 1332,-78 1332,-84 1332,-84 1332,-96 1332,-96 1332,-102 1326,-108 1320,-108"/>
<text text-anchor="middle" x="1228.5" y="-86.3" font-family="Times,serif" font-size="14.00">SelectColumn(cause_of_death_04)</text>
</g>
<!-- 6092982997653517587&#45;&gt;4302003814488648782 -->
<g id="edge14" class="edge">
<title>6092982997653517587&#45;&gt;4302003814488648782</title>
<path fill="none" stroke="black" d="M1332.19,-72.93C1334.99,-72.6 1337.76,-72.29 1340.5,-72 1626.5,-41.63 1967.49,-27.11 2123.27,-21.67"/>
<polygon fill="black" stroke="black" points="2123.84,-25.15 2133.71,-21.31 2123.6,-18.15 2123.84,-25.15"/>
</g>
<!-- 7864596480369932663 -->
<g id="node12" class="node">
<title>7864596480369932663</title>
<path fill="none" stroke="black" d="M2972.5,-180C2972.5,-180 2942.5,-180 2942.5,-180 2936.5,-180 2930.5,-174 2930.5,-168 2930.5,-168 2930.5,-156 2930.5,-156 2930.5,-150 2936.5,-144 2942.5,-144 2942.5,-144 2972.5,-144 2972.5,-144 2978.5,-144 2984.5,-150 2984.5,-156 2984.5,-156 2984.5,-168 2984.5,-168 2984.5,-174 2978.5,-180 2972.5,-180"/>
<text text-anchor="middle" x="2957.5" y="-158.3" font-family="Times,serif" font-size="14.00">In()</text>
</g>
<!-- 7864596480369932663&#45;&gt;7988303784266193488 -->
<g id="edge16" class="edge">
<title>7864596480369932663&#45;&gt;7988303784266193488</title>
<path fill="none" stroke="black" d="M2930.2,-159.42C2877.49,-156.39 2758.03,-149.53 2657.5,-144 2361.33,-127.7 2283.27,-141.89 1984.81,-108.06"/>
<polygon fill="black" stroke="black" points="1984.89,-104.55 1974.55,-106.89 1984.09,-111.51 1984.89,-104.55"/>
</g>
<!-- 5601386646940639333 -->
<g id="node46" class="node">
<title>5601386646940639333</title>
<path fill="none" stroke="black" d="M3313,-108C3313,-108 3130,-108 3130,-108 3124,-108 3118,-102 3118,-96 3118,-96 3118,-84 3118,-84 3118,-78 3124,-72 3130,-72 3130,-72 3313,-72 3313,-72 3319,-72 3325,-78 3325,-84 3325,-84 3325,-96 3325,-96 3325,-102 3319,-108 3313,-108"/>
<text text-anchor="middle" x="3221.5" y="-86.3" font-family="Times,serif" font-size="14.00">SelectColumn(cause_of_death_14)</text>
</g>
<!-- 7864596480369932663&#45;&gt;5601386646940639333 -->
<g id="edge15" class="edge">
<title>7864596480369932663&#45;&gt;5601386646940639333</title>
<path fill="none" stroke="black" d="M2984.76,-153.77C3022.77,-143.69 3093.13,-125.04 3147.3,-110.67"/>
<polygon fill="black" stroke="black" points="3148.45,-113.99 3157.22,-108.05 3146.65,-107.23 3148.45,-113.99"/>
</g>
<!-- 6837563114972320962 -->
<g id="node13" class="node">
<title>6837563114972320962</title>
<path fill="none" stroke="black" d="M2636.5,-1044C2636.5,-1044 2606.5,-1044 2606.5,-1044 2600.5,-1044 2594.5,-1038 2594.5,-1032 2594.5,-1032 2594.5,-1020 2594.5,-1020 2594.5,-1014 2600.5,-1008 2606.5,-1008 2606.5,-1008 2636.5,-1008 2636.5,-1008 2642.5,-1008 2648.5,-1014 2648.5,-1020 2648.5,-1020 2648.5,-1032 2648.5,-1032 2648.5,-1038 2642.5,-1044 2636.5,-1044"/>
<text text-anchor="middle" x="2621.5" y="-1022.3" font-family="Times,serif" font-size="14.00">Or()</text>
</g>
<!-- 6837563114972320962&#45;&gt;1867876203223978848 -->
<g id="edge17" class="edge">
<title>6837563114972320962&#45;&gt;1867876203223978848</title>
<path fill="none" stroke="black" d="M2594.41,-1023.32C2443.1,-1013.95 1703.26,-968.12 1528.53,-957.29"/>
<polygon fill="black" stroke="black" points="1528.74,-953.8 1518.54,-956.68 1528.31,-960.79 1528.74,-953.8"/>
</g>
<!-- 8567188074804615085 -->
<g id="node25" class="node">
<title>8567188074804615085</title>
<path fill="none" stroke="black" d="M2636.5,-180C2636.5,-180 2606.5,-180 2606.5,-180 2600.5,-180 2594.5,-174 2594.5,-168 2594.5,-168 2594.5,-156 2594.5,-156 2594.5,-150 2600.5,-144 2606.5,-144 2606.5,-144 2636.5,-144 2636.5,-144 2642.5,-144 2648.5,-150 2648.5,-156 2648.5,-156 2648.5,-168 2648.5,-168 2648.5,-174 2642.5,-180 2636.5,-180"/>
<text text-anchor="middle" x="2621.5" y="-158.3" font-family="Times,serif" font-size="14.00">In()</text>
</g>
<!-- 6837563114972320962&#45;&gt;8567188074804615085 -->
<g id="edge18" class="edge">
<title>6837563114972320962&#45;&gt;8567188074804615085</title>
<path fill="none" stroke="black" d="M2621.5,-1007.95C2621.5,-981.29 2621.5,-928.11 2621.5,-883 2621.5,-883 2621.5,-883 2621.5,-305 2621.5,-265 2621.5,-218.65 2621.5,-190.08"/>
<polygon fill="black" stroke="black" points="2625,-190.05 2621.5,-180.05 2618,-190.05 2625,-190.05"/>
</g>
<!-- 904984070174503611&#45;&gt;4302003814488648782 -->
<g id="edge19" class="edge">
<title>904984070174503611&#45;&gt;4302003814488648782</title>
<path fill="none" stroke="black" d="M207.18,-72.8C209.98,-72.51 212.76,-72.24 215.5,-72 594.62,-38.32 1793.22,-23.39 2123.51,-19.85"/>
<polygon fill="black" stroke="black" points="2123.99,-23.35 2133.96,-19.74 2123.92,-16.35 2123.99,-23.35"/>
</g>
<!-- 5213627306748245633 -->
<g id="node15" class="node">
<title>5213627306748245633</title>
<path fill="none" stroke="black" d="M3538,-108C3538,-108 3355,-108 3355,-108 3349,-108 3343,-102 3343,-96 3343,-96 3343,-84 3343,-84 3343,-78 3349,-72 3355,-72 3355,-72 3538,-72 3538,-72 3544,-72 3550,-78 3550,-84 3550,-84 3550,-96 3550,-96 3550,-102 3544,-108 3538,-108"/>
<text text-anchor="middle" x="3446.5" y="-86.3" font-family="Times,serif" font-size="14.00">SelectColumn(cause_of_death_15)</text>
</g>
<!-- 5213627306748245633&#45;&gt;4302003814488648782 -->
<g id="edge20" class="edge">
<title>5213627306748245633&#45;&gt;4302003814488648782</title>
<path fill="none" stroke="black" d="M3342.8,-72.98C3339.66,-72.63 3336.56,-72.3 3333.5,-72 2946.1,-33.83 2480.86,-22.98 2293.14,-20.03"/>
<polygon fill="black" stroke="black" points="2293.12,-16.53 2283.07,-19.88 2293.01,-23.53 2293.12,-16.53"/>
</g>
<!-- 4614194594567192470&#45;&gt;4302003814488648782 -->
<g id="edge21" class="edge">
<title>4614194594567192470&#45;&gt;4302003814488648782</title>
<path fill="none" stroke="black" d="M432.18,-72.81C434.98,-72.52 437.76,-72.25 440.5,-72 773.33,-41.86 1818.21,-24.66 2123.78,-20.18"/>
<polygon fill="black" stroke="black" points="2123.95,-23.68 2133.9,-20.04 2123.85,-16.68 2123.95,-23.68"/>
</g>
<!-- 6714597794143541317 -->
<g id="node17" class="node">
<title>6714597794143541317</title>
<path fill="none" stroke="black" d="M3120.5,-1188C3120.5,-1188 3090.5,-1188 3090.5,-1188 3084.5,-1188 3078.5,-1182 3078.5,-1176 3078.5,-1176 3078.5,-1164 3078.5,-1164 3078.5,-1158 3084.5,-1152 3090.5,-1152 3090.5,-1152 3120.5,-1152 3120.5,-1152 3126.5,-1152 3132.5,-1158 3132.5,-1164 3132.5,-1164 3132.5,-1176 3132.5,-1176 3132.5,-1182 3126.5,-1188 3120.5,-1188"/>
<text text-anchor="middle" x="3105.5" y="-1166.3" font-family="Times,serif" font-size="14.00">Or()</text>
</g>
<!-- 8607271230941003707 -->
<g id="node30" class="node">
<title>8607271230941003707</title>
<path fill="none" stroke="black" d="M3120.5,-180C3120.5,-180 3090.5,-180 3090.5,-180 3084.5,-180 3078.5,-174 3078.5,-168 3078.5,-168 3078.5,-156 3078.5,-156 3078.5,-150 3084.5,-144 3090.5,-144 3090.5,-144 3120.5,-144 3120.5,-144 3126.5,-144 3132.5,-150 3132.5,-156 3132.5,-156 3132.5,-168 3132.5,-168 3132.5,-174 3126.5,-180 3120.5,-180"/>
<text text-anchor="middle" x="3105.5" y="-158.3" font-family="Times,serif" font-size="14.00">In()</text>
</g>
<!-- 6714597794143541317&#45;&gt;8607271230941003707 -->
<g id="edge23" class="edge">
<title>6714597794143541317&#45;&gt;8607271230941003707</title>
<path fill="none" stroke="black" d="M3105.5,-1151.95C3105.5,-1125.29 3105.5,-1072.11 3105.5,-1027 3105.5,-1027 3105.5,-1027 3105.5,-305 3105.5,-265 3105.5,-218.65 3105.5,-190.08"/>
<polygon fill="black" stroke="black" points="3109,-190.05 3105.5,-180.05 3102,-190.05 3109,-190.05"/>
</g>
<!-- 3895026610709842162 -->
<g id="node40" class="node">
<title>3895026610709842162</title>
<path fill="none" stroke="black" d="M2972.5,-1116C2972.5,-1116 2942.5,-1116 2942.5,-1116 2936.5,-1116 2930.5,-1110 2930.5,-1104 2930.5,-1104 2930.5,-1092 2930.5,-1092 2930.5,-1086 2936.5,-1080 2942.5,-1080 2942.5,-1080 2972.5,-1080 2972.5,-1080 2978.5,-1080 2984.5,-1086 2984.5,-1092 2984.5,-1092 2984.5,-1104 2984.5,-1104 2984.5,-1110 2978.5,-1116 2972.5,-1116"/>
<text text-anchor="middle" x="2957.5" y="-1094.3" font-family="Times,serif" font-size="14.00">Or()</text>
</g>
<!-- 6714597794143541317&#45;&gt;3895026610709842162 -->
<g id="edge22" class="edge">
<title>6714597794143541317&#45;&gt;3895026610709842162</title>
<path fill="none" stroke="black" d="M3078.35,-1156.16C3054.65,-1144.95 3020.04,-1128.58 2993.92,-1116.23"/>
<polygon fill="black" stroke="black" points="2995.26,-1112.99 2984.72,-1111.88 2992.27,-1119.32 2995.26,-1112.99"/>
</g>
<!-- 2109201246090540905&#45;&gt;3276073883975210896 -->
<g id="edge25" class="edge">
<title>2109201246090540905&#45;&gt;3276073883975210896</title>
<path fill="none" stroke="black" d="M1485.83,-863.73C1477.65,-837.21 1463.5,-784.73 1463.5,-739 1463.5,-739 1463.5,-739 1463.5,-305 1463.5,-264.93 1460.29,-218.61 1457.93,-190.05"/>
<polygon fill="black" stroke="black" points="1461.41,-189.7 1457.08,-180.03 1454.44,-190.29 1461.41,-189.7"/>
</g>
<!-- 3600008687103069950 -->
<g id="node19" class="node">
<title>3600008687103069950</title>
<path fill="none" stroke="black" d="M1542.5,-828C1542.5,-828 1512.5,-828 1512.5,-828 1506.5,-828 1500.5,-822 1500.5,-816 1500.5,-816 1500.5,-804 1500.5,-804 1500.5,-798 1506.5,-792 1512.5,-792 1512.5,-792 1542.5,-792 1542.5,-792 1548.5,-792 1554.5,-798 1554.5,-804 1554.5,-804 1554.5,-816 1554.5,-816 1554.5,-822 1548.5,-828 1542.5,-828"/>
<text text-anchor="middle" x="1527.5" y="-806.3" font-family="Times,serif" font-size="14.00">Or()</text>
</g>
<!-- 2109201246090540905&#45;&gt;3600008687103069950 -->
<g id="edge24" class="edge">
<title>2109201246090540905&#45;&gt;3600008687103069950</title>
<path fill="none" stroke="black" d="M1500.4,-863.7C1504.5,-855.73 1509.45,-846.1 1513.99,-837.26"/>
<polygon fill="black" stroke="black" points="1517.24,-838.6 1518.7,-828.1 1511.02,-835.4 1517.24,-838.6"/>
</g>
<!-- 1637906131451382840 -->
<g id="node28" class="node">
<title>1637906131451382840</title>
<path fill="none" stroke="black" d="M1614.5,-756C1614.5,-756 1584.5,-756 1584.5,-756 1578.5,-756 1572.5,-750 1572.5,-744 1572.5,-744 1572.5,-732 1572.5,-732 1572.5,-726 1578.5,-720 1584.5,-720 1584.5,-720 1614.5,-720 1614.5,-720 1620.5,-720 1626.5,-726 1626.5,-732 1626.5,-732 1626.5,-744 1626.5,-744 1626.5,-750 1620.5,-756 1614.5,-756"/>
<text text-anchor="middle" x="1599.5" y="-734.3" font-family="Times,serif" font-size="14.00">Or()</text>
</g>
<!-- 3600008687103069950&#45;&gt;1637906131451382840 -->
<g id="edge26" class="edge">
<title>3600008687103069950&#45;&gt;1637906131451382840</title>
<path fill="none" stroke="black" d="M1545.3,-791.7C1554.1,-783.14 1564.88,-772.66 1574.5,-763.3"/>
<polygon fill="black" stroke="black" points="1577.18,-765.58 1581.91,-756.1 1572.3,-760.57 1577.18,-765.58"/>
</g>
<!-- 3561718121659586939 -->
<g id="node41" class="node">
<title>3561718121659586939</title>
<path fill="none" stroke="black" d="M1542.5,-180C1542.5,-180 1512.5,-180 1512.5,-180 1506.5,-180 1500.5,-174 1500.5,-168 1500.5,-168 1500.5,-156 1500.5,-156 1500.5,-150 1506.5,-144 1512.5,-144 1512.5,-144 1542.5,-144 1542.5,-144 1548.5,-144 1554.5,-150 1554.5,-156 1554.5,-156 1554.5,-168 1554.5,-168 1554.5,-174 1548.5,-180 1542.5,-180"/>
<text text-anchor="middle" x="1527.5" y="-158.3" font-family="Times,serif" font-size="14.00">In()</text>
</g>
<!-- 3600008687103069950&#45;&gt;3561718121659586939 -->
<g id="edge27" class="edge">
<title>3600008687103069950&#45;&gt;3561718121659586939</title>
<path fill="none" stroke="black" d="M1527.5,-791.95C1527.5,-765.29 1527.5,-712.11 1527.5,-667 1527.5,-667 1527.5,-667 1527.5,-305 1527.5,-265 1527.5,-218.65 1527.5,-190.08"/>
<polygon fill="black" stroke="black" points="1531,-190.05 1527.5,-180.05 1524,-190.05 1531,-190.05"/>
</g>
<!-- 2009623258825510688 -->
<g id="node20" class="node">
<title>2009623258825510688</title>
<path fill="none" stroke="black" d="M645,-108C645,-108 462,-108 462,-108 456,-108 450,-102 450,-96 450,-96 450,-84 450,-84 450,-78 456,-72 462,-72 462,-72 645,-72 645,-72 651,-72 657,-78 657,-84 657,-84 657,-96 657,-96 657,-102 651,-108 645,-108"/>
<text text-anchor="middle" x="553.5" y="-86.3" font-family="Times,serif" font-size="14.00">SelectColumn(cause_of_death_10)</text>
</g>
<!-- 2009623258825510688&#45;&gt;4302003814488648782 -->
<g id="edge28" class="edge">
<title>2009623258825510688&#45;&gt;4302003814488648782</title>
<path fill="none" stroke="black" d="M657.18,-72.83C659.98,-72.53 662.76,-72.25 665.5,-72 1219.74,-20.59 1890.12,-17.71 2123.52,-18.46"/>
<polygon fill="black" stroke="black" points="2123.63,-21.96 2133.64,-18.49 2123.65,-14.96 2123.63,-21.96"/>
</g>
<!-- 4318220613990851130 -->
<g id="node21" class="node">
<title>4318220613990851130</title>
<path fill="none" stroke="black" d="M2188,-108C2188,-108 2005,-108 2005,-108 1999,-108 1993,-102 1993,-96 1993,-96 1993,-84 1993,-84 1993,-78 1999,-72 2005,-72 2005,-72 2188,-72 2188,-72 2194,-72 2200,-78 2200,-84 2200,-84 2200,-96 2200,-96 2200,-102 2194,-108 2188,-108"/>
<text text-anchor="middle" x="2096.5" y="-86.3" font-family="Times,serif" font-size="14.00">SelectColumn(cause_of_death_03)</text>
</g>
<!-- 4318220613990851130&#45;&gt;4302003814488648782 -->
<g id="edge29" class="edge">
<title>4318220613990851130&#45;&gt;4302003814488648782</title>
<path fill="none" stroke="black" d="M2123.9,-71.88C2138.41,-62.81 2156.42,-51.55 2172.09,-41.76"/>
<polygon fill="black" stroke="black" points="2174.37,-44.46 2181,-36.19 2170.66,-38.52 2174.37,-44.46"/>
</g>
<!-- 631506768422089600 -->
<g id="node22" class="node">
<title>631506768422089600</title>
<path fill="none" stroke="black" d="M1614.5,-180C1614.5,-180 1584.5,-180 1584.5,-180 1578.5,-180 1572.5,-174 1572.5,-168 1572.5,-168 1572.5,-156 1572.5,-156 1572.5,-150 1578.5,-144 1584.5,-144 1584.5,-144 1614.5,-144 1614.5,-144 1620.5,-144 1626.5,-150 1626.5,-156 1626.5,-156 1626.5,-168 1626.5,-168 1626.5,-174 1620.5,-180 1614.5,-180"/>
<text text-anchor="middle" x="1599.5" y="-158.3" font-family="Times,serif" font-size="14.00">In()</text>
</g>
<!-- 631506768422089600&#45;&gt;7988303784266193488 -->
<g id="edge31" class="edge">
<title>631506768422089600&#45;&gt;7988303784266193488</title>
<path fill="none" stroke="black" d="M1626.74,-147.33C1629.66,-146.11 1632.62,-144.97 1635.5,-144 1663.99,-134.42 1732.08,-120.28 1790.31,-109.02"/>
<polygon fill="black" stroke="black" points="1791.15,-112.42 1800.31,-107.09 1789.83,-105.55 1791.15,-112.42"/>
</g>
<!-- 2914561815951687275 -->
<g id="node45" class="node">
<title>2914561815951687275</title>
<path fill="none" stroke="black" d="M870,-108C870,-108 687,-108 687,-108 681,-108 675,-102 675,-96 675,-96 675,-84 675,-84 675,-78 681,-72 687,-72 687,-72 870,-72 870,-72 876,-72 882,-78 882,-84 882,-84 882,-96 882,-96 882,-102 876,-108 870,-108"/>
<text text-anchor="middle" x="778.5" y="-86.3" font-family="Times,serif" font-size="14.00">SelectColumn(cause_of_death_09)</text>
</g>
<!-- 631506768422089600&#45;&gt;2914561815951687275 -->
<g id="edge30" class="edge">
<title>631506768422089600&#45;&gt;2914561815951687275</title>
<path fill="none" stroke="black" d="M1572.39,-146.87C1569.45,-145.74 1566.45,-144.74 1563.5,-144 1276.34,-71.5 1190.41,-137.01 892.42,-108.12"/>
<polygon fill="black" stroke="black" points="892.49,-104.61 882.19,-107.1 891.79,-111.58 892.49,-104.61"/>
</g>
<!-- 2599317624185680394 -->
<g id="node23" class="node">
<title>2599317624185680394</title>
<path fill="none" stroke="black" d="M2413,-108C2413,-108 2230,-108 2230,-108 2224,-108 2218,-102 2218,-96 2218,-96 2218,-84 2218,-84 2218,-78 2224,-72 2230,-72 2230,-72 2413,-72 2413,-72 2419,-72 2425,-78 2425,-84 2425,-84 2425,-96 2425,-96 2425,-102 2419,-108 2413,-108"/>
<text text-anchor="middle" x="2321.5" y="-86.3" font-family="Times,serif" font-size="14.00">SelectColumn(cause_of_death_05)</text>
</g>
<!-- 2599317624185680394&#45;&gt;4302003814488648782 -->
<g id="edge32" class="edge">
<title>2599317624185680394&#45;&gt;4302003814488648782</title>
<path fill="none" stroke="black" d="M2293.86,-71.88C2279.08,-62.72 2260.71,-51.34 2244.8,-41.48"/>
<polygon fill="black" stroke="black" points="2246.59,-38.48 2236.25,-36.19 2242.91,-44.43 2246.59,-38.48"/>
</g>
<!-- 3368789722248875906&#45;&gt;4318220613990851130 -->
<g id="edge33" class="edge">
<title>3368789722248875906&#45;&gt;4318220613990851130</title>
<path fill="none" stroke="black" d="M1986.57,-147.17C2005.81,-137.34 2032.04,-123.94 2054.05,-112.69"/>
<polygon fill="black" stroke="black" points="2055.88,-115.69 2063.19,-108.02 2052.69,-109.45 2055.88,-115.69"/>
</g>
<!-- 3368789722248875906&#45;&gt;7988303784266193488 -->
<g id="edge34" class="edge">
<title>3368789722248875906&#45;&gt;7988303784266193488</title>
<path fill="none" stroke="black" d="M1941.7,-143.7C1932.9,-135.14 1922.12,-124.66 1912.5,-115.3"/>
<polygon fill="black" stroke="black" points="1914.7,-112.57 1905.09,-108.1 1909.82,-117.58 1914.7,-112.57"/>
</g>
<!-- 1558158270100876391 -->
<g id="node32" class="node">
<title>1558158270100876391</title>
<path fill="none" stroke="black" d="M3088,-108C3088,-108 2905,-108 2905,-108 2899,-108 2893,-102 2893,-96 2893,-96 2893,-84 2893,-84 2893,-78 2899,-72 2905,-72 2905,-72 3088,-72 3088,-72 3094,-72 3100,-78 3100,-84 3100,-84 3100,-96 3100,-96 3100,-102 3094,-108 3088,-108"/>
<text text-anchor="middle" x="2996.5" y="-86.3" font-family="Times,serif" font-size="14.00">SelectColumn(cause_of_death_13)</text>
</g>
<!-- 8567188074804615085&#45;&gt;1558158270100876391 -->
<g id="edge35" class="edge">
<title>8567188074804615085&#45;&gt;1558158270100876391</title>
<path fill="none" stroke="black" d="M2648.77,-155.91C2699.79,-146.39 2812.02,-125.44 2895.26,-109.9"/>
<polygon fill="black" stroke="black" points="2896.07,-113.31 2905.26,-108.03 2894.78,-106.43 2896.07,-113.31"/>
</g>
<!-- 8567188074804615085&#45;&gt;7988303784266193488 -->
<g id="edge36" class="edge">
<title>8567188074804615085&#45;&gt;7988303784266193488</title>
<path fill="none" stroke="black" d="M2594.35,-159.64C2507.26,-155.11 2226.91,-139.03 1984.62,-108.08"/>
<polygon fill="black" stroke="black" points="1984.93,-104.59 1974.57,-106.78 1984.04,-111.53 1984.93,-104.59"/>
</g>
<!-- 8456804506579989240 -->
<g id="node26" class="node">
<title>8456804506579989240</title>
<path fill="none" stroke="black" d="M1770,-108C1770,-108 1587,-108 1587,-108 1581,-108 1575,-102 1575,-96 1575,-96 1575,-84 1575,-84 1575,-78 1581,-72 1587,-72 1587,-72 1770,-72 1770,-72 1776,-72 1782,-78 1782,-84 1782,-84 1782,-96 1782,-96 1782,-102 1776,-108 1770,-108"/>
<text text-anchor="middle" x="1678.5" y="-86.3" font-family="Times,serif" font-size="14.00">SelectColumn(cause_of_death_01)</text>
</g>
<!-- 8456804506579989240&#45;&gt;4302003814488648782 -->
<g id="edge37" class="edge">
<title>8456804506579989240&#45;&gt;4302003814488648782</title>
<path fill="none" stroke="black" d="M1782.24,-73.3C1785.36,-72.86 1788.45,-72.42 1791.5,-72 1906.46,-56.05 2039.52,-39.46 2123.82,-29.19"/>
<polygon fill="black" stroke="black" points="2124.35,-32.65 2133.86,-27.96 2123.51,-25.7 2124.35,-32.65"/>
</g>
<!-- 2099245842196418463 -->
<g id="node27" class="node">
<title>2099245842196418463</title>
<path fill="none" stroke="black" d="M1545,-108C1545,-108 1362,-108 1362,-108 1356,-108 1350,-102 1350,-96 1350,-96 1350,-84 1350,-84 1350,-78 1356,-72 1362,-72 1362,-72 1545,-72 1545,-72 1551,-72 1557,-78 1557,-84 1557,-84 1557,-96 1557,-96 1557,-102 1551,-108 1545,-108"/>
<text text-anchor="middle" x="1453.5" y="-86.3" font-family="Times,serif" font-size="14.00">SelectColumn(cause_of_death_02)</text>
</g>
<!-- 2099245842196418463&#45;&gt;4302003814488648782 -->
<g id="edge38" class="edge">
<title>2099245842196418463&#45;&gt;4302003814488648782</title>
<path fill="none" stroke="black" d="M1557.2,-73C1559.99,-72.66 1562.77,-72.32 1565.5,-72 1764.88,-48.68 2000.22,-32.04 2123.46,-24.15"/>
<polygon fill="black" stroke="black" points="2123.83,-27.63 2133.59,-23.51 2123.39,-20.65 2123.83,-27.63"/>
</g>
<!-- 1637906131451382840&#45;&gt;631506768422089600 -->
<g id="edge40" class="edge">
<title>1637906131451382840&#45;&gt;631506768422089600</title>
<path fill="none" stroke="black" d="M1599.5,-719.95C1599.5,-693.29 1599.5,-640.11 1599.5,-595 1599.5,-595 1599.5,-595 1599.5,-305 1599.5,-265 1599.5,-218.65 1599.5,-190.08"/>
<polygon fill="black" stroke="black" points="1603,-190.05 1599.5,-180.05 1596,-190.05 1603,-190.05"/>
</g>
<!-- 4163705527875704932 -->
<g id="node42" class="node">
<title>4163705527875704932</title>
<path fill="none" stroke="black" d="M1833.5,-684C1833.5,-684 1803.5,-684 1803.5,-684 1797.5,-684 1791.5,-678 1791.5,-672 1791.5,-672 1791.5,-660 1791.5,-660 1791.5,-654 1797.5,-648 1803.5,-648 1803.5,-648 1833.5,-648 1833.5,-648 1839.5,-648 1845.5,-654 1845.5,-660 1845.5,-660 1845.5,-672 1845.5,-672 1845.5,-678 1839.5,-684 1833.5,-684"/>
<text text-anchor="middle" x="1818.5" y="-662.3" font-family="Times,serif" font-size="14.00">Or()</text>
</g>
<!-- 1637906131451382840&#45;&gt;4163705527875704932 -->
<g id="edge39" class="edge">
<title>1637906131451382840&#45;&gt;4163705527875704932</title>
<path fill="none" stroke="black" d="M1626.79,-728.28C1665.83,-715.8 1737.73,-692.82 1781.52,-678.82"/>
<polygon fill="black" stroke="black" points="1782.75,-682.1 1791.21,-675.72 1780.62,-675.43 1782.75,-682.1"/>
</g>
<!-- 7350639314220293184 -->
<g id="node36" class="node">
<title>7350639314220293184</title>
<path fill="none" stroke="black" d="M3463,-1332C3463,-1332 3362,-1332 3362,-1332 3356,-1332 3350,-1326 3350,-1320 3350,-1320 3350,-1308 3350,-1308 3350,-1302 3356,-1296 3362,-1296 3362,-1296 3463,-1296 3463,-1296 3469,-1296 3475,-1302 3475,-1308 3475,-1308 3475,-1320 3475,-1320 3475,-1326 3469,-1332 3463,-1332"/>
<text text-anchor="middle" x="3412.5" y="-1310.3" font-family="Times,serif" font-size="14.00">SelectColumn(date)</text>
</g>
<!-- 6833989018268999817&#45;&gt;7350639314220293184 -->
<g id="edge41" class="edge">
<title>6833989018268999817&#45;&gt;7350639314220293184</title>
<path fill="none" stroke="black" d="M3412.5,-1367.7C3412.5,-1359.98 3412.5,-1350.71 3412.5,-1342.11"/>
<polygon fill="black" stroke="black" points="3416,-1342.1 3412.5,-1332.1 3409,-1342.1 3416,-1342.1"/>
</g>
<!-- 8607271230941003707&#45;&gt;5213627306748245633 -->
<g id="edge42" class="edge">
<title>8607271230941003707&#45;&gt;5213627306748245633</title>
<path fill="none" stroke="black" d="M3132.54,-155.45C3179.73,-145.76 3279.17,-125.35 3353.57,-110.08"/>
<polygon fill="black" stroke="black" points="3354.34,-113.49 3363.43,-108.05 3352.93,-106.64 3354.34,-113.49"/>
</g>
<!-- 8607271230941003707&#45;&gt;7988303784266193488 -->
<g id="edge43" class="edge">
<title>8607271230941003707&#45;&gt;7988303784266193488</title>
<path fill="none" stroke="black" d="M3078.45,-156C3055.83,-152.04 3022.68,-146.73 2993.5,-144 2549.55,-102.53 2431.9,-154.5 1984.5,-108.01"/>
<polygon fill="black" stroke="black" points="1984.86,-104.52 1974.55,-106.96 1984.13,-111.49 1984.86,-104.52"/>
</g>
<!-- 1598890736746604453 -->
<g id="node31" class="node">
<title>1598890736746604453</title>
<path fill="none" stroke="black" d="M3428,-1260C3428,-1260 3397,-1260 3397,-1260 3391,-1260 3385,-1254 3385,-1248 3385,-1248 3385,-1236 3385,-1236 3385,-1230 3391,-1224 3397,-1224 3397,-1224 3428,-1224 3428,-1224 3434,-1224 3440,-1230 3440,-1236 3440,-1236 3440,-1248 3440,-1248 3440,-1254 3434,-1260 3428,-1260"/>
<text text-anchor="middle" x="3412.5" y="-1238.3" font-family="Times,serif" font-size="14.00">Filter()</text>
</g>
<!-- 1598890736746604453&#45;&gt;6714597794143541317 -->
<g id="edge45" class="edge">
<title>1598890736746604453&#45;&gt;6714597794143541317</title>
<path fill="none" stroke="black" d="M3384.99,-1234.73C3329.64,-1222.11 3204.82,-1193.65 3142.44,-1179.42"/>
<polygon fill="black" stroke="black" points="3143.15,-1176 3132.62,-1177.18 3141.59,-1182.82 3143.15,-1176"/>
</g>
<!-- 1598890736746604453&#45;&gt;4302003814488648782 -->
<g id="edge44" class="edge">
<title>1598890736746604453&#45;&gt;4302003814488648782</title>
<path fill="none" stroke="black" d="M3440.28,-1231.78C3487.54,-1214.15 3578.5,-1170.87 3578.5,-1099 3578.5,-1099 3578.5,-1099 3578.5,-161 3578.5,-120.46 3589.65,-97.95 3558.5,-72 3509.85,-31.48 2582.59,-21.61 2293.69,-19.51"/>
<polygon fill="black" stroke="black" points="2293.3,-16.01 2283.27,-19.44 2293.25,-23.01 2293.3,-16.01"/>
</g>
<!-- 1558158270100876391&#45;&gt;4302003814488648782 -->
<g id="edge46" class="edge">
<title>1558158270100876391&#45;&gt;4302003814488648782</title>
<path fill="none" stroke="black" d="M2892.78,-73.1C2889.65,-72.72 2886.56,-72.35 2883.5,-72 2671.72,-47.79 2421.28,-31.28 2293.21,-23.72"/>
<polygon fill="black" stroke="black" points="2293.27,-20.21 2283.08,-23.12 2292.86,-27.2 2293.27,-20.21"/>
</g>
<!-- 2614332915512331978&#45;&gt;4302003814488648782 -->
<g id="edge47" class="edge">
<title>2614332915512331978&#45;&gt;4302003814488648782</title>
<path fill="none" stroke="black" d="M2667.76,-73.26C2664.64,-72.83 2661.55,-72.41 2658.5,-72 2531.44,-54.96 2383.78,-38.14 2293.25,-28.16"/>
<polygon fill="black" stroke="black" points="2293.36,-24.65 2283.04,-27.04 2292.6,-31.61 2293.36,-24.65"/>
</g>
<!-- 7805193769218076618 -->
<g id="node35" class="node">
<title>7805193769218076618</title>
<path fill="none" stroke="black" d="M1833.5,-612C1833.5,-612 1803.5,-612 1803.5,-612 1797.5,-612 1791.5,-606 1791.5,-600 1791.5,-600 1791.5,-588 1791.5,-588 1791.5,-582 1797.5,-576 1803.5,-576 1803.5,-576 1833.5,-576 1833.5,-576 1839.5,-576 1845.5,-582 1845.5,-588 1845.5,-588 1845.5,-600 1845.5,-600 1845.5,-606 1839.5,-612 1833.5,-612"/>
<text text-anchor="middle" x="1818.5" y="-590.3" font-family="Times,serif" font-size="14.00">Or()</text>
</g>
<!-- 7257065483128207310 -->
<g id="node37" class="node">
<title>7257065483128207310</title>
<path fill="none" stroke="black" d="M1686.5,-180C1686.5,-180 1656.5,-180 1656.5,-180 1650.5,-180 1644.5,-174 1644.5,-168 1644.5,-168 1644.5,-156 1644.5,-156 1644.5,-150 1650.5,-144 1656.5,-144 1656.5,-144 1686.5,-144 1686.5,-144 1692.5,-144 1698.5,-150 1698.5,-156 1698.5,-156 1698.5,-168 1698.5,-168 1698.5,-174 1692.5,-180 1686.5,-180"/>
<text text-anchor="middle" x="1671.5" y="-158.3" font-family="Times,serif" font-size="14.00">In()</text>
</g>
<!-- 7805193769218076618&#45;&gt;7257065483128207310 -->
<g id="edge49" class="edge">
<title>7805193769218076618&#45;&gt;7257065483128207310</title>
<path fill="none" stroke="black" d="M1791.25,-578.97C1753.13,-557.18 1688.5,-511.33 1688.5,-451 1688.5,-451 1688.5,-451 1688.5,-305 1688.5,-264.93 1681.74,-218.95 1676.75,-190.43"/>
<polygon fill="black" stroke="black" points="1680.16,-189.63 1674.94,-180.41 1673.27,-190.87 1680.16,-189.63"/>
</g>
<!-- 6689557959182106604 -->
<g id="node51" class="node">
<title>6689557959182106604</title>
<path fill="none" stroke="black" d="M2013.5,-540C2013.5,-540 1983.5,-540 1983.5,-540 1977.5,-540 1971.5,-534 1971.5,-528 1971.5,-528 1971.5,-516 1971.5,-516 1971.5,-510 1977.5,-504 1983.5,-504 1983.5,-504 2013.5,-504 2013.5,-504 2019.5,-504 2025.5,-510 2025.5,-516 2025.5,-516 2025.5,-528 2025.5,-528 2025.5,-534 2019.5,-540 2013.5,-540"/>
<text text-anchor="middle" x="1998.5" y="-518.3" font-family="Times,serif" font-size="14.00">Or()</text>
</g>
<!-- 7805193769218076618&#45;&gt;6689557959182106604 -->
<g id="edge48" class="edge">
<title>7805193769218076618&#45;&gt;6689557959182106604</title>
<path fill="none" stroke="black" d="M1845.84,-582.37C1876.81,-570.32 1927.43,-550.64 1961.82,-537.26"/>
<polygon fill="black" stroke="black" points="1963.44,-540.39 1971.49,-533.5 1960.91,-533.86 1963.44,-540.39"/>
</g>
<!-- 7350639314220293184&#45;&gt;1598890736746604453 -->
<g id="edge50" class="edge">
<title>7350639314220293184&#45;&gt;1598890736746604453</title>
<path fill="none" stroke="black" d="M3412.5,-1295.7C3412.5,-1287.98 3412.5,-1278.71 3412.5,-1270.11"/>
<polygon fill="black" stroke="black" points="3416,-1270.1 3412.5,-1260.1 3409,-1270.1 3416,-1270.1"/>
</g>
<!-- 7257065483128207310&#45;&gt;7988303784266193488 -->
<g id="edge52" class="edge">
<title>7257065483128207310&#45;&gt;7988303784266193488</title>
<path fill="none" stroke="black" d="M1698.83,-147.56C1701.73,-146.29 1704.66,-145.08 1707.5,-144 1740.75,-131.34 1778.38,-119.84 1810.61,-110.81"/>
<polygon fill="black" stroke="black" points="1811.73,-114.13 1820.43,-108.09 1809.86,-107.39 1811.73,-114.13"/>
</g>
<!-- 3636735920898780540 -->
<g id="node48" class="node">
<title>3636735920898780540</title>
<path fill="none" stroke="black" d="M1095,-108C1095,-108 912,-108 912,-108 906,-108 900,-102 900,-96 900,-96 900,-84 900,-84 900,-78 906,-72 912,-72 912,-72 1095,-72 1095,-72 1101,-72 1107,-78 1107,-84 1107,-84 1107,-96 1107,-96 1107,-102 1101,-108 1095,-108"/>
<text text-anchor="middle" x="1003.5" y="-86.3" font-family="Times,serif" font-size="14.00">SelectColumn(cause_of_death_07)</text>
</g>
<!-- 7257065483128207310&#45;&gt;3636735920898780540 -->
<g id="edge51" class="edge">
<title>7257065483128207310&#45;&gt;3636735920898780540</title>
<path fill="none" stroke="black" d="M1644.38,-146.91C1641.44,-145.77 1638.44,-144.77 1635.5,-144 1414.51,-86.36 1347.66,-132.07 1117.23,-108.12"/>
<polygon fill="black" stroke="black" points="1117.51,-104.63 1107.19,-107.04 1116.76,-111.59 1117.51,-104.63"/>
</g>
<!-- 2273233669480454281 -->
<g id="node38" class="node">
<title>2273233669480454281</title>
<path fill="none" stroke="black" d="M2118.5,-180C2118.5,-180 2088.5,-180 2088.5,-180 2082.5,-180 2076.5,-174 2076.5,-168 2076.5,-168 2076.5,-156 2076.5,-156 2076.5,-150 2082.5,-144 2088.5,-144 2088.5,-144 2118.5,-144 2118.5,-144 2124.5,-144 2130.5,-150 2130.5,-156 2130.5,-156 2130.5,-168 2130.5,-168 2130.5,-174 2124.5,-180 2118.5,-180"/>
<text text-anchor="middle" x="2103.5" y="-158.3" font-family="Times,serif" font-size="14.00">In()</text>
</g>
<!-- 2273233669480454281&#45;&gt;7284720839878089381 -->
<g id="edge53" class="edge">
<title>2273233669480454281&#45;&gt;7284720839878089381</title>
<path fill="none" stroke="black" d="M2130.66,-147.07C2133.6,-145.9 2136.58,-144.84 2139.5,-144 2262.87,-108.32 2301.2,-124.93 2432.71,-108.05"/>
<polygon fill="black" stroke="black" points="2433.31,-111.5 2442.76,-106.72 2432.39,-104.56 2433.31,-111.5"/>
</g>
<!-- 2273233669480454281&#45;&gt;7988303784266193488 -->
<g id="edge54" class="edge">
<title>2273233669480454281&#45;&gt;7988303784266193488</title>
<path fill="none" stroke="black" d="M2076.17,-147.56C2073.27,-146.29 2070.34,-145.08 2067.5,-144 2034.25,-131.34 1996.62,-119.84 1964.39,-110.81"/>
<polygon fill="black" stroke="black" points="1965.14,-107.39 1954.57,-108.09 1963.27,-114.13 1965.14,-107.39"/>
</g>
<!-- 8398232175101174395 -->
<g id="node39" class="node">
<title>8398232175101174395</title>
<path fill="none" stroke="black" d="M1830.5,-180C1830.5,-180 1800.5,-180 1800.5,-180 1794.5,-180 1788.5,-174 1788.5,-168 1788.5,-168 1788.5,-156 1788.5,-156 1788.5,-150 1794.5,-144 1800.5,-144 1800.5,-144 1830.5,-144 1830.5,-144 1836.5,-144 1842.5,-150 1842.5,-156 1842.5,-156 1842.5,-168 1842.5,-168 1842.5,-174 1836.5,-180 1830.5,-180"/>
<text text-anchor="middle" x="1815.5" y="-158.3" font-family="Times,serif" font-size="14.00">In()</text>
</g>
<!-- 8398232175101174395&#45;&gt;2099245842196418463 -->
<g id="edge55" class="edge">
<title>8398232175101174395&#45;&gt;2099245842196418463</title>
<path fill="none" stroke="black" d="M1788.3,-147.19C1785.37,-146 1782.4,-144.9 1779.5,-144 1769.14,-140.78 1657.12,-122.85 1567.24,-108.72"/>
<polygon fill="black" stroke="black" points="1567.65,-105.24 1557.23,-107.15 1566.57,-112.16 1567.65,-105.24"/>
</g>
<!-- 8398232175101174395&#45;&gt;7988303784266193488 -->
<g id="edge56" class="edge">
<title>8398232175101174395&#45;&gt;7988303784266193488</title>
<path fill="none" stroke="black" d="M1833.3,-143.7C1842.1,-135.14 1852.88,-124.66 1862.5,-115.3"/>
<polygon fill="black" stroke="black" points="1865.18,-117.58 1869.91,-108.1 1860.3,-112.57 1865.18,-117.58"/>
</g>
<!-- 3895026610709842162&#45;&gt;7864596480369932663 -->
<g id="edge58" class="edge">
<title>3895026610709842162&#45;&gt;7864596480369932663</title>
<path fill="none" stroke="black" d="M2957.5,-1079.95C2957.5,-1053.29 2957.5,-1000.11 2957.5,-955 2957.5,-955 2957.5,-955 2957.5,-305 2957.5,-265 2957.5,-218.65 2957.5,-190.08"/>
<polygon fill="black" stroke="black" points="2961,-190.05 2957.5,-180.05 2954,-190.05 2961,-190.05"/>
</g>
<!-- 3895026610709842162&#45;&gt;6837563114972320962 -->
<g id="edge57" class="edge">
<title>3895026610709842162&#45;&gt;6837563114972320962</title>
<path fill="none" stroke="black" d="M2930.29,-1091.33C2870.4,-1078.85 2727.11,-1049 2658.86,-1034.78"/>
<polygon fill="black" stroke="black" points="2659.47,-1031.34 2648.97,-1032.72 2658.04,-1038.19 2659.47,-1031.34"/>
</g>
<!-- 3561718121659586939&#45;&gt;2009623258825510688 -->
<g id="edge59" class="edge">
<title>3561718121659586939&#45;&gt;2009623258825510688</title>
<path fill="none" stroke="black" d="M1500.4,-146.84C1497.45,-145.71 1494.45,-144.73 1491.5,-144 1316.19,-100.66 864.17,-124.95 667.22,-108.06"/>
<polygon fill="black" stroke="black" points="667.46,-104.56 657.19,-107.14 666.82,-111.53 667.46,-104.56"/>
</g>
<!-- 3561718121659586939&#45;&gt;7988303784266193488 -->
<g id="edge60" class="edge">
<title>3561718121659586939&#45;&gt;7988303784266193488</title>
<path fill="none" stroke="black" d="M1554.7,-147.18C1557.62,-145.99 1560.59,-144.9 1563.5,-144 1658.06,-114.83 1687.89,-124.17 1790.14,-108"/>
<polygon fill="black" stroke="black" points="1790.95,-111.42 1800.26,-106.36 1789.83,-104.51 1790.95,-111.42"/>
</g>
<!-- 4163705527875704932&#45;&gt;8413680730354321449 -->
<g id="edge63" class="edge">
<title>4163705527875704932&#45;&gt;8413680730354321449</title>
<path fill="none" stroke="black" d="M1845.7,-665.22C1922.84,-664.3 2137.5,-650.3 2137.5,-523 2137.5,-523 2137.5,-523 2137.5,-305 2137.5,-263.63 2152.73,-217.72 2163.91,-189.61"/>
<polygon fill="black" stroke="black" points="2167.26,-190.67 2167.81,-180.09 2160.78,-188.02 2167.26,-190.67"/>
</g>
<!-- 4163705527875704932&#45;&gt;7805193769218076618 -->
<g id="edge62" class="edge">
<title>4163705527875704932&#45;&gt;7805193769218076618</title>
<path fill="none" stroke="black" d="M1818.5,-647.7C1818.5,-639.98 1818.5,-630.71 1818.5,-622.11"/>
<polygon fill="black" stroke="black" points="1822,-622.1 1818.5,-612.1 1815,-622.1 1822,-622.1"/>
</g>
<!-- 5695113489011505031&#45;&gt;2599317624185680394 -->
<g id="edge64" class="edge">
<title>5695113489011505031&#45;&gt;2599317624185680394</title>
<path fill="none" stroke="black" d="M2058.74,-147.32C2061.66,-146.1 2064.62,-144.97 2067.5,-144 2112.47,-128.93 2163.41,-117.29 2207.81,-108.81"/>
<polygon fill="black" stroke="black" points="2208.58,-112.22 2217.77,-106.94 2207.29,-105.34 2208.58,-112.22"/>
</g>
<!-- 5695113489011505031&#45;&gt;7988303784266193488 -->
<g id="edge65" class="edge">
<title>5695113489011505031&#45;&gt;7988303784266193488</title>
<path fill="none" stroke="black" d="M2004.41,-147.83C1983.99,-137.9 1955.53,-124.07 1931.81,-112.54"/>
<polygon fill="black" stroke="black" points="1933.16,-109.31 1922.64,-108.08 1930.1,-115.6 1933.16,-109.31"/>
</g>
<!-- 3130597933434866110&#45;&gt;8398232175101174395 -->
<g id="edge67" class="edge">
<title>3130597933434866110&#45;&gt;8398232175101174395</title>
<path fill="none" stroke="black" d="M1869.7,-215.7C1860.9,-207.14 1850.12,-196.66 1840.5,-187.3"/>
<polygon fill="black" stroke="black" points="1842.7,-184.57 1833.09,-180.1 1837.82,-189.58 1842.7,-184.57"/>
</g>
<!-- 5734470564604909634 -->
<g id="node49" class="node">
<title>5734470564604909634</title>
<path fill="none" stroke="black" d="M1902.5,-180C1902.5,-180 1872.5,-180 1872.5,-180 1866.5,-180 1860.5,-174 1860.5,-168 1860.5,-168 1860.5,-156 1860.5,-156 1860.5,-150 1866.5,-144 1872.5,-144 1872.5,-144 1902.5,-144 1902.5,-144 1908.5,-144 1914.5,-150 1914.5,-156 1914.5,-156 1914.5,-168 1914.5,-168 1914.5,-174 1908.5,-180 1902.5,-180"/>
<text text-anchor="middle" x="1887.5" y="-158.3" font-family="Times,serif" font-size="14.00">In()</text>
</g>
<!-- 3130597933434866110&#45;&gt;5734470564604909634 -->
<g id="edge66" class="edge">
<title>3130597933434866110&#45;&gt;5734470564604909634</title>
<path fill="none" stroke="black" d="M1887.5,-215.7C1887.5,-207.98 1887.5,-198.71 1887.5,-190.11"/>
<polygon fill="black" stroke="black" points="1891,-190.1 1887.5,-180.1 1884,-190.1 1891,-190.1"/>
</g>
<!-- 2914561815951687275&#45;&gt;4302003814488648782 -->
<g id="edge68" class="edge">
<title>2914561815951687275&#45;&gt;4302003814488648782</title>
<path fill="none" stroke="black" d="M882.18,-72.85C884.98,-72.55 887.76,-72.26 890.5,-72 1354.78,-27.57 1914.52,-20.29 2123.98,-19.17"/>
<polygon fill="black" stroke="black" points="2124.01,-22.67 2133.99,-19.12 2123.97,-15.67 2124.01,-22.67"/>
</g>
<!-- 5601386646940639333&#45;&gt;4302003814488648782 -->
<g id="edge69" class="edge">
<title>5601386646940639333&#45;&gt;4302003814488648782</title>
<path fill="none" stroke="black" d="M3117.79,-73.03C3114.66,-72.66 3111.56,-72.32 3108.5,-72 2809.74,-40.8 2453.13,-26.59 2293.3,-21.43"/>
<polygon fill="black" stroke="black" points="2293.17,-17.93 2283.06,-21.11 2292.95,-24.93 2293.17,-17.93"/>
</g>
<!-- 1859808051595876435 -->
<g id="node47" class="node">
<title>1859808051595876435</title>
<path fill="none" stroke="black" d="M1758.5,-180C1758.5,-180 1728.5,-180 1728.5,-180 1722.5,-180 1716.5,-174 1716.5,-168 1716.5,-168 1716.5,-156 1716.5,-156 1716.5,-150 1722.5,-144 1728.5,-144 1728.5,-144 1758.5,-144 1758.5,-144 1764.5,-144 1770.5,-150 1770.5,-156 1770.5,-156 1770.5,-168 1770.5,-168 1770.5,-174 1764.5,-180 1758.5,-180"/>
<text text-anchor="middle" x="1743.5" y="-158.3" font-family="Times,serif" font-size="14.00">In()</text>
</g>
<!-- 1859808051595876435&#45;&gt;6092982997653517587 -->
<g id="edge70" class="edge">
<title>1859808051595876435&#45;&gt;6092982997653517587</title>
<path fill="none" stroke="black" d="M1716.36,-147C1713.42,-145.84 1710.43,-144.81 1707.5,-144 1552.76,-101.26 1505.08,-127.19 1342.57,-108.19"/>
<polygon fill="black" stroke="black" points="1342.56,-104.66 1332.21,-106.94 1341.71,-111.61 1342.56,-104.66"/>
</g>
<!-- 1859808051595876435&#45;&gt;7988303784266193488 -->
<g id="edge71" class="edge">
<title>1859808051595876435&#45;&gt;7988303784266193488</title>
<path fill="none" stroke="black" d="M1770.59,-147.83C1791.01,-137.9 1819.47,-124.07 1843.19,-112.54"/>
<polygon fill="black" stroke="black" points="1844.9,-115.6 1852.36,-108.08 1841.84,-109.31 1844.9,-115.6"/>
</g>
<!-- 3636735920898780540&#45;&gt;4302003814488648782 -->
<g id="edge72" class="edge">
<title>3636735920898780540&#45;&gt;4302003814488648782</title>
<path fill="none" stroke="black" d="M1107.19,-72.88C1109.99,-72.57 1112.76,-72.27 1115.5,-72 1490.04,-34.59 1939.53,-23.34 2123.61,-20.17"/>
<polygon fill="black" stroke="black" points="2123.82,-23.66 2133.76,-19.99 2123.7,-16.66 2123.82,-23.66"/>
</g>
<!-- 5734470564604909634&#45;&gt;8456804506579989240 -->
<g id="edge73" class="edge">
<title>5734470564604909634&#45;&gt;8456804506579989240</title>
<path fill="none" stroke="black" d="M1860.16,-147.59C1857.26,-146.32 1854.34,-145.1 1851.5,-144 1819.38,-131.57 1783.04,-120.07 1751.99,-110.98"/>
<polygon fill="black" stroke="black" points="1752.69,-107.53 1742.11,-108.11 1750.74,-114.26 1752.69,-107.53"/>
</g>
<!-- 5734470564604909634&#45;&gt;7988303784266193488 -->
<g id="edge74" class="edge">
<title>5734470564604909634&#45;&gt;7988303784266193488</title>
<path fill="none" stroke="black" d="M1887.5,-143.7C1887.5,-135.98 1887.5,-126.71 1887.5,-118.11"/>
<polygon fill="black" stroke="black" points="1891,-118.1 1887.5,-108.1 1884,-118.1 1891,-118.1"/>
</g>
<!-- 3677201980262204616&#45;&gt;5783553760321246819 -->
<g id="edge75" class="edge">
<title>3677201980262204616&#45;&gt;5783553760321246819</title>
<path fill="none" stroke="black" d="M1919.5,-359.7C1919.5,-351.98 1919.5,-342.71 1919.5,-334.11"/>
<polygon fill="black" stroke="black" points="1923,-334.1 1919.5,-324.1 1916,-334.1 1923,-334.1"/>
</g>
<!-- 3677201980262204616&#45;&gt;1859808051595876435 -->
<g id="edge76" class="edge">
<title>3677201980262204616&#45;&gt;1859808051595876435</title>
<path fill="none" stroke="black" d="M1905.39,-359.85C1874.44,-322.21 1800.41,-232.2 1764.18,-188.15"/>
<polygon fill="black" stroke="black" points="1766.73,-185.73 1757.67,-180.23 1761.32,-190.18 1766.73,-185.73"/>
</g>
<!-- 6689557959182106604&#45;&gt;2219790113938973039 -->
<g id="edge77" class="edge">
<title>6689557959182106604&#45;&gt;2219790113938973039</title>
<path fill="none" stroke="black" d="M1998.5,-503.7C1998.5,-495.98 1998.5,-486.71 1998.5,-478.11"/>
<polygon fill="black" stroke="black" points="2002,-478.1 1998.5,-468.1 1995,-478.1 2002,-478.1"/>
</g>
<!-- 6689557959182106604&#45;&gt;2273233669480454281 -->
<g id="edge78" class="edge">
<title>6689557959182106604&#45;&gt;2273233669480454281</title>
<path fill="none" stroke="black" d="M2012.25,-503.66C2019.64,-493.68 2028.46,-480.65 2034.5,-468 2052.32,-430.7 2061.5,-420.34 2061.5,-379 2061.5,-379 2061.5,-379 2061.5,-305 2061.5,-263.15 2078.49,-217.1 2090.85,-189.11"/>
<polygon fill="black" stroke="black" points="2094.04,-190.56 2095,-180.01 2087.67,-187.66 2094.04,-190.56"/>
</g>
</g>
</svg>
