<?xml version="1.0" encoding="UTF-8" standalone="no"?>
<!DOCTYPE svg PUBLIC "-//W3C//DTD SVG 1.1//EN"
 "http://www.w3.org/Graphics/SVG/1.1/DTD/svg11.dtd">
<!-- Generated by graphviz version 2.43.0 (0)
 -->
<!-- Title: %3 Pages: 1 -->
<svg width="12301pt" height="836pt"
 viewBox="0.00 0.00 12301.00 836.00" xmlns="http://www.w3.org/2000/svg" xmlns:xlink="http://www.w3.org/1999/xlink">
<g id="graph0" class="graph" transform="scale(1 1) rotate(0) translate(4 832)">
<title>%3</title>
<polygon fill="white" stroke="transparent" points="-4,4 -4,-832 12297,-832 12297,4 -4,4"/>
<!-- 7370086985228654517 -->
<g id="node1" class="node">
<title>7370086985228654517</title>
<g id="a_node1"><a xlink:href="covid_vax_pfizer_1_date.svg" xlink:title="Variable(covid_vax_pfizer_...)">
<path fill="lightgrey" stroke="black" d="M10363.5,-828C10363.5,-828 10204.5,-828 10204.5,-828 10198.5,-828 10192.5,-822 10192.5,-816 10192.5,-816 10192.5,-804 10192.5,-804 10192.5,-798 10198.5,-792 10204.5,-792 10204.5,-792 10363.5,-792 10363.5,-792 10369.5,-792 10375.5,-798 10375.5,-804 10375.5,-804 10375.5,-816 10375.5,-816 10375.5,-822 10369.5,-828 10363.5,-828"/>
<text text-anchor="middle" x="10284" y="-806.3" font-family="Times,serif" font-size="14.00">Variable(covid_vax_pfizer_...)</text>
</a>
</g>
</g>
<!-- 2457046709953646961 -->
<g id="node77" class="node">
<title>2457046709953646961</title>
<path fill="none" stroke="black" d="M10379.5,-756C10379.5,-756 10278.5,-756 10278.5,-756 10272.5,-756 10266.5,-750 10266.5,-744 10266.5,-744 10266.5,-732 10266.5,-732 10266.5,-726 10272.5,-720 10278.5,-720 10278.5,-720 10379.5,-720 10379.5,-720 10385.5,-720 10391.5,-726 10391.5,-732 10391.5,-732 10391.5,-744 10391.5,-744 10391.5,-750 10385.5,-756 10379.5,-756"/>
<text text-anchor="middle" x="10329" y="-734.3" font-family="Times,serif" font-size="14.00">SelectColumn(date)</text>
</g>
<!-- 7370086985228654517&#45;&gt;2457046709953646961 -->
<g id="edge3" class="edge">
<title>7370086985228654517&#45;&gt;2457046709953646961</title>
<path fill="none" stroke="black" d="M10295.12,-791.7C10300.36,-783.56 10306.7,-773.69 10312.48,-764.7"/>
<polygon fill="black" stroke="black" points="10315.54,-766.41 10318,-756.1 10309.65,-762.62 10315.54,-766.41"/>
</g>
<!-- 2927901286638148837 -->
<g id="node2" class="node">
<title>2927901286638148837</title>
<g id="a_node2"><a xlink:href="diabetes.svg" xlink:title="Variable(diabetes)">
<path fill="lightgrey" stroke="black" d="M12080.5,-828C12080.5,-828 11989.5,-828 11989.5,-828 11983.5,-828 11977.5,-822 11977.5,-816 11977.5,-816 11977.5,-804 11977.5,-804 11977.5,-798 11983.5,-792 11989.5,-792 11989.5,-792 12080.5,-792 12080.5,-792 12086.5,-792 12092.5,-798 12092.5,-804 12092.5,-804 12092.5,-816 12092.5,-816 12092.5,-822 12086.5,-828 12080.5,-828"/>
<text text-anchor="middle" x="12035" y="-806.3" font-family="Times,serif" font-size="14.00">Variable(diabetes)</text>
</a>
</g>
</g>
<!-- 3509576877858601689 -->
<g id="node71" class="node">
<title>3509576877858601689</title>
<path fill="none" stroke="black" d="M5768.5,-252C5768.5,-252 5737.5,-252 5737.5,-252 5731.5,-252 5725.5,-246 5725.5,-240 5725.5,-240 5725.5,-228 5725.5,-228 5725.5,-222 5731.5,-216 5737.5,-216 5737.5,-216 5768.5,-216 5768.5,-216 5774.5,-216 5780.5,-222 5780.5,-228 5780.5,-228 5780.5,-240 5780.5,-240 5780.5,-246 5774.5,-252 5768.5,-252"/>
<text text-anchor="middle" x="5753" y="-230.3" font-family="Times,serif" font-size="14.00">Filter()</text>
</g>
<!-- 2927901286638148837&#45;&gt;3509576877858601689 -->
<g id="edge17" class="edge">
<title>2927901286638148837&#45;&gt;3509576877858601689</title>
<path fill="none" stroke="lightgrey" d="M12035,-791.95C12035,-765.29 12035,-712.11 12035,-667 12035,-667 12035,-667 12035,-377 12035,-243.03 11879.38,-308.59 11747,-288 11433.67,-239.27 6282.35,-235.29 5790.62,-235.02"/>
<polygon fill="lightgrey" stroke="lightgrey" points="5790.51,-231.52 5780.51,-235.01 5790.5,-238.52 5790.51,-231.52"/>
</g>
<!-- 1102633016844416352 -->
<g id="node3" class="node">
<title>1102633016844416352</title>
<g id="a_node3"><a xlink:href="chronic_neuro_disease.svg" xlink:title="Variable(chronic_neuro_dis...)">
<path fill="lightgrey" stroke="black" d="M12281,-828C12281,-828 12123,-828 12123,-828 12117,-828 12111,-822 12111,-816 12111,-816 12111,-804 12111,-804 12111,-798 12117,-792 12123,-792 12123,-792 12281,-792 12281,-792 12287,-792 12293,-798 12293,-804 12293,-804 12293,-816 12293,-816 12293,-822 12287,-828 12281,-828"/>
<text text-anchor="middle" x="12202" y="-806.3" font-family="Times,serif" font-size="14.00">Variable(chronic_neuro_dis...)</text>
</a>
</g>
</g>
<!-- 1102633016844416352&#45;&gt;3509576877858601689 -->
<g id="edge18" class="edge">
<title>1102633016844416352&#45;&gt;3509576877858601689</title>
<path fill="none" stroke="lightgrey" d="M12202,-791.95C12202,-765.29 12202,-712.11 12202,-667 12202,-667 12202,-667 12202,-377 12202,-235.79 12036.7,-308.58 11897,-288 11575.28,-240.6 6290.18,-235.41 5790.8,-235.03"/>
<polygon fill="lightgrey" stroke="lightgrey" points="5790.53,-231.53 5780.53,-235.02 5790.53,-238.53 5790.53,-231.53"/>
</g>
<!-- 7895672267513037740 -->
<g id="node4" class="node">
<title>7895672267513037740</title>
<g id="a_node4"><a xlink:href="covid_vax_disease_1_date.svg" xlink:title="Variable(covid_vax_disease...)">
<path fill="lightgrey" stroke="black" d="M172,-828C172,-828 12,-828 12,-828 6,-828 0,-822 0,-816 0,-816 0,-804 0,-804 0,-798 6,-792 12,-792 12,-792 172,-792 172,-792 178,-792 184,-798 184,-804 184,-804 184,-816 184,-816 184,-822 178,-828 172,-828"/>
<text text-anchor="middle" x="92" y="-806.3" font-family="Times,serif" font-size="14.00">Variable(covid_vax_disease...)</text>
</a>
</g>
</g>
<!-- 7895672267513037740&#45;&gt;3509576877858601689 -->
<g id="edge19" class="edge">
<title>7895672267513037740&#45;&gt;3509576877858601689</title>
<path fill="none" stroke="lightgrey" d="M92,-791.95C92,-765.29 92,-712.11 92,-667 92,-667 92,-667 92,-377 92,-280.92 195.18,-308.69 289,-288 570.57,-225.92 5246.42,-233.95 5715.2,-234.92"/>
<polygon fill="lightgrey" stroke="lightgrey" points="5715.48,-238.42 5725.48,-234.94 5715.49,-231.42 5715.48,-238.42"/>
</g>
<!-- 4297692426829539203 -->
<g id="node5" class="node">
<title>4297692426829539203</title>
<g id="a_node5"><a xlink:href="practice_id.svg" xlink:title="Variable(practice_id)">
<path fill="lightgrey" stroke="black" d="M321.5,-828C321.5,-828 214.5,-828 214.5,-828 208.5,-828 202.5,-822 202.5,-816 202.5,-816 202.5,-804 202.5,-804 202.5,-798 208.5,-792 214.5,-792 214.5,-792 321.5,-792 321.5,-792 327.5,-792 333.5,-798 333.5,-804 333.5,-804 333.5,-816 333.5,-816 333.5,-822 327.5,-828 321.5,-828"/>
<text text-anchor="middle" x="268" y="-806.3" font-family="Times,serif" font-size="14.00">Variable(practice_id)</text>
</a>
</g>
</g>
<!-- 4297692426829539203&#45;&gt;3509576877858601689 -->
<g id="edge20" class="edge">
<title>4297692426829539203&#45;&gt;3509576877858601689</title>
<path fill="none" stroke="lightgrey" d="M268,-791.95C268,-765.29 268,-712.11 268,-667 268,-667 268,-667 268,-377 268,-301.01 340.94,-308.91 414,-288 549.43,-249.25 5243.98,-236.3 5715.01,-235.09"/>
<polygon fill="lightgrey" stroke="lightgrey" points="5715.35,-238.59 5725.34,-235.07 5715.33,-231.59 5715.35,-238.59"/>
</g>
<!-- 1204418980975433034 -->
<g id="node6" class="node">
<title>1204418980975433034</title>
<g id="a_node6"><a xlink:href="age.svg" xlink:title="Variable(age)">
<path fill="lightgrey" stroke="black" d="M428.5,-828C428.5,-828 363.5,-828 363.5,-828 357.5,-828 351.5,-822 351.5,-816 351.5,-816 351.5,-804 351.5,-804 351.5,-798 357.5,-792 363.5,-792 363.5,-792 428.5,-792 428.5,-792 434.5,-792 440.5,-798 440.5,-804 440.5,-804 440.5,-816 440.5,-816 440.5,-822 434.5,-828 428.5,-828"/>
<text text-anchor="middle" x="396" y="-806.3" font-family="Times,serif" font-size="14.00">Variable(age)</text>
</a>
</g>
</g>
<!-- 1204418980975433034&#45;&gt;3509576877858601689 -->
<g id="edge21" class="edge">
<title>1204418980975433034&#45;&gt;3509576877858601689</title>
<path fill="none" stroke="lightgrey" d="M396,-791.95C396,-765.29 396,-712.11 396,-667 396,-667 396,-667 396,-377 396,-291.32 483.88,-308.79 567,-288 699.64,-254.83 5251.72,-236.88 5715.05,-235.14"/>
<polygon fill="lightgrey" stroke="lightgrey" points="5715.24,-238.64 5725.23,-235.1 5715.21,-231.64 5715.24,-238.64"/>
</g>
<!-- 2534416172140043511 -->
<g id="node7" class="node">
<title>2534416172140043511</title>
<g id="a_node7"><a xlink:href="prior_covid_test_frequency.svg" xlink:title="Variable(prior_covid_test_...)">
<path fill="lightgrey" stroke="black" d="M623.5,-828C623.5,-828 470.5,-828 470.5,-828 464.5,-828 458.5,-822 458.5,-816 458.5,-816 458.5,-804 458.5,-804 458.5,-798 464.5,-792 470.5,-792 470.5,-792 623.5,-792 623.5,-792 629.5,-792 635.5,-798 635.5,-804 635.5,-804 635.5,-816 635.5,-816 635.5,-822 629.5,-828 623.5,-828"/>
<text text-anchor="middle" x="547" y="-806.3" font-family="Times,serif" font-size="14.00">Variable(prior_covid_test_...)</text>
</a>
</g>
</g>
<!-- 2534416172140043511&#45;&gt;3509576877858601689 -->
<g id="edge22" class="edge">
<title>2534416172140043511&#45;&gt;3509576877858601689</title>
<path fill="none" stroke="lightgrey" d="M547,-791.95C547,-765.29 547,-712.11 547,-667 547,-667 547,-667 547,-377 547,-292.5 633.11,-308.81 715,-288 843.64,-255.31 5259.32,-236.96 5715.1,-235.15"/>
<polygon fill="lightgrey" stroke="lightgrey" points="5715.43,-238.65 5725.42,-235.11 5715.4,-231.65 5715.43,-238.65"/>
</g>
<!-- 2854687987532492382 -->
<g id="node8" class="node">
<title>2854687987532492382</title>
<g id="a_node8"><a xlink:href="population.svg" xlink:title="Population()">
<path fill="lightgrey" stroke="black" d="M725,-828C725,-828 665,-828 665,-828 659,-828 653,-822 653,-816 653,-816 653,-804 653,-804 653,-798 659,-792 665,-792 665,-792 725,-792 725,-792 731,-792 737,-798 737,-804 737,-804 737,-816 737,-816 737,-822 731,-828 725,-828"/>
<text text-anchor="middle" x="695" y="-806.3" font-family="Times,serif" font-size="14.00">Population()</text>
</a>
</g>
</g>
<!-- 2854687987532492382&#45;&gt;3509576877858601689 -->
<g id="edge23" class="edge">
<title>2854687987532492382&#45;&gt;3509576877858601689</title>
<path fill="none" stroke="lightgrey" d="M695,-791.95C695,-765.29 695,-712.11 695,-667 695,-667 695,-667 695,-377 695,-308.8 755.15,-309.11 820,-288 943.51,-247.79 5264.95,-236.19 5715.18,-235.09"/>
<polygon fill="lightgrey" stroke="lightgrey" points="5715.39,-238.59 5725.38,-235.06 5715.38,-231.59 5715.39,-238.59"/>
</g>
<!-- 6286720606273614483 -->
<g id="node9" class="node">
<title>6286720606273614483</title>
<g id="a_node9"><a xlink:href="cev.svg" xlink:title="Variable(cev)">
<path fill="lightgrey" stroke="black" d="M831.5,-828C831.5,-828 766.5,-828 766.5,-828 760.5,-828 754.5,-822 754.5,-816 754.5,-816 754.5,-804 754.5,-804 754.5,-798 760.5,-792 766.5,-792 766.5,-792 831.5,-792 831.5,-792 837.5,-792 843.5,-798 843.5,-804 843.5,-804 843.5,-816 843.5,-816 843.5,-822 837.5,-828 831.5,-828"/>
<text text-anchor="middle" x="799" y="-806.3" font-family="Times,serif" font-size="14.00">Variable(cev)</text>
</a>
</g>
</g>
<!-- 6286720606273614483&#45;&gt;3509576877858601689 -->
<g id="edge24" class="edge">
<title>6286720606273614483&#45;&gt;3509576877858601689</title>
<path fill="none" stroke="lightgrey" d="M799,-791.95C799,-765.29 799,-712.11 799,-667 799,-667 799,-667 799,-377 799,-301.38 871.35,-308.95 944,-288 1065.58,-252.94 5270.89,-236.75 5715.13,-235.13"/>
<polygon fill="lightgrey" stroke="lightgrey" points="5715.22,-238.63 5725.21,-235.1 5715.19,-231.63 5715.22,-238.63"/>
</g>
<!-- 8298428905775489201 -->
<g id="node10" class="node">
<title>8298428905775489201</title>
<g id="a_node10"><a xlink:href="inhospital.svg" xlink:title="Variable(inhospital)">
<path fill="lightgrey" stroke="black" d="M973,-828C973,-828 873,-828 873,-828 867,-828 861,-822 861,-816 861,-816 861,-804 861,-804 861,-798 867,-792 873,-792 873,-792 973,-792 973,-792 979,-792 985,-798 985,-804 985,-804 985,-816 985,-816 985,-822 979,-828 973,-828"/>
<text text-anchor="middle" x="923" y="-806.3" font-family="Times,serif" font-size="14.00">Variable(inhospital)</text>
</a>
</g>
</g>
<!-- 8298428905775489201&#45;&gt;3509576877858601689 -->
<g id="edge25" class="edge">
<title>8298428905775489201&#45;&gt;3509576877858601689</title>
<path fill="none" stroke="lightgrey" d="M923,-791.95C923,-765.29 923,-712.11 923,-667 923,-667 923,-667 923,-377 923,-301.38 995.35,-308.96 1068,-288 1186.35,-253.85 5277.12,-236.87 5715.12,-235.15"/>
<polygon fill="lightgrey" stroke="lightgrey" points="5715.36,-238.65 5725.34,-235.11 5715.33,-231.65 5715.36,-238.65"/>
</g>
<!-- 8473241684409304911 -->
<g id="node11" class="node">
<title>8473241684409304911</title>
<g id="a_node11"><a xlink:href="imd.svg" xlink:title="Variable(imd)">
<path fill="lightgrey" stroke="black" d="M1083,-828C1083,-828 1015,-828 1015,-828 1009,-828 1003,-822 1003,-816 1003,-816 1003,-804 1003,-804 1003,-798 1009,-792 1015,-792 1015,-792 1083,-792 1083,-792 1089,-792 1095,-798 1095,-804 1095,-804 1095,-816 1095,-816 1095,-822 1089,-828 1083,-828"/>
<text text-anchor="middle" x="1049" y="-806.3" font-family="Times,serif" font-size="14.00">Variable(imd)</text>
</a>
</g>
</g>
<!-- 8473241684409304911&#45;&gt;3509576877858601689 -->
<g id="edge26" class="edge">
<title>8473241684409304911&#45;&gt;3509576877858601689</title>
<path fill="none" stroke="lightgrey" d="M1049,-791.95C1049,-765.29 1049,-712.11 1049,-667 1049,-667 1049,-667 1049,-377 1049,-294.85 1131.55,-308.88 1211,-288 1441.57,-227.4 5290.36,-234 5715.03,-234.91"/>
<polygon fill="lightgrey" stroke="lightgrey" points="5715.24,-238.41 5725.25,-234.93 5715.25,-231.41 5715.24,-238.41"/>
</g>
<!-- 4190317324242135424 -->
<g id="node12" class="node">
<title>4190317324242135424</title>
<g id="a_node12"><a xlink:href="care_home_code.svg" xlink:title="Variable(care_home_code)">
<path fill="lightgrey" stroke="black" d="M1264.5,-828C1264.5,-828 1125.5,-828 1125.5,-828 1119.5,-828 1113.5,-822 1113.5,-816 1113.5,-816 1113.5,-804 1113.5,-804 1113.5,-798 1119.5,-792 1125.5,-792 1125.5,-792 1264.5,-792 1264.5,-792 1270.5,-792 1276.5,-798 1276.5,-804 1276.5,-804 1276.5,-816 1276.5,-816 1276.5,-822 1270.5,-828 1264.5,-828"/>
<text text-anchor="middle" x="1195" y="-806.3" font-family="Times,serif" font-size="14.00">Variable(care_home_code)</text>
</a>
</g>
</g>
<!-- 4190317324242135424&#45;&gt;3509576877858601689 -->
<g id="edge27" class="edge">
<title>4190317324242135424&#45;&gt;3509576877858601689</title>
<path fill="none" stroke="lightgrey" d="M1195,-791.95C1195,-765.29 1195,-712.11 1195,-667 1195,-667 1195,-667 1195,-377 1195,-278.08 1302.29,-308.79 1399,-288 1622.15,-240.02 5300.41,-235.4 5715.06,-235.03"/>
<polygon fill="lightgrey" stroke="lightgrey" points="5715.32,-238.53 5725.32,-235.02 5715.31,-231.53 5715.32,-238.53"/>
</g>
<!-- 4730113238456614199 -->
<g id="node13" class="node">
<title>4730113238456614199</title>
<g id="a_node13"><a xlink:href="chronic_heart_disease.svg" xlink:title="Variable(chronic_heart_dis...)">
<path fill="lightgrey" stroke="black" d="M1461.5,-828C1461.5,-828 1306.5,-828 1306.5,-828 1300.5,-828 1294.5,-822 1294.5,-816 1294.5,-816 1294.5,-804 1294.5,-804 1294.5,-798 1300.5,-792 1306.5,-792 1306.5,-792 1461.5,-792 1461.5,-792 1467.5,-792 1473.5,-798 1473.5,-804 1473.5,-804 1473.5,-816 1473.5,-816 1473.5,-822 1467.5,-828 1461.5,-828"/>
<text text-anchor="middle" x="1384" y="-806.3" font-family="Times,serif" font-size="14.00">Variable(chronic_heart_dis...)</text>
</a>
</g>
</g>
<!-- 4730113238456614199&#45;&gt;3509576877858601689 -->
<g id="edge28" class="edge">
<title>4730113238456614199&#45;&gt;3509576877858601689</title>
<path fill="none" stroke="lightgrey" d="M1384,-791.95C1384,-765.29 1384,-712.11 1384,-667 1384,-667 1384,-667 1384,-377 1384,-272.35 1499.44,-308.81 1602,-288 1814.94,-244.79 5310.86,-235.96 5715,-235.08"/>
<polygon fill="lightgrey" stroke="lightgrey" points="5715.28,-238.58 5725.28,-235.06 5715.27,-231.58 5715.28,-238.58"/>
</g>
<!-- 608844516887656461 -->
<g id="node14" class="node">
<title>608844516887656461</title>
<g id="a_node14"><a xlink:href="covidemergency_date.svg" xlink:title="Variable(covidemergency_date)">
<path fill="lightgrey" stroke="black" d="M1670,-828C1670,-828 1504,-828 1504,-828 1498,-828 1492,-822 1492,-816 1492,-816 1492,-804 1492,-804 1492,-798 1498,-792 1504,-792 1504,-792 1670,-792 1670,-792 1676,-792 1682,-798 1682,-804 1682,-804 1682,-816 1682,-816 1682,-822 1676,-828 1670,-828"/>
<text text-anchor="middle" x="1587" y="-806.3" font-family="Times,serif" font-size="14.00">Variable(covidemergency_date)</text>
</a>
</g>
</g>
<!-- 608844516887656461&#45;&gt;3509576877858601689 -->
<g id="edge29" class="edge">
<title>608844516887656461&#45;&gt;3509576877858601689</title>
<path fill="none" stroke="lightgrey" d="M1587,-791.95C1587,-765.29 1587,-712.11 1587,-667 1587,-667 1587,-667 1587,-377 1587,-269.05 1707.08,-308.84 1813,-288 2015.04,-248.24 5323.21,-236.38 5715.15,-235.12"/>
<polygon fill="lightgrey" stroke="lightgrey" points="5715.4,-238.62 5725.39,-235.08 5715.38,-231.62 5715.4,-238.62"/>
</g>
<!-- 4684350277698939690 -->
<g id="node15" class="node">
<title>4684350277698939690</title>
<g id="a_node15"><a xlink:href="covidadmitted_0_date.svg" xlink:title="Variable(covidadmitted_0_date)">
<path fill="lightgrey" stroke="black" d="M1879.5,-828C1879.5,-828 1712.5,-828 1712.5,-828 1706.5,-828 1700.5,-822 1700.5,-816 1700.5,-816 1700.5,-804 1700.5,-804 1700.5,-798 1706.5,-792 1712.5,-792 1712.5,-792 1879.5,-792 1879.5,-792 1885.5,-792 1891.5,-798 1891.5,-804 1891.5,-804 1891.5,-816 1891.5,-816 1891.5,-822 1885.5,-828 1879.5,-828"/>
<text text-anchor="middle" x="1796" y="-806.3" font-family="Times,serif" font-size="14.00">Variable(covidadmitted_0_date)</text>
</a>
</g>
</g>
<!-- 4684350277698939690&#45;&gt;3509576877858601689 -->
<g id="edge30" class="edge">
<title>4684350277698939690&#45;&gt;3509576877858601689</title>
<path fill="none" stroke="lightgrey" d="M1796,-791.95C1796,-765.29 1796,-712.11 1796,-667 1796,-667 1796,-667 1796,-377 1796,-275.63 1906.81,-308.88 2006,-288 2197.34,-247.72 5334.57,-236.35 5715.27,-235.12"/>
<polygon fill="lightgrey" stroke="lightgrey" points="5715.49,-238.62 5725.48,-235.08 5715.47,-231.62 5715.49,-238.62"/>
</g>
<!-- 7724327390246657977 -->
<g id="node16" class="node">
<title>7724327390246657977</title>
<g id="a_node16"><a xlink:href="emergency_date.svg" xlink:title="Variable(emergency_date)">
<path fill="lightgrey" stroke="black" d="M2058,-828C2058,-828 1922,-828 1922,-828 1916,-828 1910,-822 1910,-816 1910,-816 1910,-804 1910,-804 1910,-798 1916,-792 1922,-792 1922,-792 2058,-792 2058,-792 2064,-792 2070,-798 2070,-804 2070,-804 2070,-816 2070,-816 2070,-822 2064,-828 2058,-828"/>
<text text-anchor="middle" x="1990" y="-806.3" font-family="Times,serif" font-size="14.00">Variable(emergency_date)</text>
</a>
</g>
</g>
<!-- 7724327390246657977&#45;&gt;3509576877858601689 -->
<g id="edge31" class="edge">
<title>7724327390246657977&#45;&gt;3509576877858601689</title>
<path fill="none" stroke="lightgrey" d="M1990,-791.95C1990,-765.29 1990,-712.11 1990,-667 1990,-667 1990,-667 1990,-377 1990,-278.89 2096.15,-308.93 2192,-288 2373.23,-248.44 5344.64,-236.47 5715.17,-235.13"/>
<polygon fill="lightgrey" stroke="lightgrey" points="5715.38,-238.63 5725.37,-235.09 5715.36,-231.63 5715.38,-238.63"/>
</g>
<!-- 8205468790205234603 -->
<g id="node17" class="node">
<title>8205468790205234603</title>
<g id="a_node17"><a xlink:href="potentialcovidcritcare_2_date.svg" xlink:title="Variable(potentialcovidcri...)">
<path fill="lightgrey" stroke="black" d="M2249.5,-828C2249.5,-828 2100.5,-828 2100.5,-828 2094.5,-828 2088.5,-822 2088.5,-816 2088.5,-816 2088.5,-804 2088.5,-804 2088.5,-798 2094.5,-792 2100.5,-792 2100.5,-792 2249.5,-792 2249.5,-792 2255.5,-792 2261.5,-798 2261.5,-804 2261.5,-804 2261.5,-816 2261.5,-816 2261.5,-822 2255.5,-828 2249.5,-828"/>
<text text-anchor="middle" x="2175" y="-806.3" font-family="Times,serif" font-size="14.00">Variable(potentialcovidcri...)</text>
</a>
</g>
</g>
<!-- 8205468790205234603&#45;&gt;3509576877858601689 -->
<g id="edge32" class="edge">
<title>8205468790205234603&#45;&gt;3509576877858601689</title>
<path fill="none" stroke="lightgrey" d="M2175,-791.95C2175,-765.29 2175,-712.11 2175,-667 2175,-667 2175,-667 2175,-377 2175,-276.86 2284.08,-308.96 2382,-288 2553.4,-251.31 5356.36,-236.87 5715.28,-235.17"/>
<polygon fill="lightgrey" stroke="lightgrey" points="5715.43,-238.67 5725.41,-235.13 5715.39,-231.67 5715.43,-238.67"/>
</g>
<!-- 1392455944681476409 -->
<g id="node18" class="node">
<title>1392455944681476409</title>
<g id="a_node18"><a xlink:href="potentialcovidcritcare_3_date.svg" xlink:title="Variable(potentialcovidcri...)">
<path fill="lightgrey" stroke="black" d="M2440.5,-828C2440.5,-828 2291.5,-828 2291.5,-828 2285.5,-828 2279.5,-822 2279.5,-816 2279.5,-816 2279.5,-804 2279.5,-804 2279.5,-798 2285.5,-792 2291.5,-792 2291.5,-792 2440.5,-792 2440.5,-792 2446.5,-792 2452.5,-798 2452.5,-804 2452.5,-804 2452.5,-816 2452.5,-816 2452.5,-822 2446.5,-828 2440.5,-828"/>
<text text-anchor="middle" x="2366" y="-806.3" font-family="Times,serif" font-size="14.00">Variable(potentialcovidcri...)</text>
</a>
</g>
</g>
<!-- 1392455944681476409&#45;&gt;3509576877858601689 -->
<g id="edge33" class="edge">
<title>1392455944681476409&#45;&gt;3509576877858601689</title>
<path fill="none" stroke="lightgrey" d="M2366,-791.95C2366,-765.29 2366,-712.11 2366,-667 2366,-667 2366,-667 2366,-377 2366,-278.89 2472.17,-309.01 2568,-288 2729.4,-252.62 5365.99,-237.1 5714.97,-235.2"/>
<polygon fill="lightgrey" stroke="lightgrey" points="5715.09,-238.7 5725.07,-235.15 5715.05,-231.7 5715.09,-238.7"/>
</g>
<!-- 6789305390415183441 -->
<g id="node19" class="node">
<title>6789305390415183441</title>
<g id="a_node19"><a xlink:href="hhld_imdef_dat.svg" xlink:title="Variable(hhld_imdef_dat)">
<path fill="lightgrey" stroke="black" d="M2615.5,-828C2615.5,-828 2482.5,-828 2482.5,-828 2476.5,-828 2470.5,-822 2470.5,-816 2470.5,-816 2470.5,-804 2470.5,-804 2470.5,-798 2476.5,-792 2482.5,-792 2482.5,-792 2615.5,-792 2615.5,-792 2621.5,-792 2627.5,-798 2627.5,-804 2627.5,-804 2627.5,-816 2627.5,-816 2627.5,-822 2621.5,-828 2615.5,-828"/>
<text text-anchor="middle" x="2549" y="-806.3" font-family="Times,serif" font-size="14.00">Variable(hhld_imdef_dat)</text>
</a>
</g>
</g>
<!-- 6789305390415183441&#45;&gt;3509576877858601689 -->
<g id="edge34" class="edge">
<title>6789305390415183441&#45;&gt;3509576877858601689</title>
<path fill="none" stroke="lightgrey" d="M2549,-791.95C2549,-765.29 2549,-712.11 2549,-667 2549,-667 2549,-667 2549,-377 2549,-286.96 2643.46,-309.07 2731,-288 2883.15,-251.38 5376.71,-236.98 5715.1,-235.19"/>
<polygon fill="lightgrey" stroke="lightgrey" points="5715.15,-238.69 5725.13,-235.14 5715.12,-231.69 5715.15,-238.69"/>
</g>
<!-- 5736036485033204283 -->
<g id="node20" class="node">
<title>5736036485033204283</title>
<g id="a_node20"><a xlink:href="housebound.svg" xlink:title="Variable(housebound)">
<path fill="lightgrey" stroke="black" d="M2770,-828C2770,-828 2658,-828 2658,-828 2652,-828 2646,-822 2646,-816 2646,-816 2646,-804 2646,-804 2646,-798 2652,-792 2658,-792 2658,-792 2770,-792 2770,-792 2776,-792 2782,-798 2782,-804 2782,-804 2782,-816 2782,-816 2782,-822 2776,-828 2770,-828"/>
<text text-anchor="middle" x="2714" y="-806.3" font-family="Times,serif" font-size="14.00">Variable(housebound)</text>
</a>
</g>
</g>
<!-- 5736036485033204283&#45;&gt;3509576877858601689 -->
<g id="edge35" class="edge">
<title>5736036485033204283&#45;&gt;3509576877858601689</title>
<path fill="none" stroke="lightgrey" d="M2714,-791.95C2714,-765.29 2714,-712.11 2714,-667 2714,-667 2714,-667 2714,-377 2714,-283.75 2813.17,-309.11 2904,-288 3047.38,-254.68 5387.51,-237.5 5715.04,-235.25"/>
<polygon fill="lightgrey" stroke="lightgrey" points="5715.44,-238.75 5725.42,-235.18 5715.39,-231.75 5715.44,-238.75"/>
</g>
<!-- 4546432929583884551 -->
<g id="node21" class="node">
<title>4546432929583884551</title>
<g id="a_node21"><a xlink:href="potentialcovidcritcare_2_ccdays.svg" xlink:title="Variable(potentialcovidcri...)">
<path fill="lightgrey" stroke="black" d="M2961.5,-828C2961.5,-828 2812.5,-828 2812.5,-828 2806.5,-828 2800.5,-822 2800.5,-816 2800.5,-816 2800.5,-804 2800.5,-804 2800.5,-798 2806.5,-792 2812.5,-792 2812.5,-792 2961.5,-792 2961.5,-792 2967.5,-792 2973.5,-798 2973.5,-804 2973.5,-804 2973.5,-816 2973.5,-816 2973.5,-822 2967.5,-828 2961.5,-828"/>
<text text-anchor="middle" x="2887" y="-806.3" font-family="Times,serif" font-size="14.00">Variable(potentialcovidcri...)</text>
</a>
</g>
</g>
<!-- 4546432929583884551&#45;&gt;3509576877858601689 -->
<g id="edge36" class="edge">
<title>4546432929583884551&#45;&gt;3509576877858601689</title>
<path fill="none" stroke="lightgrey" d="M2887,-791.95C2887,-765.29 2887,-712.11 2887,-667 2887,-667 2887,-667 2887,-377 2887,-276.86 2996.12,-309.17 3094,-288 3361.32,-230.19 5411.61,-233.99 5715.42,-234.88"/>
<polygon fill="lightgrey" stroke="lightgrey" points="5715.48,-238.38 5725.49,-234.91 5715.5,-231.38 5715.48,-238.38"/>
</g>
<!-- 1965249348624605339 -->
<g id="node22" class="node">
<title>1965249348624605339</title>
<g id="a_node22"><a xlink:href="potentialcovidcritcare_1_ccdays.svg" xlink:title="Variable(potentialcovidcri...)">
<path fill="lightgrey" stroke="black" d="M3152.5,-828C3152.5,-828 3003.5,-828 3003.5,-828 2997.5,-828 2991.5,-822 2991.5,-816 2991.5,-816 2991.5,-804 2991.5,-804 2991.5,-798 2997.5,-792 3003.5,-792 3003.5,-792 3152.5,-792 3152.5,-792 3158.5,-792 3164.5,-798 3164.5,-804 3164.5,-804 3164.5,-816 3164.5,-816 3164.5,-822 3158.5,-828 3152.5,-828"/>
<text text-anchor="middle" x="3078" y="-806.3" font-family="Times,serif" font-size="14.00">Variable(potentialcovidcri...)</text>
</a>
</g>
</g>
<!-- 1965249348624605339&#45;&gt;3509576877858601689 -->
<g id="edge37" class="edge">
<title>1965249348624605339&#45;&gt;3509576877858601689</title>
<path fill="none" stroke="lightgrey" d="M3078,-791.95C3078,-765.29 3078,-712.11 3078,-667 3078,-667 3078,-667 3078,-377 3078,-278.89 3184.22,-309.24 3280,-288 3527.58,-233.1 5423.64,-234.39 5715.37,-234.92"/>
<polygon fill="lightgrey" stroke="lightgrey" points="5715.44,-238.42 5725.45,-234.94 5715.45,-231.42 5715.44,-238.42"/>
</g>
<!-- 3379142958588462408 -->
<g id="node23" class="node">
<title>3379142958588462408</title>
<g id="a_node23"><a xlink:href="covid_vax_az_3_date.svg" xlink:title="Variable(covid_vax_az_3_date)">
<path fill="lightgrey" stroke="black" d="M8498,-828C8498,-828 8334,-828 8334,-828 8328,-828 8322,-822 8322,-816 8322,-816 8322,-804 8322,-804 8322,-798 8328,-792 8334,-792 8334,-792 8498,-792 8498,-792 8504,-792 8510,-798 8510,-804 8510,-804 8510,-816 8510,-816 8510,-822 8504,-828 8498,-828"/>
<text text-anchor="middle" x="8416" y="-806.3" font-family="Times,serif" font-size="14.00">Variable(covid_vax_az_3_date)</text>
</a>
</g>
</g>
<!-- 3379142958588462408&#45;&gt;3509576877858601689 -->
<g id="edge38" class="edge">
<title>3379142958588462408&#45;&gt;3509576877858601689</title>
<path fill="none" stroke="lightgrey" d="M8400.16,-791.65C8378.69,-766.27 8343,-716.62 8343,-667 8343,-667 8343,-667 8343,-377 8343,-237.92 8180.39,-309.58 8043,-288 7811.85,-251.7 6070.27,-237.35 5790.79,-235.27"/>
<polygon fill="lightgrey" stroke="lightgrey" points="5790.77,-231.77 5780.74,-235.2 5790.71,-238.77 5790.77,-231.77"/>
</g>
<!-- 4225002590628906338 -->
<g id="node76" class="node">
<title>4225002590628906338</title>
<path fill="none" stroke="black" d="M9239.5,-324C9239.5,-324 9082.5,-324 9082.5,-324 9076.5,-324 9070.5,-318 9070.5,-312 9070.5,-312 9070.5,-300 9070.5,-300 9070.5,-294 9076.5,-288 9082.5,-288 9082.5,-288 9239.5,-288 9239.5,-288 9245.5,-288 9251.5,-294 9251.5,-300 9251.5,-300 9251.5,-312 9251.5,-312 9251.5,-318 9245.5,-324 9239.5,-324"/>
<text text-anchor="middle" x="9161" y="-302.3" font-family="Times,serif" font-size="14.00">SelectColumn(product_name)</text>
</g>
<!-- 3379142958588462408&#45;&gt;4225002590628906338 -->
<g id="edge39" class="edge">
<title>3379142958588462408&#45;&gt;4225002590628906338</title>
<path fill="none" stroke="lightgrey" d="M8431.84,-791.65C8453.31,-766.27 8489,-716.62 8489,-667 8489,-667 8489,-667 8489,-449 8489,-333.67 8872.69,-311.55 9060.22,-307.63"/>
<polygon fill="lightgrey" stroke="lightgrey" points="9060.44,-311.13 9070.37,-307.43 9060.3,-304.13 9060.44,-311.13"/>
</g>
<!-- 2691470118406119864 -->
<g id="node24" class="node">
<title>2691470118406119864</title>
<g id="a_node24"><a xlink:href="covid_tests_date.svg" xlink:title="Variable(covid_tests_date)">
<path fill="lightgrey" stroke="black" d="M3331.5,-828C3331.5,-828 3194.5,-828 3194.5,-828 3188.5,-828 3182.5,-822 3182.5,-816 3182.5,-816 3182.5,-804 3182.5,-804 3182.5,-798 3188.5,-792 3194.5,-792 3194.5,-792 3331.5,-792 3331.5,-792 3337.5,-792 3343.5,-798 3343.5,-804 3343.5,-804 3343.5,-816 3343.5,-816 3343.5,-822 3337.5,-828 3331.5,-828"/>
<text text-anchor="middle" x="3263" y="-806.3" font-family="Times,serif" font-size="14.00">Variable(covid_tests_date)</text>
</a>
</g>
</g>
<!-- 2691470118406119864&#45;&gt;3509576877858601689 -->
<g id="edge40" class="edge">
<title>2691470118406119864&#45;&gt;3509576877858601689</title>
<path fill="none" stroke="lightgrey" d="M3263,-791.95C3263,-765.29 3263,-712.11 3263,-667 3263,-667 3263,-667 3263,-377 3263,-276.45 3372.74,-309.33 3471,-288 3698.86,-238.54 5436.44,-235.23 5715.29,-235.01"/>
<polygon fill="lightgrey" stroke="lightgrey" points="5715.32,-238.51 5725.32,-235.01 5715.32,-231.51 5715.32,-238.51"/>
</g>
<!-- 6918861611650714505 -->
<g id="node25" class="node">
<title>6918861611650714505</title>
<g id="a_node25"><a xlink:href="covid_vax_disease_2_date.svg" xlink:title="Variable(covid_vax_disease...)">
<path fill="lightgrey" stroke="black" d="M3534,-828C3534,-828 3374,-828 3374,-828 3368,-828 3362,-822 3362,-816 3362,-816 3362,-804 3362,-804 3362,-798 3368,-792 3374,-792 3374,-792 3534,-792 3534,-792 3540,-792 3546,-798 3546,-804 3546,-804 3546,-816 3546,-816 3546,-822 3540,-828 3534,-828"/>
<text text-anchor="middle" x="3454" y="-806.3" font-family="Times,serif" font-size="14.00">Variable(covid_vax_disease...)</text>
</a>
</g>
</g>
<!-- 6918861611650714505&#45;&gt;3509576877858601689 -->
<g id="edge41" class="edge">
<title>6918861611650714505&#45;&gt;3509576877858601689</title>
<path fill="none" stroke="lightgrey" d="M3454,-791.95C3454,-765.29 3454,-712.11 3454,-667 3454,-667 3454,-667 3454,-377 3454,-273.99 3567.25,-309.45 3668,-288 3875.41,-243.84 5449.05,-236.12 5714.91,-235.13"/>
<polygon fill="lightgrey" stroke="lightgrey" points="5715.22,-238.63 5725.2,-235.09 5715.19,-231.63 5715.22,-238.63"/>
</g>
<!-- 8232583889354345964 -->
<g id="node26" class="node">
<title>8232583889354345964</title>
<g id="a_node26"><a xlink:href="covid_test_0_date.svg" xlink:title="Variable(covid_test_0_date)">
<path fill="lightgrey" stroke="black" d="M3721.5,-828C3721.5,-828 3576.5,-828 3576.5,-828 3570.5,-828 3564.5,-822 3564.5,-816 3564.5,-816 3564.5,-804 3564.5,-804 3564.5,-798 3570.5,-792 3576.5,-792 3576.5,-792 3721.5,-792 3721.5,-792 3727.5,-792 3733.5,-798 3733.5,-804 3733.5,-804 3733.5,-816 3733.5,-816 3733.5,-822 3727.5,-828 3721.5,-828"/>
<text text-anchor="middle" x="3649" y="-806.3" font-family="Times,serif" font-size="14.00">Variable(covid_test_0_date)</text>
</a>
</g>
</g>
<!-- 8232583889354345964&#45;&gt;3509576877858601689 -->
<g id="edge42" class="edge">
<title>8232583889354345964&#45;&gt;3509576877858601689</title>
<path fill="none" stroke="lightgrey" d="M3649,-791.95C3649,-765.29 3649,-712.11 3649,-667 3649,-667 3649,-667 3649,-377 3649,-287.76 3742.39,-309.51 3829,-288 4018.23,-241.02 5461.67,-235.65 5715.08,-235.07"/>
<polygon fill="lightgrey" stroke="lightgrey" points="5715.26,-238.57 5725.26,-235.05 5715.25,-231.57 5715.26,-238.57"/>
</g>
<!-- 4527174465814226518 -->
<g id="node27" class="node">
<title>4527174465814226518</title>
<g id="a_node27"><a xlink:href="asplenia.svg" xlink:title="Variable(asplenia)">
<path fill="lightgrey" stroke="black" d="M3854.5,-828C3854.5,-828 3763.5,-828 3763.5,-828 3757.5,-828 3751.5,-822 3751.5,-816 3751.5,-816 3751.5,-804 3751.5,-804 3751.5,-798 3757.5,-792 3763.5,-792 3763.5,-792 3854.5,-792 3854.5,-792 3860.5,-792 3866.5,-798 3866.5,-804 3866.5,-804 3866.5,-816 3866.5,-816 3866.5,-822 3860.5,-828 3854.5,-828"/>
<text text-anchor="middle" x="3809" y="-806.3" font-family="Times,serif" font-size="14.00">Variable(asplenia)</text>
</a>
</g>
</g>
<!-- 4527174465814226518&#45;&gt;3509576877858601689 -->
<g id="edge43" class="edge">
<title>4527174465814226518&#45;&gt;3509576877858601689</title>
<path fill="none" stroke="lightgrey" d="M3809,-791.95C3809,-765.29 3809,-712.11 3809,-667 3809,-667 3809,-667 3809,-377 3809,-299.86 3883.95,-309.61 3958,-288 4132.08,-237.19 5472.43,-234.96 5715.32,-234.97"/>
<polygon fill="lightgrey" stroke="lightgrey" points="5715.42,-238.47 5725.42,-234.98 5715.42,-231.47 5715.42,-238.47"/>
</g>
<!-- 7276356431061604826 -->
<g id="node28" class="node">
<title>7276356431061604826</title>
<g id="a_node28"><a xlink:href="learndis.svg" xlink:title="Variable(learndis)">
<path fill="lightgrey" stroke="black" d="M3985.5,-828C3985.5,-828 3896.5,-828 3896.5,-828 3890.5,-828 3884.5,-822 3884.5,-816 3884.5,-816 3884.5,-804 3884.5,-804 3884.5,-798 3890.5,-792 3896.5,-792 3896.5,-792 3985.5,-792 3985.5,-792 3991.5,-792 3997.5,-798 3997.5,-804 3997.5,-804 3997.5,-816 3997.5,-816 3997.5,-822 3991.5,-828 3985.5,-828"/>
<text text-anchor="middle" x="3941" y="-806.3" font-family="Times,serif" font-size="14.00">Variable(learndis)</text>
</a>
</g>
</g>
<!-- 7276356431061604826&#45;&gt;3509576877858601689 -->
<g id="edge44" class="edge">
<title>7276356431061604826&#45;&gt;3509576877858601689</title>
<path fill="none" stroke="lightgrey" d="M3941,-791.95C3941,-765.29 3941,-712.11 3941,-667 3941,-667 3941,-667 3941,-377 3941,-285.36 4037.97,-309.73 4127,-288 4285.68,-249.26 5485.28,-237.26 5715.03,-235.3"/>
<polygon fill="lightgrey" stroke="lightgrey" points="5715.25,-238.8 5725.22,-235.22 5715.2,-231.8 5715.25,-238.8"/>
</g>
<!-- 8588281403506945925 -->
<g id="node29" class="node">
<title>8588281403506945925</title>
<g id="a_node29"><a xlink:href="has_follow_up_previous_6weeks.svg" xlink:title="Variable(has_follow_up_pre...)">
<path fill="lightgrey" stroke="black" d="M4190,-828C4190,-828 4028,-828 4028,-828 4022,-828 4016,-822 4016,-816 4016,-816 4016,-804 4016,-804 4016,-798 4022,-792 4028,-792 4028,-792 4190,-792 4190,-792 4196,-792 4202,-798 4202,-804 4202,-804 4202,-816 4202,-816 4202,-822 4196,-828 4190,-828"/>
<text text-anchor="middle" x="4109" y="-806.3" font-family="Times,serif" font-size="14.00">Variable(has_follow_up_pre...)</text>
</a>
</g>
</g>
<!-- 8588281403506945925&#45;&gt;3509576877858601689 -->
<g id="edge45" class="edge">
<title>8588281403506945925&#45;&gt;3509576877858601689</title>
<path fill="none" stroke="lightgrey" d="M4109,-791.95C4109,-765.29 4109,-712.11 4109,-667 4109,-667 4109,-667 4109,-377 4109,-289.35 4200.12,-309.87 4285,-288 4427,-251.42 5498.73,-237.79 5715.02,-235.4"/>
<polygon fill="lightgrey" stroke="lightgrey" points="5715.27,-238.89 5725.24,-235.29 5715.2,-231.9 5715.27,-238.89"/>
</g>
<!-- 5798290827974159016 -->
<g id="node30" class="node">
<title>5798290827974159016</title>
<g id="a_node30"><a xlink:href="stp.svg" xlink:title="Variable(stp)">
<path fill="lightgrey" stroke="black" d="M4294,-828C4294,-828 4232,-828 4232,-828 4226,-828 4220,-822 4220,-816 4220,-816 4220,-804 4220,-804 4220,-798 4226,-792 4232,-792 4232,-792 4294,-792 4294,-792 4300,-792 4306,-798 4306,-804 4306,-804 4306,-816 4306,-816 4306,-822 4300,-828 4294,-828"/>
<text text-anchor="middle" x="4263" y="-806.3" font-family="Times,serif" font-size="14.00">Variable(stp)</text>
</a>
</g>
</g>
<!-- 5798290827974159016&#45;&gt;3509576877858601689 -->
<g id="edge46" class="edge">
<title>5798290827974159016&#45;&gt;3509576877858601689</title>
<path fill="none" stroke="lightgrey" d="M4263,-791.95C4263,-765.29 4263,-712.11 4263,-667 4263,-667 4263,-667 4263,-377 4263,-301.01 4336.25,-309.98 4409,-288 4536.85,-249.37 5509.59,-237.46 5714.99,-235.36"/>
<polygon fill="lightgrey" stroke="lightgrey" points="5715.3,-238.86 5725.27,-235.26 5715.23,-231.86 5715.3,-238.86"/>
</g>
<!-- 1599624066783601839 -->
<g id="node31" class="node">
<title>1599624066783601839</title>
<g id="a_node31"><a xlink:href="rural_urban.svg" xlink:title="Variable(rural_urban)">
<path fill="lightgrey" stroke="black" d="M4446,-828C4446,-828 4336,-828 4336,-828 4330,-828 4324,-822 4324,-816 4324,-816 4324,-804 4324,-804 4324,-798 4330,-792 4336,-792 4336,-792 4446,-792 4446,-792 4452,-792 4458,-798 4458,-804 4458,-804 4458,-816 4458,-816 4458,-822 4452,-828 4446,-828"/>
<text text-anchor="middle" x="4391" y="-806.3" font-family="Times,serif" font-size="14.00">Variable(rural_urban)</text>
</a>
</g>
</g>
<!-- 1599624066783601839&#45;&gt;3509576877858601689 -->
<g id="edge47" class="edge">
<title>1599624066783601839&#45;&gt;3509576877858601689</title>
<path fill="none" stroke="lightgrey" d="M4391,-791.95C4391,-765.29 4391,-712.11 4391,-667 4391,-667 4391,-667 4391,-377 4391,-282.54 4492.22,-310.33 4584,-288 4805.98,-233.98 5540.19,-233.97 5715.27,-234.77"/>
<polygon fill="lightgrey" stroke="lightgrey" points="5715.28,-238.27 5725.3,-234.81 5715.31,-231.27 5715.28,-238.27"/>
</g>
<!-- 5740228189149415266 -->
<g id="node32" class="node">
<title>5740228189149415266</title>
<g id="a_node32"><a xlink:href="admitted_planned_date.svg" xlink:title="Variable(admitted_planned_...)">
<path fill="lightgrey" stroke="black" d="M4650,-828C4650,-828 4488,-828 4488,-828 4482,-828 4476,-822 4476,-816 4476,-816 4476,-804 4476,-804 4476,-798 4482,-792 4488,-792 4488,-792 4650,-792 4650,-792 4656,-792 4662,-798 4662,-804 4662,-804 4662,-816 4662,-816 4662,-822 4656,-828 4650,-828"/>
<text text-anchor="middle" x="4569" y="-806.3" font-family="Times,serif" font-size="14.00">Variable(admitted_planned_...)</text>
</a>
</g>
</g>
<!-- 5740228189149415266&#45;&gt;3509576877858601689 -->
<g id="edge48" class="edge">
<title>5740228189149415266&#45;&gt;3509576877858601689</title>
<path fill="none" stroke="lightgrey" d="M4569,-791.95C4569,-765.29 4569,-712.11 4569,-667 4569,-667 4569,-667 4569,-377 4569,-271.11 4686.64,-311 4790,-288 4970.96,-247.74 5559.38,-237.47 5714.97,-235.44"/>
<polygon fill="lightgrey" stroke="lightgrey" points="5715.46,-238.93 5725.41,-235.3 5715.37,-231.93 5715.46,-238.93"/>
</g>
<!-- 3537668188118935942 -->
<g id="node33" class="node">
<title>3537668188118935942</title>
<g id="a_node33"><a xlink:href="primary_care_covid_case_date.svg" xlink:title="Variable(primary_care_covi...)">
<path fill="lightgrey" stroke="black" d="M4852.5,-828C4852.5,-828 4691.5,-828 4691.5,-828 4685.5,-828 4679.5,-822 4679.5,-816 4679.5,-816 4679.5,-804 4679.5,-804 4679.5,-798 4685.5,-792 4691.5,-792 4691.5,-792 4852.5,-792 4852.5,-792 4858.5,-792 4864.5,-798 4864.5,-804 4864.5,-804 4864.5,-816 4864.5,-816 4864.5,-822 4858.5,-828 4852.5,-828"/>
<text text-anchor="middle" x="4772" y="-806.3" font-family="Times,serif" font-size="14.00">Variable(primary_care_covi...)</text>
</a>
</g>
</g>
<!-- 3537668188118935942&#45;&gt;3509576877858601689 -->
<g id="edge49" class="edge">
<title>3537668188118935942&#45;&gt;3509576877858601689</title>
<path fill="none" stroke="lightgrey" d="M4772,-791.95C4772,-765.29 4772,-712.11 4772,-667 4772,-667 4772,-667 4772,-377 4772,-273.17 4886.9,-311.67 4988,-288 5128.72,-255.05 5581.02,-239.87 5715.16,-236.02"/>
<polygon fill="lightgrey" stroke="lightgrey" points="5715.45,-239.51 5725.35,-235.73 5715.25,-232.51 5715.45,-239.51"/>
</g>
<!-- 4167136521976511887 -->
<g id="node34" class="node">
<title>4167136521976511887</title>
<g id="a_node34"><a xlink:href="chronic_kidney_disease.svg" xlink:title="Variable(chronic_kidney_di...)">
<path fill="lightgrey" stroke="black" d="M5053.5,-828C5053.5,-828 4894.5,-828 4894.5,-828 4888.5,-828 4882.5,-822 4882.5,-816 4882.5,-816 4882.5,-804 4882.5,-804 4882.5,-798 4888.5,-792 4894.5,-792 4894.5,-792 5053.5,-792 5053.5,-792 5059.5,-792 5065.5,-798 5065.5,-804 5065.5,-804 5065.5,-816 5065.5,-816 5065.5,-822 5059.5,-828 5053.5,-828"/>
<text text-anchor="middle" x="4974" y="-806.3" font-family="Times,serif" font-size="14.00">Variable(chronic_kidney_di...)</text>
</a>
</g>
</g>
<!-- 4167136521976511887&#45;&gt;3509576877858601689 -->
<g id="edge50" class="edge">
<title>4167136521976511887&#45;&gt;3509576877858601689</title>
<path fill="none" stroke="lightgrey" d="M4974,-791.95C4974,-765.29 4974,-712.11 4974,-667 4974,-667 4974,-667 4974,-377 4974,-264.07 5101.98,-313.5 5212,-288 5397.3,-245.05 5626.18,-236.88 5715.14,-235.34"/>
<polygon fill="lightgrey" stroke="lightgrey" points="5715.34,-238.84 5725.29,-235.19 5715.24,-231.84 5715.34,-238.84"/>
</g>
<!-- 6670649817898923012 -->
<g id="node35" class="node">
<title>6670649817898923012</title>
<g id="a_node35"><a xlink:href="emergencyhosp_date.svg" xlink:title="Variable(emergencyhosp_date)">
<path fill="lightgrey" stroke="black" d="M5256.5,-828C5256.5,-828 5095.5,-828 5095.5,-828 5089.5,-828 5083.5,-822 5083.5,-816 5083.5,-816 5083.5,-804 5083.5,-804 5083.5,-798 5089.5,-792 5095.5,-792 5095.5,-792 5256.5,-792 5256.5,-792 5262.5,-792 5268.5,-798 5268.5,-804 5268.5,-804 5268.5,-816 5268.5,-816 5268.5,-822 5262.5,-828 5256.5,-828"/>
<text text-anchor="middle" x="5176" y="-806.3" font-family="Times,serif" font-size="14.00">Variable(emergencyhosp_date)</text>
</a>
</g>
</g>
<!-- 6670649817898923012&#45;&gt;3509576877858601689 -->
<g id="edge51" class="edge">
<title>6670649817898923012&#45;&gt;3509576877858601689</title>
<path fill="none" stroke="lightgrey" d="M5176,-791.95C5176,-765.29 5176,-712.11 5176,-667 5176,-667 5176,-667 5176,-377 5176,-265.62 5586.51,-241.11 5715.02,-236.16"/>
<polygon fill="lightgrey" stroke="lightgrey" points="5715.31,-239.65 5725.17,-235.79 5715.05,-232.66 5715.31,-239.65"/>
</g>
<!-- 7142007055908598246 -->
<g id="node36" class="node">
<title>7142007055908598246</title>
<g id="a_node36"><a xlink:href="msoa.svg" xlink:title="Variable(msoa)">
<path fill="lightgrey" stroke="black" d="M5375,-828C5375,-828 5299,-828 5299,-828 5293,-828 5287,-822 5287,-816 5287,-816 5287,-804 5287,-804 5287,-798 5293,-792 5299,-792 5299,-792 5375,-792 5375,-792 5381,-792 5387,-798 5387,-804 5387,-804 5387,-816 5387,-816 5387,-822 5381,-828 5375,-828"/>
<text text-anchor="middle" x="5337" y="-806.3" font-family="Times,serif" font-size="14.00">Variable(msoa)</text>
</a>
</g>
</g>
<!-- 7142007055908598246&#45;&gt;3509576877858601689 -->
<g id="edge52" class="edge">
<title>7142007055908598246&#45;&gt;3509576877858601689</title>
<path fill="none" stroke="lightgrey" d="M5337,-791.95C5337,-765.29 5337,-712.11 5337,-667 5337,-667 5337,-667 5337,-377 5337,-297.49 5612.62,-253.34 5715.17,-239.66"/>
<polygon fill="lightgrey" stroke="lightgrey" points="5715.92,-243.09 5725.38,-238.32 5715.01,-236.15 5715.92,-243.09"/>
</g>
<!-- 6209917712092685328 -->
<g id="node37" class="node">
<title>6209917712092685328</title>
<g id="a_node37"><a xlink:href="postest_0_date.svg" xlink:title="Variable(postest_0_date)">
<path fill="lightgrey" stroke="black" d="M5544.5,-828C5544.5,-828 5417.5,-828 5417.5,-828 5411.5,-828 5405.5,-822 5405.5,-816 5405.5,-816 5405.5,-804 5405.5,-804 5405.5,-798 5411.5,-792 5417.5,-792 5417.5,-792 5544.5,-792 5544.5,-792 5550.5,-792 5556.5,-798 5556.5,-804 5556.5,-804 5556.5,-816 5556.5,-816 5556.5,-822 5550.5,-828 5544.5,-828"/>
<text text-anchor="middle" x="5481" y="-806.3" font-family="Times,serif" font-size="14.00">Variable(postest_0_date)</text>
</a>
</g>
</g>
<!-- 6209917712092685328&#45;&gt;3509576877858601689 -->
<g id="edge53" class="edge">
<title>6209917712092685328&#45;&gt;3509576877858601689</title>
<path fill="none" stroke="lightgrey" d="M5481,-791.95C5481,-765.29 5481,-712.11 5481,-667 5481,-667 5481,-667 5481,-377 5481,-272.66 5640.23,-244.86 5715.03,-237.55"/>
<polygon fill="lightgrey" stroke="lightgrey" points="5715.78,-241 5725.42,-236.62 5715.15,-234.03 5715.78,-241"/>
</g>
<!-- 1517716104962599745 -->
<g id="node38" class="node">
<title>1517716104962599745</title>
<g id="a_node38"><a xlink:href="chronic_resp_disease.svg" xlink:title="Variable(chronic_resp_disease)">
<path fill="lightgrey" stroke="black" d="M5749,-828C5749,-828 5587,-828 5587,-828 5581,-828 5575,-822 5575,-816 5575,-816 5575,-804 5575,-804 5575,-798 5581,-792 5587,-792 5587,-792 5749,-792 5749,-792 5755,-792 5761,-798 5761,-804 5761,-804 5761,-816 5761,-816 5761,-822 5755,-828 5749,-828"/>
<text text-anchor="middle" x="5668" y="-806.3" font-family="Times,serif" font-size="14.00">Variable(chronic_resp_disease)</text>
</a>
</g>
</g>
<!-- 1517716104962599745&#45;&gt;3509576877858601689 -->
<g id="edge54" class="edge">
<title>1517716104962599745&#45;&gt;3509576877858601689</title>
<path fill="none" stroke="lightgrey" d="M5668,-791.95C5668,-765.29 5668,-712.11 5668,-667 5668,-667 5668,-667 5668,-377 5668,-330.45 5702.04,-285.95 5727.04,-259.55"/>
<polygon fill="lightgrey" stroke="lightgrey" points="5729.66,-261.87 5734.14,-252.27 5724.65,-256.98 5729.66,-261.87"/>
</g>
<!-- 5327284127719854644 -->
<g id="node39" class="node">
<title>5327284127719854644</title>
<g id="a_node39"><a xlink:href="cev_ever.svg" xlink:title="Variable(cev_ever)">
<path fill="lightgrey" stroke="black" d="M5886.5,-828C5886.5,-828 5791.5,-828 5791.5,-828 5785.5,-828 5779.5,-822 5779.5,-816 5779.5,-816 5779.5,-804 5779.5,-804 5779.5,-798 5785.5,-792 5791.5,-792 5791.5,-792 5886.5,-792 5886.5,-792 5892.5,-792 5898.5,-798 5898.5,-804 5898.5,-804 5898.5,-816 5898.5,-816 5898.5,-822 5892.5,-828 5886.5,-828"/>
<text text-anchor="middle" x="5839" y="-806.3" font-family="Times,serif" font-size="14.00">Variable(cev_ever)</text>
</a>
</g>
</g>
<!-- 5327284127719854644&#45;&gt;3509576877858601689 -->
<g id="edge55" class="edge">
<title>5327284127719854644&#45;&gt;3509576877858601689</title>
<path fill="none" stroke="lightgrey" d="M5839,-791.95C5839,-765.29 5839,-712.11 5839,-667 5839,-667 5839,-667 5839,-377 5839,-330.31 5804.56,-285.84 5779.27,-259.49"/>
<polygon fill="lightgrey" stroke="lightgrey" points="5781.61,-256.88 5772.09,-252.23 5776.63,-261.8 5781.61,-256.88"/>
</g>
<!-- 6313462188662218923 -->
<g id="node40" class="node">
<title>6313462188662218923</title>
<g id="a_node40"><a xlink:href="care_home_tpp.svg" xlink:title="Variable(care_home_tpp)">
<path fill="lightgrey" stroke="black" d="M6059.5,-828C6059.5,-828 5928.5,-828 5928.5,-828 5922.5,-828 5916.5,-822 5916.5,-816 5916.5,-816 5916.5,-804 5916.5,-804 5916.5,-798 5922.5,-792 5928.5,-792 5928.5,-792 6059.5,-792 6059.5,-792 6065.5,-792 6071.5,-798 6071.5,-804 6071.5,-804 6071.5,-816 6071.5,-816 6071.5,-822 6065.5,-828 6059.5,-828"/>
<text text-anchor="middle" x="5994" y="-806.3" font-family="Times,serif" font-size="14.00">Variable(care_home_tpp)</text>
</a>
</g>
</g>
<!-- 6313462188662218923&#45;&gt;3509576877858601689 -->
<g id="edge56" class="edge">
<title>6313462188662218923&#45;&gt;3509576877858601689</title>
<path fill="none" stroke="lightgrey" d="M5994,-791.95C5994,-765.29 5994,-712.11 5994,-667 5994,-667 5994,-667 5994,-377 5994,-283.88 5858.8,-250.59 5790.93,-239.75"/>
<polygon fill="lightgrey" stroke="lightgrey" points="5791.06,-236.23 5780.65,-238.19 5790.01,-243.15 5791.06,-236.23"/>
</g>
<!-- 6935829087527829727 -->
<g id="node41" class="node">
<title>6935829087527829727</title>
<g id="a_node41"><a xlink:href="region.svg" xlink:title="Variable(region)">
<path fill="lightgrey" stroke="black" d="M6182.5,-828C6182.5,-828 6101.5,-828 6101.5,-828 6095.5,-828 6089.5,-822 6089.5,-816 6089.5,-816 6089.5,-804 6089.5,-804 6089.5,-798 6095.5,-792 6101.5,-792 6101.5,-792 6182.5,-792 6182.5,-792 6188.5,-792 6194.5,-798 6194.5,-804 6194.5,-804 6194.5,-816 6194.5,-816 6194.5,-822 6188.5,-828 6182.5,-828"/>
<text text-anchor="middle" x="6142" y="-806.3" font-family="Times,serif" font-size="14.00">Variable(region)</text>
</a>
</g>
</g>
<!-- 6935829087527829727&#45;&gt;3509576877858601689 -->
<g id="edge57" class="edge">
<title>6935829087527829727&#45;&gt;3509576877858601689</title>
<path fill="none" stroke="lightgrey" d="M6142,-791.95C6142,-765.29 6142,-712.11 6142,-667 6142,-667 6142,-667 6142,-377 6142,-302.69 5888.36,-255.8 5790.7,-240.5"/>
<polygon fill="lightgrey" stroke="lightgrey" points="5791.08,-237.02 5780.66,-238.95 5790.01,-243.94 5791.08,-237.02"/>
</g>
<!-- 8473153233318792656 -->
<g id="node42" class="node">
<title>8473153233318792656</title>
<g id="a_node42"><a xlink:href="endoflife.svg" xlink:title="Variable(endoflife)">
<path fill="lightgrey" stroke="black" d="M6319.5,-828C6319.5,-828 6224.5,-828 6224.5,-828 6218.5,-828 6212.5,-822 6212.5,-816 6212.5,-816 6212.5,-804 6212.5,-804 6212.5,-798 6218.5,-792 6224.5,-792 6224.5,-792 6319.5,-792 6319.5,-792 6325.5,-792 6331.5,-798 6331.5,-804 6331.5,-804 6331.5,-816 6331.5,-816 6331.5,-822 6325.5,-828 6319.5,-828"/>
<text text-anchor="middle" x="6272" y="-806.3" font-family="Times,serif" font-size="14.00">Variable(endoflife)</text>
</a>
</g>
</g>
<!-- 8473153233318792656&#45;&gt;3509576877858601689 -->
<g id="edge58" class="edge">
<title>8473153233318792656&#45;&gt;3509576877858601689</title>
<path fill="none" stroke="lightgrey" d="M6272,-791.95C6272,-765.29 6272,-712.11 6272,-667 6272,-667 6272,-667 6272,-377 6272,-277.14 5910.01,-245.03 5790.66,-237.16"/>
<polygon fill="lightgrey" stroke="lightgrey" points="5790.74,-233.66 5780.54,-236.52 5790.29,-240.65 5790.74,-233.66"/>
</g>
<!-- 2775500690548065988 -->
<g id="node43" class="node">
<title>2775500690548065988</title>
<g id="a_node43"><a xlink:href="imd_Q5.svg" xlink:title="Variable(imd_Q5)">
<path fill="lightgrey" stroke="black" d="M6454,-828C6454,-828 6362,-828 6362,-828 6356,-828 6350,-822 6350,-816 6350,-816 6350,-804 6350,-804 6350,-798 6356,-792 6362,-792 6362,-792 6454,-792 6454,-792 6460,-792 6466,-798 6466,-804 6466,-804 6466,-816 6466,-816 6466,-822 6460,-828 6454,-828"/>
<text text-anchor="middle" x="6408" y="-806.3" font-family="Times,serif" font-size="14.00">Variable(imd_Q5)</text>
</a>
</g>
</g>
<!-- 2775500690548065988&#45;&gt;3509576877858601689 -->
<g id="edge59" class="edge">
<title>2775500690548065988&#45;&gt;3509576877858601689</title>
<path fill="none" stroke="lightgrey" d="M6408,-791.95C6408,-765.29 6408,-712.11 6408,-667 6408,-667 6408,-667 6408,-377 6408,-249.85 5930.59,-236.31 5790.94,-235.06"/>
<polygon fill="lightgrey" stroke="lightgrey" points="5790.75,-231.56 5780.73,-234.99 5790.7,-238.56 5790.75,-231.56"/>
</g>
<!-- 8208274307224574846 -->
<g id="node44" class="node">
<title>8208274307224574846</title>
<g id="a_node44"><a xlink:href="asthma.svg" xlink:title="Variable(asthma)">
<path fill="lightgrey" stroke="black" d="M6582,-828C6582,-828 6496,-828 6496,-828 6490,-828 6484,-822 6484,-816 6484,-816 6484,-804 6484,-804 6484,-798 6490,-792 6496,-792 6496,-792 6582,-792 6582,-792 6588,-792 6594,-798 6594,-804 6594,-804 6594,-816 6594,-816 6594,-822 6588,-828 6582,-828"/>
<text text-anchor="middle" x="6539" y="-806.3" font-family="Times,serif" font-size="14.00">Variable(asthma)</text>
</a>
</g>
</g>
<!-- 8208274307224574846&#45;&gt;3509576877858601689 -->
<g id="edge60" class="edge">
<title>8208274307224574846&#45;&gt;3509576877858601689</title>
<path fill="none" stroke="lightgrey" d="M6539,-791.95C6539,-765.29 6539,-712.11 6539,-667 6539,-667 6539,-667 6539,-377 6539,-284.15 6439.62,-312.26 6350,-288 6243.7,-259.23 5905.04,-241.8 5790.94,-236.63"/>
<polygon fill="lightgrey" stroke="lightgrey" points="5790.76,-233.12 5780.61,-236.17 5790.45,-240.11 5790.76,-233.12"/>
</g>
<!-- 8916256095301715678 -->
<g id="node45" class="node">
<title>8916256095301715678</title>
<g id="a_node45"><a xlink:href="potentialcovidcritcare_3_ccdays.svg" xlink:title="Variable(potentialcovidcri...)">
<path fill="lightgrey" stroke="black" d="M6773.5,-828C6773.5,-828 6624.5,-828 6624.5,-828 6618.5,-828 6612.5,-822 6612.5,-816 6612.5,-816 6612.5,-804 6612.5,-804 6612.5,-798 6618.5,-792 6624.5,-792 6624.5,-792 6773.5,-792 6773.5,-792 6779.5,-792 6785.5,-798 6785.5,-804 6785.5,-804 6785.5,-816 6785.5,-816 6785.5,-822 6779.5,-828 6773.5,-828"/>
<text text-anchor="middle" x="6699" y="-806.3" font-family="Times,serif" font-size="14.00">Variable(potentialcovidcri...)</text>
</a>
</g>
</g>
<!-- 8916256095301715678&#45;&gt;3509576877858601689 -->
<g id="edge61" class="edge">
<title>8916256095301715678&#45;&gt;3509576877858601689</title>
<path fill="none" stroke="lightgrey" d="M6699,-791.95C6699,-765.29 6699,-712.11 6699,-667 6699,-667 6699,-667 6699,-377 6699,-259.06 6564.38,-312.47 6449,-288 6202.02,-235.61 5896.05,-233.39 5790.7,-234.38"/>
<polygon fill="lightgrey" stroke="lightgrey" points="5790.53,-230.88 5780.57,-234.49 5790.6,-237.88 5790.53,-230.88"/>
</g>
<!-- 8860865523904995829 -->
<g id="node46" class="node">
<title>8860865523904995829</title>
<g id="a_node46"><a xlink:href="covid_vax_moderna_2_date.svg" xlink:title="Variable(covid_vax_moderna...)">
<path fill="lightgrey" stroke="black" d="M8915.5,-828C8915.5,-828 8746.5,-828 8746.5,-828 8740.5,-828 8734.5,-822 8734.5,-816 8734.5,-816 8734.5,-804 8734.5,-804 8734.5,-798 8740.5,-792 8746.5,-792 8746.5,-792 8915.5,-792 8915.5,-792 8921.5,-792 8927.5,-798 8927.5,-804 8927.5,-804 8927.5,-816 8927.5,-816 8927.5,-822 8921.5,-828 8915.5,-828"/>
<text text-anchor="middle" x="8831" y="-806.3" font-family="Times,serif" font-size="14.00">Variable(covid_vax_moderna...)</text>
</a>
</g>
</g>
<!-- 8860865523904995829&#45;&gt;3509576877858601689 -->
<g id="edge62" class="edge">
<title>8860865523904995829&#45;&gt;3509576877858601689</title>
<path fill="none" stroke="lightgrey" d="M8822.09,-791.58C8809.5,-765.3 8788,-713.62 8788,-667 8788,-667 8788,-667 8788,-377 8788,-164.84 8530.02,-310.05 8319,-288 7798.03,-233.57 6069.68,-234.41 5791.07,-234.91"/>
<polygon fill="lightgrey" stroke="lightgrey" points="5790.68,-231.41 5780.68,-234.93 5790.69,-238.41 5790.68,-231.41"/>
</g>
<!-- 8860865523904995829&#45;&gt;4225002590628906338 -->
<g id="edge63" class="edge">
<title>8860865523904995829&#45;&gt;4225002590628906338</title>
<path fill="none" stroke="lightgrey" d="M8859.26,-791.99C8894.17,-768.59 8949,-722.93 8949,-667 8949,-667 8949,-667 8949,-521 8949,-428.23 9050.8,-361.27 9113.31,-328.9"/>
<polygon fill="lightgrey" stroke="lightgrey" points="9115.27,-331.83 9122.61,-324.19 9112.11,-325.59 9115.27,-331.83"/>
</g>
<!-- 5286539410835567020 -->
<g id="node47" class="node">
<title>5286539410835567020</title>
<g id="a_node47"><a xlink:href="covid_vax_disease_4_date.svg" xlink:title="Variable(covid_vax_disease...)">
<path fill="lightgrey" stroke="black" d="M6976,-828C6976,-828 6816,-828 6816,-828 6810,-828 6804,-822 6804,-816 6804,-816 6804,-804 6804,-804 6804,-798 6810,-792 6816,-792 6816,-792 6976,-792 6976,-792 6982,-792 6988,-798 6988,-804 6988,-804 6988,-816 6988,-816 6988,-822 6982,-828 6976,-828"/>
<text text-anchor="middle" x="6896" y="-806.3" font-family="Times,serif" font-size="14.00">Variable(covid_vax_disease...)</text>
</a>
</g>
</g>
<!-- 5286539410835567020&#45;&gt;3509576877858601689 -->
<g id="edge64" class="edge">
<title>5286539410835567020&#45;&gt;3509576877858601689</title>
<path fill="none" stroke="lightgrey" d="M6896,-791.95C6896,-765.29 6896,-712.11 6896,-667 6896,-667 6896,-667 6896,-377 6896,-262.99 5988.93,-239.42 5790.89,-235.63"/>
<polygon fill="lightgrey" stroke="lightgrey" points="5790.75,-232.13 5780.69,-235.44 5790.62,-239.13 5790.75,-232.13"/>
</g>
<!-- 4664077085798517115 -->
<g id="node48" class="node">
<title>4664077085798517115</title>
<g id="a_node48"><a xlink:href="immunosuppressed.svg" xlink:title="Variable(immunosuppressed)">
<path fill="lightgrey" stroke="black" d="M7170,-828C7170,-828 7018,-828 7018,-828 7012,-828 7006,-822 7006,-816 7006,-816 7006,-804 7006,-804 7006,-798 7012,-792 7018,-792 7018,-792 7170,-792 7170,-792 7176,-792 7182,-798 7182,-804 7182,-804 7182,-816 7182,-816 7182,-822 7176,-828 7170,-828"/>
<text text-anchor="middle" x="7094" y="-806.3" font-family="Times,serif" font-size="14.00">Variable(immunosuppressed)</text>
</a>
</g>
</g>
<!-- 4664077085798517115&#45;&gt;3509576877858601689 -->
<g id="edge65" class="edge">
<title>4664077085798517115&#45;&gt;3509576877858601689</title>
<path fill="none" stroke="lightgrey" d="M7094,-791.95C7094,-765.29 7094,-712.11 7094,-667 7094,-667 7094,-667 7094,-377 7094,-242.24 6009.32,-235.02 5791.01,-234.93"/>
<polygon fill="lightgrey" stroke="lightgrey" points="5790.7,-231.43 5780.7,-234.93 5790.7,-238.43 5790.7,-231.43"/>
</g>
<!-- 4643035591650878662 -->
<g id="node49" class="node">
<title>4643035591650878662</title>
<g id="a_node49"><a xlink:href="covidemergencyhosp_date.svg" xlink:title="Variable(covidemergencyhos...)">
<path fill="lightgrey" stroke="black" d="M7379.5,-828C7379.5,-828 7212.5,-828 7212.5,-828 7206.5,-828 7200.5,-822 7200.5,-816 7200.5,-816 7200.5,-804 7200.5,-804 7200.5,-798 7206.5,-792 7212.5,-792 7212.5,-792 7379.5,-792 7379.5,-792 7385.5,-792 7391.5,-798 7391.5,-804 7391.5,-804 7391.5,-816 7391.5,-816 7391.5,-822 7385.5,-828 7379.5,-828"/>
<text text-anchor="middle" x="7296" y="-806.3" font-family="Times,serif" font-size="14.00">Variable(covidemergencyhos...)</text>
</a>
</g>
</g>
<!-- 4643035591650878662&#45;&gt;3509576877858601689 -->
<g id="edge66" class="edge">
<title>4643035591650878662&#45;&gt;3509576877858601689</title>
<path fill="none" stroke="lightgrey" d="M7296,-791.95C7296,-765.29 7296,-712.11 7296,-667 7296,-667 7296,-667 7296,-377 7296,-222.52 7112.72,-311.3 6960,-288 6726.45,-252.37 5969.29,-238.41 5790.9,-235.57"/>
<polygon fill="lightgrey" stroke="lightgrey" points="5790.75,-232.06 5780.7,-235.41 5790.64,-239.06 5790.75,-232.06"/>
</g>
<!-- 7445428629722490386 -->
<g id="node50" class="node">
<title>7445428629722490386</title>
<g id="a_node50"><a xlink:href="covid_vax_az_2_date.svg" xlink:title="Variable(covid_vax_az_2_date)">
<path fill="lightgrey" stroke="black" d="M9333,-828C9333,-828 9169,-828 9169,-828 9163,-828 9157,-822 9157,-816 9157,-816 9157,-804 9157,-804 9157,-798 9163,-792 9169,-792 9169,-792 9333,-792 9333,-792 9339,-792 9345,-798 9345,-804 9345,-804 9345,-816 9345,-816 9345,-822 9339,-828 9333,-828"/>
<text text-anchor="middle" x="9251" y="-806.3" font-family="Times,serif" font-size="14.00">Variable(covid_vax_az_2_date)</text>
</a>
</g>
</g>
<!-- 7445428629722490386&#45;&gt;3509576877858601689 -->
<g id="edge67" class="edge">
<title>7445428629722490386&#45;&gt;3509576877858601689</title>
<path fill="none" stroke="lightgrey" d="M9215.46,-791.87C9174.57,-769.39 9113,-725.78 9113,-667 9113,-667 9113,-667 9113,-593 9113,-365.53 8926.73,-323.18 8702,-288 8401.24,-240.92 6114.66,-235.57 5791.04,-235.05"/>
<polygon fill="lightgrey" stroke="lightgrey" points="5790.78,-231.55 5780.78,-235.04 5790.77,-238.55 5790.78,-231.55"/>
</g>
<!-- 7445428629722490386&#45;&gt;4225002590628906338 -->
<g id="edge68" class="edge">
<title>7445428629722490386&#45;&gt;4225002590628906338</title>
<path fill="none" stroke="lightgrey" d="M9232.36,-791.69C9207.61,-766.72 9167,-717.98 9167,-667 9167,-667 9167,-667 9167,-449 9167,-408.96 9164.59,-362.63 9162.82,-334.07"/>
<polygon fill="lightgrey" stroke="lightgrey" points="9166.31,-333.8 9162.19,-324.04 9159.33,-334.24 9166.31,-333.8"/>
</g>
<!-- 5396064260671611635 -->
<g id="node51" class="node">
<title>5396064260671611635</title>
<g id="a_node51"><a xlink:href="sev_obesity.svg" xlink:title="Variable(sev_obesity)">
<path fill="lightgrey" stroke="black" d="M7532,-828C7532,-828 7422,-828 7422,-828 7416,-828 7410,-822 7410,-816 7410,-816 7410,-804 7410,-804 7410,-798 7416,-792 7422,-792 7422,-792 7532,-792 7532,-792 7538,-792 7544,-798 7544,-804 7544,-804 7544,-816 7544,-816 7544,-822 7538,-828 7532,-828"/>
<text text-anchor="middle" x="7477" y="-806.3" font-family="Times,serif" font-size="14.00">Variable(sev_obesity)</text>
</a>
</g>
</g>
<!-- 5396064260671611635&#45;&gt;3509576877858601689 -->
<g id="edge69" class="edge">
<title>5396064260671611635&#45;&gt;3509576877858601689</title>
<path fill="none" stroke="lightgrey" d="M7477,-791.95C7477,-765.29 7477,-712.11 7477,-667 7477,-667 7477,-667 7477,-377 7477,-220.37 7290.95,-310.91 7136,-288 6865.83,-248.05 5984.93,-237.26 5790.99,-235.34"/>
<polygon fill="lightgrey" stroke="lightgrey" points="5790.77,-231.84 5780.74,-235.24 5790.71,-238.84 5790.77,-231.84"/>
</g>
<!-- 8148583382169038695 -->
<g id="node52" class="node">
<title>8148583382169038695</title>
<g id="a_node52"><a xlink:href="potentialcovidcritcare_1_date.svg" xlink:title="Variable(potentialcovidcri...)">
<path fill="lightgrey" stroke="black" d="M7723.5,-828C7723.5,-828 7574.5,-828 7574.5,-828 7568.5,-828 7562.5,-822 7562.5,-816 7562.5,-816 7562.5,-804 7562.5,-804 7562.5,-798 7568.5,-792 7574.5,-792 7574.5,-792 7723.5,-792 7723.5,-792 7729.5,-792 7735.5,-798 7735.5,-804 7735.5,-804 7735.5,-816 7735.5,-816 7735.5,-822 7729.5,-828 7723.5,-828"/>
<text text-anchor="middle" x="7649" y="-806.3" font-family="Times,serif" font-size="14.00">Variable(potentialcovidcri...)</text>
</a>
</g>
</g>
<!-- 8148583382169038695&#45;&gt;3509576877858601689 -->
<g id="edge70" class="edge">
<title>8148583382169038695&#45;&gt;3509576877858601689</title>
<path fill="none" stroke="lightgrey" d="M7649,-791.95C7649,-765.29 7649,-712.11 7649,-667 7649,-667 7649,-667 7649,-377 7649,-222.95 7466.4,-310.53 7314,-288 7006.67,-242.55 5998.88,-236 5790.79,-235.13"/>
<polygon fill="lightgrey" stroke="lightgrey" points="5790.69,-231.63 5780.67,-235.09 5790.66,-238.63 5790.69,-231.63"/>
</g>
<!-- 1286195963700239727 -->
<g id="node53" class="node">
<title>1286195963700239727</title>
<g id="a_node53"><a xlink:href="covid_vax_disease_3_date.svg" xlink:title="Variable(covid_vax_disease...)">
<path fill="lightgrey" stroke="black" d="M7926,-828C7926,-828 7766,-828 7766,-828 7760,-828 7754,-822 7754,-816 7754,-816 7754,-804 7754,-804 7754,-798 7760,-792 7766,-792 7766,-792 7926,-792 7926,-792 7932,-792 7938,-798 7938,-804 7938,-804 7938,-816 7938,-816 7938,-822 7932,-828 7926,-828"/>
<text text-anchor="middle" x="7846" y="-806.3" font-family="Times,serif" font-size="14.00">Variable(covid_vax_disease...)</text>
</a>
</g>
</g>
<!-- 1286195963700239727&#45;&gt;3509576877858601689 -->
<g id="edge71" class="edge">
<title>1286195963700239727&#45;&gt;3509576877858601689</title>
<path fill="none" stroke="lightgrey" d="M7846,-791.95C7846,-765.29 7846,-712.11 7846,-667 7846,-667 7846,-667 7846,-377 7846,-213.48 7650.98,-310.4 7489,-288 7144.62,-240.37 6012.07,-235.54 5790.71,-235.06"/>
<polygon fill="lightgrey" stroke="lightgrey" points="5790.58,-231.56 5780.58,-235.03 5790.57,-238.56 5790.58,-231.56"/>
</g>
<!-- 5930452930145504719 -->
<g id="node54" class="node">
<title>5930452930145504719</title>
<g id="a_node54"><a xlink:href="postest_date.svg" xlink:title="Variable(postest_date)">
<path fill="lightgrey" stroke="black" d="M8081.5,-828C8081.5,-828 7968.5,-828 7968.5,-828 7962.5,-828 7956.5,-822 7956.5,-816 7956.5,-816 7956.5,-804 7956.5,-804 7956.5,-798 7962.5,-792 7968.5,-792 7968.5,-792 8081.5,-792 8081.5,-792 8087.5,-792 8093.5,-798 8093.5,-804 8093.5,-804 8093.5,-816 8093.5,-816 8093.5,-822 8087.5,-828 8081.5,-828"/>
<text text-anchor="middle" x="8025" y="-806.3" font-family="Times,serif" font-size="14.00">Variable(postest_date)</text>
</a>
</g>
</g>
<!-- 5930452930145504719&#45;&gt;3509576877858601689 -->
<g id="edge72" class="edge">
<title>5930452930145504719&#45;&gt;3509576877858601689</title>
<path fill="none" stroke="lightgrey" d="M8025,-791.95C8025,-765.29 8025,-712.11 8025,-667 8025,-667 8025,-667 8025,-377 8025,-217.36 7835.11,-310.11 7677,-288 7293.22,-234.32 6025.57,-234.4 5790.63,-234.89"/>
<polygon fill="lightgrey" stroke="lightgrey" points="5790.53,-231.39 5780.54,-234.92 5790.55,-238.39 5790.53,-231.39"/>
</g>
<!-- 814491311429858980 -->
<g id="node55" class="node">
<title>814491311429858980</title>
<g id="a_node55"><a xlink:href="covid_vax_az_4_date.svg" xlink:title="Variable(covid_vax_az_4_date)">
<path fill="lightgrey" stroke="black" d="M8704,-828C8704,-828 8540,-828 8540,-828 8534,-828 8528,-822 8528,-816 8528,-816 8528,-804 8528,-804 8528,-798 8534,-792 8540,-792 8540,-792 8704,-792 8704,-792 8710,-792 8716,-798 8716,-804 8716,-804 8716,-816 8716,-816 8716,-822 8710,-828 8704,-828"/>
<text text-anchor="middle" x="8622" y="-806.3" font-family="Times,serif" font-size="14.00">Variable(covid_vax_az_4_date)</text>
</a>
</g>
</g>
<!-- 814491311429858980&#45;&gt;3509576877858601689 -->
<g id="edge73" class="edge">
<title>814491311429858980&#45;&gt;3509576877858601689</title>
<path fill="none" stroke="lightgrey" d="M8559.82,-791.97C8503.07,-772.19 8428,-733.47 8428,-667 8428,-667 8428,-667 8428,-377 8428,-268.22 8306.68,-309.28 8200,-288 7954.05,-238.94 6080.68,-235.29 5790.67,-235.02"/>
<polygon fill="lightgrey" stroke="lightgrey" points="5790.65,-231.52 5780.65,-235.01 5790.64,-238.52 5790.65,-231.52"/>
</g>
<!-- 814491311429858980&#45;&gt;4225002590628906338 -->
<g id="edge74" class="edge">
<title>814491311429858980&#45;&gt;4225002590628906338</title>
<path fill="none" stroke="lightgrey" d="M8630.91,-791.58C8643.5,-765.3 8665,-713.62 8665,-667 8665,-667 8665,-667 8665,-449 8665,-367.6 8915.04,-330.2 9060.06,-315.36"/>
<polygon fill="lightgrey" stroke="lightgrey" points="9060.71,-318.81 9070.31,-314.33 9060.01,-311.85 9060.71,-318.81"/>
</g>
<!-- 833848849304129238 -->
<g id="node56" class="node">
<title>833848849304129238</title>
<g id="a_node56"><a xlink:href="covidemergency_0_date.svg" xlink:title="Variable(covidemergency_0_...)">
<path fill="lightgrey" stroke="black" d="M8292,-828C8292,-828 8124,-828 8124,-828 8118,-828 8112,-822 8112,-816 8112,-816 8112,-804 8112,-804 8112,-798 8118,-792 8124,-792 8124,-792 8292,-792 8292,-792 8298,-792 8304,-798 8304,-804 8304,-804 8304,-816 8304,-816 8304,-822 8298,-828 8292,-828"/>
<text text-anchor="middle" x="8208" y="-806.3" font-family="Times,serif" font-size="14.00">Variable(covidemergency_0_...)</text>
</a>
</g>
</g>
<!-- 833848849304129238&#45;&gt;3509576877858601689 -->
<g id="edge75" class="edge">
<title>833848849304129238&#45;&gt;3509576877858601689</title>
<path fill="none" stroke="lightgrey" d="M8208,-791.95C8208,-765.29 8208,-712.11 8208,-667 8208,-667 8208,-667 8208,-377 8208,-217.36 8018.13,-309.92 7860,-288 7437.91,-229.48 6039.77,-233.57 5791.02,-234.79"/>
<polygon fill="lightgrey" stroke="lightgrey" points="5790.68,-231.29 5780.7,-234.84 5790.71,-238.29 5790.68,-231.29"/>
</g>
<!-- 7179311433147611179 -->
<g id="node57" class="node">
<title>7179311433147611179</title>
<g id="a_node57"><a xlink:href="covid_vax_moderna_4_date.svg" xlink:title="Variable(covid_vax_moderna...)">
<path fill="lightgrey" stroke="black" d="M9126.5,-828C9126.5,-828 8957.5,-828 8957.5,-828 8951.5,-828 8945.5,-822 8945.5,-816 8945.5,-816 8945.5,-804 8945.5,-804 8945.5,-798 8951.5,-792 8957.5,-792 8957.5,-792 9126.5,-792 9126.5,-792 9132.5,-792 9138.5,-798 9138.5,-804 9138.5,-804 9138.5,-816 9138.5,-816 9138.5,-822 9132.5,-828 9126.5,-828"/>
<text text-anchor="middle" x="9042" y="-806.3" font-family="Times,serif" font-size="14.00">Variable(covid_vax_moderna...)</text>
</a>
</g>
</g>
<!-- 7179311433147611179&#45;&gt;3509576877858601689 -->
<g id="edge76" class="edge">
<title>7179311433147611179&#45;&gt;3509576877858601689</title>
<path fill="none" stroke="lightgrey" d="M9030.6,-791.9C9014.49,-766.02 8987,-714.85 8987,-667 8987,-667 8987,-667 8987,-521 8987,-306.37 8776.02,-321.41 8564,-288 8277.95,-242.92 6106.68,-235.87 5791.18,-235.09"/>
<polygon fill="lightgrey" stroke="lightgrey" points="5790.76,-231.58 5780.75,-235.06 5790.74,-238.58 5790.76,-231.58"/>
</g>
<!-- 7179311433147611179&#45;&gt;4225002590628906338 -->
<g id="edge77" class="edge">
<title>7179311433147611179&#45;&gt;4225002590628906338</title>
<path fill="none" stroke="lightgrey" d="M9048.68,-791.81C9058.32,-765.4 9075,-713.06 9075,-667 9075,-667 9075,-667 9075,-593 9075,-493.6 9123.23,-382.68 9147.46,-333.24"/>
<polygon fill="lightgrey" stroke="lightgrey" points="9150.64,-334.71 9151.96,-324.19 9144.37,-331.59 9150.64,-334.71"/>
</g>
<!-- 8535355595810854744 -->
<g id="node58" class="node">
<title>8535355595810854744</title>
<g id="a_node58"><a xlink:href="chronic_liver_disease.svg" xlink:title="Variable(chronic_liver_dis...)">
<path fill="lightgrey" stroke="black" d="M10960,-828C10960,-828 10808,-828 10808,-828 10802,-828 10796,-822 10796,-816 10796,-816 10796,-804 10796,-804 10796,-798 10802,-792 10808,-792 10808,-792 10960,-792 10960,-792 10966,-792 10972,-798 10972,-804 10972,-804 10972,-816 10972,-816 10972,-822 10966,-828 10960,-828"/>
<text text-anchor="middle" x="10884" y="-806.3" font-family="Times,serif" font-size="14.00">Variable(chronic_liver_dis...)</text>
</a>
</g>
</g>
<!-- 8535355595810854744&#45;&gt;3509576877858601689 -->
<g id="edge78" class="edge">
<title>8535355595810854744&#45;&gt;3509576877858601689</title>
<path fill="none" stroke="lightgrey" d="M10884,-791.95C10884,-765.29 10884,-712.11 10884,-667 10884,-667 10884,-667 10884,-377 10884,-195.47 10253.19,-299.02 10072,-288 9173.77,-233.39 6163.53,-234.59 5790.94,-234.96"/>
<polygon fill="lightgrey" stroke="lightgrey" points="5790.69,-231.46 5780.69,-234.97 5790.7,-238.46 5790.69,-231.46"/>
</g>
<!-- 2440103852090598343 -->
<g id="node59" class="node">
<title>2440103852090598343</title>
<g id="a_node59"><a xlink:href="covid_vax_moderna_1_date.svg" xlink:title="Variable(covid_vax_moderna...)">
<path fill="lightgrey" stroke="black" d="M9750.5,-828C9750.5,-828 9581.5,-828 9581.5,-828 9575.5,-828 9569.5,-822 9569.5,-816 9569.5,-816 9569.5,-804 9569.5,-804 9569.5,-798 9575.5,-792 9581.5,-792 9581.5,-792 9750.5,-792 9750.5,-792 9756.5,-792 9762.5,-798 9762.5,-804 9762.5,-804 9762.5,-816 9762.5,-816 9762.5,-822 9756.5,-828 9750.5,-828"/>
<text text-anchor="middle" x="9666" y="-806.3" font-family="Times,serif" font-size="14.00">Variable(covid_vax_moderna...)</text>
</a>
</g>
</g>
<!-- 2440103852090598343&#45;&gt;3509576877858601689 -->
<g id="edge79" class="edge">
<title>2440103852090598343&#45;&gt;3509576877858601689</title>
<path fill="none" stroke="lightgrey" d="M9582.17,-791.97C9517.85,-773.44 9440,-736.62 9440,-667 9440,-667 9440,-667 9440,-377 9440,-300.63 9366.41,-309.08 9293,-288 9115.86,-237.12 6162.37,-235.06 5791.21,-235"/>
<polygon fill="lightgrey" stroke="lightgrey" points="5790.99,-231.5 5780.99,-235 5790.99,-238.5 5790.99,-231.5"/>
</g>
<!-- 2440103852090598343&#45;&gt;4225002590628906338 -->
<g id="edge80" class="edge">
<title>2440103852090598343&#45;&gt;4225002590628906338</title>
<path fill="none" stroke="lightgrey" d="M9573.75,-791.97C9511.57,-779.92 9438.63,-764.46 9426,-756 9385.94,-729.19 9364,-715.21 9364,-667 9364,-667 9364,-667 9364,-521 9364,-435.08 9320.2,-418.21 9257,-360 9243.54,-347.6 9226.65,-337.04 9210.81,-328.69"/>
<polygon fill="lightgrey" stroke="lightgrey" points="9212.13,-325.43 9201.63,-324.02 9208.96,-331.67 9212.13,-325.43"/>
</g>
<!-- 7471826420882206235 -->
<g id="node60" class="node">
<title>7471826420882206235</title>
<g id="a_node60"><a xlink:href="covid_vax_moderna_3_date.svg" xlink:title="Variable(covid_vax_moderna...)">
<path fill="lightgrey" stroke="black" d="M9961.5,-828C9961.5,-828 9792.5,-828 9792.5,-828 9786.5,-828 9780.5,-822 9780.5,-816 9780.5,-816 9780.5,-804 9780.5,-804 9780.5,-798 9786.5,-792 9792.5,-792 9792.5,-792 9961.5,-792 9961.5,-792 9967.5,-792 9973.5,-798 9973.5,-804 9973.5,-804 9973.5,-816 9973.5,-816 9973.5,-822 9967.5,-828 9961.5,-828"/>
<text text-anchor="middle" x="9877" y="-806.3" font-family="Times,serif" font-size="14.00">Variable(covid_vax_moderna...)</text>
</a>
</g>
</g>
<!-- 7471826420882206235&#45;&gt;3509576877858601689 -->
<g id="edge81" class="edge">
<title>7471826420882206235&#45;&gt;3509576877858601689</title>
<path fill="none" stroke="lightgrey" d="M9822.2,-791.98C9768.93,-771.62 9696,-731.9 9696,-667 9696,-667 9696,-667 9696,-377 9696,-225.95 9517.58,-309.05 9368,-288 8995.73,-235.61 6154.16,-234.86 5791.12,-234.98"/>
<polygon fill="lightgrey" stroke="lightgrey" points="5790.88,-231.48 5780.88,-234.98 5790.88,-238.48 5790.88,-231.48"/>
</g>
<!-- 7471826420882206235&#45;&gt;4225002590628906338 -->
<g id="edge82" class="edge">
<title>7471826420882206235&#45;&gt;4225002590628906338</title>
<path fill="none" stroke="lightgrey" d="M9808.86,-791.93C9694.9,-762.42 9478,-701.7 9478,-667 9478,-667 9478,-667 9478,-593 9478,-460.5 9401.42,-434.73 9292,-360 9272.5,-346.68 9249.14,-335.89 9227.59,-327.6"/>
<polygon fill="lightgrey" stroke="lightgrey" points="9228.75,-324.3 9218.15,-324.08 9226.3,-330.85 9228.75,-324.3"/>
</g>
<!-- 5458378205690292796 -->
<g id="node61" class="node">
<title>5458378205690292796</title>
<g id="a_node61"><a xlink:href="covid_vax_az_1_date.svg" xlink:title="Variable(covid_vax_az_1_date)">
<path fill="lightgrey" stroke="black" d="M9539,-828C9539,-828 9375,-828 9375,-828 9369,-828 9363,-822 9363,-816 9363,-816 9363,-804 9363,-804 9363,-798 9369,-792 9375,-792 9375,-792 9539,-792 9539,-792 9545,-792 9551,-798 9551,-804 9551,-804 9551,-816 9551,-816 9551,-822 9545,-828 9539,-828"/>
<text text-anchor="middle" x="9457" y="-806.3" font-family="Times,serif" font-size="14.00">Variable(covid_vax_az_1_date)</text>
</a>
</g>
</g>
<!-- 5458378205690292796&#45;&gt;3509576877858601689 -->
<g id="edge83" class="edge">
<title>5458378205690292796&#45;&gt;3509576877858601689</title>
<path fill="none" stroke="lightgrey" d="M9423.94,-791.8C9385.14,-768.96 9326,-724.69 9326,-667 9326,-667 9326,-667 9326,-521 9326,-413.37 9345.36,-353.56 9260,-288 9187.5,-232.32 6163.81,-234.47 5790.64,-234.94"/>
<polygon fill="lightgrey" stroke="lightgrey" points="5790.61,-231.44 5780.62,-234.96 5790.62,-238.44 5790.61,-231.44"/>
</g>
<!-- 5458378205690292796&#45;&gt;4225002590628906338 -->
<g id="edge84" class="edge">
<title>5458378205690292796&#45;&gt;4225002590628906338</title>
<path fill="none" stroke="lightgrey" d="M9376.29,-791.93C9353.44,-784.01 9329.93,-772.53 9312,-756 9279.98,-726.48 9271,-710.55 9271,-667 9271,-667 9271,-667 9271,-449 9271,-398.76 9227.44,-355.52 9195.14,-330.36"/>
<polygon fill="lightgrey" stroke="lightgrey" points="9196.88,-327.29 9186.79,-324.06 9192.66,-332.88 9196.88,-327.29"/>
</g>
<!-- 4443043171866605585 -->
<g id="node62" class="node">
<title>4443043171866605585</title>
<g id="a_node62"><a xlink:href="bmi.svg" xlink:title="Variable(bmi)">
<path fill="lightgrey" stroke="black" d="M11070,-828C11070,-828 11002,-828 11002,-828 10996,-828 10990,-822 10990,-816 10990,-816 10990,-804 10990,-804 10990,-798 10996,-792 11002,-792 11002,-792 11070,-792 11070,-792 11076,-792 11082,-798 11082,-804 11082,-804 11082,-816 11082,-816 11082,-822 11076,-828 11070,-828"/>
<text text-anchor="middle" x="11036" y="-806.3" font-family="Times,serif" font-size="14.00">Variable(bmi)</text>
</a>
</g>
</g>
<!-- 4443043171866605585&#45;&gt;3509576877858601689 -->
<g id="edge85" class="edge">
<title>4443043171866605585&#45;&gt;3509576877858601689</title>
<path fill="none" stroke="lightgrey" d="M11036,-791.95C11036,-765.29 11036,-712.11 11036,-667 11036,-667 11036,-667 11036,-377 11036,-126.3 10728.79,-309.24 10479,-288 9984.91,-245.99 6210.13,-236.06 5790.82,-235.08"/>
<polygon fill="lightgrey" stroke="lightgrey" points="5790.73,-231.58 5780.73,-235.06 5790.72,-238.58 5790.73,-231.58"/>
</g>
<!-- 341368748733155119 -->
<g id="node63" class="node">
<title>341368748733155119</title>
<g id="a_node63"><a xlink:href="admitted_unplanned_date.svg" xlink:title="Variable(admitted_unplanne...)">
<path fill="lightgrey" stroke="black" d="M11274,-828C11274,-828 11112,-828 11112,-828 11106,-828 11100,-822 11100,-816 11100,-816 11100,-804 11100,-804 11100,-798 11106,-792 11112,-792 11112,-792 11274,-792 11274,-792 11280,-792 11286,-798 11286,-804 11286,-804 11286,-816 11286,-816 11286,-822 11280,-828 11274,-828"/>
<text text-anchor="middle" x="11193" y="-806.3" font-family="Times,serif" font-size="14.00">Variable(admitted_unplanne...)</text>
</a>
</g>
</g>
<!-- 341368748733155119&#45;&gt;3509576877858601689 -->
<g id="edge86" class="edge">
<title>341368748733155119&#45;&gt;3509576877858601689</title>
<path fill="none" stroke="lightgrey" d="M11193,-791.95C11193,-765.29 11193,-712.11 11193,-667 11193,-667 11193,-667 11193,-377 11193,-183.58 10959.29,-308.9 10767,-288 10243.06,-231.05 6223.82,-234.42 5790.78,-234.95"/>
<polygon fill="lightgrey" stroke="lightgrey" points="5790.66,-231.45 5780.67,-234.96 5790.67,-238.45 5790.66,-231.45"/>
</g>
<!-- 2445506054941540525 -->
<g id="node64" class="node">
<title>2445506054941540525</title>
<g id="a_node64"><a xlink:href="covidadmitted_date.svg" xlink:title="Variable(covidadmitted_date)">
<path fill="lightgrey" stroke="black" d="M11470,-828C11470,-828 11316,-828 11316,-828 11310,-828 11304,-822 11304,-816 11304,-816 11304,-804 11304,-804 11304,-798 11310,-792 11316,-792 11316,-792 11470,-792 11470,-792 11476,-792 11482,-798 11482,-804 11482,-804 11482,-816 11482,-816 11482,-822 11476,-828 11470,-828"/>
<text text-anchor="middle" x="11393" y="-806.3" font-family="Times,serif" font-size="14.00">Variable(covidadmitted_date)</text>
</a>
</g>
</g>
<!-- 2445506054941540525&#45;&gt;3509576877858601689 -->
<g id="edge87" class="edge">
<title>2445506054941540525&#45;&gt;3509576877858601689</title>
<path fill="none" stroke="lightgrey" d="M11393,-791.95C11393,-765.29 11393,-712.11 11393,-667 11393,-667 11393,-667 11393,-377 11393,-193.14 11171.68,-308.82 10989,-288 10714.76,-256.75 6247.1,-237.09 5790.58,-235.16"/>
<polygon fill="lightgrey" stroke="lightgrey" points="5790.56,-231.66 5780.54,-235.11 5790.53,-238.66 5790.56,-231.66"/>
</g>
<!-- 7916876050339263411 -->
<g id="node65" class="node">
<title>7916876050339263411</title>
<g id="a_node65"><a xlink:href="primary_care_covid_case_0_date.svg" xlink:title="Variable(primary_care_covi...)">
<path fill="lightgrey" stroke="black" d="M11672.5,-828C11672.5,-828 11511.5,-828 11511.5,-828 11505.5,-828 11499.5,-822 11499.5,-816 11499.5,-816 11499.5,-804 11499.5,-804 11499.5,-798 11505.5,-792 11511.5,-792 11511.5,-792 11672.5,-792 11672.5,-792 11678.5,-792 11684.5,-798 11684.5,-804 11684.5,-804 11684.5,-816 11684.5,-816 11684.5,-822 11678.5,-828 11672.5,-828"/>
<text text-anchor="middle" x="11592" y="-806.3" font-family="Times,serif" font-size="14.00">Variable(primary_care_covi...)</text>
</a>
</g>
</g>
<!-- 7916876050339263411&#45;&gt;3509576877858601689 -->
<g id="edge88" class="edge">
<title>7916876050339263411&#45;&gt;3509576877858601689</title>
<path fill="none" stroke="lightgrey" d="M11592,-791.95C11592,-765.29 11592,-712.11 11592,-667 11592,-667 11592,-667 11592,-377 11592,-198.34 11377.45,-308.77 11200,-288 10914.59,-254.6 6259.9,-236.84 5791.01,-235.14"/>
<polygon fill="lightgrey" stroke="lightgrey" points="5790.73,-231.64 5780.71,-235.1 5790.7,-238.64 5790.73,-231.64"/>
</g>
<!-- 7050449076563289034 -->
<g id="node66" class="node">
<title>7050449076563289034</title>
<g id="a_node66"><a xlink:href="cancer.svg" xlink:title="Variable(cancer)">
<path fill="lightgrey" stroke="black" d="M11796,-828C11796,-828 11714,-828 11714,-828 11708,-828 11702,-822 11702,-816 11702,-816 11702,-804 11702,-804 11702,-798 11708,-792 11714,-792 11714,-792 11796,-792 11796,-792 11802,-792 11808,-798 11808,-804 11808,-804 11808,-816 11808,-816 11808,-822 11802,-828 11796,-828"/>
<text text-anchor="middle" x="11755" y="-806.3" font-family="Times,serif" font-size="14.00">Variable(cancer)</text>
</a>
</g>
</g>
<!-- 7050449076563289034&#45;&gt;3509576877858601689 -->
<g id="edge89" class="edge">
<title>7050449076563289034&#45;&gt;3509576877858601689</title>
<path fill="none" stroke="lightgrey" d="M11755,-791.95C11755,-765.29 11755,-712.11 11755,-667 11755,-667 11755,-667 11755,-377 11755,-216.06 11563.6,-308.68 11404,-288 11108.05,-249.65 6269.15,-236.32 5790.97,-235.09"/>
<polygon fill="lightgrey" stroke="lightgrey" points="5790.8,-231.59 5780.8,-235.07 5790.79,-238.59 5790.8,-231.59"/>
</g>
<!-- 4956502834918862191 -->
<g id="node67" class="node">
<title>4956502834918862191</title>
<g id="a_node67"><a xlink:href="sev_mental.svg" xlink:title="Variable(sev_mental)">
<path fill="lightgrey" stroke="black" d="M11947.5,-828C11947.5,-828 11838.5,-828 11838.5,-828 11832.5,-828 11826.5,-822 11826.5,-816 11826.5,-816 11826.5,-804 11826.5,-804 11826.5,-798 11832.5,-792 11838.5,-792 11838.5,-792 11947.5,-792 11947.5,-792 11953.5,-792 11959.5,-798 11959.5,-804 11959.5,-804 11959.5,-816 11959.5,-816 11959.5,-822 11953.5,-828 11947.5,-828"/>
<text text-anchor="middle" x="11893" y="-806.3" font-family="Times,serif" font-size="14.00">Variable(sev_mental)</text>
</a>
</g>
</g>
<!-- 4956502834918862191&#45;&gt;3509576877858601689 -->
<g id="edge90" class="edge">
<title>4956502834918862191&#45;&gt;3509576877858601689</title>
<path fill="none" stroke="lightgrey" d="M11893,-791.95C11893,-765.29 11893,-712.11 11893,-667 11893,-667 11893,-667 11893,-377 11893,-235.79 11727.7,-308.61 11588,-288 11282.93,-242.98 6278.39,-235.65 5791.09,-235.04"/>
<polygon fill="lightgrey" stroke="lightgrey" points="5790.74,-231.54 5780.73,-235.03 5790.73,-238.54 5790.74,-231.54"/>
</g>
<!-- 2961624694875422536 -->
<g id="node68" class="node">
<title>2961624694875422536</title>
<g id="a_node68"><a xlink:href="covid_vax_pfizer_3_date.svg" xlink:title="Variable(covid_vax_pfizer_...)">
<path fill="lightgrey" stroke="black" d="M10765.5,-828C10765.5,-828 10606.5,-828 10606.5,-828 10600.5,-828 10594.5,-822 10594.5,-816 10594.5,-816 10594.5,-804 10594.5,-804 10594.5,-798 10600.5,-792 10606.5,-792 10606.5,-792 10765.5,-792 10765.5,-792 10771.5,-792 10777.5,-798 10777.5,-804 10777.5,-804 10777.5,-816 10777.5,-816 10777.5,-822 10771.5,-828 10765.5,-828"/>
<text text-anchor="middle" x="10686" y="-806.3" font-family="Times,serif" font-size="14.00">Variable(covid_vax_pfizer_...)</text>
</a>
</g>
</g>
<!-- 2961624694875422536&#45;&gt;2457046709953646961 -->
<g id="edge91" class="edge">
<title>2961624694875422536&#45;&gt;2457046709953646961</title>
<path fill="none" stroke="lightgrey" d="M10599.12,-791.97C10538.57,-780.09 10458.72,-764.44 10401.57,-753.23"/>
<polygon fill="lightgrey" stroke="lightgrey" points="10402.02,-749.75 10391.53,-751.26 10400.67,-756.62 10402.02,-749.75"/>
</g>
<!-- 2067100697777334488 -->
<g id="node79" class="node">
<title>2067100697777334488</title>
<path fill="none" stroke="black" d="M10262.5,-468C10262.5,-468 10231.5,-468 10231.5,-468 10225.5,-468 10219.5,-462 10219.5,-456 10219.5,-456 10219.5,-444 10219.5,-444 10219.5,-438 10225.5,-432 10231.5,-432 10231.5,-432 10262.5,-432 10262.5,-432 10268.5,-432 10274.5,-438 10274.5,-444 10274.5,-444 10274.5,-456 10274.5,-456 10274.5,-462 10268.5,-468 10262.5,-468"/>
<text text-anchor="middle" x="10247" y="-446.3" font-family="Times,serif" font-size="14.00">Filter()</text>
</g>
<!-- 2961624694875422536&#45;&gt;2067100697777334488 -->
<g id="edge92" class="edge">
<title>2961624694875422536&#45;&gt;2067100697777334488</title>
<path fill="none" stroke="lightgrey" d="M10672.85,-791.69C10654.65,-765.95 10624,-715.42 10624,-667 10624,-667 10624,-667 10624,-593 10624,-521.04 10380.39,-473.01 10284.82,-456.94"/>
<polygon fill="lightgrey" stroke="lightgrey" points="10285.16,-453.45 10274.72,-455.27 10284.02,-460.35 10285.16,-453.45"/>
</g>
<!-- 4319382964672296587 -->
<g id="node82" class="node">
<title>4319382964672296587</title>
<path fill="none" stroke="black" d="M10416.5,-540C10416.5,-540 10315.5,-540 10315.5,-540 10309.5,-540 10303.5,-534 10303.5,-528 10303.5,-528 10303.5,-516 10303.5,-516 10303.5,-510 10309.5,-504 10315.5,-504 10315.5,-504 10416.5,-504 10416.5,-504 10422.5,-504 10428.5,-510 10428.5,-516 10428.5,-516 10428.5,-528 10428.5,-528 10428.5,-534 10422.5,-540 10416.5,-540"/>
<text text-anchor="middle" x="10366" y="-518.3" font-family="Times,serif" font-size="14.00">SelectColumn(date)</text>
</g>
<!-- 2961624694875422536&#45;&gt;4319382964672296587 -->
<g id="edge93" class="edge">
<title>2961624694875422536&#45;&gt;4319382964672296587</title>
<path fill="none" stroke="lightgrey" d="M10659.25,-791.81C10644.34,-781.87 10625.69,-768.83 10610,-756 10523.82,-685.5 10431.09,-591.23 10389.06,-547.36"/>
<polygon fill="lightgrey" stroke="lightgrey" points="10391.48,-544.84 10382.05,-540.02 10386.42,-549.67 10391.48,-544.84"/>
</g>
<!-- 5466229545929283277 -->
<g id="node69" class="node">
<title>5466229545929283277</title>
<g id="a_node69"><a xlink:href="covid_vax_pfizer_4_date.svg" xlink:title="Variable(covid_vax_pfizer_...)">
<path fill="lightgrey" stroke="black" d="M10564.5,-828C10564.5,-828 10405.5,-828 10405.5,-828 10399.5,-828 10393.5,-822 10393.5,-816 10393.5,-816 10393.5,-804 10393.5,-804 10393.5,-798 10399.5,-792 10405.5,-792 10405.5,-792 10564.5,-792 10564.5,-792 10570.5,-792 10576.5,-798 10576.5,-804 10576.5,-804 10576.5,-816 10576.5,-816 10576.5,-822 10570.5,-828 10564.5,-828"/>
<text text-anchor="middle" x="10485" y="-806.3" font-family="Times,serif" font-size="14.00">Variable(covid_vax_pfizer_...)</text>
</a>
</g>
</g>
<!-- 5466229545929283277&#45;&gt;2457046709953646961 -->
<g id="edge94" class="edge">
<title>5466229545929283277&#45;&gt;2457046709953646961</title>
<path fill="none" stroke="lightgrey" d="M10446.84,-791.88C10425.61,-782.35 10398.99,-770.41 10376.43,-760.28"/>
<polygon fill="lightgrey" stroke="lightgrey" points="10377.59,-756.97 10367.04,-756.07 10374.73,-763.36 10377.59,-756.97"/>
</g>
<!-- 5466229545929283277&#45;&gt;2067100697777334488 -->
<g id="edge95" class="edge">
<title>5466229545929283277&#45;&gt;2067100697777334488</title>
<path fill="none" stroke="lightgrey" d="M10488.11,-791.87C10496.33,-740.91 10513.09,-588.5 10438,-504 10417.78,-481.25 10334.29,-464.63 10284.63,-456.53"/>
<polygon fill="lightgrey" stroke="lightgrey" points="10285.01,-453.05 10274.58,-454.94 10283.91,-459.96 10285.01,-453.05"/>
</g>
<!-- 5466229545929283277&#45;&gt;4319382964672296587 -->
<g id="edge96" class="edge">
<title>5466229545929283277&#45;&gt;4319382964672296587</title>
<path fill="none" stroke="lightgrey" d="M10477.91,-791.97C10457.95,-743.99 10401.16,-607.5 10377.04,-549.54"/>
<polygon fill="lightgrey" stroke="lightgrey" points="10380.27,-548.19 10373.2,-540.31 10373.81,-550.88 10380.27,-548.19"/>
</g>
<!-- 6581931883114407591 -->
<g id="node70" class="node">
<title>6581931883114407591</title>
<g id="a_node70"><a xlink:href="covid_vax_pfizer_2_date.svg" xlink:title="Variable(covid_vax_pfizer_...)">
<path fill="lightgrey" stroke="black" d="M10162.5,-828C10162.5,-828 10003.5,-828 10003.5,-828 9997.5,-828 9991.5,-822 9991.5,-816 9991.5,-816 9991.5,-804 9991.5,-804 9991.5,-798 9997.5,-792 10003.5,-792 10003.5,-792 10162.5,-792 10162.5,-792 10168.5,-792 10174.5,-798 10174.5,-804 10174.5,-804 10174.5,-816 10174.5,-816 10174.5,-822 10168.5,-828 10162.5,-828"/>
<text text-anchor="middle" x="10083" y="-806.3" font-family="Times,serif" font-size="14.00">Variable(covid_vax_pfizer_...)</text>
</a>
</g>
</g>
<!-- 6581931883114407591&#45;&gt;2457046709953646961 -->
<g id="edge97" class="edge">
<title>6581931883114407591&#45;&gt;2457046709953646961</title>
<path fill="none" stroke="lightgrey" d="M10142.86,-791.97C10177.98,-781.97 10222.52,-769.3 10259.23,-758.85"/>
<polygon fill="lightgrey" stroke="lightgrey" points="10260.21,-762.21 10268.87,-756.11 10258.29,-755.48 10260.21,-762.21"/>
</g>
<!-- 6581931883114407591&#45;&gt;2067100697777334488 -->
<g id="edge98" class="edge">
<title>6581931883114407591&#45;&gt;2067100697777334488</title>
<path fill="none" stroke="lightgrey" d="M10080.83,-791.98C10077.62,-765.37 10072,-712.25 10072,-667 10072,-667 10072,-667 10072,-593 10072,-522.61 10158.43,-481.03 10209.81,-462.52"/>
<polygon fill="lightgrey" stroke="lightgrey" points="10210.98,-465.82 10219.27,-459.23 10208.68,-459.21 10210.98,-465.82"/>
</g>
<!-- 6581931883114407591&#45;&gt;4319382964672296587 -->
<g id="edge99" class="edge">
<title>6581931883114407591&#45;&gt;4319382964672296587</title>
<path fill="none" stroke="lightgrey" d="M10114.53,-791.93C10149.27,-773.36 10206.97,-743.24 10258,-720 10296.83,-702.31 10321.11,-717.92 10347,-684 10376.59,-645.24 10374.83,-585.2 10370.6,-550.44"/>
<polygon fill="lightgrey" stroke="lightgrey" points="10374.01,-549.53 10369.18,-540.1 10367.07,-550.49 10374.01,-549.53"/>
</g>
<!-- 3556050648650672860 -->
<g id="node74" class="node">
<title>3556050648650672860</title>
<path fill="none" stroke="black" d="M5814,-180C5814,-180 5784,-180 5784,-180 5778,-180 5772,-174 5772,-168 5772,-168 5772,-156 5772,-156 5772,-150 5778,-144 5784,-144 5784,-144 5814,-144 5814,-144 5820,-144 5826,-150 5826,-156 5826,-156 5826,-168 5826,-168 5826,-174 5820,-180 5814,-180"/>
<text text-anchor="middle" x="5799" y="-158.3" font-family="Times,serif" font-size="14.00">GT()</text>
</g>
<!-- 3509576877858601689&#45;&gt;3556050648650672860 -->
<g id="edge2" class="edge">
<title>3509576877858601689&#45;&gt;3556050648650672860</title>
<path fill="none" stroke="black" d="M5764.37,-215.7C5769.72,-207.56 5776.2,-197.69 5782.11,-188.7"/>
<polygon fill="black" stroke="black" points="5785.19,-190.38 5787.76,-180.1 5779.34,-186.54 5785.19,-190.38"/>
</g>
<!-- 1436061678083452305 -->
<g id="node83" class="node">
<title>1436061678083452305</title>
<path fill="lightgrey" stroke="black" d="M5819.5,-36C5819.5,-36 5686.5,-36 5686.5,-36 5680.5,-36 5674.5,-30 5674.5,-24 5674.5,-24 5674.5,-12 5674.5,-12 5674.5,-6 5680.5,0 5686.5,0 5686.5,0 5819.5,0 5819.5,0 5825.5,0 5831.5,-6 5831.5,-12 5831.5,-12 5831.5,-24 5831.5,-24 5831.5,-30 5825.5,-36 5819.5,-36"/>
<text text-anchor="middle" x="5753" y="-14.3" font-family="Times,serif" font-size="14.00">SelectTable(vaccinations)</text>
</g>
<!-- 3509576877858601689&#45;&gt;1436061678083452305 -->
<g id="edge1" class="edge">
<title>3509576877858601689&#45;&gt;1436061678083452305</title>
<path fill="none" stroke="black" d="M5745.92,-215.93C5734.63,-186.37 5714.97,-123.85 5727,-72 5729.1,-62.96 5732.97,-53.68 5737.09,-45.47"/>
<polygon fill="black" stroke="black" points="5740.31,-46.86 5741.95,-36.39 5734.14,-43.55 5740.31,-46.86"/>
</g>
<!-- 8807977144297534015 -->
<g id="node72" class="node">
<title>8807977144297534015</title>
<path fill="none" stroke="black" d="M5986.5,-108C5986.5,-108 5891.5,-108 5891.5,-108 5885.5,-108 5879.5,-102 5879.5,-96 5879.5,-96 5879.5,-84 5879.5,-84 5879.5,-78 5885.5,-72 5891.5,-72 5891.5,-72 5986.5,-72 5986.5,-72 5992.5,-72 5998.5,-78 5998.5,-84 5998.5,-84 5998.5,-96 5998.5,-96 5998.5,-102 5992.5,-108 5986.5,-108"/>
<text text-anchor="middle" x="5939" y="-86.3" font-family="Times,serif" font-size="14.00">Value(1900&#45;01&#45;01)</text>
</g>
<!-- 2974997201532746894 -->
<g id="node73" class="node">
<title>2974997201532746894</title>
<path fill="none" stroke="black" d="M10000.5,-324C10000.5,-324 9829.5,-324 9829.5,-324 9823.5,-324 9817.5,-318 9817.5,-312 9817.5,-312 9817.5,-300 9817.5,-300 9817.5,-294 9823.5,-288 9829.5,-288 9829.5,-288 10000.5,-288 10000.5,-288 10006.5,-288 10012.5,-294 10012.5,-300 10012.5,-300 10012.5,-312 10012.5,-312 10012.5,-318 10006.5,-324 10000.5,-324"/>
<text text-anchor="middle" x="9915" y="-302.3" font-family="Times,serif" font-size="14.00">Value(COVID&#45;19 mRNA Vac...)</text>
</g>
<!-- 3556050648650672860&#45;&gt;8807977144297534015 -->
<g id="edge5" class="edge">
<title>3556050648650672860&#45;&gt;8807977144297534015</title>
<path fill="none" stroke="black" d="M5826.33,-147.34C5846.05,-137.48 5873.08,-123.96 5895.72,-112.64"/>
<polygon fill="black" stroke="black" points="5897.42,-115.7 5904.8,-108.1 5894.29,-109.44 5897.42,-115.7"/>
</g>
<!-- 7920881043569519933 -->
<g id="node78" class="node">
<title>7920881043569519933</title>
<path fill="none" stroke="black" d="M5849.5,-108C5849.5,-108 5748.5,-108 5748.5,-108 5742.5,-108 5736.5,-102 5736.5,-96 5736.5,-96 5736.5,-84 5736.5,-84 5736.5,-78 5742.5,-72 5748.5,-72 5748.5,-72 5849.5,-72 5849.5,-72 5855.5,-72 5861.5,-78 5861.5,-84 5861.5,-84 5861.5,-96 5861.5,-96 5861.5,-102 5855.5,-108 5849.5,-108"/>
<text text-anchor="middle" x="5799" y="-86.3" font-family="Times,serif" font-size="14.00">SelectColumn(date)</text>
</g>
<!-- 3556050648650672860&#45;&gt;7920881043569519933 -->
<g id="edge4" class="edge">
<title>3556050648650672860&#45;&gt;7920881043569519933</title>
<path fill="none" stroke="black" d="M5799,-143.7C5799,-135.98 5799,-126.71 5799,-118.11"/>
<polygon fill="black" stroke="black" points="5802.5,-118.1 5799,-108.1 5795.5,-118.1 5802.5,-118.1"/>
</g>
<!-- 1013206220019944503 -->
<g id="node75" class="node">
<title>1013206220019944503</title>
<path fill="none" stroke="black" d="M10326,-684C10326,-684 10112,-684 10112,-684 10106,-684 10100,-678 10100,-672 10100,-672 10100,-660 10100,-660 10100,-654 10106,-648 10112,-648 10112,-648 10326,-648 10326,-648 10332,-648 10338,-654 10338,-660 10338,-660 10338,-672 10338,-672 10338,-678 10332,-684 10326,-684"/>
<text text-anchor="middle" x="10219" y="-662.3" font-family="Times,serif" font-size="14.00">PickOneRowPerPatient(Position.FIRST)</text>
</g>
<!-- 5862462592550751122 -->
<g id="node80" class="node">
<title>5862462592550751122</title>
<path fill="none" stroke="black" d="M10262,-612C10262,-612 10232,-612 10232,-612 10226,-612 10220,-606 10220,-600 10220,-600 10220,-588 10220,-588 10220,-582 10226,-576 10232,-576 10232,-576 10262,-576 10262,-576 10268,-576 10274,-582 10274,-588 10274,-588 10274,-600 10274,-600 10274,-606 10268,-612 10262,-612"/>
<text text-anchor="middle" x="10247" y="-590.3" font-family="Times,serif" font-size="14.00">Sort()</text>
</g>
<!-- 1013206220019944503&#45;&gt;5862462592550751122 -->
<g id="edge6" class="edge">
<title>1013206220019944503&#45;&gt;5862462592550751122</title>
<path fill="none" stroke="black" d="M10225.92,-647.7C10229.07,-639.81 10232.88,-630.3 10236.38,-621.55"/>
<polygon fill="black" stroke="black" points="10239.69,-622.69 10240.16,-612.1 10233.19,-620.09 10239.69,-622.69"/>
</g>
<!-- 4225002590628906338&#45;&gt;3509576877858601689 -->
<g id="edge7" class="edge">
<title>4225002590628906338&#45;&gt;3509576877858601689</title>
<path fill="none" stroke="black" d="M9070.26,-291.54C9058.09,-290.12 9045.76,-288.88 9034,-288 8358.87,-237.54 6109.25,-235.09 5790.65,-235"/>
<polygon fill="black" stroke="black" points="5790.55,-231.5 5780.55,-235 5790.54,-238.5 5790.55,-231.5"/>
</g>
<!-- 2457046709953646961&#45;&gt;1013206220019944503 -->
<g id="edge8" class="edge">
<title>2457046709953646961&#45;&gt;1013206220019944503</title>
<path fill="none" stroke="black" d="M10302.09,-719.88C10287.84,-710.81 10270.15,-699.55 10254.76,-689.76"/>
<polygon fill="black" stroke="black" points="10256.33,-686.61 10246.01,-684.19 10252.57,-692.51 10256.33,-686.61"/>
</g>
<!-- 7920881043569519933&#45;&gt;1436061678083452305 -->
<g id="edge9" class="edge">
<title>7920881043569519933&#45;&gt;1436061678083452305</title>
<path fill="none" stroke="black" d="M5787.63,-71.7C5782.28,-63.56 5775.8,-53.69 5769.89,-44.7"/>
<polygon fill="black" stroke="black" points="5772.66,-42.54 5764.24,-36.1 5766.81,-46.38 5772.66,-42.54"/>
</g>
<!-- 2067100697777334488&#45;&gt;3509576877858601689 -->
<g id="edge10" class="edge">
<title>2067100697777334488&#45;&gt;3509576877858601689</title>
<path fill="none" stroke="black" d="M10230.9,-431.98C10196.41,-396.92 10111.21,-317.47 10021,-288 9914.63,-253.26 6207.44,-236.89 5790.94,-235.15"/>
<polygon fill="black" stroke="black" points="5790.66,-231.65 5780.65,-235.11 5790.63,-238.65 5790.66,-231.65"/>
</g>
<!-- 8948660539079097952 -->
<g id="node81" class="node">
<title>8948660539079097952</title>
<path fill="none" stroke="black" d="M9930,-396C9930,-396 9900,-396 9900,-396 9894,-396 9888,-390 9888,-384 9888,-384 9888,-372 9888,-372 9888,-366 9894,-360 9900,-360 9900,-360 9930,-360 9930,-360 9936,-360 9942,-366 9942,-372 9942,-372 9942,-384 9942,-384 9942,-390 9936,-396 9930,-396"/>
<text text-anchor="middle" x="9915" y="-374.3" font-family="Times,serif" font-size="14.00">EQ()</text>
</g>
<!-- 2067100697777334488&#45;&gt;8948660539079097952 -->
<g id="edge11" class="edge">
<title>2067100697777334488&#45;&gt;8948660539079097952</title>
<path fill="none" stroke="black" d="M10219.26,-443.15C10159.8,-430.61 10019.97,-401.13 9952.59,-386.93"/>
<polygon fill="black" stroke="black" points="9952.93,-383.42 9942.42,-384.78 9951.49,-390.27 9952.93,-383.42"/>
</g>
<!-- 5862462592550751122&#45;&gt;2067100697777334488 -->
<g id="edge12" class="edge">
<title>5862462592550751122&#45;&gt;2067100697777334488</title>
<path fill="none" stroke="black" d="M10247,-575.87C10247,-551.67 10247,-507.21 10247,-478.39"/>
<polygon fill="black" stroke="black" points="10250.5,-478.19 10247,-468.19 10243.5,-478.19 10250.5,-478.19"/>
</g>
<!-- 5862462592550751122&#45;&gt;4319382964672296587 -->
<g id="edge13" class="edge">
<title>5862462592550751122&#45;&gt;4319382964672296587</title>
<path fill="none" stroke="black" d="M10274,-577.12C10290,-567.7 10310.53,-555.63 10328.13,-545.28"/>
<polygon fill="black" stroke="black" points="10330.18,-548.13 10337.02,-540.04 10326.63,-542.1 10330.18,-548.13"/>
</g>
<!-- 8948660539079097952&#45;&gt;2974997201532746894 -->
<g id="edge15" class="edge">
<title>8948660539079097952&#45;&gt;2974997201532746894</title>
<path fill="none" stroke="black" d="M9915,-359.7C9915,-351.98 9915,-342.71 9915,-334.11"/>
<polygon fill="black" stroke="black" points="9918.5,-334.1 9915,-324.1 9911.5,-334.1 9918.5,-334.1"/>
</g>
<!-- 8948660539079097952&#45;&gt;4225002590628906338 -->
<g id="edge14" class="edge">
<title>8948660539079097952&#45;&gt;4225002590628906338</title>
<path fill="none" stroke="black" d="M9887.72,-374.47C9787.49,-365.16 9436.36,-332.56 9261.51,-316.33"/>
<polygon fill="black" stroke="black" points="9261.81,-312.84 9251.53,-315.4 9261.16,-319.81 9261.81,-312.84"/>
</g>
<!-- 4319382964672296587&#45;&gt;2067100697777334488 -->
<g id="edge16" class="edge">
<title>4319382964672296587&#45;&gt;2067100697777334488</title>
<path fill="none" stroke="black" d="M10336.89,-503.88C10320.72,-494.36 10300.45,-482.44 10283.26,-472.33"/>
<polygon fill="black" stroke="black" points="10284.98,-469.28 10274.58,-467.23 10281.43,-475.31 10284.98,-469.28"/>
</g>
</g>
</svg>
