<?xml version="1.0" encoding="UTF-8" standalone="no"?>
<!DOCTYPE svg PUBLIC "-//W3C//DTD SVG 1.1//EN"
 "http://www.w3.org/Graphics/SVG/1.1/DTD/svg11.dtd">
<!-- Generated by graphviz version 2.43.0 (0)
 -->
<!-- Title: %3 Pages: 1 -->
<svg width="12301pt" height="836pt"
 viewBox="0.00 0.00 12300.50 836.00" xmlns="http://www.w3.org/2000/svg" xmlns:xlink="http://www.w3.org/1999/xlink">
<g id="graph0" class="graph" transform="scale(1 1) rotate(0) translate(4 832)">
<title>%3</title>
<polygon fill="white" stroke="transparent" points="-4,4 -4,-832 12296.5,-832 12296.5,4 -4,4"/>
<!-- 2440103852090598343 -->
<g id="node1" class="node">
<title>2440103852090598343</title>
<g id="a_node1"><a xlink:href="covid_vax_moderna_1_date.svg" xlink:title="Variable(covid_vax_moderna...)">
<path fill="lightgrey" stroke="black" d="M9229,-828C9229,-828 9060,-828 9060,-828 9054,-828 9048,-822 9048,-816 9048,-816 9048,-804 9048,-804 9048,-798 9054,-792 9060,-792 9060,-792 9229,-792 9229,-792 9235,-792 9241,-798 9241,-804 9241,-804 9241,-816 9241,-816 9241,-822 9235,-828 9229,-828"/>
<text text-anchor="middle" x="9144.5" y="-806.3" font-family="Times,serif" font-size="14.00">Variable(covid_vax_moderna...)</text>
</a>
</g>
</g>
<!-- 8601472199031240955 -->
<g id="node72" class="node">
<title>8601472199031240955</title>
<path fill="none" stroke="black" d="M9286,-756C9286,-756 9185,-756 9185,-756 9179,-756 9173,-750 9173,-744 9173,-744 9173,-732 9173,-732 9173,-726 9179,-720 9185,-720 9185,-720 9286,-720 9286,-720 9292,-720 9298,-726 9298,-732 9298,-732 9298,-744 9298,-744 9298,-750 9292,-756 9286,-756"/>
<text text-anchor="middle" x="9235.5" y="-734.3" font-family="Times,serif" font-size="14.00">SelectColumn(date)</text>
</g>
<!-- 2440103852090598343&#45;&gt;8601472199031240955 -->
<g id="edge10" class="edge">
<title>2440103852090598343&#45;&gt;8601472199031240955</title>
<path fill="none" stroke="black" d="M9166.99,-791.7C9178.46,-782.88 9192.56,-772.03 9204.98,-762.47"/>
<polygon fill="black" stroke="black" points="9207.47,-764.98 9213.26,-756.1 9203.2,-759.43 9207.47,-764.98"/>
</g>
<!-- 2927901286638148837 -->
<g id="node2" class="node">
<title>2927901286638148837</title>
<g id="a_node2"><a xlink:href="diabetes.svg" xlink:title="Variable(diabetes)">
<path fill="lightgrey" stroke="black" d="M11878,-828C11878,-828 11787,-828 11787,-828 11781,-828 11775,-822 11775,-816 11775,-816 11775,-804 11775,-804 11775,-798 11781,-792 11787,-792 11787,-792 11878,-792 11878,-792 11884,-792 11890,-798 11890,-804 11890,-804 11890,-816 11890,-816 11890,-822 11884,-828 11878,-828"/>
<text text-anchor="middle" x="11832.5" y="-806.3" font-family="Times,serif" font-size="14.00">Variable(diabetes)</text>
</a>
</g>
</g>
<!-- 3509576877858601689 -->
<g id="node71" class="node">
<title>3509576877858601689</title>
<path fill="none" stroke="black" d="M5729,-252C5729,-252 5698,-252 5698,-252 5692,-252 5686,-246 5686,-240 5686,-240 5686,-228 5686,-228 5686,-222 5692,-216 5698,-216 5698,-216 5729,-216 5729,-216 5735,-216 5741,-222 5741,-228 5741,-228 5741,-240 5741,-240 5741,-246 5735,-252 5729,-252"/>
<text text-anchor="middle" x="5713.5" y="-230.3" font-family="Times,serif" font-size="14.00">Filter()</text>
</g>
<!-- 2927901286638148837&#45;&gt;3509576877858601689 -->
<g id="edge17" class="edge">
<title>2927901286638148837&#45;&gt;3509576877858601689</title>
<path fill="none" stroke="lightgrey" d="M11832.5,-791.95C11832.5,-765.29 11832.5,-712.11 11832.5,-667 11832.5,-667 11832.5,-667 11832.5,-377 11832.5,-243.88 11678.02,-308.6 11546.5,-288 11241.95,-240.29 6238.75,-235.39 5751.58,-235.03"/>
<polygon fill="lightgrey" stroke="lightgrey" points="5751.23,-231.53 5741.22,-235.02 5751.22,-238.53 5751.23,-231.53"/>
</g>
<!-- 1102633016844416352 -->
<g id="node3" class="node">
<title>1102633016844416352</title>
<g id="a_node3"><a xlink:href="chronic_neuro_disease.svg" xlink:title="Variable(chronic_neuro_dis...)">
<path fill="lightgrey" stroke="black" d="M12078.5,-828C12078.5,-828 11920.5,-828 11920.5,-828 11914.5,-828 11908.5,-822 11908.5,-816 11908.5,-816 11908.5,-804 11908.5,-804 11908.5,-798 11914.5,-792 11920.5,-792 11920.5,-792 12078.5,-792 12078.5,-792 12084.5,-792 12090.5,-798 12090.5,-804 12090.5,-804 12090.5,-816 12090.5,-816 12090.5,-822 12084.5,-828 12078.5,-828"/>
<text text-anchor="middle" x="11999.5" y="-806.3" font-family="Times,serif" font-size="14.00">Variable(chronic_neuro_dis...)</text>
</a>
</g>
</g>
<!-- 1102633016844416352&#45;&gt;3509576877858601689 -->
<g id="edge18" class="edge">
<title>1102633016844416352&#45;&gt;3509576877858601689</title>
<path fill="none" stroke="lightgrey" d="M11999.5,-791.95C11999.5,-765.29 11999.5,-712.11 11999.5,-667 11999.5,-667 11999.5,-667 11999.5,-377 11999.5,-236.64 11835.34,-308.6 11696.5,-288 11383.49,-241.57 6244.46,-235.51 5751.43,-235.03"/>
<polygon fill="lightgrey" stroke="lightgrey" points="5751.28,-231.53 5741.28,-235.02 5751.27,-238.53 5751.28,-231.53"/>
</g>
<!-- 7895672267513037740 -->
<g id="node4" class="node">
<title>7895672267513037740</title>
<g id="a_node4"><a xlink:href="covid_vax_disease_1_date.svg" xlink:title="Variable(covid_vax_disease...)">
<path fill="lightgrey" stroke="black" d="M12280.5,-828C12280.5,-828 12120.5,-828 12120.5,-828 12114.5,-828 12108.5,-822 12108.5,-816 12108.5,-816 12108.5,-804 12108.5,-804 12108.5,-798 12114.5,-792 12120.5,-792 12120.5,-792 12280.5,-792 12280.5,-792 12286.5,-792 12292.5,-798 12292.5,-804 12292.5,-804 12292.5,-816 12292.5,-816 12292.5,-822 12286.5,-828 12280.5,-828"/>
<text text-anchor="middle" x="12200.5" y="-806.3" font-family="Times,serif" font-size="14.00">Variable(covid_vax_disease...)</text>
</a>
</g>
</g>
<!-- 7895672267513037740&#45;&gt;3509576877858601689 -->
<g id="edge19" class="edge">
<title>7895672267513037740&#45;&gt;3509576877858601689</title>
<path fill="none" stroke="lightgrey" d="M12200.5,-791.95C12200.5,-765.29 12200.5,-712.11 12200.5,-667 12200.5,-667 12200.5,-667 12200.5,-377 12200.5,-218.22 12011.94,-308.62 11854.5,-288 11532.21,-245.8 6250.35,-235.9 5751.27,-235.06"/>
<polygon fill="lightgrey" stroke="lightgrey" points="5751.02,-231.56 5741.01,-235.04 5751.01,-238.56 5751.02,-231.56"/>
</g>
<!-- 4297692426829539203 -->
<g id="node5" class="node">
<title>4297692426829539203</title>
<g id="a_node5"><a xlink:href="practice_id.svg" xlink:title="Variable(practice_id)">
<path fill="lightgrey" stroke="black" d="M119,-828C119,-828 12,-828 12,-828 6,-828 0,-822 0,-816 0,-816 0,-804 0,-804 0,-798 6,-792 12,-792 12,-792 119,-792 119,-792 125,-792 131,-798 131,-804 131,-804 131,-816 131,-816 131,-822 125,-828 119,-828"/>
<text text-anchor="middle" x="65.5" y="-806.3" font-family="Times,serif" font-size="14.00">Variable(practice_id)</text>
</a>
</g>
</g>
<!-- 4297692426829539203&#45;&gt;3509576877858601689 -->
<g id="edge20" class="edge">
<title>4297692426829539203&#45;&gt;3509576877858601689</title>
<path fill="none" stroke="lightgrey" d="M65.5,-791.95C65.5,-765.29 65.5,-712.11 65.5,-667 65.5,-667 65.5,-667 65.5,-377 65.5,-301.01 138.43,-308.89 211.5,-288 351.21,-248.05 5198.73,-236.16 5675.81,-235.08"/>
<polygon fill="lightgrey" stroke="lightgrey" points="5675.96,-238.58 5685.95,-235.06 5675.95,-231.58 5675.96,-238.58"/>
</g>
<!-- 1204418980975433034 -->
<g id="node6" class="node">
<title>1204418980975433034</title>
<g id="a_node6"><a xlink:href="age.svg" xlink:title="Variable(age)">
<path fill="lightgrey" stroke="black" d="M226,-828C226,-828 161,-828 161,-828 155,-828 149,-822 149,-816 149,-816 149,-804 149,-804 149,-798 155,-792 161,-792 161,-792 226,-792 226,-792 232,-792 238,-798 238,-804 238,-804 238,-816 238,-816 238,-822 232,-828 226,-828"/>
<text text-anchor="middle" x="193.5" y="-806.3" font-family="Times,serif" font-size="14.00">Variable(age)</text>
</a>
</g>
</g>
<!-- 1204418980975433034&#45;&gt;3509576877858601689 -->
<g id="edge21" class="edge">
<title>1204418980975433034&#45;&gt;3509576877858601689</title>
<path fill="none" stroke="lightgrey" d="M193.5,-791.95C193.5,-765.29 193.5,-712.11 193.5,-667 193.5,-667 193.5,-667 193.5,-377 193.5,-291.32 281.38,-308.77 364.5,-288 501.45,-253.77 5205.97,-236.74 5675.79,-235.13"/>
<polygon fill="lightgrey" stroke="lightgrey" points="5675.81,-238.63 5685.8,-235.09 5675.79,-231.63 5675.81,-238.63"/>
</g>
<!-- 2534416172140043511 -->
<g id="node7" class="node">
<title>2534416172140043511</title>
<g id="a_node7"><a xlink:href="prior_covid_test_frequency.svg" xlink:title="Variable(prior_covid_test_...)">
<path fill="lightgrey" stroke="black" d="M421,-828C421,-828 268,-828 268,-828 262,-828 256,-822 256,-816 256,-816 256,-804 256,-804 256,-798 262,-792 268,-792 268,-792 421,-792 421,-792 427,-792 433,-798 433,-804 433,-804 433,-816 433,-816 433,-822 427,-828 421,-828"/>
<text text-anchor="middle" x="344.5" y="-806.3" font-family="Times,serif" font-size="14.00">Variable(prior_covid_test_...)</text>
</a>
</g>
</g>
<!-- 2534416172140043511&#45;&gt;3509576877858601689 -->
<g id="edge22" class="edge">
<title>2534416172140043511&#45;&gt;3509576877858601689</title>
<path fill="none" stroke="lightgrey" d="M344.5,-791.95C344.5,-765.29 344.5,-712.11 344.5,-667 344.5,-667 344.5,-667 344.5,-377 344.5,-292.5 430.6,-308.8 512.5,-288 645.44,-254.24 5213.08,-236.81 5675.79,-235.13"/>
<polygon fill="lightgrey" stroke="lightgrey" points="5675.97,-238.63 5685.95,-235.1 5675.94,-231.63 5675.97,-238.63"/>
</g>
<!-- 2854687987532492382 -->
<g id="node8" class="node">
<title>2854687987532492382</title>
<g id="a_node8"><a xlink:href="population.svg" xlink:title="Population()">
<path fill="lightgrey" stroke="black" d="M522.5,-828C522.5,-828 462.5,-828 462.5,-828 456.5,-828 450.5,-822 450.5,-816 450.5,-816 450.5,-804 450.5,-804 450.5,-798 456.5,-792 462.5,-792 462.5,-792 522.5,-792 522.5,-792 528.5,-792 534.5,-798 534.5,-804 534.5,-804 534.5,-816 534.5,-816 534.5,-822 528.5,-828 522.5,-828"/>
<text text-anchor="middle" x="492.5" y="-806.3" font-family="Times,serif" font-size="14.00">Population()</text>
</a>
</g>
</g>
<!-- 2854687987532492382&#45;&gt;3509576877858601689 -->
<g id="edge23" class="edge">
<title>2854687987532492382&#45;&gt;3509576877858601689</title>
<path fill="none" stroke="lightgrey" d="M492.5,-791.95C492.5,-765.29 492.5,-712.11 492.5,-667 492.5,-667 492.5,-667 492.5,-377 492.5,-308.8 552.65,-309.1 617.5,-288 745.23,-246.44 5218.37,-236.03 5675.84,-235.08"/>
<polygon fill="lightgrey" stroke="lightgrey" points="5675.9,-238.58 5685.89,-235.05 5675.88,-231.58 5675.9,-238.58"/>
</g>
<!-- 6286720606273614483 -->
<g id="node9" class="node">
<title>6286720606273614483</title>
<g id="a_node9"><a xlink:href="cev.svg" xlink:title="Variable(cev)">
<path fill="lightgrey" stroke="black" d="M629,-828C629,-828 564,-828 564,-828 558,-828 552,-822 552,-816 552,-816 552,-804 552,-804 552,-798 558,-792 564,-792 564,-792 629,-792 629,-792 635,-792 641,-798 641,-804 641,-804 641,-816 641,-816 641,-822 635,-828 629,-828"/>
<text text-anchor="middle" x="596.5" y="-806.3" font-family="Times,serif" font-size="14.00">Variable(cev)</text>
</a>
</g>
</g>
<!-- 6286720606273614483&#45;&gt;3509576877858601689 -->
<g id="edge24" class="edge">
<title>6286720606273614483&#45;&gt;3509576877858601689</title>
<path fill="none" stroke="lightgrey" d="M596.5,-791.95C596.5,-765.29 596.5,-712.11 596.5,-667 596.5,-667 596.5,-667 596.5,-377 596.5,-301.38 668.84,-308.94 741.5,-288 867.33,-251.74 5223.95,-236.59 5675.74,-235.12"/>
<polygon fill="lightgrey" stroke="lightgrey" points="5675.99,-238.62 5685.97,-235.09 5675.96,-231.62 5675.99,-238.62"/>
</g>
<!-- 8298428905775489201 -->
<g id="node10" class="node">
<title>8298428905775489201</title>
<g id="a_node10"><a xlink:href="inhospital.svg" xlink:title="Variable(inhospital)">
<path fill="lightgrey" stroke="black" d="M770.5,-828C770.5,-828 670.5,-828 670.5,-828 664.5,-828 658.5,-822 658.5,-816 658.5,-816 658.5,-804 658.5,-804 658.5,-798 664.5,-792 670.5,-792 670.5,-792 770.5,-792 770.5,-792 776.5,-792 782.5,-798 782.5,-804 782.5,-804 782.5,-816 782.5,-816 782.5,-822 776.5,-828 770.5,-828"/>
<text text-anchor="middle" x="720.5" y="-806.3" font-family="Times,serif" font-size="14.00">Variable(inhospital)</text>
</a>
</g>
</g>
<!-- 8298428905775489201&#45;&gt;3509576877858601689 -->
<g id="edge25" class="edge">
<title>8298428905775489201&#45;&gt;3509576877858601689</title>
<path fill="none" stroke="lightgrey" d="M720.5,-791.95C720.5,-765.29 720.5,-712.11 720.5,-667 720.5,-667 720.5,-667 720.5,-377 720.5,-301.38 792.84,-308.95 865.5,-288 988.09,-252.65 5229.65,-236.71 5675.67,-235.13"/>
<polygon fill="lightgrey" stroke="lightgrey" points="5675.79,-238.63 5685.78,-235.1 5675.77,-231.63 5675.79,-238.63"/>
</g>
<!-- 8473241684409304911 -->
<g id="node11" class="node">
<title>8473241684409304911</title>
<g id="a_node11"><a xlink:href="imd.svg" xlink:title="Variable(imd)">
<path fill="lightgrey" stroke="black" d="M880.5,-828C880.5,-828 812.5,-828 812.5,-828 806.5,-828 800.5,-822 800.5,-816 800.5,-816 800.5,-804 800.5,-804 800.5,-798 806.5,-792 812.5,-792 812.5,-792 880.5,-792 880.5,-792 886.5,-792 892.5,-798 892.5,-804 892.5,-804 892.5,-816 892.5,-816 892.5,-822 886.5,-828 880.5,-828"/>
<text text-anchor="middle" x="846.5" y="-806.3" font-family="Times,serif" font-size="14.00">Variable(imd)</text>
</a>
</g>
</g>
<!-- 8473241684409304911&#45;&gt;3509576877858601689 -->
<g id="edge26" class="edge">
<title>8473241684409304911&#45;&gt;3509576877858601689</title>
<path fill="none" stroke="lightgrey" d="M846.5,-791.95C846.5,-765.29 846.5,-712.11 846.5,-667 846.5,-667 846.5,-667 846.5,-377 846.5,-294.85 929.04,-308.87 1008.5,-288 1128.14,-256.58 5235.67,-237.16 5675.46,-235.17"/>
<polygon fill="lightgrey" stroke="lightgrey" points="5675.75,-238.67 5685.73,-235.12 5675.71,-231.67 5675.75,-238.67"/>
</g>
<!-- 4190317324242135424 -->
<g id="node12" class="node">
<title>4190317324242135424</title>
<g id="a_node12"><a xlink:href="care_home_code.svg" xlink:title="Variable(care_home_code)">
<path fill="lightgrey" stroke="black" d="M1062,-828C1062,-828 923,-828 923,-828 917,-828 911,-822 911,-816 911,-816 911,-804 911,-804 911,-798 917,-792 923,-792 923,-792 1062,-792 1062,-792 1068,-792 1074,-798 1074,-804 1074,-804 1074,-816 1074,-816 1074,-822 1068,-828 1062,-828"/>
<text text-anchor="middle" x="992.5" y="-806.3" font-family="Times,serif" font-size="14.00">Variable(care_home_code)</text>
</a>
</g>
</g>
<!-- 4190317324242135424&#45;&gt;3509576877858601689 -->
<g id="edge27" class="edge">
<title>4190317324242135424&#45;&gt;3509576877858601689</title>
<path fill="none" stroke="lightgrey" d="M992.5,-791.95C992.5,-765.29 992.5,-712.11 992.5,-667 992.5,-667 992.5,-667 992.5,-377 992.5,-278.08 1099.79,-308.77 1196.5,-288 1428.31,-238.21 5253.68,-235.19 5675.77,-235.01"/>
<polygon fill="lightgrey" stroke="lightgrey" points="5675.92,-238.51 5685.92,-235.01 5675.91,-231.51 5675.92,-238.51"/>
</g>
<!-- 4730113238456614199 -->
<g id="node13" class="node">
<title>4730113238456614199</title>
<g id="a_node13"><a xlink:href="chronic_heart_disease.svg" xlink:title="Variable(chronic_heart_dis...)">
<path fill="lightgrey" stroke="black" d="M1259,-828C1259,-828 1104,-828 1104,-828 1098,-828 1092,-822 1092,-816 1092,-816 1092,-804 1092,-804 1092,-798 1098,-792 1104,-792 1104,-792 1259,-792 1259,-792 1265,-792 1271,-798 1271,-804 1271,-804 1271,-816 1271,-816 1271,-822 1265,-828 1259,-828"/>
<text text-anchor="middle" x="1181.5" y="-806.3" font-family="Times,serif" font-size="14.00">Variable(chronic_heart_dis...)</text>
</a>
</g>
</g>
<!-- 4730113238456614199&#45;&gt;3509576877858601689 -->
<g id="edge28" class="edge">
<title>4730113238456614199&#45;&gt;3509576877858601689</title>
<path fill="none" stroke="lightgrey" d="M1181.5,-791.95C1181.5,-765.29 1181.5,-712.11 1181.5,-667 1181.5,-667 1181.5,-667 1181.5,-377 1181.5,-272.35 1296.93,-308.79 1399.5,-288 1621.09,-243.09 5263.26,-235.75 5675.6,-235.06"/>
<polygon fill="lightgrey" stroke="lightgrey" points="5675.81,-238.56 5685.8,-235.04 5675.79,-231.56 5675.81,-238.56"/>
</g>
<!-- 608844516887656461 -->
<g id="node14" class="node">
<title>608844516887656461</title>
<g id="a_node14"><a xlink:href="covidemergency_date.svg" xlink:title="Variable(covidemergency_date)">
<path fill="lightgrey" stroke="black" d="M1467.5,-828C1467.5,-828 1301.5,-828 1301.5,-828 1295.5,-828 1289.5,-822 1289.5,-816 1289.5,-816 1289.5,-804 1289.5,-804 1289.5,-798 1295.5,-792 1301.5,-792 1301.5,-792 1467.5,-792 1467.5,-792 1473.5,-792 1479.5,-798 1479.5,-804 1479.5,-804 1479.5,-816 1479.5,-816 1479.5,-822 1473.5,-828 1467.5,-828"/>
<text text-anchor="middle" x="1384.5" y="-806.3" font-family="Times,serif" font-size="14.00">Variable(covidemergency_date)</text>
</a>
</g>
</g>
<!-- 608844516887656461&#45;&gt;3509576877858601689 -->
<g id="edge29" class="edge">
<title>608844516887656461&#45;&gt;3509576877858601689</title>
<path fill="none" stroke="lightgrey" d="M1384.5,-791.95C1384.5,-765.29 1384.5,-712.11 1384.5,-667 1384.5,-667 1384.5,-667 1384.5,-377 1384.5,-269.05 1504.57,-308.82 1610.5,-288 1821.18,-246.6 5274.73,-236.17 5675.63,-235.1"/>
<polygon fill="lightgrey" stroke="lightgrey" points="5675.84,-238.6 5685.83,-235.07 5675.82,-231.6 5675.84,-238.6"/>
</g>
<!-- 4684350277698939690 -->
<g id="node15" class="node">
<title>4684350277698939690</title>
<g id="a_node15"><a xlink:href="covidadmitted_0_date.svg" xlink:title="Variable(covidadmitted_0_date)">
<path fill="lightgrey" stroke="black" d="M1677,-828C1677,-828 1510,-828 1510,-828 1504,-828 1498,-822 1498,-816 1498,-816 1498,-804 1498,-804 1498,-798 1504,-792 1510,-792 1510,-792 1677,-792 1677,-792 1683,-792 1689,-798 1689,-804 1689,-804 1689,-816 1689,-816 1689,-822 1683,-828 1677,-828"/>
<text text-anchor="middle" x="1593.5" y="-806.3" font-family="Times,serif" font-size="14.00">Variable(covidadmitted_0_date)</text>
</a>
</g>
</g>
<!-- 4684350277698939690&#45;&gt;3509576877858601689 -->
<g id="edge30" class="edge">
<title>4684350277698939690&#45;&gt;3509576877858601689</title>
<path fill="none" stroke="lightgrey" d="M1593.5,-791.95C1593.5,-765.29 1593.5,-712.11 1593.5,-667 1593.5,-667 1593.5,-667 1593.5,-377 1593.5,-275.63 1704.3,-308.85 1803.5,-288 2003.43,-245.97 5285.24,-236.12 5675.63,-235.09"/>
<polygon fill="lightgrey" stroke="lightgrey" points="5675.85,-238.59 5685.84,-235.07 5675.83,-231.59 5675.85,-238.59"/>
</g>
<!-- 7724327390246657977 -->
<g id="node16" class="node">
<title>7724327390246657977</title>
<g id="a_node16"><a xlink:href="emergency_date.svg" xlink:title="Variable(emergency_date)">
<path fill="lightgrey" stroke="black" d="M1855.5,-828C1855.5,-828 1719.5,-828 1719.5,-828 1713.5,-828 1707.5,-822 1707.5,-816 1707.5,-816 1707.5,-804 1707.5,-804 1707.5,-798 1713.5,-792 1719.5,-792 1719.5,-792 1855.5,-792 1855.5,-792 1861.5,-792 1867.5,-798 1867.5,-804 1867.5,-804 1867.5,-816 1867.5,-816 1867.5,-822 1861.5,-828 1855.5,-828"/>
<text text-anchor="middle" x="1787.5" y="-806.3" font-family="Times,serif" font-size="14.00">Variable(emergency_date)</text>
</a>
</g>
</g>
<!-- 7724327390246657977&#45;&gt;3509576877858601689 -->
<g id="edge31" class="edge">
<title>7724327390246657977&#45;&gt;3509576877858601689</title>
<path fill="none" stroke="lightgrey" d="M1787.5,-791.95C1787.5,-765.29 1787.5,-712.11 1787.5,-667 1787.5,-667 1787.5,-667 1787.5,-377 1787.5,-278.89 1893.65,-308.89 1989.5,-288 2179.33,-246.62 5296,-236.22 5675.7,-235.11"/>
<polygon fill="lightgrey" stroke="lightgrey" points="5675.9,-238.61 5685.89,-235.08 5675.88,-231.61 5675.9,-238.61"/>
</g>
<!-- 8205468790205234603 -->
<g id="node17" class="node">
<title>8205468790205234603</title>
<g id="a_node17"><a xlink:href="potentialcovidcritcare_2_date.svg" xlink:title="Variable(potentialcovidcri...)">
<path fill="lightgrey" stroke="black" d="M2047,-828C2047,-828 1898,-828 1898,-828 1892,-828 1886,-822 1886,-816 1886,-816 1886,-804 1886,-804 1886,-798 1892,-792 1898,-792 1898,-792 2047,-792 2047,-792 2053,-792 2059,-798 2059,-804 2059,-804 2059,-816 2059,-816 2059,-822 2053,-828 2047,-828"/>
<text text-anchor="middle" x="1972.5" y="-806.3" font-family="Times,serif" font-size="14.00">Variable(potentialcovidcri...)</text>
</a>
</g>
</g>
<!-- 8205468790205234603&#45;&gt;3509576877858601689 -->
<g id="edge32" class="edge">
<title>8205468790205234603&#45;&gt;3509576877858601689</title>
<path fill="none" stroke="lightgrey" d="M1972.5,-791.95C1972.5,-765.29 1972.5,-712.11 1972.5,-667 1972.5,-667 1972.5,-667 1972.5,-377 1972.5,-276.86 2081.57,-308.93 2179.5,-288 2359.43,-249.55 5305.21,-236.62 5675.39,-235.15"/>
<polygon fill="lightgrey" stroke="lightgrey" points="5675.6,-238.65 5685.58,-235.11 5675.57,-231.65 5675.6,-238.65"/>
</g>
<!-- 1392455944681476409 -->
<g id="node18" class="node">
<title>1392455944681476409</title>
<g id="a_node18"><a xlink:href="potentialcovidcritcare_3_date.svg" xlink:title="Variable(potentialcovidcri...)">
<path fill="lightgrey" stroke="black" d="M2238,-828C2238,-828 2089,-828 2089,-828 2083,-828 2077,-822 2077,-816 2077,-816 2077,-804 2077,-804 2077,-798 2083,-792 2089,-792 2089,-792 2238,-792 2238,-792 2244,-792 2250,-798 2250,-804 2250,-804 2250,-816 2250,-816 2250,-822 2244,-828 2238,-828"/>
<text text-anchor="middle" x="2163.5" y="-806.3" font-family="Times,serif" font-size="14.00">Variable(potentialcovidcri...)</text>
</a>
</g>
</g>
<!-- 1392455944681476409&#45;&gt;3509576877858601689 -->
<g id="edge33" class="edge">
<title>1392455944681476409&#45;&gt;3509576877858601689</title>
<path fill="none" stroke="lightgrey" d="M2163.5,-791.95C2163.5,-765.29 2163.5,-712.11 2163.5,-667 2163.5,-667 2163.5,-667 2163.5,-377 2163.5,-278.89 2269.66,-308.97 2365.5,-288 2535.48,-250.81 5316.67,-236.82 5675.48,-235.17"/>
<polygon fill="lightgrey" stroke="lightgrey" points="5675.63,-238.67 5685.62,-235.12 5675.6,-231.67 5675.63,-238.67"/>
</g>
<!-- 6789305390415183441 -->
<g id="node19" class="node">
<title>6789305390415183441</title>
<g id="a_node19"><a xlink:href="hhld_imdef_dat.svg" xlink:title="Variable(hhld_imdef_dat)">
<path fill="lightgrey" stroke="black" d="M2413,-828C2413,-828 2280,-828 2280,-828 2274,-828 2268,-822 2268,-816 2268,-816 2268,-804 2268,-804 2268,-798 2274,-792 2280,-792 2280,-792 2413,-792 2413,-792 2419,-792 2425,-798 2425,-804 2425,-804 2425,-816 2425,-816 2425,-822 2419,-828 2413,-828"/>
<text text-anchor="middle" x="2346.5" y="-806.3" font-family="Times,serif" font-size="14.00">Variable(hhld_imdef_dat)</text>
</a>
</g>
</g>
<!-- 6789305390415183441&#45;&gt;3509576877858601689 -->
<g id="edge34" class="edge">
<title>6789305390415183441&#45;&gt;3509576877858601689</title>
<path fill="none" stroke="lightgrey" d="M2346.5,-791.95C2346.5,-765.29 2346.5,-712.11 2346.5,-667 2346.5,-667 2346.5,-667 2346.5,-377 2346.5,-286.96 2440.95,-309.03 2528.5,-288 2689.16,-249.41 5326.4,-236.68 5675.46,-235.16"/>
<polygon fill="lightgrey" stroke="lightgrey" points="5675.58,-238.66 5685.57,-235.12 5675.55,-231.66 5675.58,-238.66"/>
</g>
<!-- 5736036485033204283 -->
<g id="node20" class="node">
<title>5736036485033204283</title>
<g id="a_node20"><a xlink:href="housebound.svg" xlink:title="Variable(housebound)">
<path fill="lightgrey" stroke="black" d="M2567.5,-828C2567.5,-828 2455.5,-828 2455.5,-828 2449.5,-828 2443.5,-822 2443.5,-816 2443.5,-816 2443.5,-804 2443.5,-804 2443.5,-798 2449.5,-792 2455.5,-792 2455.5,-792 2567.5,-792 2567.5,-792 2573.5,-792 2579.5,-798 2579.5,-804 2579.5,-804 2579.5,-816 2579.5,-816 2579.5,-822 2573.5,-828 2567.5,-828"/>
<text text-anchor="middle" x="2511.5" y="-806.3" font-family="Times,serif" font-size="14.00">Variable(housebound)</text>
</a>
</g>
</g>
<!-- 5736036485033204283&#45;&gt;3509576877858601689 -->
<g id="edge35" class="edge">
<title>5736036485033204283&#45;&gt;3509576877858601689</title>
<path fill="none" stroke="lightgrey" d="M2511.5,-791.95C2511.5,-765.29 2511.5,-712.11 2511.5,-667 2511.5,-667 2511.5,-667 2511.5,-377 2511.5,-283.75 2610.66,-309.06 2701.5,-288 2853.41,-252.78 5337.27,-237.18 5675.48,-235.21"/>
<polygon fill="lightgrey" stroke="lightgrey" points="5675.75,-238.71 5685.73,-235.16 5675.71,-231.71 5675.75,-238.71"/>
</g>
<!-- 4546432929583884551 -->
<g id="node21" class="node">
<title>4546432929583884551</title>
<g id="a_node21"><a xlink:href="potentialcovidcritcare_2_ccdays.svg" xlink:title="Variable(potentialcovidcri...)">
<path fill="lightgrey" stroke="black" d="M2759,-828C2759,-828 2610,-828 2610,-828 2604,-828 2598,-822 2598,-816 2598,-816 2598,-804 2598,-804 2598,-798 2604,-792 2610,-792 2610,-792 2759,-792 2759,-792 2765,-792 2771,-798 2771,-804 2771,-804 2771,-816 2771,-816 2771,-822 2765,-828 2759,-828"/>
<text text-anchor="middle" x="2684.5" y="-806.3" font-family="Times,serif" font-size="14.00">Variable(potentialcovidcri...)</text>
</a>
</g>
</g>
<!-- 4546432929583884551&#45;&gt;3509576877858601689 -->
<g id="edge36" class="edge">
<title>4546432929583884551&#45;&gt;3509576877858601689</title>
<path fill="none" stroke="lightgrey" d="M2684.5,-791.95C2684.5,-765.29 2684.5,-712.11 2684.5,-667 2684.5,-667 2684.5,-667 2684.5,-377 2684.5,-276.86 2793.61,-309.11 2891.5,-288 3033.96,-257.28 5349.14,-237.88 5675.4,-235.3"/>
<polygon fill="lightgrey" stroke="lightgrey" points="5675.77,-238.79 5685.74,-235.21 5675.72,-231.79 5675.77,-238.79"/>
</g>
<!-- 1965249348624605339 -->
<g id="node22" class="node">
<title>1965249348624605339</title>
<g id="a_node22"><a xlink:href="potentialcovidcritcare_1_ccdays.svg" xlink:title="Variable(potentialcovidcri...)">
<path fill="lightgrey" stroke="black" d="M2950,-828C2950,-828 2801,-828 2801,-828 2795,-828 2789,-822 2789,-816 2789,-816 2789,-804 2789,-804 2789,-798 2795,-792 2801,-792 2801,-792 2950,-792 2950,-792 2956,-792 2962,-798 2962,-804 2962,-804 2962,-816 2962,-816 2962,-822 2956,-828 2950,-828"/>
<text text-anchor="middle" x="2875.5" y="-806.3" font-family="Times,serif" font-size="14.00">Variable(potentialcovidcri...)</text>
</a>
</g>
</g>
<!-- 1965249348624605339&#45;&gt;3509576877858601689 -->
<g id="edge37" class="edge">
<title>1965249348624605339&#45;&gt;3509576877858601689</title>
<path fill="none" stroke="lightgrey" d="M2875.5,-791.95C2875.5,-765.29 2875.5,-712.11 2875.5,-667 2875.5,-667 2875.5,-667 2875.5,-377 2875.5,-278.89 2981.71,-309.18 3077.5,-288 3342.11,-229.51 5372.91,-233.88 5675.77,-234.86"/>
<polygon fill="lightgrey" stroke="lightgrey" points="5675.8,-238.36 5685.81,-234.9 5675.82,-231.36 5675.8,-238.36"/>
</g>
<!-- 3379142958588462408 -->
<g id="node23" class="node">
<title>3379142958588462408</title>
<g id="a_node23"><a xlink:href="covid_vax_az_3_date.svg" xlink:title="Variable(covid_vax_az_3_date)">
<path fill="lightgrey" stroke="black" d="M7383.5,-828C7383.5,-828 7219.5,-828 7219.5,-828 7213.5,-828 7207.5,-822 7207.5,-816 7207.5,-816 7207.5,-804 7207.5,-804 7207.5,-798 7213.5,-792 7219.5,-792 7219.5,-792 7383.5,-792 7383.5,-792 7389.5,-792 7395.5,-798 7395.5,-804 7395.5,-804 7395.5,-816 7395.5,-816 7395.5,-822 7389.5,-828 7383.5,-828"/>
<text text-anchor="middle" x="7301.5" y="-806.3" font-family="Times,serif" font-size="14.00">Variable(covid_vax_az_3_date)</text>
</a>
</g>
</g>
<!-- 3379142958588462408&#45;&gt;3509576877858601689 -->
<g id="edge38" class="edge">
<title>3379142958588462408&#45;&gt;3509576877858601689</title>
<path fill="none" stroke="lightgrey" d="M7271.41,-791.89C7235,-768.7 7178.5,-723.59 7178.5,-667 7178.5,-667 7178.5,-667 7178.5,-377 7178.5,-276.86 7069.14,-310.25 6971.5,-288 6730.66,-233.11 5934.64,-233.83 5751.36,-234.75"/>
<polygon fill="lightgrey" stroke="lightgrey" points="5751.13,-231.25 5741.15,-234.81 5751.17,-238.25 5751.13,-231.25"/>
</g>
<!-- 4225002590628906338 -->
<g id="node77" class="node">
<title>4225002590628906338</title>
<path fill="none" stroke="black" d="M8133,-324C8133,-324 7976,-324 7976,-324 7970,-324 7964,-318 7964,-312 7964,-312 7964,-300 7964,-300 7964,-294 7970,-288 7976,-288 7976,-288 8133,-288 8133,-288 8139,-288 8145,-294 8145,-300 8145,-300 8145,-312 8145,-312 8145,-318 8139,-324 8133,-324"/>
<text text-anchor="middle" x="8054.5" y="-302.3" font-family="Times,serif" font-size="14.00">SelectColumn(product_name)</text>
</g>
<!-- 3379142958588462408&#45;&gt;4225002590628906338 -->
<g id="edge39" class="edge">
<title>3379142958588462408&#45;&gt;4225002590628906338</title>
<path fill="none" stroke="lightgrey" d="M7320.14,-791.69C7344.89,-766.72 7385.5,-717.98 7385.5,-667 7385.5,-667 7385.5,-667 7385.5,-449 7385.5,-334.23 7767,-311.82 7953.82,-307.73"/>
<polygon fill="lightgrey" stroke="lightgrey" points="7954,-311.23 7963.93,-307.52 7953.86,-304.23 7954,-311.23"/>
</g>
<!-- 2691470118406119864 -->
<g id="node24" class="node">
<title>2691470118406119864</title>
<g id="a_node24"><a xlink:href="covid_tests_date.svg" xlink:title="Variable(covid_tests_date)">
<path fill="lightgrey" stroke="black" d="M3129,-828C3129,-828 2992,-828 2992,-828 2986,-828 2980,-822 2980,-816 2980,-816 2980,-804 2980,-804 2980,-798 2986,-792 2992,-792 2992,-792 3129,-792 3129,-792 3135,-792 3141,-798 3141,-804 3141,-804 3141,-816 3141,-816 3141,-822 3135,-828 3129,-828"/>
<text text-anchor="middle" x="3060.5" y="-806.3" font-family="Times,serif" font-size="14.00">Variable(covid_tests_date)</text>
</a>
</g>
</g>
<!-- 2691470118406119864&#45;&gt;3509576877858601689 -->
<g id="edge40" class="edge">
<title>2691470118406119864&#45;&gt;3509576877858601689</title>
<path fill="none" stroke="lightgrey" d="M3060.5,-791.95C3060.5,-765.29 3060.5,-712.11 3060.5,-667 3060.5,-667 3060.5,-667 3060.5,-377 3060.5,-276.45 3170.22,-309.26 3268.5,-288 3513.43,-235.03 5385.96,-234.68 5675.85,-234.95"/>
<polygon fill="lightgrey" stroke="lightgrey" points="5675.86,-238.45 5685.87,-234.96 5675.87,-231.45 5675.86,-238.45"/>
</g>
<!-- 6918861611650714505 -->
<g id="node25" class="node">
<title>6918861611650714505</title>
<g id="a_node25"><a xlink:href="covid_vax_disease_2_date.svg" xlink:title="Variable(covid_vax_disease...)">
<path fill="lightgrey" stroke="black" d="M3331.5,-828C3331.5,-828 3171.5,-828 3171.5,-828 3165.5,-828 3159.5,-822 3159.5,-816 3159.5,-816 3159.5,-804 3159.5,-804 3159.5,-798 3165.5,-792 3171.5,-792 3171.5,-792 3331.5,-792 3331.5,-792 3337.5,-792 3343.5,-798 3343.5,-804 3343.5,-804 3343.5,-816 3343.5,-816 3343.5,-822 3337.5,-828 3331.5,-828"/>
<text text-anchor="middle" x="3251.5" y="-806.3" font-family="Times,serif" font-size="14.00">Variable(covid_vax_disease...)</text>
</a>
</g>
</g>
<!-- 6918861611650714505&#45;&gt;3509576877858601689 -->
<g id="edge41" class="edge">
<title>6918861611650714505&#45;&gt;3509576877858601689</title>
<path fill="none" stroke="lightgrey" d="M3251.5,-791.95C3251.5,-765.29 3251.5,-712.11 3251.5,-667 3251.5,-667 3251.5,-667 3251.5,-377 3251.5,-273.99 3364.73,-309.36 3465.5,-288 3689.97,-240.43 5398.21,-235.53 5675.52,-235.05"/>
<polygon fill="lightgrey" stroke="lightgrey" points="5675.86,-238.55 5685.86,-235.03 5675.85,-231.55 5675.86,-238.55"/>
</g>
<!-- 8232583889354345964 -->
<g id="node26" class="node">
<title>8232583889354345964</title>
<g id="a_node26"><a xlink:href="covid_test_0_date.svg" xlink:title="Variable(covid_test_0_date)">
<path fill="lightgrey" stroke="black" d="M3519,-828C3519,-828 3374,-828 3374,-828 3368,-828 3362,-822 3362,-816 3362,-816 3362,-804 3362,-804 3362,-798 3368,-792 3374,-792 3374,-792 3519,-792 3519,-792 3525,-792 3531,-798 3531,-804 3531,-804 3531,-816 3531,-816 3531,-822 3525,-828 3519,-828"/>
<text text-anchor="middle" x="3446.5" y="-806.3" font-family="Times,serif" font-size="14.00">Variable(covid_test_0_date)</text>
</a>
</g>
</g>
<!-- 8232583889354345964&#45;&gt;3509576877858601689 -->
<g id="edge42" class="edge">
<title>8232583889354345964&#45;&gt;3509576877858601689</title>
<path fill="none" stroke="lightgrey" d="M3446.5,-791.95C3446.5,-765.29 3446.5,-712.11 3446.5,-667 3446.5,-667 3446.5,-667 3446.5,-377 3446.5,-287.76 3539.86,-309.41 3626.5,-288 3832.56,-237.07 5408.99,-234.97 5675.34,-234.98"/>
<polygon fill="lightgrey" stroke="lightgrey" points="5675.65,-238.48 5685.65,-234.98 5675.65,-231.48 5675.65,-238.48"/>
</g>
<!-- 4527174465814226518 -->
<g id="node27" class="node">
<title>4527174465814226518</title>
<g id="a_node27"><a xlink:href="asplenia.svg" xlink:title="Variable(asplenia)">
<path fill="lightgrey" stroke="black" d="M3652,-828C3652,-828 3561,-828 3561,-828 3555,-828 3549,-822 3549,-816 3549,-816 3549,-804 3549,-804 3549,-798 3555,-792 3561,-792 3561,-792 3652,-792 3652,-792 3658,-792 3664,-798 3664,-804 3664,-804 3664,-816 3664,-816 3664,-822 3658,-828 3652,-828"/>
<text text-anchor="middle" x="3606.5" y="-806.3" font-family="Times,serif" font-size="14.00">Variable(asplenia)</text>
</a>
</g>
</g>
<!-- 4527174465814226518&#45;&gt;3509576877858601689 -->
<g id="edge43" class="edge">
<title>4527174465814226518&#45;&gt;3509576877858601689</title>
<path fill="none" stroke="lightgrey" d="M3606.5,-791.95C3606.5,-765.29 3606.5,-712.11 3606.5,-667 3606.5,-667 3606.5,-667 3606.5,-377 3606.5,-299.86 3681.43,-309.52 3755.5,-288 3946.24,-232.58 5419.77,-234.17 5675.68,-234.87"/>
<polygon fill="lightgrey" stroke="lightgrey" points="5675.93,-238.37 5685.94,-234.9 5675.95,-231.37 5675.93,-238.37"/>
</g>
<!-- 7276356431061604826 -->
<g id="node28" class="node">
<title>7276356431061604826</title>
<g id="a_node28"><a xlink:href="learndis.svg" xlink:title="Variable(learndis)">
<path fill="lightgrey" stroke="black" d="M3783,-828C3783,-828 3694,-828 3694,-828 3688,-828 3682,-822 3682,-816 3682,-816 3682,-804 3682,-804 3682,-798 3688,-792 3694,-792 3694,-792 3783,-792 3783,-792 3789,-792 3795,-798 3795,-804 3795,-804 3795,-816 3795,-816 3795,-822 3789,-828 3783,-828"/>
<text text-anchor="middle" x="3738.5" y="-806.3" font-family="Times,serif" font-size="14.00">Variable(learndis)</text>
</a>
</g>
</g>
<!-- 7276356431061604826&#45;&gt;3509576877858601689 -->
<g id="edge44" class="edge">
<title>7276356431061604826&#45;&gt;3509576877858601689</title>
<path fill="none" stroke="lightgrey" d="M3738.5,-791.95C3738.5,-765.29 3738.5,-712.11 3738.5,-667 3738.5,-667 3738.5,-667 3738.5,-377 3738.5,-285.36 3835.44,-309.6 3924.5,-288 4100.05,-245.42 5432.84,-236.46 5675.61,-235.18"/>
<polygon fill="lightgrey" stroke="lightgrey" points="5675.73,-238.68 5685.71,-235.13 5675.69,-231.68 5675.73,-238.68"/>
</g>
<!-- 8588281403506945925 -->
<g id="node29" class="node">
<title>8588281403506945925</title>
<g id="a_node29"><a xlink:href="has_follow_up_previous_6weeks.svg" xlink:title="Variable(has_follow_up_pre...)">
<path fill="lightgrey" stroke="black" d="M3987.5,-828C3987.5,-828 3825.5,-828 3825.5,-828 3819.5,-828 3813.5,-822 3813.5,-816 3813.5,-816 3813.5,-804 3813.5,-804 3813.5,-798 3819.5,-792 3825.5,-792 3825.5,-792 3987.5,-792 3987.5,-792 3993.5,-792 3999.5,-798 3999.5,-804 3999.5,-804 3999.5,-816 3999.5,-816 3999.5,-822 3993.5,-828 3987.5,-828"/>
<text text-anchor="middle" x="3906.5" y="-806.3" font-family="Times,serif" font-size="14.00">Variable(has_follow_up_pre...)</text>
</a>
</g>
</g>
<!-- 8588281403506945925&#45;&gt;3509576877858601689 -->
<g id="edge45" class="edge">
<title>8588281403506945925&#45;&gt;3509576877858601689</title>
<path fill="none" stroke="lightgrey" d="M3906.5,-791.95C3906.5,-765.29 3906.5,-712.11 3906.5,-667 3906.5,-667 3906.5,-667 3906.5,-377 3906.5,-289.35 3997.58,-309.71 4082.5,-288 4241.32,-247.39 5446.15,-236.89 5675.76,-235.25"/>
<polygon fill="lightgrey" stroke="lightgrey" points="5675.98,-238.75 5685.95,-235.18 5675.93,-231.75 5675.98,-238.75"/>
</g>
<!-- 5798290827974159016 -->
<g id="node30" class="node">
<title>5798290827974159016</title>
<g id="a_node30"><a xlink:href="stp.svg" xlink:title="Variable(stp)">
<path fill="lightgrey" stroke="black" d="M4091.5,-828C4091.5,-828 4029.5,-828 4029.5,-828 4023.5,-828 4017.5,-822 4017.5,-816 4017.5,-816 4017.5,-804 4017.5,-804 4017.5,-798 4023.5,-792 4029.5,-792 4029.5,-792 4091.5,-792 4091.5,-792 4097.5,-792 4103.5,-798 4103.5,-804 4103.5,-804 4103.5,-816 4103.5,-816 4103.5,-822 4097.5,-828 4091.5,-828"/>
<text text-anchor="middle" x="4060.5" y="-806.3" font-family="Times,serif" font-size="14.00">Variable(stp)</text>
</a>
</g>
</g>
<!-- 5798290827974159016&#45;&gt;3509576877858601689 -->
<g id="edge46" class="edge">
<title>5798290827974159016&#45;&gt;3509576877858601689</title>
<path fill="none" stroke="lightgrey" d="M4060.5,-791.95C4060.5,-765.29 4060.5,-712.11 4060.5,-667 4060.5,-667 4060.5,-667 4060.5,-377 4060.5,-301.01 4133.71,-309.83 4206.5,-288 4350.99,-244.68 5456.78,-236.4 5675.85,-235.18"/>
<polygon fill="lightgrey" stroke="lightgrey" points="5675.91,-238.68 5685.89,-235.13 5675.88,-231.68 5675.91,-238.68"/>
</g>
<!-- 1599624066783601839 -->
<g id="node31" class="node">
<title>1599624066783601839</title>
<g id="a_node31"><a xlink:href="rural_urban.svg" xlink:title="Variable(rural_urban)">
<path fill="lightgrey" stroke="black" d="M4243.5,-828C4243.5,-828 4133.5,-828 4133.5,-828 4127.5,-828 4121.5,-822 4121.5,-816 4121.5,-816 4121.5,-804 4121.5,-804 4121.5,-798 4127.5,-792 4133.5,-792 4133.5,-792 4243.5,-792 4243.5,-792 4249.5,-792 4255.5,-798 4255.5,-804 4255.5,-804 4255.5,-816 4255.5,-816 4255.5,-822 4249.5,-828 4243.5,-828"/>
<text text-anchor="middle" x="4188.5" y="-806.3" font-family="Times,serif" font-size="14.00">Variable(rural_urban)</text>
</a>
</g>
</g>
<!-- 1599624066783601839&#45;&gt;3509576877858601689 -->
<g id="edge47" class="edge">
<title>1599624066783601839&#45;&gt;3509576877858601689</title>
<path fill="none" stroke="lightgrey" d="M4188.5,-791.95C4188.5,-765.29 4188.5,-712.11 4188.5,-667 4188.5,-667 4188.5,-667 4188.5,-377 4188.5,-282.54 4289.66,-310.08 4381.5,-288 4510.13,-257.08 5471.65,-239.11 5675.57,-235.63"/>
<polygon fill="lightgrey" stroke="lightgrey" points="5675.84,-239.12 5685.78,-235.45 5675.72,-232.12 5675.84,-239.12"/>
</g>
<!-- 5740228189149415266 -->
<g id="node32" class="node">
<title>5740228189149415266</title>
<g id="a_node32"><a xlink:href="admitted_planned_date.svg" xlink:title="Variable(admitted_planned_...)">
<path fill="lightgrey" stroke="black" d="M4447.5,-828C4447.5,-828 4285.5,-828 4285.5,-828 4279.5,-828 4273.5,-822 4273.5,-816 4273.5,-816 4273.5,-804 4273.5,-804 4273.5,-798 4279.5,-792 4285.5,-792 4285.5,-792 4447.5,-792 4447.5,-792 4453.5,-792 4459.5,-798 4459.5,-804 4459.5,-804 4459.5,-816 4459.5,-816 4459.5,-822 4453.5,-828 4447.5,-828"/>
<text text-anchor="middle" x="4366.5" y="-806.3" font-family="Times,serif" font-size="14.00">Variable(admitted_planned_...)</text>
</a>
</g>
</g>
<!-- 5740228189149415266&#45;&gt;3509576877858601689 -->
<g id="edge48" class="edge">
<title>5740228189149415266&#45;&gt;3509576877858601689</title>
<path fill="none" stroke="lightgrey" d="M4366.5,-791.95C4366.5,-765.29 4366.5,-712.11 4366.5,-667 4366.5,-667 4366.5,-667 4366.5,-377 4366.5,-272.35 4482.31,-310.56 4584.5,-288 4799.39,-240.56 5504.45,-235.57 5675.75,-235.05"/>
<polygon fill="lightgrey" stroke="lightgrey" points="5675.8,-238.55 5685.79,-235.03 5675.79,-231.55 5675.8,-238.55"/>
</g>
<!-- 3537668188118935942 -->
<g id="node33" class="node">
<title>3537668188118935942</title>
<g id="a_node33"><a xlink:href="primary_care_covid_case_date.svg" xlink:title="Variable(primary_care_covi...)">
<path fill="lightgrey" stroke="black" d="M4650,-828C4650,-828 4489,-828 4489,-828 4483,-828 4477,-822 4477,-816 4477,-816 4477,-804 4477,-804 4477,-798 4483,-792 4489,-792 4489,-792 4650,-792 4650,-792 4656,-792 4662,-798 4662,-804 4662,-804 4662,-816 4662,-816 4662,-822 4656,-828 4650,-828"/>
<text text-anchor="middle" x="4569.5" y="-806.3" font-family="Times,serif" font-size="14.00">Variable(primary_care_covi...)</text>
</a>
</g>
</g>
<!-- 3537668188118935942&#45;&gt;3509576877858601689 -->
<g id="edge49" class="edge">
<title>3537668188118935942&#45;&gt;3509576877858601689</title>
<path fill="none" stroke="lightgrey" d="M4569.5,-791.95C4569.5,-765.29 4569.5,-712.11 4569.5,-667 4569.5,-667 4569.5,-667 4569.5,-377 4569.5,-272.76 4684.84,-311.07 4786.5,-288 4959.98,-248.63 5523.33,-237.75 5675.39,-235.5"/>
<polygon fill="lightgrey" stroke="lightgrey" points="5675.66,-239 5685.61,-235.35 5675.56,-232 5675.66,-239"/>
</g>
<!-- 4167136521976511887 -->
<g id="node34" class="node">
<title>4167136521976511887</title>
<g id="a_node34"><a xlink:href="chronic_kidney_disease.svg" xlink:title="Variable(chronic_kidney_di...)">
<path fill="lightgrey" stroke="black" d="M4851,-828C4851,-828 4692,-828 4692,-828 4686,-828 4680,-822 4680,-816 4680,-816 4680,-804 4680,-804 4680,-798 4686,-792 4692,-792 4692,-792 4851,-792 4851,-792 4857,-792 4863,-798 4863,-804 4863,-804 4863,-816 4863,-816 4863,-822 4857,-828 4851,-828"/>
<text text-anchor="middle" x="4771.5" y="-806.3" font-family="Times,serif" font-size="14.00">Variable(chronic_kidney_di...)</text>
</a>
</g>
</g>
<!-- 4167136521976511887&#45;&gt;3509576877858601689 -->
<g id="edge50" class="edge">
<title>4167136521976511887&#45;&gt;3509576877858601689</title>
<path fill="none" stroke="lightgrey" d="M4771.5,-791.95C4771.5,-765.29 4771.5,-712.11 4771.5,-667 4771.5,-667 4771.5,-667 4771.5,-377 4771.5,-271.52 4888.77,-311.93 4991.5,-288 5123.66,-257.22 5546.54,-240.66 5675.68,-236.23"/>
<polygon fill="lightgrey" stroke="lightgrey" points="5675.99,-239.72 5685.87,-235.88 5675.75,-232.72 5675.99,-239.72"/>
</g>
<!-- 6670649817898923012 -->
<g id="node35" class="node">
<title>6670649817898923012</title>
<g id="a_node35"><a xlink:href="emergencyhosp_date.svg" xlink:title="Variable(emergencyhosp_date)">
<path fill="lightgrey" stroke="black" d="M5054,-828C5054,-828 4893,-828 4893,-828 4887,-828 4881,-822 4881,-816 4881,-816 4881,-804 4881,-804 4881,-798 4887,-792 4893,-792 4893,-792 5054,-792 5054,-792 5060,-792 5066,-798 5066,-804 5066,-804 5066,-816 5066,-816 5066,-822 5060,-828 5054,-828"/>
<text text-anchor="middle" x="4973.5" y="-806.3" font-family="Times,serif" font-size="14.00">Variable(emergencyhosp_date)</text>
</a>
</g>
</g>
<!-- 6670649817898923012&#45;&gt;3509576877858601689 -->
<g id="edge51" class="edge">
<title>6670649817898923012&#45;&gt;3509576877858601689</title>
<path fill="none" stroke="lightgrey" d="M4973.5,-791.95C4973.5,-765.29 4973.5,-712.11 4973.5,-667 4973.5,-667 4973.5,-667 4973.5,-377 4973.5,-280.92 5077.67,-312.77 5170.5,-288 5355.18,-238.71 5586.11,-234.2 5675.62,-234.49"/>
<polygon fill="lightgrey" stroke="lightgrey" points="5675.8,-237.99 5685.82,-234.55 5675.84,-230.99 5675.8,-237.99"/>
</g>
<!-- 7142007055908598246 -->
<g id="node36" class="node">
<title>7142007055908598246</title>
<g id="a_node36"><a xlink:href="msoa.svg" xlink:title="Variable(msoa)">
<path fill="lightgrey" stroke="black" d="M5172.5,-828C5172.5,-828 5096.5,-828 5096.5,-828 5090.5,-828 5084.5,-822 5084.5,-816 5084.5,-816 5084.5,-804 5084.5,-804 5084.5,-798 5090.5,-792 5096.5,-792 5096.5,-792 5172.5,-792 5172.5,-792 5178.5,-792 5184.5,-798 5184.5,-804 5184.5,-804 5184.5,-816 5184.5,-816 5184.5,-822 5178.5,-828 5172.5,-828"/>
<text text-anchor="middle" x="5134.5" y="-806.3" font-family="Times,serif" font-size="14.00">Variable(msoa)</text>
</a>
</g>
</g>
<!-- 7142007055908598246&#45;&gt;3509576877858601689 -->
<g id="edge52" class="edge">
<title>7142007055908598246&#45;&gt;3509576877858601689</title>
<path fill="none" stroke="lightgrey" d="M5134.5,-791.95C5134.5,-765.29 5134.5,-712.11 5134.5,-667 5134.5,-667 5134.5,-667 5134.5,-377 5134.5,-265.13 5547.36,-240.94 5675.82,-236.12"/>
<polygon fill="lightgrey" stroke="lightgrey" points="5676.09,-239.61 5685.96,-235.76 5675.84,-232.62 5676.09,-239.61"/>
</g>
<!-- 6209917712092685328 -->
<g id="node37" class="node">
<title>6209917712092685328</title>
<g id="a_node37"><a xlink:href="postest_0_date.svg" xlink:title="Variable(postest_0_date)">
<path fill="lightgrey" stroke="black" d="M5342,-828C5342,-828 5215,-828 5215,-828 5209,-828 5203,-822 5203,-816 5203,-816 5203,-804 5203,-804 5203,-798 5209,-792 5215,-792 5215,-792 5342,-792 5342,-792 5348,-792 5354,-798 5354,-804 5354,-804 5354,-816 5354,-816 5354,-822 5348,-828 5342,-828"/>
<text text-anchor="middle" x="5278.5" y="-806.3" font-family="Times,serif" font-size="14.00">Variable(postest_0_date)</text>
</a>
</g>
</g>
<!-- 6209917712092685328&#45;&gt;3509576877858601689 -->
<g id="edge53" class="edge">
<title>6209917712092685328&#45;&gt;3509576877858601689</title>
<path fill="none" stroke="lightgrey" d="M5278.5,-791.95C5278.5,-765.29 5278.5,-712.11 5278.5,-667 5278.5,-667 5278.5,-667 5278.5,-377 5278.5,-293.76 5569.97,-251.65 5675.74,-239.11"/>
<polygon fill="lightgrey" stroke="lightgrey" points="5676.43,-242.55 5685.96,-237.92 5675.62,-235.6 5676.43,-242.55"/>
</g>
<!-- 1517716104962599745 -->
<g id="node38" class="node">
<title>1517716104962599745</title>
<g id="a_node38"><a xlink:href="chronic_resp_disease.svg" xlink:title="Variable(chronic_resp_disease)">
<path fill="lightgrey" stroke="black" d="M5546.5,-828C5546.5,-828 5384.5,-828 5384.5,-828 5378.5,-828 5372.5,-822 5372.5,-816 5372.5,-816 5372.5,-804 5372.5,-804 5372.5,-798 5378.5,-792 5384.5,-792 5384.5,-792 5546.5,-792 5546.5,-792 5552.5,-792 5558.5,-798 5558.5,-804 5558.5,-804 5558.5,-816 5558.5,-816 5558.5,-822 5552.5,-828 5546.5,-828"/>
<text text-anchor="middle" x="5465.5" y="-806.3" font-family="Times,serif" font-size="14.00">Variable(chronic_resp_disease)</text>
</a>
</g>
</g>
<!-- 1517716104962599745&#45;&gt;3509576877858601689 -->
<g id="edge54" class="edge">
<title>1517716104962599745&#45;&gt;3509576877858601689</title>
<path fill="none" stroke="lightgrey" d="M5465.5,-791.95C5465.5,-765.29 5465.5,-712.11 5465.5,-667 5465.5,-667 5465.5,-667 5465.5,-377 5465.5,-281.44 5605.89,-249.29 5675.42,-239.23"/>
<polygon fill="lightgrey" stroke="lightgrey" points="5676.1,-242.67 5685.53,-237.85 5675.15,-235.73 5676.1,-242.67"/>
</g>
<!-- 5327284127719854644 -->
<g id="node39" class="node">
<title>5327284127719854644</title>
<g id="a_node39"><a xlink:href="cev_ever.svg" xlink:title="Variable(cev_ever)">
<path fill="lightgrey" stroke="black" d="M5684,-828C5684,-828 5589,-828 5589,-828 5583,-828 5577,-822 5577,-816 5577,-816 5577,-804 5577,-804 5577,-798 5583,-792 5589,-792 5589,-792 5684,-792 5684,-792 5690,-792 5696,-798 5696,-804 5696,-804 5696,-816 5696,-816 5696,-822 5690,-828 5684,-828"/>
<text text-anchor="middle" x="5636.5" y="-806.3" font-family="Times,serif" font-size="14.00">Variable(cev_ever)</text>
</a>
</g>
</g>
<!-- 5327284127719854644&#45;&gt;3509576877858601689 -->
<g id="edge55" class="edge">
<title>5327284127719854644&#45;&gt;3509576877858601689</title>
<path fill="none" stroke="lightgrey" d="M5636.5,-791.95C5636.5,-765.29 5636.5,-712.11 5636.5,-667 5636.5,-667 5636.5,-667 5636.5,-377 5636.5,-331.51 5667.42,-286.65 5690.07,-259.89"/>
<polygon fill="lightgrey" stroke="lightgrey" points="5692.86,-262.02 5696.79,-252.19 5687.58,-257.42 5692.86,-262.02"/>
</g>
<!-- 6313462188662218923 -->
<g id="node40" class="node">
<title>6313462188662218923</title>
<g id="a_node40"><a xlink:href="care_home_tpp.svg" xlink:title="Variable(care_home_tpp)">
<path fill="lightgrey" stroke="black" d="M5857,-828C5857,-828 5726,-828 5726,-828 5720,-828 5714,-822 5714,-816 5714,-816 5714,-804 5714,-804 5714,-798 5720,-792 5726,-792 5726,-792 5857,-792 5857,-792 5863,-792 5869,-798 5869,-804 5869,-804 5869,-816 5869,-816 5869,-822 5863,-828 5857,-828"/>
<text text-anchor="middle" x="5791.5" y="-806.3" font-family="Times,serif" font-size="14.00">Variable(care_home_tpp)</text>
</a>
</g>
</g>
<!-- 6313462188662218923&#45;&gt;3509576877858601689 -->
<g id="edge56" class="edge">
<title>6313462188662218923&#45;&gt;3509576877858601689</title>
<path fill="none" stroke="lightgrey" d="M5791.5,-791.95C5791.5,-765.29 5791.5,-712.11 5791.5,-667 5791.5,-667 5791.5,-667 5791.5,-377 5791.5,-331.37 5760.18,-286.55 5737.23,-259.84"/>
<polygon fill="lightgrey" stroke="lightgrey" points="5739.67,-257.31 5730.42,-252.15 5734.43,-261.95 5739.67,-257.31"/>
</g>
<!-- 6935829087527829727 -->
<g id="node41" class="node">
<title>6935829087527829727</title>
<g id="a_node41"><a xlink:href="region.svg" xlink:title="Variable(region)">
<path fill="lightgrey" stroke="black" d="M5980,-828C5980,-828 5899,-828 5899,-828 5893,-828 5887,-822 5887,-816 5887,-816 5887,-804 5887,-804 5887,-798 5893,-792 5899,-792 5899,-792 5980,-792 5980,-792 5986,-792 5992,-798 5992,-804 5992,-804 5992,-816 5992,-816 5992,-822 5986,-828 5980,-828"/>
<text text-anchor="middle" x="5939.5" y="-806.3" font-family="Times,serif" font-size="14.00">Variable(region)</text>
</a>
</g>
</g>
<!-- 6935829087527829727&#45;&gt;3509576877858601689 -->
<g id="edge57" class="edge">
<title>6935829087527829727&#45;&gt;3509576877858601689</title>
<path fill="none" stroke="lightgrey" d="M5939.5,-791.95C5939.5,-765.29 5939.5,-712.11 5939.5,-667 5939.5,-667 5939.5,-667 5939.5,-377 5939.5,-289.21 5815.73,-253.59 5751.38,-241"/>
<polygon fill="lightgrey" stroke="lightgrey" points="5751.68,-237.5 5741.21,-239.11 5750.4,-244.38 5751.68,-237.5"/>
</g>
<!-- 8473153233318792656 -->
<g id="node42" class="node">
<title>8473153233318792656</title>
<g id="a_node42"><a xlink:href="endoflife.svg" xlink:title="Variable(endoflife)">
<path fill="lightgrey" stroke="black" d="M6117,-828C6117,-828 6022,-828 6022,-828 6016,-828 6010,-822 6010,-816 6010,-816 6010,-804 6010,-804 6010,-798 6016,-792 6022,-792 6022,-792 6117,-792 6117,-792 6123,-792 6129,-798 6129,-804 6129,-804 6129,-816 6129,-816 6129,-822 6123,-828 6117,-828"/>
<text text-anchor="middle" x="6069.5" y="-806.3" font-family="Times,serif" font-size="14.00">Variable(endoflife)</text>
</a>
</g>
</g>
<!-- 8473153233318792656&#45;&gt;3509576877858601689 -->
<g id="edge58" class="edge">
<title>8473153233318792656&#45;&gt;3509576877858601689</title>
<path fill="none" stroke="lightgrey" d="M6069.5,-791.95C6069.5,-765.29 6069.5,-712.11 6069.5,-667 6069.5,-667 6069.5,-667 6069.5,-377 6069.5,-309 5842.61,-259.07 5751.1,-241.7"/>
<polygon fill="lightgrey" stroke="lightgrey" points="5751.61,-238.24 5741.14,-239.84 5750.32,-245.12 5751.61,-238.24"/>
</g>
<!-- 2775500690548065988 -->
<g id="node43" class="node">
<title>2775500690548065988</title>
<g id="a_node43"><a xlink:href="imd_Q5.svg" xlink:title="Variable(imd_Q5)">
<path fill="lightgrey" stroke="black" d="M6251.5,-828C6251.5,-828 6159.5,-828 6159.5,-828 6153.5,-828 6147.5,-822 6147.5,-816 6147.5,-816 6147.5,-804 6147.5,-804 6147.5,-798 6153.5,-792 6159.5,-792 6159.5,-792 6251.5,-792 6251.5,-792 6257.5,-792 6263.5,-798 6263.5,-804 6263.5,-804 6263.5,-816 6263.5,-816 6263.5,-822 6257.5,-828 6251.5,-828"/>
<text text-anchor="middle" x="6205.5" y="-806.3" font-family="Times,serif" font-size="14.00">Variable(imd_Q5)</text>
</a>
</g>
</g>
<!-- 2775500690548065988&#45;&gt;3509576877858601689 -->
<g id="edge59" class="edge">
<title>2775500690548065988&#45;&gt;3509576877858601689</title>
<path fill="none" stroke="lightgrey" d="M6205.5,-791.95C6205.5,-765.29 6205.5,-712.11 6205.5,-667 6205.5,-667 6205.5,-667 6205.5,-377 6205.5,-282.49 5866.14,-247.02 5751.11,-237.71"/>
<polygon fill="lightgrey" stroke="lightgrey" points="5751.25,-234.21 5741.01,-236.91 5750.7,-241.19 5751.25,-234.21"/>
</g>
<!-- 7370086985228654517 -->
<g id="node44" class="node">
<title>7370086985228654517</title>
<g id="a_node44"><a xlink:href="covid_vax_pfizer_1_date.svg" xlink:title="Variable(covid_vax_pfizer_...)">
<path fill="lightgrey" stroke="black" d="M7791,-828C7791,-828 7632,-828 7632,-828 7626,-828 7620,-822 7620,-816 7620,-816 7620,-804 7620,-804 7620,-798 7626,-792 7632,-792 7632,-792 7791,-792 7791,-792 7797,-792 7803,-798 7803,-804 7803,-804 7803,-816 7803,-816 7803,-822 7797,-828 7791,-828"/>
<text text-anchor="middle" x="7711.5" y="-806.3" font-family="Times,serif" font-size="14.00">Variable(covid_vax_pfizer_...)</text>
</a>
</g>
</g>
<!-- 7370086985228654517&#45;&gt;3509576877858601689 -->
<g id="edge60" class="edge">
<title>7370086985228654517&#45;&gt;3509576877858601689</title>
<path fill="none" stroke="lightgrey" d="M7693.08,-791.64C7668.63,-766.62 7628.5,-717.83 7628.5,-667 7628.5,-667 7628.5,-667 7628.5,-377 7628.5,-166.15 7372.02,-311.7 7162.5,-288 6877.28,-255.74 5950.32,-238.9 5751.34,-235.6"/>
<polygon fill="lightgrey" stroke="lightgrey" points="5751.16,-232.1 5741.1,-235.44 5751.04,-239.1 5751.16,-232.1"/>
</g>
<!-- 7370086985228654517&#45;&gt;4225002590628906338 -->
<g id="edge61" class="edge">
<title>7370086985228654517&#45;&gt;4225002590628906338</title>
<path fill="none" stroke="lightgrey" d="M7741.34,-791.83C7777.46,-768.57 7833.5,-723.39 7833.5,-667 7833.5,-667 7833.5,-667 7833.5,-521 7833.5,-426.44 7939.2,-360.32 8004.4,-328.53"/>
<polygon fill="lightgrey" stroke="lightgrey" points="8006.19,-331.55 8013.71,-324.09 8003.18,-325.24 8006.19,-331.55"/>
</g>
<!-- 8208274307224574846 -->
<g id="node45" class="node">
<title>8208274307224574846</title>
<g id="a_node45"><a xlink:href="asthma.svg" xlink:title="Variable(asthma)">
<path fill="lightgrey" stroke="black" d="M6379.5,-828C6379.5,-828 6293.5,-828 6293.5,-828 6287.5,-828 6281.5,-822 6281.5,-816 6281.5,-816 6281.5,-804 6281.5,-804 6281.5,-798 6287.5,-792 6293.5,-792 6293.5,-792 6379.5,-792 6379.5,-792 6385.5,-792 6391.5,-798 6391.5,-804 6391.5,-804 6391.5,-816 6391.5,-816 6391.5,-822 6385.5,-828 6379.5,-828"/>
<text text-anchor="middle" x="6336.5" y="-806.3" font-family="Times,serif" font-size="14.00">Variable(asthma)</text>
</a>
</g>
</g>
<!-- 8208274307224574846&#45;&gt;3509576877858601689 -->
<g id="edge62" class="edge">
<title>8208274307224574846&#45;&gt;3509576877858601689</title>
<path fill="none" stroke="lightgrey" d="M6336.5,-791.95C6336.5,-765.29 6336.5,-712.11 6336.5,-667 6336.5,-667 6336.5,-667 6336.5,-377 6336.5,-256.3 5886.35,-238.2 5751.33,-235.48"/>
<polygon fill="lightgrey" stroke="lightgrey" points="5751.14,-231.98 5741.07,-235.29 5751.01,-238.97 5751.14,-231.98"/>
</g>
<!-- 2961624694875422536 -->
<g id="node46" class="node">
<title>2961624694875422536</title>
<g id="a_node46"><a xlink:href="covid_vax_pfizer_3_date.svg" xlink:title="Variable(covid_vax_pfizer_...)">
<path fill="lightgrey" stroke="black" d="M8193,-828C8193,-828 8034,-828 8034,-828 8028,-828 8022,-822 8022,-816 8022,-816 8022,-804 8022,-804 8022,-798 8028,-792 8034,-792 8034,-792 8193,-792 8193,-792 8199,-792 8205,-798 8205,-804 8205,-804 8205,-816 8205,-816 8205,-822 8199,-828 8193,-828"/>
<text text-anchor="middle" x="8113.5" y="-806.3" font-family="Times,serif" font-size="14.00">Variable(covid_vax_pfizer_...)</text>
</a>
</g>
</g>
<!-- 2961624694875422536&#45;&gt;3509576877858601689 -->
<g id="edge63" class="edge">
<title>2961624694875422536&#45;&gt;3509576877858601689</title>
<path fill="none" stroke="lightgrey" d="M8080.19,-791.87C8041.09,-769.09 7981.5,-724.89 7981.5,-667 7981.5,-667 7981.5,-667 7981.5,-593 7981.5,-481 7968.4,-435.31 7885.5,-360 7804.02,-285.98 7757.16,-305.66 7648.5,-288 7454.95,-256.53 6005.92,-238.39 5751.56,-235.43"/>
<polygon fill="lightgrey" stroke="lightgrey" points="5751.39,-231.93 5741.35,-235.31 5751.31,-238.93 5751.39,-231.93"/>
</g>
<!-- 2961624694875422536&#45;&gt;4225002590628906338 -->
<g id="edge64" class="edge">
<title>2961624694875422536&#45;&gt;4225002590628906338</title>
<path fill="none" stroke="lightgrey" d="M8107.02,-791.79C8097.67,-765.36 8081.5,-712.99 8081.5,-667 8081.5,-667 8081.5,-667 8081.5,-449 8081.5,-408.5 8070.77,-362.63 8062.84,-334.26"/>
<polygon fill="lightgrey" stroke="lightgrey" points="8066.1,-332.93 8059.96,-324.29 8059.37,-334.87 8066.1,-332.93"/>
</g>
<!-- 8916256095301715678 -->
<g id="node47" class="node">
<title>8916256095301715678</title>
<g id="a_node47"><a xlink:href="potentialcovidcritcare_3_ccdays.svg" xlink:title="Variable(potentialcovidcri...)">
<path fill="lightgrey" stroke="black" d="M6571,-828C6571,-828 6422,-828 6422,-828 6416,-828 6410,-822 6410,-816 6410,-816 6410,-804 6410,-804 6410,-798 6416,-792 6422,-792 6422,-792 6571,-792 6571,-792 6577,-792 6583,-798 6583,-804 6583,-804 6583,-816 6583,-816 6583,-822 6577,-828 6571,-828"/>
<text text-anchor="middle" x="6496.5" y="-806.3" font-family="Times,serif" font-size="14.00">Variable(potentialcovidcri...)</text>
</a>
</g>
</g>
<!-- 8916256095301715678&#45;&gt;3509576877858601689 -->
<g id="edge65" class="edge">
<title>8916256095301715678&#45;&gt;3509576877858601689</title>
<path fill="none" stroke="lightgrey" d="M6496.5,-791.95C6496.5,-765.29 6496.5,-712.11 6496.5,-667 6496.5,-667 6496.5,-667 6496.5,-377 6496.5,-269.05 6375.49,-313.14 6270.5,-288 6079.22,-242.2 5842.07,-235.69 5751.27,-234.98"/>
<polygon fill="lightgrey" stroke="lightgrey" points="5751.21,-231.48 5741.19,-234.92 5751.17,-238.48 5751.21,-231.48"/>
</g>
<!-- 5286539410835567020 -->
<g id="node48" class="node">
<title>5286539410835567020</title>
<g id="a_node48"><a xlink:href="covid_vax_disease_4_date.svg" xlink:title="Variable(covid_vax_disease...)">
<path fill="lightgrey" stroke="black" d="M6773.5,-828C6773.5,-828 6613.5,-828 6613.5,-828 6607.5,-828 6601.5,-822 6601.5,-816 6601.5,-816 6601.5,-804 6601.5,-804 6601.5,-798 6607.5,-792 6613.5,-792 6613.5,-792 6773.5,-792 6773.5,-792 6779.5,-792 6785.5,-798 6785.5,-804 6785.5,-804 6785.5,-816 6785.5,-816 6785.5,-822 6779.5,-828 6773.5,-828"/>
<text text-anchor="middle" x="6693.5" y="-806.3" font-family="Times,serif" font-size="14.00">Variable(covid_vax_disease...)</text>
</a>
</g>
</g>
<!-- 5286539410835567020&#45;&gt;3509576877858601689 -->
<g id="edge66" class="edge">
<title>5286539410835567020&#45;&gt;3509576877858601689</title>
<path fill="none" stroke="lightgrey" d="M6693.5,-791.95C6693.5,-765.29 6693.5,-712.11 6693.5,-667 6693.5,-667 6693.5,-667 6693.5,-377 6693.5,-279.97 5931.4,-243.65 5751.31,-236.42"/>
<polygon fill="lightgrey" stroke="lightgrey" points="5751.38,-232.92 5741.25,-236.02 5751.1,-239.91 5751.38,-232.92"/>
</g>
<!-- 4664077085798517115 -->
<g id="node49" class="node">
<title>4664077085798517115</title>
<g id="a_node49"><a xlink:href="immunosuppressed.svg" xlink:title="Variable(immunosuppressed)">
<path fill="lightgrey" stroke="black" d="M6967.5,-828C6967.5,-828 6815.5,-828 6815.5,-828 6809.5,-828 6803.5,-822 6803.5,-816 6803.5,-816 6803.5,-804 6803.5,-804 6803.5,-798 6809.5,-792 6815.5,-792 6815.5,-792 6967.5,-792 6967.5,-792 6973.5,-792 6979.5,-798 6979.5,-804 6979.5,-804 6979.5,-816 6979.5,-816 6979.5,-822 6973.5,-828 6967.5,-828"/>
<text text-anchor="middle" x="6891.5" y="-806.3" font-family="Times,serif" font-size="14.00">Variable(immunosuppressed)</text>
</a>
</g>
</g>
<!-- 4664077085798517115&#45;&gt;3509576877858601689 -->
<g id="edge67" class="edge">
<title>4664077085798517115&#45;&gt;3509576877858601689</title>
<path fill="none" stroke="lightgrey" d="M6891.5,-791.95C6891.5,-765.29 6891.5,-712.11 6891.5,-667 6891.5,-667 6891.5,-667 6891.5,-377 6891.5,-259.31 5952.7,-238.58 5751.27,-235.49"/>
<polygon fill="lightgrey" stroke="lightgrey" points="5751.22,-231.99 5741.17,-235.34 5751.12,-238.99 5751.22,-231.99"/>
</g>
<!-- 4643035591650878662 -->
<g id="node50" class="node">
<title>4643035591650878662</title>
<g id="a_node50"><a xlink:href="covidemergencyhosp_date.svg" xlink:title="Variable(covidemergencyhos...)">
<path fill="lightgrey" stroke="black" d="M7177,-828C7177,-828 7010,-828 7010,-828 7004,-828 6998,-822 6998,-816 6998,-816 6998,-804 6998,-804 6998,-798 7004,-792 7010,-792 7010,-792 7177,-792 7177,-792 7183,-792 7189,-798 7189,-804 7189,-804 7189,-816 7189,-816 7189,-822 7183,-828 7177,-828"/>
<text text-anchor="middle" x="7093.5" y="-806.3" font-family="Times,serif" font-size="14.00">Variable(covidemergencyhos...)</text>
</a>
</g>
</g>
<!-- 4643035591650878662&#45;&gt;3509576877858601689 -->
<g id="edge68" class="edge">
<title>4643035591650878662&#45;&gt;3509576877858601689</title>
<path fill="none" stroke="lightgrey" d="M7093.5,-791.95C7093.5,-765.29 7093.5,-712.11 7093.5,-667 7093.5,-667 7093.5,-667 7093.5,-377 7093.5,-238.08 5972.58,-234.22 5751.21,-234.82"/>
<polygon fill="lightgrey" stroke="lightgrey" points="5751.05,-231.32 5741.07,-234.85 5751.08,-238.32 5751.05,-231.32"/>
</g>
<!-- 7445428629722490386 -->
<g id="node51" class="node">
<title>7445428629722490386</title>
<g id="a_node51"><a xlink:href="covid_vax_az_2_date.svg" xlink:title="Variable(covid_vax_az_2_date)">
<path fill="lightgrey" stroke="black" d="M7589.5,-828C7589.5,-828 7425.5,-828 7425.5,-828 7419.5,-828 7413.5,-822 7413.5,-816 7413.5,-816 7413.5,-804 7413.5,-804 7413.5,-798 7419.5,-792 7425.5,-792 7425.5,-792 7589.5,-792 7589.5,-792 7595.5,-792 7601.5,-798 7601.5,-804 7601.5,-804 7601.5,-816 7601.5,-816 7601.5,-822 7595.5,-828 7589.5,-828"/>
<text text-anchor="middle" x="7507.5" y="-806.3" font-family="Times,serif" font-size="14.00">Variable(covid_vax_az_2_date)</text>
</a>
</g>
</g>
<!-- 7445428629722490386&#45;&gt;3509576877858601689 -->
<g id="edge69" class="edge">
<title>7445428629722490386&#45;&gt;3509576877858601689</title>
<path fill="none" stroke="lightgrey" d="M7452.3,-791.96C7373.84,-766.05 7239.5,-714.72 7239.5,-667 7239.5,-667 7239.5,-667 7239.5,-377 7239.5,-295.63 7157.85,-309.96 7079.5,-288 6948.59,-251.32 5957.63,-237.84 5751.13,-235.42"/>
<polygon fill="lightgrey" stroke="lightgrey" points="5751.12,-231.92 5741.08,-235.3 5751.04,-238.92 5751.12,-231.92"/>
</g>
<!-- 7445428629722490386&#45;&gt;4225002590628906338 -->
<g id="edge70" class="edge">
<title>7445428629722490386&#45;&gt;4225002590628906338</title>
<path fill="none" stroke="lightgrey" d="M7515.8,-791.97C7527.78,-765.77 7548.5,-713.7 7548.5,-667 7548.5,-667 7548.5,-667 7548.5,-449 7548.5,-365.66 7806.16,-328.95 7953.75,-314.76"/>
<polygon fill="lightgrey" stroke="lightgrey" points="7954.12,-318.24 7963.75,-313.82 7953.46,-311.28 7954.12,-318.24"/>
</g>
<!-- 5466229545929283277 -->
<g id="node52" class="node">
<title>5466229545929283277</title>
<g id="a_node52"><a xlink:href="covid_vax_pfizer_4_date.svg" xlink:title="Variable(covid_vax_pfizer_...)">
<path fill="lightgrey" stroke="black" d="M7992,-828C7992,-828 7833,-828 7833,-828 7827,-828 7821,-822 7821,-816 7821,-816 7821,-804 7821,-804 7821,-798 7827,-792 7833,-792 7833,-792 7992,-792 7992,-792 7998,-792 8004,-798 8004,-804 8004,-804 8004,-816 8004,-816 8004,-822 7998,-828 7992,-828"/>
<text text-anchor="middle" x="7912.5" y="-806.3" font-family="Times,serif" font-size="14.00">Variable(covid_vax_pfizer_...)</text>
</a>
</g>
</g>
<!-- 5466229545929283277&#45;&gt;3509576877858601689 -->
<g id="edge71" class="edge">
<title>5466229545929283277&#45;&gt;3509576877858601689</title>
<path fill="none" stroke="lightgrey" d="M7904.2,-791.97C7892.22,-765.77 7871.5,-713.7 7871.5,-667 7871.5,-667 7871.5,-667 7871.5,-377 7871.5,-166.58 7615.64,-311.14 7406.5,-288 7070.04,-250.77 5969.46,-237.64 5751.29,-235.37"/>
<polygon fill="lightgrey" stroke="lightgrey" points="5751.32,-231.87 5741.28,-235.27 5751.25,-238.87 5751.32,-231.87"/>
</g>
<!-- 5466229545929283277&#45;&gt;4225002590628906338 -->
<g id="edge72" class="edge">
<title>5466229545929283277&#45;&gt;4225002590628906338</title>
<path fill="none" stroke="lightgrey" d="M7918.77,-791.78C7927.83,-765.32 7943.5,-712.92 7943.5,-667 7943.5,-667 7943.5,-667 7943.5,-593 7943.5,-490.93 8005.71,-381.4 8036.98,-332.78"/>
<polygon fill="lightgrey" stroke="lightgrey" points="8040.08,-334.44 8042.62,-324.16 8034.22,-330.61 8040.08,-334.44"/>
</g>
<!-- 5396064260671611635 -->
<g id="node53" class="node">
<title>5396064260671611635</title>
<g id="a_node53"><a xlink:href="sev_obesity.svg" xlink:title="Variable(sev_obesity)">
<path fill="lightgrey" stroke="black" d="M9803.5,-828C9803.5,-828 9693.5,-828 9693.5,-828 9687.5,-828 9681.5,-822 9681.5,-816 9681.5,-816 9681.5,-804 9681.5,-804 9681.5,-798 9687.5,-792 9693.5,-792 9693.5,-792 9803.5,-792 9803.5,-792 9809.5,-792 9815.5,-798 9815.5,-804 9815.5,-804 9815.5,-816 9815.5,-816 9815.5,-822 9809.5,-828 9803.5,-828"/>
<text text-anchor="middle" x="9748.5" y="-806.3" font-family="Times,serif" font-size="14.00">Variable(sev_obesity)</text>
</a>
</g>
</g>
<!-- 5396064260671611635&#45;&gt;3509576877858601689 -->
<g id="edge73" class="edge">
<title>5396064260671611635&#45;&gt;3509576877858601689</title>
<path fill="none" stroke="lightgrey" d="M9748.5,-791.95C9748.5,-765.29 9748.5,-712.11 9748.5,-667 9748.5,-667 9748.5,-667 9748.5,-377 9748.5,-204.31 9148.82,-299.3 8976.5,-288 8305,-243.95 6070.06,-236.01 5751.43,-235.1"/>
<polygon fill="lightgrey" stroke="lightgrey" points="5751.33,-231.6 5741.32,-235.07 5751.31,-238.6 5751.33,-231.6"/>
</g>
<!-- 8148583382169038695 -->
<g id="node54" class="node">
<title>8148583382169038695</title>
<g id="a_node54"><a xlink:href="potentialcovidcritcare_1_date.svg" xlink:title="Variable(potentialcovidcri...)">
<path fill="lightgrey" stroke="black" d="M9995,-828C9995,-828 9846,-828 9846,-828 9840,-828 9834,-822 9834,-816 9834,-816 9834,-804 9834,-804 9834,-798 9840,-792 9846,-792 9846,-792 9995,-792 9995,-792 10001,-792 10007,-798 10007,-804 10007,-804 10007,-816 10007,-816 10007,-822 10001,-828 9995,-828"/>
<text text-anchor="middle" x="9920.5" y="-806.3" font-family="Times,serif" font-size="14.00">Variable(potentialcovidcri...)</text>
</a>
</g>
</g>
<!-- 8148583382169038695&#45;&gt;3509576877858601689 -->
<g id="edge74" class="edge">
<title>8148583382169038695&#45;&gt;3509576877858601689</title>
<path fill="none" stroke="lightgrey" d="M9920.5,-791.95C9920.5,-765.29 9920.5,-712.11 9920.5,-667 9920.5,-667 9920.5,-667 9920.5,-377 9920.5,-124.55 9611.02,-309.67 9359.5,-288 8981.54,-255.44 6114.85,-237.39 5751.36,-235.22"/>
<polygon fill="lightgrey" stroke="lightgrey" points="5751.13,-231.72 5741.11,-235.16 5751.08,-238.72 5751.13,-231.72"/>
</g>
<!-- 1286195963700239727 -->
<g id="node55" class="node">
<title>1286195963700239727</title>
<g id="a_node55"><a xlink:href="covid_vax_disease_3_date.svg" xlink:title="Variable(covid_vax_disease...)">
<path fill="lightgrey" stroke="black" d="M10197.5,-828C10197.5,-828 10037.5,-828 10037.5,-828 10031.5,-828 10025.5,-822 10025.5,-816 10025.5,-816 10025.5,-804 10025.5,-804 10025.5,-798 10031.5,-792 10037.5,-792 10037.5,-792 10197.5,-792 10197.5,-792 10203.5,-792 10209.5,-798 10209.5,-804 10209.5,-804 10209.5,-816 10209.5,-816 10209.5,-822 10203.5,-828 10197.5,-828"/>
<text text-anchor="middle" x="10117.5" y="-806.3" font-family="Times,serif" font-size="14.00">Variable(covid_vax_disease...)</text>
</a>
</g>
</g>
<!-- 1286195963700239727&#45;&gt;3509576877858601689 -->
<g id="edge75" class="edge">
<title>1286195963700239727&#45;&gt;3509576877858601689</title>
<path fill="none" stroke="lightgrey" d="M10117.5,-791.95C10117.5,-765.29 10117.5,-712.11 10117.5,-667 10117.5,-667 10117.5,-667 10117.5,-377 10117.5,-165.27 9860.16,-309.28 9649.5,-288 9241,-246.73 6130.99,-236.24 5751.42,-235.11"/>
<polygon fill="lightgrey" stroke="lightgrey" points="5751.24,-231.61 5741.23,-235.08 5751.22,-238.61 5751.24,-231.61"/>
</g>
<!-- 5930452930145504719 -->
<g id="node56" class="node">
<title>5930452930145504719</title>
<g id="a_node56"><a xlink:href="postest_date.svg" xlink:title="Variable(postest_date)">
<path fill="lightgrey" stroke="black" d="M10353,-828C10353,-828 10240,-828 10240,-828 10234,-828 10228,-822 10228,-816 10228,-816 10228,-804 10228,-804 10228,-798 10234,-792 10240,-792 10240,-792 10353,-792 10353,-792 10359,-792 10365,-798 10365,-804 10365,-804 10365,-816 10365,-816 10365,-822 10359,-828 10353,-828"/>
<text text-anchor="middle" x="10296.5" y="-806.3" font-family="Times,serif" font-size="14.00">Variable(postest_date)</text>
</a>
</g>
</g>
<!-- 5930452930145504719&#45;&gt;3509576877858601689 -->
<g id="edge76" class="edge">
<title>5930452930145504719&#45;&gt;3509576877858601689</title>
<path fill="none" stroke="lightgrey" d="M10296.5,-791.95C10296.5,-765.29 10296.5,-712.11 10296.5,-667 10296.5,-667 10296.5,-667 10296.5,-377 10296.5,-193.57 10075.71,-309.05 9893.5,-288 9459.47,-237.86 6143.39,-235.15 5751.33,-235.01"/>
<polygon fill="lightgrey" stroke="lightgrey" points="5751.09,-231.51 5741.09,-235 5751.09,-238.51 5751.09,-231.51"/>
</g>
<!-- 814491311429858980 -->
<g id="node57" class="node">
<title>814491311429858980</title>
<g id="a_node57"><a xlink:href="covid_vax_az_4_date.svg" xlink:title="Variable(covid_vax_az_4_date)">
<path fill="lightgrey" stroke="black" d="M8399.5,-828C8399.5,-828 8235.5,-828 8235.5,-828 8229.5,-828 8223.5,-822 8223.5,-816 8223.5,-816 8223.5,-804 8223.5,-804 8223.5,-798 8229.5,-792 8235.5,-792 8235.5,-792 8399.5,-792 8399.5,-792 8405.5,-792 8411.5,-798 8411.5,-804 8411.5,-804 8411.5,-816 8411.5,-816 8411.5,-822 8405.5,-828 8399.5,-828"/>
<text text-anchor="middle" x="8317.5" y="-806.3" font-family="Times,serif" font-size="14.00">Variable(covid_vax_az_4_date)</text>
</a>
</g>
</g>
<!-- 814491311429858980&#45;&gt;3509576877858601689 -->
<g id="edge77" class="edge">
<title>814491311429858980&#45;&gt;3509576877858601689</title>
<path fill="none" stroke="lightgrey" d="M8311.02,-791.79C8301.67,-765.36 8285.5,-712.99 8285.5,-667 8285.5,-667 8285.5,-667 8285.5,-521 8285.5,-401.98 8255.67,-349.04 8153.5,-288 8099.63,-255.82 6055.28,-237.81 5751.17,-235.3"/>
<polygon fill="lightgrey" stroke="lightgrey" points="5751.12,-231.8 5741.09,-235.22 5751.06,-238.8 5751.12,-231.8"/>
</g>
<!-- 814491311429858980&#45;&gt;4225002590628906338 -->
<g id="edge78" class="edge">
<title>814491311429858980&#45;&gt;4225002590628906338</title>
<path fill="none" stroke="lightgrey" d="M8270.66,-791.95C8221.88,-770.82 8152.5,-729.74 8152.5,-667 8152.5,-667 8152.5,-667 8152.5,-449 8152.5,-400.54 8113.36,-356.61 8084.55,-330.85"/>
<polygon fill="lightgrey" stroke="lightgrey" points="8086.59,-327.98 8076.74,-324.08 8082,-333.27 8086.59,-327.98"/>
</g>
<!-- 833848849304129238 -->
<g id="node58" class="node">
<title>833848849304129238</title>
<g id="a_node58"><a xlink:href="covidemergency_0_date.svg" xlink:title="Variable(covidemergency_0_...)">
<path fill="lightgrey" stroke="black" d="M10563.5,-828C10563.5,-828 10395.5,-828 10395.5,-828 10389.5,-828 10383.5,-822 10383.5,-816 10383.5,-816 10383.5,-804 10383.5,-804 10383.5,-798 10389.5,-792 10395.5,-792 10395.5,-792 10563.5,-792 10563.5,-792 10569.5,-792 10575.5,-798 10575.5,-804 10575.5,-804 10575.5,-816 10575.5,-816 10575.5,-822 10569.5,-828 10563.5,-828"/>
<text text-anchor="middle" x="10479.5" y="-806.3" font-family="Times,serif" font-size="14.00">Variable(covidemergency_0_...)</text>
</a>
</g>
</g>
<!-- 833848849304129238&#45;&gt;3509576877858601689 -->
<g id="edge79" class="edge">
<title>833848849304129238&#45;&gt;3509576877858601689</title>
<path fill="none" stroke="lightgrey" d="M10479.5,-791.95C10479.5,-765.29 10479.5,-712.11 10479.5,-667 10479.5,-667 10479.5,-667 10479.5,-377 10479.5,-205.27 10273.95,-308.94 10103.5,-288 9647.36,-231.96 6154.35,-234.47 5751.36,-234.95"/>
<polygon fill="lightgrey" stroke="lightgrey" points="5751.11,-231.45 5741.12,-234.96 5751.12,-238.45 5751.11,-231.45"/>
</g>
<!-- 8535355595810854744 -->
<g id="node59" class="node">
<title>8535355595810854744</title>
<g id="a_node59"><a xlink:href="chronic_liver_disease.svg" xlink:title="Variable(chronic_liver_dis...)">
<path fill="lightgrey" stroke="black" d="M10757.5,-828C10757.5,-828 10605.5,-828 10605.5,-828 10599.5,-828 10593.5,-822 10593.5,-816 10593.5,-816 10593.5,-804 10593.5,-804 10593.5,-798 10599.5,-792 10605.5,-792 10605.5,-792 10757.5,-792 10757.5,-792 10763.5,-792 10769.5,-798 10769.5,-804 10769.5,-804 10769.5,-816 10769.5,-816 10769.5,-822 10763.5,-828 10757.5,-828"/>
<text text-anchor="middle" x="10681.5" y="-806.3" font-family="Times,serif" font-size="14.00">Variable(chronic_liver_dis...)</text>
</a>
</g>
</g>
<!-- 8535355595810854744&#45;&gt;3509576877858601689 -->
<g id="edge80" class="edge">
<title>8535355595810854744&#45;&gt;3509576877858601689</title>
<path fill="none" stroke="lightgrey" d="M10681.5,-791.95C10681.5,-765.29 10681.5,-712.11 10681.5,-667 10681.5,-667 10681.5,-667 10681.5,-377 10681.5,-202.68 10472.57,-308.91 10299.5,-288 9822.28,-230.35 6164.72,-234.3 5751.46,-234.94"/>
<polygon fill="lightgrey" stroke="lightgrey" points="5751.23,-231.44 5741.24,-234.95 5751.24,-238.44 5751.23,-231.44"/>
</g>
<!-- 5458378205690292796 -->
<g id="node60" class="node">
<title>5458378205690292796</title>
<g id="a_node60"><a xlink:href="covid_vax_az_1_date.svg" xlink:title="Variable(covid_vax_az_1_date)">
<path fill="lightgrey" stroke="black" d="M8605.5,-828C8605.5,-828 8441.5,-828 8441.5,-828 8435.5,-828 8429.5,-822 8429.5,-816 8429.5,-816 8429.5,-804 8429.5,-804 8429.5,-798 8435.5,-792 8441.5,-792 8441.5,-792 8605.5,-792 8605.5,-792 8611.5,-792 8617.5,-798 8617.5,-804 8617.5,-804 8617.5,-816 8617.5,-816 8617.5,-822 8611.5,-828 8605.5,-828"/>
<text text-anchor="middle" x="8523.5" y="-806.3" font-family="Times,serif" font-size="14.00">Variable(covid_vax_az_1_date)</text>
</a>
</g>
</g>
<!-- 5458378205690292796&#45;&gt;3509576877858601689 -->
<g id="edge81" class="edge">
<title>5458378205690292796&#45;&gt;3509576877858601689</title>
<path fill="none" stroke="lightgrey" d="M8493.17,-791.96C8456.46,-768.82 8399.5,-723.79 8399.5,-667 8399.5,-667 8399.5,-667 8399.5,-377 8399.5,-277.27 8290.95,-309.24 8193.5,-288 7945.03,-233.85 6043.76,-234.5 5751.23,-234.93"/>
<polygon fill="lightgrey" stroke="lightgrey" points="5751.12,-231.43 5741.13,-234.95 5751.13,-238.43 5751.12,-231.43"/>
</g>
<!-- 5458378205690292796&#45;&gt;4225002590628906338 -->
<g id="edge82" class="edge">
<title>5458378205690292796&#45;&gt;4225002590628906338</title>
<path fill="none" stroke="lightgrey" d="M8457.74,-791.99C8399.44,-772.48 8323.5,-734.18 8323.5,-667 8323.5,-667 8323.5,-667 8323.5,-521 8323.5,-417.92 8201.04,-356.52 8121.37,-327.48"/>
<polygon fill="lightgrey" stroke="lightgrey" points="8122.47,-324.16 8111.88,-324.1 8120.12,-330.75 8122.47,-324.16"/>
</g>
<!-- 4443043171866605585 -->
<g id="node61" class="node">
<title>4443043171866605585</title>
<g id="a_node61"><a xlink:href="bmi.svg" xlink:title="Variable(bmi)">
<path fill="lightgrey" stroke="black" d="M10867.5,-828C10867.5,-828 10799.5,-828 10799.5,-828 10793.5,-828 10787.5,-822 10787.5,-816 10787.5,-816 10787.5,-804 10787.5,-804 10787.5,-798 10793.5,-792 10799.5,-792 10799.5,-792 10867.5,-792 10867.5,-792 10873.5,-792 10879.5,-798 10879.5,-804 10879.5,-804 10879.5,-816 10879.5,-816 10879.5,-822 10873.5,-828 10867.5,-828"/>
<text text-anchor="middle" x="10833.5" y="-806.3" font-family="Times,serif" font-size="14.00">Variable(bmi)</text>
</a>
</g>
</g>
<!-- 4443043171866605585&#45;&gt;3509576877858601689 -->
<g id="edge83" class="edge">
<title>4443043171866605585&#45;&gt;3509576877858601689</title>
<path fill="none" stroke="lightgrey" d="M10833.5,-791.95C10833.5,-765.29 10833.5,-712.11 10833.5,-667 10833.5,-667 10833.5,-667 10833.5,-377 10833.5,-222.95 10651.14,-308.79 10498.5,-288 10249.26,-254.05 6187.85,-236.9 5751.42,-235.15"/>
<polygon fill="lightgrey" stroke="lightgrey" points="5751.24,-231.65 5741.23,-235.11 5751.21,-238.65 5751.24,-231.65"/>
</g>
<!-- 341368748733155119 -->
<g id="node62" class="node">
<title>341368748733155119</title>
<g id="a_node62"><a xlink:href="admitted_unplanned_date.svg" xlink:title="Variable(admitted_unplanne...)">
<path fill="lightgrey" stroke="black" d="M11071.5,-828C11071.5,-828 10909.5,-828 10909.5,-828 10903.5,-828 10897.5,-822 10897.5,-816 10897.5,-816 10897.5,-804 10897.5,-804 10897.5,-798 10903.5,-792 10909.5,-792 10909.5,-792 11071.5,-792 11071.5,-792 11077.5,-792 11083.5,-798 11083.5,-804 11083.5,-804 11083.5,-816 11083.5,-816 11083.5,-822 11077.5,-828 11071.5,-828"/>
<text text-anchor="middle" x="10990.5" y="-806.3" font-family="Times,serif" font-size="14.00">Variable(admitted_unplanne...)</text>
</a>
</g>
</g>
<!-- 341368748733155119&#45;&gt;3509576877858601689 -->
<g id="edge84" class="edge">
<title>341368748733155119&#45;&gt;3509576877858601689</title>
<path fill="none" stroke="lightgrey" d="M10990.5,-791.95C10990.5,-765.29 10990.5,-712.11 10990.5,-667 10990.5,-667 10990.5,-667 10990.5,-377 10990.5,-230.24 10817.79,-308.74 10672.5,-288 10414.1,-251.11 6194.43,-236.55 5751.1,-235.12"/>
<polygon fill="lightgrey" stroke="lightgrey" points="5751.06,-231.62 5741.05,-235.09 5751.03,-238.62 5751.06,-231.62"/>
</g>
<!-- 2445506054941540525 -->
<g id="node63" class="node">
<title>2445506054941540525</title>
<g id="a_node63"><a xlink:href="covidadmitted_date.svg" xlink:title="Variable(covidadmitted_date)">
<path fill="lightgrey" stroke="black" d="M11267.5,-828C11267.5,-828 11113.5,-828 11113.5,-828 11107.5,-828 11101.5,-822 11101.5,-816 11101.5,-816 11101.5,-804 11101.5,-804 11101.5,-798 11107.5,-792 11113.5,-792 11113.5,-792 11267.5,-792 11267.5,-792 11273.5,-792 11279.5,-798 11279.5,-804 11279.5,-804 11279.5,-816 11279.5,-816 11279.5,-822 11273.5,-828 11267.5,-828"/>
<text text-anchor="middle" x="11190.5" y="-806.3" font-family="Times,serif" font-size="14.00">Variable(covidadmitted_date)</text>
</a>
</g>
</g>
<!-- 2445506054941540525&#45;&gt;3509576877858601689 -->
<g id="edge85" class="edge">
<title>2445506054941540525&#45;&gt;3509576877858601689</title>
<path fill="none" stroke="lightgrey" d="M11190.5,-791.95C11190.5,-765.29 11190.5,-712.11 11190.5,-667 11190.5,-667 11190.5,-667 11190.5,-377 11190.5,-215.63 10998.53,-308.76 10838.5,-288 10570.78,-253.27 6203.79,-236.75 5751.3,-235.13"/>
<polygon fill="lightgrey" stroke="lightgrey" points="5751.07,-231.63 5741.06,-235.1 5751.04,-238.63 5751.07,-231.63"/>
</g>
<!-- 7916876050339263411 -->
<g id="node64" class="node">
<title>7916876050339263411</title>
<g id="a_node64"><a xlink:href="primary_care_covid_case_0_date.svg" xlink:title="Variable(primary_care_covi...)">
<path fill="lightgrey" stroke="black" d="M11470,-828C11470,-828 11309,-828 11309,-828 11303,-828 11297,-822 11297,-816 11297,-816 11297,-804 11297,-804 11297,-798 11303,-792 11309,-792 11309,-792 11470,-792 11470,-792 11476,-792 11482,-798 11482,-804 11482,-804 11482,-816 11482,-816 11482,-822 11476,-828 11470,-828"/>
<text text-anchor="middle" x="11389.5" y="-806.3" font-family="Times,serif" font-size="14.00">Variable(primary_care_covi...)</text>
</a>
</g>
</g>
<!-- 7916876050339263411&#45;&gt;3509576877858601689 -->
<g id="edge86" class="edge">
<title>7916876050339263411&#45;&gt;3509576877858601689</title>
<path fill="none" stroke="lightgrey" d="M11389.5,-791.95C11389.5,-765.29 11389.5,-712.11 11389.5,-667 11389.5,-667 11389.5,-667 11389.5,-377 11389.5,-209.16 11189.05,-308.75 11022.5,-288 10744.71,-253.39 6212.21,-236.74 5751.25,-235.13"/>
<polygon fill="lightgrey" stroke="lightgrey" points="5751.13,-231.63 5741.12,-235.09 5751.11,-238.63 5751.13,-231.63"/>
</g>
<!-- 6581931883114407591 -->
<g id="node65" class="node">
<title>6581931883114407591</title>
<g id="a_node65"><a xlink:href="covid_vax_pfizer_2_date.svg" xlink:title="Variable(covid_vax_pfizer_...)">
<path fill="lightgrey" stroke="black" d="M8807,-828C8807,-828 8648,-828 8648,-828 8642,-828 8636,-822 8636,-816 8636,-816 8636,-804 8636,-804 8636,-798 8642,-792 8648,-792 8648,-792 8807,-792 8807,-792 8813,-792 8819,-798 8819,-804 8819,-804 8819,-816 8819,-816 8819,-822 8813,-828 8807,-828"/>
<text text-anchor="middle" x="8727.5" y="-806.3" font-family="Times,serif" font-size="14.00">Variable(covid_vax_pfizer_...)</text>
</a>
</g>
</g>
<!-- 6581931883114407591&#45;&gt;3509576877858601689 -->
<g id="edge87" class="edge">
<title>6581931883114407591&#45;&gt;3509576877858601689</title>
<path fill="none" stroke="lightgrey" d="M8690.56,-791.95C8648.49,-769.69 8585.5,-726.44 8585.5,-667 8585.5,-667 8585.5,-667 8585.5,-377 8585.5,-244.72 8432.04,-309.35 8301.5,-288 8039.19,-245.11 6051.52,-236.23 5751.4,-235.13"/>
<polygon fill="lightgrey" stroke="lightgrey" points="5751.07,-231.63 5741.06,-235.09 5751.05,-238.63 5751.07,-231.63"/>
</g>
<!-- 6581931883114407591&#45;&gt;4225002590628906338 -->
<g id="edge88" class="edge">
<title>6581931883114407591&#45;&gt;4225002590628906338</title>
<path fill="none" stroke="lightgrey" d="M8664.93,-791.91C8579.68,-766.74 8437.5,-717.24 8437.5,-667 8437.5,-667 8437.5,-667 8437.5,-593 8437.5,-457.1 8357.74,-426.98 8239.5,-360 8213.76,-345.42 8183.69,-334.58 8155.36,-326.64"/>
<polygon fill="lightgrey" stroke="lightgrey" points="8155.99,-323.19 8145.43,-323.96 8154.16,-329.95 8155.99,-323.19"/>
</g>
<!-- 7050449076563289034 -->
<g id="node66" class="node">
<title>7050449076563289034</title>
<g id="a_node66"><a xlink:href="cancer.svg" xlink:title="Variable(cancer)">
<path fill="lightgrey" stroke="black" d="M11593.5,-828C11593.5,-828 11511.5,-828 11511.5,-828 11505.5,-828 11499.5,-822 11499.5,-816 11499.5,-816 11499.5,-804 11499.5,-804 11499.5,-798 11505.5,-792 11511.5,-792 11511.5,-792 11593.5,-792 11593.5,-792 11599.5,-792 11605.5,-798 11605.5,-804 11605.5,-804 11605.5,-816 11605.5,-816 11605.5,-822 11599.5,-828 11593.5,-828"/>
<text text-anchor="middle" x="11552.5" y="-806.3" font-family="Times,serif" font-size="14.00">Variable(cancer)</text>
</a>
</g>
</g>
<!-- 7050449076563289034&#45;&gt;3509576877858601689 -->
<g id="edge89" class="edge">
<title>7050449076563289034&#45;&gt;3509576877858601689</title>
<path fill="none" stroke="lightgrey" d="M11552.5,-791.95C11552.5,-765.29 11552.5,-712.11 11552.5,-667 11552.5,-667 11552.5,-667 11552.5,-377 11552.5,-221.23 11367.89,-308.69 11213.5,-288 10925.84,-249.46 6222.99,-236.32 5751.52,-235.1"/>
<polygon fill="lightgrey" stroke="lightgrey" points="5751.18,-231.6 5741.17,-235.07 5751.16,-238.6 5751.18,-231.6"/>
</g>
<!-- 4956502834918862191 -->
<g id="node67" class="node">
<title>4956502834918862191</title>
<g id="a_node67"><a xlink:href="sev_mental.svg" xlink:title="Variable(sev_mental)">
<path fill="lightgrey" stroke="black" d="M11745,-828C11745,-828 11636,-828 11636,-828 11630,-828 11624,-822 11624,-816 11624,-816 11624,-804 11624,-804 11624,-798 11630,-792 11636,-792 11636,-792 11745,-792 11745,-792 11751,-792 11757,-798 11757,-804 11757,-804 11757,-816 11757,-816 11757,-822 11751,-828 11745,-828"/>
<text text-anchor="middle" x="11690.5" y="-806.3" font-family="Times,serif" font-size="14.00">Variable(sev_mental)</text>
</a>
</g>
</g>
<!-- 4956502834918862191&#45;&gt;3509576877858601689 -->
<g id="edge90" class="edge">
<title>4956502834918862191&#45;&gt;3509576877858601689</title>
<path fill="none" stroke="lightgrey" d="M11690.5,-791.95C11690.5,-765.29 11690.5,-712.11 11690.5,-667 11690.5,-667 11690.5,-667 11690.5,-377 11690.5,-237.5 11527.47,-308.63 11389.5,-288 11092.98,-243.67 6229.54,-235.72 5751.28,-235.05"/>
<polygon fill="lightgrey" stroke="lightgrey" points="5751.11,-231.55 5741.11,-235.04 5751.1,-238.55 5751.11,-231.55"/>
</g>
<!-- 8860865523904995829 -->
<g id="node68" class="node">
<title>8860865523904995829</title>
<g id="a_node68"><a xlink:href="covid_vax_moderna_2_date.svg" xlink:title="Variable(covid_vax_moderna...)">
<path fill="lightgrey" stroke="black" d="M9018,-828C9018,-828 8849,-828 8849,-828 8843,-828 8837,-822 8837,-816 8837,-816 8837,-804 8837,-804 8837,-798 8843,-792 8849,-792 8849,-792 9018,-792 9018,-792 9024,-792 9030,-798 9030,-804 9030,-804 9030,-816 9030,-816 9030,-822 9024,-828 9018,-828"/>
<text text-anchor="middle" x="8933.5" y="-806.3" font-family="Times,serif" font-size="14.00">Variable(covid_vax_moderna...)</text>
</a>
</g>
</g>
<!-- 8860865523904995829&#45;&gt;8601472199031240955 -->
<g id="edge91" class="edge">
<title>8860865523904995829&#45;&gt;8601472199031240955</title>
<path fill="none" stroke="lightgrey" d="M9006.99,-791.97C9054.42,-780.97 9115.86,-766.73 9163.08,-755.79"/>
<polygon fill="lightgrey" stroke="lightgrey" points="9163.98,-759.17 9172.93,-753.5 9162.4,-752.35 9163.98,-759.17"/>
</g>
<!-- 8176648627379417248 -->
<g id="node80" class="node">
<title>8176648627379417248</title>
<path fill="none" stroke="black" d="M9248,-540C9248,-540 9147,-540 9147,-540 9141,-540 9135,-534 9135,-528 9135,-528 9135,-516 9135,-516 9135,-510 9141,-504 9147,-504 9147,-504 9248,-504 9248,-504 9254,-504 9260,-510 9260,-516 9260,-516 9260,-528 9260,-528 9260,-534 9254,-540 9248,-540"/>
<text text-anchor="middle" x="9197.5" y="-518.3" font-family="Times,serif" font-size="14.00">SelectColumn(date)</text>
</g>
<!-- 8860865523904995829&#45;&gt;8176648627379417248 -->
<g id="edge92" class="edge">
<title>8860865523904995829&#45;&gt;8176648627379417248</title>
<path fill="none" stroke="lightgrey" d="M9005.96,-792C9062.54,-774.71 9138.12,-742 9178.5,-684 9206.22,-644.19 9205.23,-585.01 9201.62,-550.59"/>
<polygon fill="lightgrey" stroke="lightgrey" points="9205.06,-549.85 9200.39,-540.34 9198.11,-550.68 9205.06,-549.85"/>
</g>
<!-- 4990809762387706412 -->
<g id="node82" class="node">
<title>4990809762387706412</title>
<path fill="none" stroke="black" d="M9094,-468C9094,-468 9063,-468 9063,-468 9057,-468 9051,-462 9051,-456 9051,-456 9051,-444 9051,-444 9051,-438 9057,-432 9063,-432 9063,-432 9094,-432 9094,-432 9100,-432 9106,-438 9106,-444 9106,-444 9106,-456 9106,-456 9106,-462 9100,-468 9094,-468"/>
<text text-anchor="middle" x="9078.5" y="-446.3" font-family="Times,serif" font-size="14.00">Filter()</text>
</g>
<!-- 8860865523904995829&#45;&gt;4990809762387706412 -->
<g id="edge93" class="edge">
<title>8860865523904995829&#45;&gt;4990809762387706412</title>
<path fill="none" stroke="lightgrey" d="M8927.43,-791.76C8918.66,-765.28 8903.5,-712.86 8903.5,-667 8903.5,-667 8903.5,-667 8903.5,-593 8903.5,-522.61 8989.93,-481.03 9041.31,-462.52"/>
<polygon fill="lightgrey" stroke="lightgrey" points="9042.48,-465.82 9050.77,-459.23 9040.18,-459.21 9042.48,-465.82"/>
</g>
<!-- 7179311433147611179 -->
<g id="node69" class="node">
<title>7179311433147611179</title>
<g id="a_node69"><a xlink:href="covid_vax_moderna_4_date.svg" xlink:title="Variable(covid_vax_moderna...)">
<path fill="lightgrey" stroke="black" d="M9440,-828C9440,-828 9271,-828 9271,-828 9265,-828 9259,-822 9259,-816 9259,-816 9259,-804 9259,-804 9259,-798 9265,-792 9271,-792 9271,-792 9440,-792 9440,-792 9446,-792 9452,-798 9452,-804 9452,-804 9452,-816 9452,-816 9452,-822 9446,-828 9440,-828"/>
<text text-anchor="middle" x="9355.5" y="-806.3" font-family="Times,serif" font-size="14.00">Variable(covid_vax_moderna...)</text>
</a>
</g>
</g>
<!-- 7179311433147611179&#45;&gt;8601472199031240955 -->
<g id="edge94" class="edge">
<title>7179311433147611179&#45;&gt;8601472199031240955</title>
<path fill="none" stroke="lightgrey" d="M9326.14,-791.88C9310.45,-782.72 9290.94,-771.34 9274.05,-761.48"/>
<polygon fill="lightgrey" stroke="lightgrey" points="9275.37,-758.21 9264.97,-756.19 9271.84,-764.25 9275.37,-758.21"/>
</g>
<!-- 7179311433147611179&#45;&gt;8176648627379417248 -->
<g id="edge95" class="edge">
<title>7179311433147611179&#45;&gt;8176648627379417248</title>
<path fill="none" stroke="lightgrey" d="M9346.37,-791.9C9336.77,-773.95 9321.18,-744.93 9307.5,-720 9273.71,-658.43 9233.29,-586.46 9212.1,-548.87"/>
<polygon fill="lightgrey" stroke="lightgrey" points="9215.11,-547.07 9207.15,-540.08 9209.01,-550.51 9215.11,-547.07"/>
</g>
<!-- 7179311433147611179&#45;&gt;4990809762387706412 -->
<g id="edge96" class="edge">
<title>7179311433147611179&#45;&gt;4990809762387706412</title>
<path fill="none" stroke="lightgrey" d="M9356.08,-792C9356.87,-740.72 9351.97,-586.09 9269.5,-504 9228.49,-463.18 9158.96,-453.12 9116.06,-451.02"/>
<polygon fill="lightgrey" stroke="lightgrey" points="9116.15,-447.52 9106.02,-450.65 9115.89,-454.51 9116.15,-447.52"/>
</g>
<!-- 7471826420882206235 -->
<g id="node70" class="node">
<title>7471826420882206235</title>
<g id="a_node70"><a xlink:href="covid_vax_moderna_3_date.svg" xlink:title="Variable(covid_vax_moderna...)">
<path fill="lightgrey" stroke="black" d="M9651,-828C9651,-828 9482,-828 9482,-828 9476,-828 9470,-822 9470,-816 9470,-816 9470,-804 9470,-804 9470,-798 9476,-792 9482,-792 9482,-792 9651,-792 9651,-792 9657,-792 9663,-798 9663,-804 9663,-804 9663,-816 9663,-816 9663,-822 9657,-828 9651,-828"/>
<text text-anchor="middle" x="9566.5" y="-806.3" font-family="Times,serif" font-size="14.00">Variable(covid_vax_moderna...)</text>
</a>
</g>
</g>
<!-- 7471826420882206235&#45;&gt;8601472199031240955 -->
<g id="edge97" class="edge">
<title>7471826420882206235&#45;&gt;8601472199031240955</title>
<path fill="none" stroke="lightgrey" d="M9485.95,-791.97C9431.66,-780.48 9360.63,-765.46 9308.09,-754.35"/>
<polygon fill="lightgrey" stroke="lightgrey" points="9308.68,-750.9 9298.17,-752.25 9307.23,-757.75 9308.68,-750.9"/>
</g>
<!-- 7471826420882206235&#45;&gt;8176648627379417248 -->
<g id="edge98" class="edge">
<title>7471826420882206235&#45;&gt;8176648627379417248</title>
<path fill="none" stroke="lightgrey" d="M9544.52,-791.97C9481.61,-743.2 9300.66,-602.96 9228.12,-546.73"/>
<polygon fill="lightgrey" stroke="lightgrey" points="9229.88,-543.67 9219.83,-540.31 9225.59,-549.2 9229.88,-543.67"/>
</g>
<!-- 7471826420882206235&#45;&gt;4990809762387706412 -->
<g id="edge99" class="edge">
<title>7471826420882206235&#45;&gt;4990809762387706412</title>
<path fill="none" stroke="lightgrey" d="M9555.31,-791.87C9539.49,-765.96 9512.5,-714.74 9512.5,-667 9512.5,-667 9512.5,-667 9512.5,-593 9512.5,-510.03 9222.37,-467.81 9116.54,-455.17"/>
<polygon fill="lightgrey" stroke="lightgrey" points="9116.65,-451.66 9106.31,-453.97 9115.83,-458.61 9116.65,-451.66"/>
</g>
<!-- 3556050648650672860 -->
<g id="node75" class="node">
<title>3556050648650672860</title>
<path fill="none" stroke="black" d="M5684.5,-180C5684.5,-180 5654.5,-180 5654.5,-180 5648.5,-180 5642.5,-174 5642.5,-168 5642.5,-168 5642.5,-156 5642.5,-156 5642.5,-150 5648.5,-144 5654.5,-144 5654.5,-144 5684.5,-144 5684.5,-144 5690.5,-144 5696.5,-150 5696.5,-156 5696.5,-156 5696.5,-168 5696.5,-168 5696.5,-174 5690.5,-180 5684.5,-180"/>
<text text-anchor="middle" x="5669.5" y="-158.3" font-family="Times,serif" font-size="14.00">GT()</text>
</g>
<!-- 3509576877858601689&#45;&gt;3556050648650672860 -->
<g id="edge2" class="edge">
<title>3509576877858601689&#45;&gt;3556050648650672860</title>
<path fill="none" stroke="black" d="M5702.62,-215.7C5697.51,-207.56 5691.3,-197.69 5685.66,-188.7"/>
<polygon fill="black" stroke="black" points="5688.54,-186.71 5680.25,-180.1 5682.61,-190.43 5688.54,-186.71"/>
</g>
<!-- 1436061678083452305 -->
<g id="node83" class="node">
<title>1436061678083452305</title>
<path fill="lightgrey" stroke="black" d="M5710,-36C5710,-36 5577,-36 5577,-36 5571,-36 5565,-30 5565,-24 5565,-24 5565,-12 5565,-12 5565,-6 5571,0 5577,0 5577,0 5710,0 5710,0 5716,0 5722,-6 5722,-12 5722,-12 5722,-24 5722,-24 5722,-30 5716,-36 5710,-36"/>
<text text-anchor="middle" x="5643.5" y="-14.3" font-family="Times,serif" font-size="14.00">SelectTable(vaccinations)</text>
</g>
<!-- 3509576877858601689&#45;&gt;1436061678083452305 -->
<g id="edge1" class="edge">
<title>3509576877858601689&#45;&gt;1436061678083452305</title>
<path fill="none" stroke="black" d="M5722.86,-215.66C5738.24,-184.59 5764.58,-118.36 5737.5,-72 5729.75,-58.73 5717.31,-48.52 5703.99,-40.78"/>
<polygon fill="black" stroke="black" points="5705.62,-37.68 5695.15,-36.04 5702.31,-43.85 5705.62,-37.68"/>
</g>
<!-- 3038058599861690241 -->
<g id="node76" class="node">
<title>3038058599861690241</title>
<path fill="none" stroke="black" d="M9157.5,-684C9157.5,-684 8943.5,-684 8943.5,-684 8937.5,-684 8931.5,-678 8931.5,-672 8931.5,-672 8931.5,-660 8931.5,-660 8931.5,-654 8937.5,-648 8943.5,-648 8943.5,-648 9157.5,-648 9157.5,-648 9163.5,-648 9169.5,-654 9169.5,-660 9169.5,-660 9169.5,-672 9169.5,-672 9169.5,-678 9163.5,-684 9157.5,-684"/>
<text text-anchor="middle" x="9050.5" y="-662.3" font-family="Times,serif" font-size="14.00">PickOneRowPerPatient(Position.FIRST)</text>
</g>
<!-- 8601472199031240955&#45;&gt;3038058599861690241 -->
<g id="edge3" class="edge">
<title>8601472199031240955&#45;&gt;3038058599861690241</title>
<path fill="none" stroke="black" d="M9190.24,-719.88C9164.5,-710.14 9132.09,-697.87 9104.96,-687.61"/>
<polygon fill="black" stroke="black" points="9106.2,-684.33 9095.61,-684.07 9103.72,-690.88 9106.2,-684.33"/>
</g>
<!-- 8807977144297534015 -->
<g id="node73" class="node">
<title>8807977144297534015</title>
<path fill="none" stroke="black" d="M5717,-108C5717,-108 5622,-108 5622,-108 5616,-108 5610,-102 5610,-96 5610,-96 5610,-84 5610,-84 5610,-78 5616,-72 5622,-72 5622,-72 5717,-72 5717,-72 5723,-72 5729,-78 5729,-84 5729,-84 5729,-96 5729,-96 5729,-102 5723,-108 5717,-108"/>
<text text-anchor="middle" x="5669.5" y="-86.3" font-family="Times,serif" font-size="14.00">Value(1900&#45;01&#45;01)</text>
</g>
<!-- 3900601666789524369 -->
<g id="node74" class="node">
<title>3900601666789524369</title>
<path fill="none" stroke="black" d="M9093.5,-612C9093.5,-612 9063.5,-612 9063.5,-612 9057.5,-612 9051.5,-606 9051.5,-600 9051.5,-600 9051.5,-588 9051.5,-588 9051.5,-582 9057.5,-576 9063.5,-576 9063.5,-576 9093.5,-576 9093.5,-576 9099.5,-576 9105.5,-582 9105.5,-588 9105.5,-588 9105.5,-600 9105.5,-600 9105.5,-606 9099.5,-612 9093.5,-612"/>
<text text-anchor="middle" x="9078.5" y="-590.3" font-family="Times,serif" font-size="14.00">Sort()</text>
</g>
<!-- 3900601666789524369&#45;&gt;8176648627379417248 -->
<g id="edge5" class="edge">
<title>3900601666789524369&#45;&gt;8176648627379417248</title>
<path fill="none" stroke="black" d="M9105.5,-577.12C9121.5,-567.7 9142.03,-555.63 9159.63,-545.28"/>
<polygon fill="black" stroke="black" points="9161.68,-548.13 9168.52,-540.04 9158.13,-542.1 9161.68,-548.13"/>
</g>
<!-- 3900601666789524369&#45;&gt;4990809762387706412 -->
<g id="edge4" class="edge">
<title>3900601666789524369&#45;&gt;4990809762387706412</title>
<path fill="none" stroke="black" d="M9078.5,-575.87C9078.5,-551.67 9078.5,-507.21 9078.5,-478.39"/>
<polygon fill="black" stroke="black" points="9082,-478.19 9078.5,-468.19 9075,-478.19 9082,-478.19"/>
</g>
<!-- 3556050648650672860&#45;&gt;8807977144297534015 -->
<g id="edge7" class="edge">
<title>3556050648650672860&#45;&gt;8807977144297534015</title>
<path fill="none" stroke="black" d="M5669.5,-143.7C5669.5,-135.98 5669.5,-126.71 5669.5,-118.11"/>
<polygon fill="black" stroke="black" points="5673,-118.1 5669.5,-108.1 5666,-118.1 5673,-118.1"/>
</g>
<!-- 7920881043569519933 -->
<g id="node78" class="node">
<title>7920881043569519933</title>
<path fill="none" stroke="black" d="M5580,-108C5580,-108 5479,-108 5479,-108 5473,-108 5467,-102 5467,-96 5467,-96 5467,-84 5467,-84 5467,-78 5473,-72 5479,-72 5479,-72 5580,-72 5580,-72 5586,-72 5592,-78 5592,-84 5592,-84 5592,-96 5592,-96 5592,-102 5586,-108 5580,-108"/>
<text text-anchor="middle" x="5529.5" y="-86.3" font-family="Times,serif" font-size="14.00">SelectColumn(date)</text>
</g>
<!-- 3556050648650672860&#45;&gt;7920881043569519933 -->
<g id="edge6" class="edge">
<title>3556050648650672860&#45;&gt;7920881043569519933</title>
<path fill="none" stroke="black" d="M5642.17,-147.34C5622.45,-137.48 5595.42,-123.96 5572.78,-112.64"/>
<polygon fill="black" stroke="black" points="5574.21,-109.44 5563.7,-108.1 5571.08,-115.7 5574.21,-109.44"/>
</g>
<!-- 3038058599861690241&#45;&gt;3900601666789524369 -->
<g id="edge8" class="edge">
<title>3038058599861690241&#45;&gt;3900601666789524369</title>
<path fill="none" stroke="black" d="M9057.42,-647.7C9060.57,-639.81 9064.38,-630.3 9067.88,-621.55"/>
<polygon fill="black" stroke="black" points="9071.19,-622.69 9071.66,-612.1 9064.69,-620.09 9071.19,-622.69"/>
</g>
<!-- 4225002590628906338&#45;&gt;3509576877858601689 -->
<g id="edge9" class="edge">
<title>4225002590628906338&#45;&gt;3509576877858601689</title>
<path fill="none" stroke="black" d="M7963.72,-291.96C7950.26,-290.4 7936.53,-289 7923.5,-288 7476.7,-253.75 6006.11,-237.88 5751.29,-235.36"/>
<polygon fill="black" stroke="black" points="5751.11,-231.86 5741.07,-235.26 5751.04,-238.86 5751.11,-231.86"/>
</g>
<!-- 7920881043569519933&#45;&gt;1436061678083452305 -->
<g id="edge11" class="edge">
<title>7920881043569519933&#45;&gt;1436061678083452305</title>
<path fill="none" stroke="black" d="M5557.39,-71.88C5572.29,-62.72 5590.83,-51.34 5606.88,-41.48"/>
<polygon fill="black" stroke="black" points="5608.81,-44.41 5615.51,-36.19 5605.15,-38.44 5608.81,-44.41"/>
</g>
<!-- 6557673284989556370 -->
<g id="node79" class="node">
<title>6557673284989556370</title>
<path fill="none" stroke="black" d="M8845.5,-396C8845.5,-396 8815.5,-396 8815.5,-396 8809.5,-396 8803.5,-390 8803.5,-384 8803.5,-384 8803.5,-372 8803.5,-372 8803.5,-366 8809.5,-360 8815.5,-360 8815.5,-360 8845.5,-360 8845.5,-360 8851.5,-360 8857.5,-366 8857.5,-372 8857.5,-372 8857.5,-384 8857.5,-384 8857.5,-390 8851.5,-396 8845.5,-396"/>
<text text-anchor="middle" x="8830.5" y="-374.3" font-family="Times,serif" font-size="14.00">EQ()</text>
</g>
<!-- 6557673284989556370&#45;&gt;4225002590628906338 -->
<g id="edge12" class="edge">
<title>6557673284989556370&#45;&gt;4225002590628906338</title>
<path fill="none" stroke="black" d="M8803.34,-374.55C8700.92,-365.31 8334.87,-332.29 8155.3,-316.09"/>
<polygon fill="black" stroke="black" points="8155.59,-312.61 8145.32,-315.19 8154.97,-319.58 8155.59,-312.61"/>
</g>
<!-- 7144870350080369008 -->
<g id="node81" class="node">
<title>7144870350080369008</title>
<path fill="none" stroke="black" d="M8916,-324C8916,-324 8745,-324 8745,-324 8739,-324 8733,-318 8733,-312 8733,-312 8733,-300 8733,-300 8733,-294 8739,-288 8745,-288 8745,-288 8916,-288 8916,-288 8922,-288 8928,-294 8928,-300 8928,-300 8928,-312 8928,-312 8928,-318 8922,-324 8916,-324"/>
<text text-anchor="middle" x="8830.5" y="-302.3" font-family="Times,serif" font-size="14.00">Value(COVID&#45;19 mRNA Vac...)</text>
</g>
<!-- 6557673284989556370&#45;&gt;7144870350080369008 -->
<g id="edge13" class="edge">
<title>6557673284989556370&#45;&gt;7144870350080369008</title>
<path fill="none" stroke="black" d="M8830.5,-359.7C8830.5,-351.98 8830.5,-342.71 8830.5,-334.11"/>
<polygon fill="black" stroke="black" points="8834,-334.1 8830.5,-324.1 8827,-334.1 8834,-334.1"/>
</g>
<!-- 8176648627379417248&#45;&gt;4990809762387706412 -->
<g id="edge14" class="edge">
<title>8176648627379417248&#45;&gt;4990809762387706412</title>
<path fill="none" stroke="black" d="M9168.39,-503.88C9152.22,-494.36 9131.95,-482.44 9114.76,-472.33"/>
<polygon fill="black" stroke="black" points="9116.48,-469.28 9106.08,-467.23 9112.93,-475.31 9116.48,-469.28"/>
</g>
<!-- 4990809762387706412&#45;&gt;3509576877858601689 -->
<g id="edge15" class="edge">
<title>4990809762387706412&#45;&gt;3509576877858601689</title>
<path fill="none" stroke="black" d="M9069.83,-431.92C9051.08,-397.12 9003,-318.68 8936.5,-288 8860.45,-252.92 6106.83,-237.09 5751.2,-235.2"/>
<polygon fill="black" stroke="black" points="5751.17,-231.7 5741.15,-235.14 5751.13,-238.7 5751.17,-231.7"/>
</g>
<!-- 4990809762387706412&#45;&gt;6557673284989556370 -->
<g id="edge16" class="edge">
<title>4990809762387706412&#45;&gt;6557673284989556370</title>
<path fill="none" stroke="black" d="M9050.53,-441.11C9005.62,-428.43 8917.39,-403.52 8867.38,-389.41"/>
<polygon fill="black" stroke="black" points="8868.18,-386 8857.61,-386.65 8866.28,-392.74 8868.18,-386"/>
</g>
</g>
</svg>
