<?xml version="1.0" encoding="UTF-8" standalone="no"?>
<!DOCTYPE svg PUBLIC "-//W3C//DTD SVG 1.1//EN"
 "http://www.w3.org/Graphics/SVG/1.1/DTD/svg11.dtd">
<!-- Generated by graphviz version 2.43.0 (0)
 -->
<!-- Title: %3 Pages: 1 -->
<svg width="12300pt" height="836pt"
 viewBox="0.00 0.00 12300.00 836.00" xmlns="http://www.w3.org/2000/svg" xmlns:xlink="http://www.w3.org/1999/xlink">
<g id="graph0" class="graph" transform="scale(1 1) rotate(0) translate(4 832)">
<title>%3</title>
<polygon fill="white" stroke="transparent" points="-4,4 -4,-832 12296,-832 12296,4 -4,4"/>
<!-- 5458378205690292796 -->
<g id="node1" class="node">
<title>5458378205690292796</title>
<g id="a_node1"><a xlink:href="covid_vax_az_1_date.svg" xlink:title="Variable(covid_vax_az_1_date)">
<path fill="lightgrey" stroke="black" d="M10353,-828C10353,-828 10189,-828 10189,-828 10183,-828 10177,-822 10177,-816 10177,-816 10177,-804 10177,-804 10177,-798 10183,-792 10189,-792 10189,-792 10353,-792 10353,-792 10359,-792 10365,-798 10365,-804 10365,-804 10365,-816 10365,-816 10365,-822 10359,-828 10353,-828"/>
<text text-anchor="middle" x="10271" y="-806.3" font-family="Times,serif" font-size="14.00">Variable(covid_vax_az_1_date)</text>
</a>
</g>
</g>
<!-- 7914976967183093818 -->
<g id="node71" class="node">
<title>7914976967183093818</title>
<path fill="none" stroke="black" d="M10407.5,-756C10407.5,-756 10306.5,-756 10306.5,-756 10300.5,-756 10294.5,-750 10294.5,-744 10294.5,-744 10294.5,-732 10294.5,-732 10294.5,-726 10300.5,-720 10306.5,-720 10306.5,-720 10407.5,-720 10407.5,-720 10413.5,-720 10419.5,-726 10419.5,-732 10419.5,-732 10419.5,-744 10419.5,-744 10419.5,-750 10413.5,-756 10407.5,-756"/>
<text text-anchor="middle" x="10357" y="-734.3" font-family="Times,serif" font-size="14.00">SelectColumn(date)</text>
</g>
<!-- 5458378205690292796&#45;&gt;7914976967183093818 -->
<g id="edge13" class="edge">
<title>5458378205690292796&#45;&gt;7914976967183093818</title>
<path fill="none" stroke="black" d="M10292.26,-791.7C10303.09,-782.88 10316.42,-772.03 10328.16,-762.47"/>
<polygon fill="black" stroke="black" points="10330.44,-765.13 10335.99,-756.1 10326.02,-759.7 10330.44,-765.13"/>
</g>
<!-- 3379142958588462408 -->
<g id="node2" class="node">
<title>3379142958588462408</title>
<g id="a_node2"><a xlink:href="covid_vax_az_3_date.svg" xlink:title="Variable(covid_vax_az_3_date)">
<path fill="lightgrey" stroke="black" d="M10765,-828C10765,-828 10601,-828 10601,-828 10595,-828 10589,-822 10589,-816 10589,-816 10589,-804 10589,-804 10589,-798 10595,-792 10601,-792 10601,-792 10765,-792 10765,-792 10771,-792 10777,-798 10777,-804 10777,-804 10777,-816 10777,-816 10777,-822 10771,-828 10765,-828"/>
<text text-anchor="middle" x="10683" y="-806.3" font-family="Times,serif" font-size="14.00">Variable(covid_vax_az_3_date)</text>
</a>
</g>
</g>
<!-- 3379142958588462408&#45;&gt;7914976967183093818 -->
<g id="edge17" class="edge">
<title>3379142958588462408&#45;&gt;7914976967183093818</title>
<path fill="none" stroke="lightgrey" d="M10603.67,-791.97C10550.57,-780.56 10481.23,-765.67 10429.59,-754.59"/>
<polygon fill="lightgrey" stroke="lightgrey" points="10430.02,-751.1 10419.51,-752.42 10428.55,-757.94 10430.02,-751.1"/>
</g>
<!-- 1208929995529770341 -->
<g id="node74" class="node">
<title>1208929995529770341</title>
<path fill="none" stroke="black" d="M10374.5,-540C10374.5,-540 10273.5,-540 10273.5,-540 10267.5,-540 10261.5,-534 10261.5,-528 10261.5,-528 10261.5,-516 10261.5,-516 10261.5,-510 10267.5,-504 10273.5,-504 10273.5,-504 10374.5,-504 10374.5,-504 10380.5,-504 10386.5,-510 10386.5,-516 10386.5,-516 10386.5,-528 10386.5,-528 10386.5,-534 10380.5,-540 10374.5,-540"/>
<text text-anchor="middle" x="10324" y="-518.3" font-family="Times,serif" font-size="14.00">SelectColumn(date)</text>
</g>
<!-- 3379142958588462408&#45;&gt;1208929995529770341 -->
<g id="edge18" class="edge">
<title>3379142958588462408&#45;&gt;1208929995529770341</title>
<path fill="none" stroke="lightgrey" d="M10655.83,-791.76C10640.37,-781.71 10620.79,-768.57 10604,-756 10507.6,-683.85 10399.71,-590.14 10350.74,-546.85"/>
<polygon fill="lightgrey" stroke="lightgrey" points="10352.93,-544.11 10343.13,-540.1 10348.29,-549.35 10352.93,-544.11"/>
</g>
<!-- 4146787177570061447 -->
<g id="node81" class="node">
<title>4146787177570061447</title>
<path fill="none" stroke="black" d="M10220.5,-468C10220.5,-468 10189.5,-468 10189.5,-468 10183.5,-468 10177.5,-462 10177.5,-456 10177.5,-456 10177.5,-444 10177.5,-444 10177.5,-438 10183.5,-432 10189.5,-432 10189.5,-432 10220.5,-432 10220.5,-432 10226.5,-432 10232.5,-438 10232.5,-444 10232.5,-444 10232.5,-456 10232.5,-456 10232.5,-462 10226.5,-468 10220.5,-468"/>
<text text-anchor="middle" x="10205" y="-446.3" font-family="Times,serif" font-size="14.00">Filter()</text>
</g>
<!-- 3379142958588462408&#45;&gt;4146787177570061447 -->
<g id="edge19" class="edge">
<title>3379142958588462408&#45;&gt;4146787177570061447</title>
<path fill="none" stroke="lightgrey" d="M10669.22,-791.79C10650.14,-766.18 10618,-715.8 10618,-667 10618,-667 10618,-667 10618,-593 10618,-514.1 10345,-469.63 10242.92,-455.76"/>
<polygon fill="lightgrey" stroke="lightgrey" points="10243.11,-452.26 10232.74,-454.4 10242.19,-459.2 10243.11,-452.26"/>
</g>
<!-- 7445428629722490386 -->
<g id="node3" class="node">
<title>7445428629722490386</title>
<g id="a_node3"><a xlink:href="covid_vax_az_2_date.svg" xlink:title="Variable(covid_vax_az_2_date)">
<path fill="lightgrey" stroke="black" d="M10559,-828C10559,-828 10395,-828 10395,-828 10389,-828 10383,-822 10383,-816 10383,-816 10383,-804 10383,-804 10383,-798 10389,-792 10395,-792 10395,-792 10559,-792 10559,-792 10565,-792 10571,-798 10571,-804 10571,-804 10571,-816 10571,-816 10571,-822 10565,-828 10559,-828"/>
<text text-anchor="middle" x="10477" y="-806.3" font-family="Times,serif" font-size="14.00">Variable(covid_vax_az_2_date)</text>
</a>
</g>
</g>
<!-- 7445428629722490386&#45;&gt;7914976967183093818 -->
<g id="edge20" class="edge">
<title>7445428629722490386&#45;&gt;7914976967183093818</title>
<path fill="none" stroke="lightgrey" d="M10447.64,-791.88C10431.95,-782.72 10412.44,-771.34 10395.55,-761.48"/>
<polygon fill="lightgrey" stroke="lightgrey" points="10396.87,-758.21 10386.47,-756.19 10393.34,-764.25 10396.87,-758.21"/>
</g>
<!-- 7445428629722490386&#45;&gt;1208929995529770341 -->
<g id="edge21" class="edge">
<title>7445428629722490386&#45;&gt;1208929995529770341</title>
<path fill="none" stroke="lightgrey" d="M10467.89,-791.97C10442.17,-743.89 10368.9,-606.93 10338.01,-549.19"/>
<polygon fill="lightgrey" stroke="lightgrey" points="10341.06,-547.47 10333.26,-540.31 10334.89,-550.78 10341.06,-547.47"/>
</g>
<!-- 7445428629722490386&#45;&gt;4146787177570061447 -->
<g id="edge22" class="edge">
<title>7445428629722490386&#45;&gt;4146787177570061447</title>
<path fill="none" stroke="lightgrey" d="M10477.91,-791.66C10479.6,-740.09 10477.29,-586.19 10396,-504 10355.31,-462.86 10285.68,-452.9 10242.68,-450.91"/>
<polygon fill="lightgrey" stroke="lightgrey" points="10242.73,-447.41 10232.61,-450.56 10242.49,-454.4 10242.73,-447.41"/>
</g>
<!-- 814491311429858980 -->
<g id="node4" class="node">
<title>814491311429858980</title>
<g id="a_node4"><a xlink:href="covid_vax_az_4_date.svg" xlink:title="Variable(covid_vax_az_4_date)">
<path fill="lightgrey" stroke="black" d="M10147,-828C10147,-828 9983,-828 9983,-828 9977,-828 9971,-822 9971,-816 9971,-816 9971,-804 9971,-804 9971,-798 9977,-792 9983,-792 9983,-792 10147,-792 10147,-792 10153,-792 10159,-798 10159,-804 10159,-804 10159,-816 10159,-816 10159,-822 10153,-828 10147,-828"/>
<text text-anchor="middle" x="10065" y="-806.3" font-family="Times,serif" font-size="14.00">Variable(covid_vax_az_4_date)</text>
</a>
</g>
</g>
<!-- 814491311429858980&#45;&gt;7914976967183093818 -->
<g id="edge23" class="edge">
<title>814491311429858980&#45;&gt;7914976967183093818</title>
<path fill="none" stroke="lightgrey" d="M10136.06,-791.97C10181.04,-781.18 10239.04,-767.28 10284.33,-756.42"/>
<polygon fill="lightgrey" stroke="lightgrey" points="10285.17,-759.82 10294.08,-754.08 10283.54,-753.01 10285.17,-759.82"/>
</g>
<!-- 814491311429858980&#45;&gt;1208929995529770341 -->
<g id="edge24" class="edge">
<title>814491311429858980&#45;&gt;1208929995529770341</title>
<path fill="none" stroke="lightgrey" d="M10134.9,-791.94C10190.46,-774.51 10265.24,-741.61 10305,-684 10332.55,-644.08 10331.62,-584.94 10328.07,-550.55"/>
<polygon fill="lightgrey" stroke="lightgrey" points="10331.5,-549.83 10326.85,-540.31 10324.55,-550.65 10331.5,-549.83"/>
</g>
<!-- 814491311429858980&#45;&gt;4146787177570061447 -->
<g id="edge25" class="edge">
<title>814491311429858980&#45;&gt;4146787177570061447</title>
<path fill="none" stroke="lightgrey" d="M10057.92,-791.85C10047.69,-765.49 10030,-713.21 10030,-667 10030,-667 10030,-667 10030,-593 10030,-522.61 10116.43,-481.03 10167.81,-462.52"/>
<polygon fill="lightgrey" stroke="lightgrey" points="10168.98,-465.82 10177.27,-459.23 10166.68,-459.21 10168.98,-465.82"/>
</g>
<!-- 2927901286638148837 -->
<g id="node5" class="node">
<title>2927901286638148837</title>
<g id="a_node5"><a xlink:href="diabetes.svg" xlink:title="Variable(diabetes)">
<path fill="lightgrey" stroke="black" d="M12079.5,-828C12079.5,-828 11988.5,-828 11988.5,-828 11982.5,-828 11976.5,-822 11976.5,-816 11976.5,-816 11976.5,-804 11976.5,-804 11976.5,-798 11982.5,-792 11988.5,-792 11988.5,-792 12079.5,-792 12079.5,-792 12085.5,-792 12091.5,-798 12091.5,-804 12091.5,-804 12091.5,-816 12091.5,-816 12091.5,-822 12085.5,-828 12079.5,-828"/>
<text text-anchor="middle" x="12034" y="-806.3" font-family="Times,serif" font-size="14.00">Variable(diabetes)</text>
</a>
</g>
</g>
<!-- 3509576877858601689 -->
<g id="node72" class="node">
<title>3509576877858601689</title>
<path fill="none" stroke="black" d="M5768.5,-252C5768.5,-252 5737.5,-252 5737.5,-252 5731.5,-252 5725.5,-246 5725.5,-240 5725.5,-240 5725.5,-228 5725.5,-228 5725.5,-222 5731.5,-216 5737.5,-216 5737.5,-216 5768.5,-216 5768.5,-216 5774.5,-216 5780.5,-222 5780.5,-228 5780.5,-228 5780.5,-240 5780.5,-240 5780.5,-246 5774.5,-252 5768.5,-252"/>
<text text-anchor="middle" x="5753" y="-230.3" font-family="Times,serif" font-size="14.00">Filter()</text>
</g>
<!-- 2927901286638148837&#45;&gt;3509576877858601689 -->
<g id="edge26" class="edge">
<title>2927901286638148837&#45;&gt;3509576877858601689</title>
<path fill="none" stroke="lightgrey" d="M12034,-791.95C12034,-765.29 12034,-712.11 12034,-667 12034,-667 12034,-667 12034,-377 12034,-243.03 11878.38,-308.59 11746,-288 11432.72,-239.28 6282.26,-235.29 5790.62,-235.02"/>
<polygon fill="lightgrey" stroke="lightgrey" points="5790.5,-231.52 5780.5,-235.01 5790.5,-238.52 5790.5,-231.52"/>
</g>
<!-- 1102633016844416352 -->
<g id="node6" class="node">
<title>1102633016844416352</title>
<g id="a_node6"><a xlink:href="chronic_neuro_disease.svg" xlink:title="Variable(chronic_neuro_dis...)">
<path fill="lightgrey" stroke="black" d="M12280,-828C12280,-828 12122,-828 12122,-828 12116,-828 12110,-822 12110,-816 12110,-816 12110,-804 12110,-804 12110,-798 12116,-792 12122,-792 12122,-792 12280,-792 12280,-792 12286,-792 12292,-798 12292,-804 12292,-804 12292,-816 12292,-816 12292,-822 12286,-828 12280,-828"/>
<text text-anchor="middle" x="12201" y="-806.3" font-family="Times,serif" font-size="14.00">Variable(chronic_neuro_dis...)</text>
</a>
</g>
</g>
<!-- 1102633016844416352&#45;&gt;3509576877858601689 -->
<g id="edge27" class="edge">
<title>1102633016844416352&#45;&gt;3509576877858601689</title>
<path fill="none" stroke="lightgrey" d="M12201,-791.95C12201,-765.29 12201,-712.11 12201,-667 12201,-667 12201,-667 12201,-377 12201,-235.79 12035.7,-308.58 11896,-288 11574.33,-240.61 6290.09,-235.41 5790.79,-235.03"/>
<polygon fill="lightgrey" stroke="lightgrey" points="5790.53,-231.53 5780.52,-235.02 5790.52,-238.53 5790.53,-231.53"/>
</g>
<!-- 7895672267513037740 -->
<g id="node7" class="node">
<title>7895672267513037740</title>
<g id="a_node7"><a xlink:href="covid_vax_disease_1_date.svg" xlink:title="Variable(covid_vax_disease...)">
<path fill="lightgrey" stroke="black" d="M172,-828C172,-828 12,-828 12,-828 6,-828 0,-822 0,-816 0,-816 0,-804 0,-804 0,-798 6,-792 12,-792 12,-792 172,-792 172,-792 178,-792 184,-798 184,-804 184,-804 184,-816 184,-816 184,-822 178,-828 172,-828"/>
<text text-anchor="middle" x="92" y="-806.3" font-family="Times,serif" font-size="14.00">Variable(covid_vax_disease...)</text>
</a>
</g>
</g>
<!-- 7895672267513037740&#45;&gt;3509576877858601689 -->
<g id="edge28" class="edge">
<title>7895672267513037740&#45;&gt;3509576877858601689</title>
<path fill="none" stroke="lightgrey" d="M92,-791.95C92,-765.29 92,-712.11 92,-667 92,-667 92,-667 92,-377 92,-280.92 195.18,-308.69 289,-288 570.57,-225.92 5246.42,-233.95 5715.2,-234.92"/>
<polygon fill="lightgrey" stroke="lightgrey" points="5715.48,-238.42 5725.48,-234.94 5715.49,-231.42 5715.48,-238.42"/>
</g>
<!-- 4297692426829539203 -->
<g id="node8" class="node">
<title>4297692426829539203</title>
<g id="a_node8"><a xlink:href="practice_id.svg" xlink:title="Variable(practice_id)">
<path fill="lightgrey" stroke="black" d="M321.5,-828C321.5,-828 214.5,-828 214.5,-828 208.5,-828 202.5,-822 202.5,-816 202.5,-816 202.5,-804 202.5,-804 202.5,-798 208.5,-792 214.5,-792 214.5,-792 321.5,-792 321.5,-792 327.5,-792 333.5,-798 333.5,-804 333.5,-804 333.5,-816 333.5,-816 333.5,-822 327.5,-828 321.5,-828"/>
<text text-anchor="middle" x="268" y="-806.3" font-family="Times,serif" font-size="14.00">Variable(practice_id)</text>
</a>
</g>
</g>
<!-- 4297692426829539203&#45;&gt;3509576877858601689 -->
<g id="edge29" class="edge">
<title>4297692426829539203&#45;&gt;3509576877858601689</title>
<path fill="none" stroke="lightgrey" d="M268,-791.95C268,-765.29 268,-712.11 268,-667 268,-667 268,-667 268,-377 268,-301.01 340.94,-308.91 414,-288 549.43,-249.25 5243.98,-236.3 5715.01,-235.09"/>
<polygon fill="lightgrey" stroke="lightgrey" points="5715.35,-238.59 5725.34,-235.07 5715.33,-231.59 5715.35,-238.59"/>
</g>
<!-- 1204418980975433034 -->
<g id="node9" class="node">
<title>1204418980975433034</title>
<g id="a_node9"><a xlink:href="age.svg" xlink:title="Variable(age)">
<path fill="lightgrey" stroke="black" d="M428.5,-828C428.5,-828 363.5,-828 363.5,-828 357.5,-828 351.5,-822 351.5,-816 351.5,-816 351.5,-804 351.5,-804 351.5,-798 357.5,-792 363.5,-792 363.5,-792 428.5,-792 428.5,-792 434.5,-792 440.5,-798 440.5,-804 440.5,-804 440.5,-816 440.5,-816 440.5,-822 434.5,-828 428.5,-828"/>
<text text-anchor="middle" x="396" y="-806.3" font-family="Times,serif" font-size="14.00">Variable(age)</text>
</a>
</g>
</g>
<!-- 1204418980975433034&#45;&gt;3509576877858601689 -->
<g id="edge30" class="edge">
<title>1204418980975433034&#45;&gt;3509576877858601689</title>
<path fill="none" stroke="lightgrey" d="M396,-791.95C396,-765.29 396,-712.11 396,-667 396,-667 396,-667 396,-377 396,-291.32 483.88,-308.79 567,-288 699.64,-254.83 5251.72,-236.88 5715.05,-235.14"/>
<polygon fill="lightgrey" stroke="lightgrey" points="5715.24,-238.64 5725.23,-235.1 5715.21,-231.64 5715.24,-238.64"/>
</g>
<!-- 2534416172140043511 -->
<g id="node10" class="node">
<title>2534416172140043511</title>
<g id="a_node10"><a xlink:href="prior_covid_test_frequency.svg" xlink:title="Variable(prior_covid_test_...)">
<path fill="lightgrey" stroke="black" d="M623.5,-828C623.5,-828 470.5,-828 470.5,-828 464.5,-828 458.5,-822 458.5,-816 458.5,-816 458.5,-804 458.5,-804 458.5,-798 464.5,-792 470.5,-792 470.5,-792 623.5,-792 623.5,-792 629.5,-792 635.5,-798 635.5,-804 635.5,-804 635.5,-816 635.5,-816 635.5,-822 629.5,-828 623.5,-828"/>
<text text-anchor="middle" x="547" y="-806.3" font-family="Times,serif" font-size="14.00">Variable(prior_covid_test_...)</text>
</a>
</g>
</g>
<!-- 2534416172140043511&#45;&gt;3509576877858601689 -->
<g id="edge31" class="edge">
<title>2534416172140043511&#45;&gt;3509576877858601689</title>
<path fill="none" stroke="lightgrey" d="M547,-791.95C547,-765.29 547,-712.11 547,-667 547,-667 547,-667 547,-377 547,-292.5 633.11,-308.81 715,-288 843.64,-255.31 5259.32,-236.96 5715.1,-235.15"/>
<polygon fill="lightgrey" stroke="lightgrey" points="5715.43,-238.65 5725.42,-235.11 5715.4,-231.65 5715.43,-238.65"/>
</g>
<!-- 2854687987532492382 -->
<g id="node11" class="node">
<title>2854687987532492382</title>
<g id="a_node11"><a xlink:href="population.svg" xlink:title="Population()">
<path fill="lightgrey" stroke="black" d="M725,-828C725,-828 665,-828 665,-828 659,-828 653,-822 653,-816 653,-816 653,-804 653,-804 653,-798 659,-792 665,-792 665,-792 725,-792 725,-792 731,-792 737,-798 737,-804 737,-804 737,-816 737,-816 737,-822 731,-828 725,-828"/>
<text text-anchor="middle" x="695" y="-806.3" font-family="Times,serif" font-size="14.00">Population()</text>
</a>
</g>
</g>
<!-- 2854687987532492382&#45;&gt;3509576877858601689 -->
<g id="edge32" class="edge">
<title>2854687987532492382&#45;&gt;3509576877858601689</title>
<path fill="none" stroke="lightgrey" d="M695,-791.95C695,-765.29 695,-712.11 695,-667 695,-667 695,-667 695,-377 695,-308.8 755.15,-309.11 820,-288 943.51,-247.79 5264.95,-236.19 5715.18,-235.09"/>
<polygon fill="lightgrey" stroke="lightgrey" points="5715.39,-238.59 5725.38,-235.06 5715.38,-231.59 5715.39,-238.59"/>
</g>
<!-- 6286720606273614483 -->
<g id="node12" class="node">
<title>6286720606273614483</title>
<g id="a_node12"><a xlink:href="cev.svg" xlink:title="Variable(cev)">
<path fill="lightgrey" stroke="black" d="M831.5,-828C831.5,-828 766.5,-828 766.5,-828 760.5,-828 754.5,-822 754.5,-816 754.5,-816 754.5,-804 754.5,-804 754.5,-798 760.5,-792 766.5,-792 766.5,-792 831.5,-792 831.5,-792 837.5,-792 843.5,-798 843.5,-804 843.5,-804 843.5,-816 843.5,-816 843.5,-822 837.5,-828 831.5,-828"/>
<text text-anchor="middle" x="799" y="-806.3" font-family="Times,serif" font-size="14.00">Variable(cev)</text>
</a>
</g>
</g>
<!-- 6286720606273614483&#45;&gt;3509576877858601689 -->
<g id="edge33" class="edge">
<title>6286720606273614483&#45;&gt;3509576877858601689</title>
<path fill="none" stroke="lightgrey" d="M799,-791.95C799,-765.29 799,-712.11 799,-667 799,-667 799,-667 799,-377 799,-301.38 871.35,-308.95 944,-288 1065.58,-252.94 5270.89,-236.75 5715.13,-235.13"/>
<polygon fill="lightgrey" stroke="lightgrey" points="5715.22,-238.63 5725.21,-235.1 5715.19,-231.63 5715.22,-238.63"/>
</g>
<!-- 8298428905775489201 -->
<g id="node13" class="node">
<title>8298428905775489201</title>
<g id="a_node13"><a xlink:href="inhospital.svg" xlink:title="Variable(inhospital)">
<path fill="lightgrey" stroke="black" d="M973,-828C973,-828 873,-828 873,-828 867,-828 861,-822 861,-816 861,-816 861,-804 861,-804 861,-798 867,-792 873,-792 873,-792 973,-792 973,-792 979,-792 985,-798 985,-804 985,-804 985,-816 985,-816 985,-822 979,-828 973,-828"/>
<text text-anchor="middle" x="923" y="-806.3" font-family="Times,serif" font-size="14.00">Variable(inhospital)</text>
</a>
</g>
</g>
<!-- 8298428905775489201&#45;&gt;3509576877858601689 -->
<g id="edge34" class="edge">
<title>8298428905775489201&#45;&gt;3509576877858601689</title>
<path fill="none" stroke="lightgrey" d="M923,-791.95C923,-765.29 923,-712.11 923,-667 923,-667 923,-667 923,-377 923,-301.38 995.35,-308.96 1068,-288 1186.35,-253.85 5277.12,-236.87 5715.12,-235.15"/>
<polygon fill="lightgrey" stroke="lightgrey" points="5715.36,-238.65 5725.34,-235.11 5715.33,-231.65 5715.36,-238.65"/>
</g>
<!-- 8473241684409304911 -->
<g id="node14" class="node">
<title>8473241684409304911</title>
<g id="a_node14"><a xlink:href="imd.svg" xlink:title="Variable(imd)">
<path fill="lightgrey" stroke="black" d="M1083,-828C1083,-828 1015,-828 1015,-828 1009,-828 1003,-822 1003,-816 1003,-816 1003,-804 1003,-804 1003,-798 1009,-792 1015,-792 1015,-792 1083,-792 1083,-792 1089,-792 1095,-798 1095,-804 1095,-804 1095,-816 1095,-816 1095,-822 1089,-828 1083,-828"/>
<text text-anchor="middle" x="1049" y="-806.3" font-family="Times,serif" font-size="14.00">Variable(imd)</text>
</a>
</g>
</g>
<!-- 8473241684409304911&#45;&gt;3509576877858601689 -->
<g id="edge35" class="edge">
<title>8473241684409304911&#45;&gt;3509576877858601689</title>
<path fill="none" stroke="lightgrey" d="M1049,-791.95C1049,-765.29 1049,-712.11 1049,-667 1049,-667 1049,-667 1049,-377 1049,-294.85 1131.55,-308.88 1211,-288 1441.57,-227.4 5290.36,-234 5715.03,-234.91"/>
<polygon fill="lightgrey" stroke="lightgrey" points="5715.24,-238.41 5725.25,-234.93 5715.25,-231.41 5715.24,-238.41"/>
</g>
<!-- 4190317324242135424 -->
<g id="node15" class="node">
<title>4190317324242135424</title>
<g id="a_node15"><a xlink:href="care_home_code.svg" xlink:title="Variable(care_home_code)">
<path fill="lightgrey" stroke="black" d="M1264.5,-828C1264.5,-828 1125.5,-828 1125.5,-828 1119.5,-828 1113.5,-822 1113.5,-816 1113.5,-816 1113.5,-804 1113.5,-804 1113.5,-798 1119.5,-792 1125.5,-792 1125.5,-792 1264.5,-792 1264.5,-792 1270.5,-792 1276.5,-798 1276.5,-804 1276.5,-804 1276.5,-816 1276.5,-816 1276.5,-822 1270.5,-828 1264.5,-828"/>
<text text-anchor="middle" x="1195" y="-806.3" font-family="Times,serif" font-size="14.00">Variable(care_home_code)</text>
</a>
</g>
</g>
<!-- 4190317324242135424&#45;&gt;3509576877858601689 -->
<g id="edge36" class="edge">
<title>4190317324242135424&#45;&gt;3509576877858601689</title>
<path fill="none" stroke="lightgrey" d="M1195,-791.95C1195,-765.29 1195,-712.11 1195,-667 1195,-667 1195,-667 1195,-377 1195,-278.08 1302.29,-308.79 1399,-288 1622.15,-240.02 5300.41,-235.4 5715.06,-235.03"/>
<polygon fill="lightgrey" stroke="lightgrey" points="5715.32,-238.53 5725.32,-235.02 5715.31,-231.53 5715.32,-238.53"/>
</g>
<!-- 4730113238456614199 -->
<g id="node16" class="node">
<title>4730113238456614199</title>
<g id="a_node16"><a xlink:href="chronic_heart_disease.svg" xlink:title="Variable(chronic_heart_dis...)">
<path fill="lightgrey" stroke="black" d="M1461.5,-828C1461.5,-828 1306.5,-828 1306.5,-828 1300.5,-828 1294.5,-822 1294.5,-816 1294.5,-816 1294.5,-804 1294.5,-804 1294.5,-798 1300.5,-792 1306.5,-792 1306.5,-792 1461.5,-792 1461.5,-792 1467.5,-792 1473.5,-798 1473.5,-804 1473.5,-804 1473.5,-816 1473.5,-816 1473.5,-822 1467.5,-828 1461.5,-828"/>
<text text-anchor="middle" x="1384" y="-806.3" font-family="Times,serif" font-size="14.00">Variable(chronic_heart_dis...)</text>
</a>
</g>
</g>
<!-- 4730113238456614199&#45;&gt;3509576877858601689 -->
<g id="edge37" class="edge">
<title>4730113238456614199&#45;&gt;3509576877858601689</title>
<path fill="none" stroke="lightgrey" d="M1384,-791.95C1384,-765.29 1384,-712.11 1384,-667 1384,-667 1384,-667 1384,-377 1384,-272.35 1499.44,-308.81 1602,-288 1814.94,-244.79 5310.86,-235.96 5715,-235.08"/>
<polygon fill="lightgrey" stroke="lightgrey" points="5715.28,-238.58 5725.28,-235.06 5715.27,-231.58 5715.28,-238.58"/>
</g>
<!-- 608844516887656461 -->
<g id="node17" class="node">
<title>608844516887656461</title>
<g id="a_node17"><a xlink:href="covidemergency_date.svg" xlink:title="Variable(covidemergency_date)">
<path fill="lightgrey" stroke="black" d="M1670,-828C1670,-828 1504,-828 1504,-828 1498,-828 1492,-822 1492,-816 1492,-816 1492,-804 1492,-804 1492,-798 1498,-792 1504,-792 1504,-792 1670,-792 1670,-792 1676,-792 1682,-798 1682,-804 1682,-804 1682,-816 1682,-816 1682,-822 1676,-828 1670,-828"/>
<text text-anchor="middle" x="1587" y="-806.3" font-family="Times,serif" font-size="14.00">Variable(covidemergency_date)</text>
</a>
</g>
</g>
<!-- 608844516887656461&#45;&gt;3509576877858601689 -->
<g id="edge38" class="edge">
<title>608844516887656461&#45;&gt;3509576877858601689</title>
<path fill="none" stroke="lightgrey" d="M1587,-791.95C1587,-765.29 1587,-712.11 1587,-667 1587,-667 1587,-667 1587,-377 1587,-269.05 1707.08,-308.84 1813,-288 2015.04,-248.24 5323.21,-236.38 5715.15,-235.12"/>
<polygon fill="lightgrey" stroke="lightgrey" points="5715.4,-238.62 5725.39,-235.08 5715.38,-231.62 5715.4,-238.62"/>
</g>
<!-- 4684350277698939690 -->
<g id="node18" class="node">
<title>4684350277698939690</title>
<g id="a_node18"><a xlink:href="covidadmitted_0_date.svg" xlink:title="Variable(covidadmitted_0_date)">
<path fill="lightgrey" stroke="black" d="M1879.5,-828C1879.5,-828 1712.5,-828 1712.5,-828 1706.5,-828 1700.5,-822 1700.5,-816 1700.5,-816 1700.5,-804 1700.5,-804 1700.5,-798 1706.5,-792 1712.5,-792 1712.5,-792 1879.5,-792 1879.5,-792 1885.5,-792 1891.5,-798 1891.5,-804 1891.5,-804 1891.5,-816 1891.5,-816 1891.5,-822 1885.5,-828 1879.5,-828"/>
<text text-anchor="middle" x="1796" y="-806.3" font-family="Times,serif" font-size="14.00">Variable(covidadmitted_0_date)</text>
</a>
</g>
</g>
<!-- 4684350277698939690&#45;&gt;3509576877858601689 -->
<g id="edge39" class="edge">
<title>4684350277698939690&#45;&gt;3509576877858601689</title>
<path fill="none" stroke="lightgrey" d="M1796,-791.95C1796,-765.29 1796,-712.11 1796,-667 1796,-667 1796,-667 1796,-377 1796,-275.63 1906.81,-308.88 2006,-288 2197.34,-247.72 5334.57,-236.35 5715.27,-235.12"/>
<polygon fill="lightgrey" stroke="lightgrey" points="5715.49,-238.62 5725.48,-235.08 5715.47,-231.62 5715.49,-238.62"/>
</g>
<!-- 7724327390246657977 -->
<g id="node19" class="node">
<title>7724327390246657977</title>
<g id="a_node19"><a xlink:href="emergency_date.svg" xlink:title="Variable(emergency_date)">
<path fill="lightgrey" stroke="black" d="M2058,-828C2058,-828 1922,-828 1922,-828 1916,-828 1910,-822 1910,-816 1910,-816 1910,-804 1910,-804 1910,-798 1916,-792 1922,-792 1922,-792 2058,-792 2058,-792 2064,-792 2070,-798 2070,-804 2070,-804 2070,-816 2070,-816 2070,-822 2064,-828 2058,-828"/>
<text text-anchor="middle" x="1990" y="-806.3" font-family="Times,serif" font-size="14.00">Variable(emergency_date)</text>
</a>
</g>
</g>
<!-- 7724327390246657977&#45;&gt;3509576877858601689 -->
<g id="edge40" class="edge">
<title>7724327390246657977&#45;&gt;3509576877858601689</title>
<path fill="none" stroke="lightgrey" d="M1990,-791.95C1990,-765.29 1990,-712.11 1990,-667 1990,-667 1990,-667 1990,-377 1990,-278.89 2096.15,-308.93 2192,-288 2373.23,-248.44 5344.64,-236.47 5715.17,-235.13"/>
<polygon fill="lightgrey" stroke="lightgrey" points="5715.38,-238.63 5725.37,-235.09 5715.36,-231.63 5715.38,-238.63"/>
</g>
<!-- 8205468790205234603 -->
<g id="node20" class="node">
<title>8205468790205234603</title>
<g id="a_node20"><a xlink:href="potentialcovidcritcare_2_date.svg" xlink:title="Variable(potentialcovidcri...)">
<path fill="lightgrey" stroke="black" d="M2249.5,-828C2249.5,-828 2100.5,-828 2100.5,-828 2094.5,-828 2088.5,-822 2088.5,-816 2088.5,-816 2088.5,-804 2088.5,-804 2088.5,-798 2094.5,-792 2100.5,-792 2100.5,-792 2249.5,-792 2249.5,-792 2255.5,-792 2261.5,-798 2261.5,-804 2261.5,-804 2261.5,-816 2261.5,-816 2261.5,-822 2255.5,-828 2249.5,-828"/>
<text text-anchor="middle" x="2175" y="-806.3" font-family="Times,serif" font-size="14.00">Variable(potentialcovidcri...)</text>
</a>
</g>
</g>
<!-- 8205468790205234603&#45;&gt;3509576877858601689 -->
<g id="edge41" class="edge">
<title>8205468790205234603&#45;&gt;3509576877858601689</title>
<path fill="none" stroke="lightgrey" d="M2175,-791.95C2175,-765.29 2175,-712.11 2175,-667 2175,-667 2175,-667 2175,-377 2175,-276.86 2284.08,-308.96 2382,-288 2553.4,-251.31 5356.36,-236.87 5715.28,-235.17"/>
<polygon fill="lightgrey" stroke="lightgrey" points="5715.43,-238.67 5725.41,-235.13 5715.39,-231.67 5715.43,-238.67"/>
</g>
<!-- 1392455944681476409 -->
<g id="node21" class="node">
<title>1392455944681476409</title>
<g id="a_node21"><a xlink:href="potentialcovidcritcare_3_date.svg" xlink:title="Variable(potentialcovidcri...)">
<path fill="lightgrey" stroke="black" d="M2440.5,-828C2440.5,-828 2291.5,-828 2291.5,-828 2285.5,-828 2279.5,-822 2279.5,-816 2279.5,-816 2279.5,-804 2279.5,-804 2279.5,-798 2285.5,-792 2291.5,-792 2291.5,-792 2440.5,-792 2440.5,-792 2446.5,-792 2452.5,-798 2452.5,-804 2452.5,-804 2452.5,-816 2452.5,-816 2452.5,-822 2446.5,-828 2440.5,-828"/>
<text text-anchor="middle" x="2366" y="-806.3" font-family="Times,serif" font-size="14.00">Variable(potentialcovidcri...)</text>
</a>
</g>
</g>
<!-- 1392455944681476409&#45;&gt;3509576877858601689 -->
<g id="edge42" class="edge">
<title>1392455944681476409&#45;&gt;3509576877858601689</title>
<path fill="none" stroke="lightgrey" d="M2366,-791.95C2366,-765.29 2366,-712.11 2366,-667 2366,-667 2366,-667 2366,-377 2366,-278.89 2472.17,-309.01 2568,-288 2729.4,-252.62 5365.99,-237.1 5714.97,-235.2"/>
<polygon fill="lightgrey" stroke="lightgrey" points="5715.09,-238.7 5725.07,-235.15 5715.05,-231.7 5715.09,-238.7"/>
</g>
<!-- 6789305390415183441 -->
<g id="node22" class="node">
<title>6789305390415183441</title>
<g id="a_node22"><a xlink:href="hhld_imdef_dat.svg" xlink:title="Variable(hhld_imdef_dat)">
<path fill="lightgrey" stroke="black" d="M2615.5,-828C2615.5,-828 2482.5,-828 2482.5,-828 2476.5,-828 2470.5,-822 2470.5,-816 2470.5,-816 2470.5,-804 2470.5,-804 2470.5,-798 2476.5,-792 2482.5,-792 2482.5,-792 2615.5,-792 2615.5,-792 2621.5,-792 2627.5,-798 2627.5,-804 2627.5,-804 2627.5,-816 2627.5,-816 2627.5,-822 2621.5,-828 2615.5,-828"/>
<text text-anchor="middle" x="2549" y="-806.3" font-family="Times,serif" font-size="14.00">Variable(hhld_imdef_dat)</text>
</a>
</g>
</g>
<!-- 6789305390415183441&#45;&gt;3509576877858601689 -->
<g id="edge43" class="edge">
<title>6789305390415183441&#45;&gt;3509576877858601689</title>
<path fill="none" stroke="lightgrey" d="M2549,-791.95C2549,-765.29 2549,-712.11 2549,-667 2549,-667 2549,-667 2549,-377 2549,-286.96 2643.46,-309.07 2731,-288 2883.15,-251.38 5376.71,-236.98 5715.1,-235.19"/>
<polygon fill="lightgrey" stroke="lightgrey" points="5715.15,-238.69 5725.13,-235.14 5715.12,-231.69 5715.15,-238.69"/>
</g>
<!-- 5736036485033204283 -->
<g id="node23" class="node">
<title>5736036485033204283</title>
<g id="a_node23"><a xlink:href="housebound.svg" xlink:title="Variable(housebound)">
<path fill="lightgrey" stroke="black" d="M2770,-828C2770,-828 2658,-828 2658,-828 2652,-828 2646,-822 2646,-816 2646,-816 2646,-804 2646,-804 2646,-798 2652,-792 2658,-792 2658,-792 2770,-792 2770,-792 2776,-792 2782,-798 2782,-804 2782,-804 2782,-816 2782,-816 2782,-822 2776,-828 2770,-828"/>
<text text-anchor="middle" x="2714" y="-806.3" font-family="Times,serif" font-size="14.00">Variable(housebound)</text>
</a>
</g>
</g>
<!-- 5736036485033204283&#45;&gt;3509576877858601689 -->
<g id="edge44" class="edge">
<title>5736036485033204283&#45;&gt;3509576877858601689</title>
<path fill="none" stroke="lightgrey" d="M2714,-791.95C2714,-765.29 2714,-712.11 2714,-667 2714,-667 2714,-667 2714,-377 2714,-283.75 2813.17,-309.11 2904,-288 3047.38,-254.68 5387.51,-237.5 5715.04,-235.25"/>
<polygon fill="lightgrey" stroke="lightgrey" points="5715.44,-238.75 5725.42,-235.18 5715.39,-231.75 5715.44,-238.75"/>
</g>
<!-- 4546432929583884551 -->
<g id="node24" class="node">
<title>4546432929583884551</title>
<g id="a_node24"><a xlink:href="potentialcovidcritcare_2_ccdays.svg" xlink:title="Variable(potentialcovidcri...)">
<path fill="lightgrey" stroke="black" d="M2961.5,-828C2961.5,-828 2812.5,-828 2812.5,-828 2806.5,-828 2800.5,-822 2800.5,-816 2800.5,-816 2800.5,-804 2800.5,-804 2800.5,-798 2806.5,-792 2812.5,-792 2812.5,-792 2961.5,-792 2961.5,-792 2967.5,-792 2973.5,-798 2973.5,-804 2973.5,-804 2973.5,-816 2973.5,-816 2973.5,-822 2967.5,-828 2961.5,-828"/>
<text text-anchor="middle" x="2887" y="-806.3" font-family="Times,serif" font-size="14.00">Variable(potentialcovidcri...)</text>
</a>
</g>
</g>
<!-- 4546432929583884551&#45;&gt;3509576877858601689 -->
<g id="edge45" class="edge">
<title>4546432929583884551&#45;&gt;3509576877858601689</title>
<path fill="none" stroke="lightgrey" d="M2887,-791.95C2887,-765.29 2887,-712.11 2887,-667 2887,-667 2887,-667 2887,-377 2887,-276.86 2996.12,-309.17 3094,-288 3361.32,-230.19 5411.61,-233.99 5715.42,-234.88"/>
<polygon fill="lightgrey" stroke="lightgrey" points="5715.48,-238.38 5725.49,-234.91 5715.5,-231.38 5715.48,-238.38"/>
</g>
<!-- 1965249348624605339 -->
<g id="node25" class="node">
<title>1965249348624605339</title>
<g id="a_node25"><a xlink:href="potentialcovidcritcare_1_ccdays.svg" xlink:title="Variable(potentialcovidcri...)">
<path fill="lightgrey" stroke="black" d="M3152.5,-828C3152.5,-828 3003.5,-828 3003.5,-828 2997.5,-828 2991.5,-822 2991.5,-816 2991.5,-816 2991.5,-804 2991.5,-804 2991.5,-798 2997.5,-792 3003.5,-792 3003.5,-792 3152.5,-792 3152.5,-792 3158.5,-792 3164.5,-798 3164.5,-804 3164.5,-804 3164.5,-816 3164.5,-816 3164.5,-822 3158.5,-828 3152.5,-828"/>
<text text-anchor="middle" x="3078" y="-806.3" font-family="Times,serif" font-size="14.00">Variable(potentialcovidcri...)</text>
</a>
</g>
</g>
<!-- 1965249348624605339&#45;&gt;3509576877858601689 -->
<g id="edge46" class="edge">
<title>1965249348624605339&#45;&gt;3509576877858601689</title>
<path fill="none" stroke="lightgrey" d="M3078,-791.95C3078,-765.29 3078,-712.11 3078,-667 3078,-667 3078,-667 3078,-377 3078,-278.89 3184.22,-309.24 3280,-288 3527.58,-233.1 5423.64,-234.39 5715.37,-234.92"/>
<polygon fill="lightgrey" stroke="lightgrey" points="5715.44,-238.42 5725.45,-234.94 5715.45,-231.42 5715.44,-238.42"/>
</g>
<!-- 2691470118406119864 -->
<g id="node26" class="node">
<title>2691470118406119864</title>
<g id="a_node26"><a xlink:href="covid_tests_date.svg" xlink:title="Variable(covid_tests_date)">
<path fill="lightgrey" stroke="black" d="M3331.5,-828C3331.5,-828 3194.5,-828 3194.5,-828 3188.5,-828 3182.5,-822 3182.5,-816 3182.5,-816 3182.5,-804 3182.5,-804 3182.5,-798 3188.5,-792 3194.5,-792 3194.5,-792 3331.5,-792 3331.5,-792 3337.5,-792 3343.5,-798 3343.5,-804 3343.5,-804 3343.5,-816 3343.5,-816 3343.5,-822 3337.5,-828 3331.5,-828"/>
<text text-anchor="middle" x="3263" y="-806.3" font-family="Times,serif" font-size="14.00">Variable(covid_tests_date)</text>
</a>
</g>
</g>
<!-- 2691470118406119864&#45;&gt;3509576877858601689 -->
<g id="edge47" class="edge">
<title>2691470118406119864&#45;&gt;3509576877858601689</title>
<path fill="none" stroke="lightgrey" d="M3263,-791.95C3263,-765.29 3263,-712.11 3263,-667 3263,-667 3263,-667 3263,-377 3263,-276.45 3372.74,-309.33 3471,-288 3698.86,-238.54 5436.44,-235.23 5715.29,-235.01"/>
<polygon fill="lightgrey" stroke="lightgrey" points="5715.32,-238.51 5725.32,-235.01 5715.32,-231.51 5715.32,-238.51"/>
</g>
<!-- 6918861611650714505 -->
<g id="node27" class="node">
<title>6918861611650714505</title>
<g id="a_node27"><a xlink:href="covid_vax_disease_2_date.svg" xlink:title="Variable(covid_vax_disease...)">
<path fill="lightgrey" stroke="black" d="M3534,-828C3534,-828 3374,-828 3374,-828 3368,-828 3362,-822 3362,-816 3362,-816 3362,-804 3362,-804 3362,-798 3368,-792 3374,-792 3374,-792 3534,-792 3534,-792 3540,-792 3546,-798 3546,-804 3546,-804 3546,-816 3546,-816 3546,-822 3540,-828 3534,-828"/>
<text text-anchor="middle" x="3454" y="-806.3" font-family="Times,serif" font-size="14.00">Variable(covid_vax_disease...)</text>
</a>
</g>
</g>
<!-- 6918861611650714505&#45;&gt;3509576877858601689 -->
<g id="edge48" class="edge">
<title>6918861611650714505&#45;&gt;3509576877858601689</title>
<path fill="none" stroke="lightgrey" d="M3454,-791.95C3454,-765.29 3454,-712.11 3454,-667 3454,-667 3454,-667 3454,-377 3454,-273.99 3567.25,-309.45 3668,-288 3875.41,-243.84 5449.05,-236.12 5714.91,-235.13"/>
<polygon fill="lightgrey" stroke="lightgrey" points="5715.22,-238.63 5725.2,-235.09 5715.19,-231.63 5715.22,-238.63"/>
</g>
<!-- 8232583889354345964 -->
<g id="node28" class="node">
<title>8232583889354345964</title>
<g id="a_node28"><a xlink:href="covid_test_0_date.svg" xlink:title="Variable(covid_test_0_date)">
<path fill="lightgrey" stroke="black" d="M3721.5,-828C3721.5,-828 3576.5,-828 3576.5,-828 3570.5,-828 3564.5,-822 3564.5,-816 3564.5,-816 3564.5,-804 3564.5,-804 3564.5,-798 3570.5,-792 3576.5,-792 3576.5,-792 3721.5,-792 3721.5,-792 3727.5,-792 3733.5,-798 3733.5,-804 3733.5,-804 3733.5,-816 3733.5,-816 3733.5,-822 3727.5,-828 3721.5,-828"/>
<text text-anchor="middle" x="3649" y="-806.3" font-family="Times,serif" font-size="14.00">Variable(covid_test_0_date)</text>
</a>
</g>
</g>
<!-- 8232583889354345964&#45;&gt;3509576877858601689 -->
<g id="edge49" class="edge">
<title>8232583889354345964&#45;&gt;3509576877858601689</title>
<path fill="none" stroke="lightgrey" d="M3649,-791.95C3649,-765.29 3649,-712.11 3649,-667 3649,-667 3649,-667 3649,-377 3649,-287.76 3742.39,-309.51 3829,-288 4018.23,-241.02 5461.67,-235.65 5715.08,-235.07"/>
<polygon fill="lightgrey" stroke="lightgrey" points="5715.26,-238.57 5725.26,-235.05 5715.25,-231.57 5715.26,-238.57"/>
</g>
<!-- 4527174465814226518 -->
<g id="node29" class="node">
<title>4527174465814226518</title>
<g id="a_node29"><a xlink:href="asplenia.svg" xlink:title="Variable(asplenia)">
<path fill="lightgrey" stroke="black" d="M3854.5,-828C3854.5,-828 3763.5,-828 3763.5,-828 3757.5,-828 3751.5,-822 3751.5,-816 3751.5,-816 3751.5,-804 3751.5,-804 3751.5,-798 3757.5,-792 3763.5,-792 3763.5,-792 3854.5,-792 3854.5,-792 3860.5,-792 3866.5,-798 3866.5,-804 3866.5,-804 3866.5,-816 3866.5,-816 3866.5,-822 3860.5,-828 3854.5,-828"/>
<text text-anchor="middle" x="3809" y="-806.3" font-family="Times,serif" font-size="14.00">Variable(asplenia)</text>
</a>
</g>
</g>
<!-- 4527174465814226518&#45;&gt;3509576877858601689 -->
<g id="edge50" class="edge">
<title>4527174465814226518&#45;&gt;3509576877858601689</title>
<path fill="none" stroke="lightgrey" d="M3809,-791.95C3809,-765.29 3809,-712.11 3809,-667 3809,-667 3809,-667 3809,-377 3809,-299.86 3883.95,-309.61 3958,-288 4132.08,-237.19 5472.43,-234.96 5715.32,-234.97"/>
<polygon fill="lightgrey" stroke="lightgrey" points="5715.42,-238.47 5725.42,-234.98 5715.42,-231.47 5715.42,-238.47"/>
</g>
<!-- 7276356431061604826 -->
<g id="node30" class="node">
<title>7276356431061604826</title>
<g id="a_node30"><a xlink:href="learndis.svg" xlink:title="Variable(learndis)">
<path fill="lightgrey" stroke="black" d="M3985.5,-828C3985.5,-828 3896.5,-828 3896.5,-828 3890.5,-828 3884.5,-822 3884.5,-816 3884.5,-816 3884.5,-804 3884.5,-804 3884.5,-798 3890.5,-792 3896.5,-792 3896.5,-792 3985.5,-792 3985.5,-792 3991.5,-792 3997.5,-798 3997.5,-804 3997.5,-804 3997.5,-816 3997.5,-816 3997.5,-822 3991.5,-828 3985.5,-828"/>
<text text-anchor="middle" x="3941" y="-806.3" font-family="Times,serif" font-size="14.00">Variable(learndis)</text>
</a>
</g>
</g>
<!-- 7276356431061604826&#45;&gt;3509576877858601689 -->
<g id="edge51" class="edge">
<title>7276356431061604826&#45;&gt;3509576877858601689</title>
<path fill="none" stroke="lightgrey" d="M3941,-791.95C3941,-765.29 3941,-712.11 3941,-667 3941,-667 3941,-667 3941,-377 3941,-285.36 4037.97,-309.73 4127,-288 4285.68,-249.26 5485.28,-237.26 5715.03,-235.3"/>
<polygon fill="lightgrey" stroke="lightgrey" points="5715.25,-238.8 5725.22,-235.22 5715.2,-231.8 5715.25,-238.8"/>
</g>
<!-- 8588281403506945925 -->
<g id="node31" class="node">
<title>8588281403506945925</title>
<g id="a_node31"><a xlink:href="has_follow_up_previous_6weeks.svg" xlink:title="Variable(has_follow_up_pre...)">
<path fill="lightgrey" stroke="black" d="M4190,-828C4190,-828 4028,-828 4028,-828 4022,-828 4016,-822 4016,-816 4016,-816 4016,-804 4016,-804 4016,-798 4022,-792 4028,-792 4028,-792 4190,-792 4190,-792 4196,-792 4202,-798 4202,-804 4202,-804 4202,-816 4202,-816 4202,-822 4196,-828 4190,-828"/>
<text text-anchor="middle" x="4109" y="-806.3" font-family="Times,serif" font-size="14.00">Variable(has_follow_up_pre...)</text>
</a>
</g>
</g>
<!-- 8588281403506945925&#45;&gt;3509576877858601689 -->
<g id="edge52" class="edge">
<title>8588281403506945925&#45;&gt;3509576877858601689</title>
<path fill="none" stroke="lightgrey" d="M4109,-791.95C4109,-765.29 4109,-712.11 4109,-667 4109,-667 4109,-667 4109,-377 4109,-289.35 4200.12,-309.87 4285,-288 4427,-251.42 5498.73,-237.79 5715.02,-235.4"/>
<polygon fill="lightgrey" stroke="lightgrey" points="5715.27,-238.89 5725.24,-235.29 5715.2,-231.9 5715.27,-238.89"/>
</g>
<!-- 5798290827974159016 -->
<g id="node32" class="node">
<title>5798290827974159016</title>
<g id="a_node32"><a xlink:href="stp.svg" xlink:title="Variable(stp)">
<path fill="lightgrey" stroke="black" d="M4294,-828C4294,-828 4232,-828 4232,-828 4226,-828 4220,-822 4220,-816 4220,-816 4220,-804 4220,-804 4220,-798 4226,-792 4232,-792 4232,-792 4294,-792 4294,-792 4300,-792 4306,-798 4306,-804 4306,-804 4306,-816 4306,-816 4306,-822 4300,-828 4294,-828"/>
<text text-anchor="middle" x="4263" y="-806.3" font-family="Times,serif" font-size="14.00">Variable(stp)</text>
</a>
</g>
</g>
<!-- 5798290827974159016&#45;&gt;3509576877858601689 -->
<g id="edge53" class="edge">
<title>5798290827974159016&#45;&gt;3509576877858601689</title>
<path fill="none" stroke="lightgrey" d="M4263,-791.95C4263,-765.29 4263,-712.11 4263,-667 4263,-667 4263,-667 4263,-377 4263,-301.01 4336.25,-309.98 4409,-288 4536.85,-249.37 5509.59,-237.46 5714.99,-235.36"/>
<polygon fill="lightgrey" stroke="lightgrey" points="5715.3,-238.86 5725.27,-235.26 5715.23,-231.86 5715.3,-238.86"/>
</g>
<!-- 1599624066783601839 -->
<g id="node33" class="node">
<title>1599624066783601839</title>
<g id="a_node33"><a xlink:href="rural_urban.svg" xlink:title="Variable(rural_urban)">
<path fill="lightgrey" stroke="black" d="M4446,-828C4446,-828 4336,-828 4336,-828 4330,-828 4324,-822 4324,-816 4324,-816 4324,-804 4324,-804 4324,-798 4330,-792 4336,-792 4336,-792 4446,-792 4446,-792 4452,-792 4458,-798 4458,-804 4458,-804 4458,-816 4458,-816 4458,-822 4452,-828 4446,-828"/>
<text text-anchor="middle" x="4391" y="-806.3" font-family="Times,serif" font-size="14.00">Variable(rural_urban)</text>
</a>
</g>
</g>
<!-- 1599624066783601839&#45;&gt;3509576877858601689 -->
<g id="edge54" class="edge">
<title>1599624066783601839&#45;&gt;3509576877858601689</title>
<path fill="none" stroke="lightgrey" d="M4391,-791.95C4391,-765.29 4391,-712.11 4391,-667 4391,-667 4391,-667 4391,-377 4391,-282.54 4492.22,-310.33 4584,-288 4805.98,-233.98 5540.19,-233.97 5715.27,-234.77"/>
<polygon fill="lightgrey" stroke="lightgrey" points="5715.28,-238.27 5725.3,-234.81 5715.31,-231.27 5715.28,-238.27"/>
</g>
<!-- 5740228189149415266 -->
<g id="node34" class="node">
<title>5740228189149415266</title>
<g id="a_node34"><a xlink:href="admitted_planned_date.svg" xlink:title="Variable(admitted_planned_...)">
<path fill="lightgrey" stroke="black" d="M4650,-828C4650,-828 4488,-828 4488,-828 4482,-828 4476,-822 4476,-816 4476,-816 4476,-804 4476,-804 4476,-798 4482,-792 4488,-792 4488,-792 4650,-792 4650,-792 4656,-792 4662,-798 4662,-804 4662,-804 4662,-816 4662,-816 4662,-822 4656,-828 4650,-828"/>
<text text-anchor="middle" x="4569" y="-806.3" font-family="Times,serif" font-size="14.00">Variable(admitted_planned_...)</text>
</a>
</g>
</g>
<!-- 5740228189149415266&#45;&gt;3509576877858601689 -->
<g id="edge55" class="edge">
<title>5740228189149415266&#45;&gt;3509576877858601689</title>
<path fill="none" stroke="lightgrey" d="M4569,-791.95C4569,-765.29 4569,-712.11 4569,-667 4569,-667 4569,-667 4569,-377 4569,-271.11 4686.64,-311 4790,-288 4970.96,-247.74 5559.38,-237.47 5714.97,-235.44"/>
<polygon fill="lightgrey" stroke="lightgrey" points="5715.46,-238.93 5725.41,-235.3 5715.37,-231.93 5715.46,-238.93"/>
</g>
<!-- 3537668188118935942 -->
<g id="node35" class="node">
<title>3537668188118935942</title>
<g id="a_node35"><a xlink:href="primary_care_covid_case_date.svg" xlink:title="Variable(primary_care_covi...)">
<path fill="lightgrey" stroke="black" d="M4852.5,-828C4852.5,-828 4691.5,-828 4691.5,-828 4685.5,-828 4679.5,-822 4679.5,-816 4679.5,-816 4679.5,-804 4679.5,-804 4679.5,-798 4685.5,-792 4691.5,-792 4691.5,-792 4852.5,-792 4852.5,-792 4858.5,-792 4864.5,-798 4864.5,-804 4864.5,-804 4864.5,-816 4864.5,-816 4864.5,-822 4858.5,-828 4852.5,-828"/>
<text text-anchor="middle" x="4772" y="-806.3" font-family="Times,serif" font-size="14.00">Variable(primary_care_covi...)</text>
</a>
</g>
</g>
<!-- 3537668188118935942&#45;&gt;3509576877858601689 -->
<g id="edge56" class="edge">
<title>3537668188118935942&#45;&gt;3509576877858601689</title>
<path fill="none" stroke="lightgrey" d="M4772,-791.95C4772,-765.29 4772,-712.11 4772,-667 4772,-667 4772,-667 4772,-377 4772,-273.17 4886.9,-311.67 4988,-288 5128.72,-255.05 5581.02,-239.87 5715.16,-236.02"/>
<polygon fill="lightgrey" stroke="lightgrey" points="5715.45,-239.51 5725.35,-235.73 5715.25,-232.51 5715.45,-239.51"/>
</g>
<!-- 4167136521976511887 -->
<g id="node36" class="node">
<title>4167136521976511887</title>
<g id="a_node36"><a xlink:href="chronic_kidney_disease.svg" xlink:title="Variable(chronic_kidney_di...)">
<path fill="lightgrey" stroke="black" d="M5053.5,-828C5053.5,-828 4894.5,-828 4894.5,-828 4888.5,-828 4882.5,-822 4882.5,-816 4882.5,-816 4882.5,-804 4882.5,-804 4882.5,-798 4888.5,-792 4894.5,-792 4894.5,-792 5053.5,-792 5053.5,-792 5059.5,-792 5065.5,-798 5065.5,-804 5065.5,-804 5065.5,-816 5065.5,-816 5065.5,-822 5059.5,-828 5053.5,-828"/>
<text text-anchor="middle" x="4974" y="-806.3" font-family="Times,serif" font-size="14.00">Variable(chronic_kidney_di...)</text>
</a>
</g>
</g>
<!-- 4167136521976511887&#45;&gt;3509576877858601689 -->
<g id="edge57" class="edge">
<title>4167136521976511887&#45;&gt;3509576877858601689</title>
<path fill="none" stroke="lightgrey" d="M4974,-791.95C4974,-765.29 4974,-712.11 4974,-667 4974,-667 4974,-667 4974,-377 4974,-264.07 5101.98,-313.5 5212,-288 5397.3,-245.05 5626.18,-236.88 5715.14,-235.34"/>
<polygon fill="lightgrey" stroke="lightgrey" points="5715.34,-238.84 5725.29,-235.19 5715.24,-231.84 5715.34,-238.84"/>
</g>
<!-- 6670649817898923012 -->
<g id="node37" class="node">
<title>6670649817898923012</title>
<g id="a_node37"><a xlink:href="emergencyhosp_date.svg" xlink:title="Variable(emergencyhosp_date)">
<path fill="lightgrey" stroke="black" d="M5256.5,-828C5256.5,-828 5095.5,-828 5095.5,-828 5089.5,-828 5083.5,-822 5083.5,-816 5083.5,-816 5083.5,-804 5083.5,-804 5083.5,-798 5089.5,-792 5095.5,-792 5095.5,-792 5256.5,-792 5256.5,-792 5262.5,-792 5268.5,-798 5268.5,-804 5268.5,-804 5268.5,-816 5268.5,-816 5268.5,-822 5262.5,-828 5256.5,-828"/>
<text text-anchor="middle" x="5176" y="-806.3" font-family="Times,serif" font-size="14.00">Variable(emergencyhosp_date)</text>
</a>
</g>
</g>
<!-- 6670649817898923012&#45;&gt;3509576877858601689 -->
<g id="edge58" class="edge">
<title>6670649817898923012&#45;&gt;3509576877858601689</title>
<path fill="none" stroke="lightgrey" d="M5176,-791.95C5176,-765.29 5176,-712.11 5176,-667 5176,-667 5176,-667 5176,-377 5176,-265.62 5586.51,-241.11 5715.02,-236.16"/>
<polygon fill="lightgrey" stroke="lightgrey" points="5715.31,-239.65 5725.17,-235.79 5715.05,-232.66 5715.31,-239.65"/>
</g>
<!-- 7142007055908598246 -->
<g id="node38" class="node">
<title>7142007055908598246</title>
<g id="a_node38"><a xlink:href="msoa.svg" xlink:title="Variable(msoa)">
<path fill="lightgrey" stroke="black" d="M5375,-828C5375,-828 5299,-828 5299,-828 5293,-828 5287,-822 5287,-816 5287,-816 5287,-804 5287,-804 5287,-798 5293,-792 5299,-792 5299,-792 5375,-792 5375,-792 5381,-792 5387,-798 5387,-804 5387,-804 5387,-816 5387,-816 5387,-822 5381,-828 5375,-828"/>
<text text-anchor="middle" x="5337" y="-806.3" font-family="Times,serif" font-size="14.00">Variable(msoa)</text>
</a>
</g>
</g>
<!-- 7142007055908598246&#45;&gt;3509576877858601689 -->
<g id="edge59" class="edge">
<title>7142007055908598246&#45;&gt;3509576877858601689</title>
<path fill="none" stroke="lightgrey" d="M5337,-791.95C5337,-765.29 5337,-712.11 5337,-667 5337,-667 5337,-667 5337,-377 5337,-297.49 5612.62,-253.34 5715.17,-239.66"/>
<polygon fill="lightgrey" stroke="lightgrey" points="5715.92,-243.09 5725.38,-238.32 5715.01,-236.15 5715.92,-243.09"/>
</g>
<!-- 6209917712092685328 -->
<g id="node39" class="node">
<title>6209917712092685328</title>
<g id="a_node39"><a xlink:href="postest_0_date.svg" xlink:title="Variable(postest_0_date)">
<path fill="lightgrey" stroke="black" d="M5544.5,-828C5544.5,-828 5417.5,-828 5417.5,-828 5411.5,-828 5405.5,-822 5405.5,-816 5405.5,-816 5405.5,-804 5405.5,-804 5405.5,-798 5411.5,-792 5417.5,-792 5417.5,-792 5544.5,-792 5544.5,-792 5550.5,-792 5556.5,-798 5556.5,-804 5556.5,-804 5556.5,-816 5556.5,-816 5556.5,-822 5550.5,-828 5544.5,-828"/>
<text text-anchor="middle" x="5481" y="-806.3" font-family="Times,serif" font-size="14.00">Variable(postest_0_date)</text>
</a>
</g>
</g>
<!-- 6209917712092685328&#45;&gt;3509576877858601689 -->
<g id="edge60" class="edge">
<title>6209917712092685328&#45;&gt;3509576877858601689</title>
<path fill="none" stroke="lightgrey" d="M5481,-791.95C5481,-765.29 5481,-712.11 5481,-667 5481,-667 5481,-667 5481,-377 5481,-272.66 5640.23,-244.86 5715.03,-237.55"/>
<polygon fill="lightgrey" stroke="lightgrey" points="5715.78,-241 5725.42,-236.62 5715.15,-234.03 5715.78,-241"/>
</g>
<!-- 1517716104962599745 -->
<g id="node40" class="node">
<title>1517716104962599745</title>
<g id="a_node40"><a xlink:href="chronic_resp_disease.svg" xlink:title="Variable(chronic_resp_disease)">
<path fill="lightgrey" stroke="black" d="M5749,-828C5749,-828 5587,-828 5587,-828 5581,-828 5575,-822 5575,-816 5575,-816 5575,-804 5575,-804 5575,-798 5581,-792 5587,-792 5587,-792 5749,-792 5749,-792 5755,-792 5761,-798 5761,-804 5761,-804 5761,-816 5761,-816 5761,-822 5755,-828 5749,-828"/>
<text text-anchor="middle" x="5668" y="-806.3" font-family="Times,serif" font-size="14.00">Variable(chronic_resp_disease)</text>
</a>
</g>
</g>
<!-- 1517716104962599745&#45;&gt;3509576877858601689 -->
<g id="edge61" class="edge">
<title>1517716104962599745&#45;&gt;3509576877858601689</title>
<path fill="none" stroke="lightgrey" d="M5668,-791.95C5668,-765.29 5668,-712.11 5668,-667 5668,-667 5668,-667 5668,-377 5668,-330.45 5702.04,-285.95 5727.04,-259.55"/>
<polygon fill="lightgrey" stroke="lightgrey" points="5729.66,-261.87 5734.14,-252.27 5724.65,-256.98 5729.66,-261.87"/>
</g>
<!-- 5327284127719854644 -->
<g id="node41" class="node">
<title>5327284127719854644</title>
<g id="a_node41"><a xlink:href="cev_ever.svg" xlink:title="Variable(cev_ever)">
<path fill="lightgrey" stroke="black" d="M5886.5,-828C5886.5,-828 5791.5,-828 5791.5,-828 5785.5,-828 5779.5,-822 5779.5,-816 5779.5,-816 5779.5,-804 5779.5,-804 5779.5,-798 5785.5,-792 5791.5,-792 5791.5,-792 5886.5,-792 5886.5,-792 5892.5,-792 5898.5,-798 5898.5,-804 5898.5,-804 5898.5,-816 5898.5,-816 5898.5,-822 5892.5,-828 5886.5,-828"/>
<text text-anchor="middle" x="5839" y="-806.3" font-family="Times,serif" font-size="14.00">Variable(cev_ever)</text>
</a>
</g>
</g>
<!-- 5327284127719854644&#45;&gt;3509576877858601689 -->
<g id="edge62" class="edge">
<title>5327284127719854644&#45;&gt;3509576877858601689</title>
<path fill="none" stroke="lightgrey" d="M5839,-791.95C5839,-765.29 5839,-712.11 5839,-667 5839,-667 5839,-667 5839,-377 5839,-330.31 5804.56,-285.84 5779.27,-259.49"/>
<polygon fill="lightgrey" stroke="lightgrey" points="5781.61,-256.88 5772.09,-252.23 5776.63,-261.8 5781.61,-256.88"/>
</g>
<!-- 6313462188662218923 -->
<g id="node42" class="node">
<title>6313462188662218923</title>
<g id="a_node42"><a xlink:href="care_home_tpp.svg" xlink:title="Variable(care_home_tpp)">
<path fill="lightgrey" stroke="black" d="M6059.5,-828C6059.5,-828 5928.5,-828 5928.5,-828 5922.5,-828 5916.5,-822 5916.5,-816 5916.5,-816 5916.5,-804 5916.5,-804 5916.5,-798 5922.5,-792 5928.5,-792 5928.5,-792 6059.5,-792 6059.5,-792 6065.5,-792 6071.5,-798 6071.5,-804 6071.5,-804 6071.5,-816 6071.5,-816 6071.5,-822 6065.5,-828 6059.5,-828"/>
<text text-anchor="middle" x="5994" y="-806.3" font-family="Times,serif" font-size="14.00">Variable(care_home_tpp)</text>
</a>
</g>
</g>
<!-- 6313462188662218923&#45;&gt;3509576877858601689 -->
<g id="edge63" class="edge">
<title>6313462188662218923&#45;&gt;3509576877858601689</title>
<path fill="none" stroke="lightgrey" d="M5994,-791.95C5994,-765.29 5994,-712.11 5994,-667 5994,-667 5994,-667 5994,-377 5994,-283.88 5858.8,-250.59 5790.93,-239.75"/>
<polygon fill="lightgrey" stroke="lightgrey" points="5791.06,-236.23 5780.65,-238.19 5790.01,-243.15 5791.06,-236.23"/>
</g>
<!-- 6935829087527829727 -->
<g id="node43" class="node">
<title>6935829087527829727</title>
<g id="a_node43"><a xlink:href="region.svg" xlink:title="Variable(region)">
<path fill="lightgrey" stroke="black" d="M6182.5,-828C6182.5,-828 6101.5,-828 6101.5,-828 6095.5,-828 6089.5,-822 6089.5,-816 6089.5,-816 6089.5,-804 6089.5,-804 6089.5,-798 6095.5,-792 6101.5,-792 6101.5,-792 6182.5,-792 6182.5,-792 6188.5,-792 6194.5,-798 6194.5,-804 6194.5,-804 6194.5,-816 6194.5,-816 6194.5,-822 6188.5,-828 6182.5,-828"/>
<text text-anchor="middle" x="6142" y="-806.3" font-family="Times,serif" font-size="14.00">Variable(region)</text>
</a>
</g>
</g>
<!-- 6935829087527829727&#45;&gt;3509576877858601689 -->
<g id="edge64" class="edge">
<title>6935829087527829727&#45;&gt;3509576877858601689</title>
<path fill="none" stroke="lightgrey" d="M6142,-791.95C6142,-765.29 6142,-712.11 6142,-667 6142,-667 6142,-667 6142,-377 6142,-302.69 5888.36,-255.8 5790.7,-240.5"/>
<polygon fill="lightgrey" stroke="lightgrey" points="5791.08,-237.02 5780.66,-238.95 5790.01,-243.94 5791.08,-237.02"/>
</g>
<!-- 8473153233318792656 -->
<g id="node44" class="node">
<title>8473153233318792656</title>
<g id="a_node44"><a xlink:href="endoflife.svg" xlink:title="Variable(endoflife)">
<path fill="lightgrey" stroke="black" d="M6319.5,-828C6319.5,-828 6224.5,-828 6224.5,-828 6218.5,-828 6212.5,-822 6212.5,-816 6212.5,-816 6212.5,-804 6212.5,-804 6212.5,-798 6218.5,-792 6224.5,-792 6224.5,-792 6319.5,-792 6319.5,-792 6325.5,-792 6331.5,-798 6331.5,-804 6331.5,-804 6331.5,-816 6331.5,-816 6331.5,-822 6325.5,-828 6319.5,-828"/>
<text text-anchor="middle" x="6272" y="-806.3" font-family="Times,serif" font-size="14.00">Variable(endoflife)</text>
</a>
</g>
</g>
<!-- 8473153233318792656&#45;&gt;3509576877858601689 -->
<g id="edge65" class="edge">
<title>8473153233318792656&#45;&gt;3509576877858601689</title>
<path fill="none" stroke="lightgrey" d="M6272,-791.95C6272,-765.29 6272,-712.11 6272,-667 6272,-667 6272,-667 6272,-377 6272,-277.14 5910.01,-245.03 5790.66,-237.16"/>
<polygon fill="lightgrey" stroke="lightgrey" points="5790.74,-233.66 5780.54,-236.52 5790.29,-240.65 5790.74,-233.66"/>
</g>
<!-- 2775500690548065988 -->
<g id="node45" class="node">
<title>2775500690548065988</title>
<g id="a_node45"><a xlink:href="imd_Q5.svg" xlink:title="Variable(imd_Q5)">
<path fill="lightgrey" stroke="black" d="M6454,-828C6454,-828 6362,-828 6362,-828 6356,-828 6350,-822 6350,-816 6350,-816 6350,-804 6350,-804 6350,-798 6356,-792 6362,-792 6362,-792 6454,-792 6454,-792 6460,-792 6466,-798 6466,-804 6466,-804 6466,-816 6466,-816 6466,-822 6460,-828 6454,-828"/>
<text text-anchor="middle" x="6408" y="-806.3" font-family="Times,serif" font-size="14.00">Variable(imd_Q5)</text>
</a>
</g>
</g>
<!-- 2775500690548065988&#45;&gt;3509576877858601689 -->
<g id="edge66" class="edge">
<title>2775500690548065988&#45;&gt;3509576877858601689</title>
<path fill="none" stroke="lightgrey" d="M6408,-791.95C6408,-765.29 6408,-712.11 6408,-667 6408,-667 6408,-667 6408,-377 6408,-249.85 5930.59,-236.31 5790.94,-235.06"/>
<polygon fill="lightgrey" stroke="lightgrey" points="5790.75,-231.56 5780.73,-234.99 5790.7,-238.56 5790.75,-231.56"/>
</g>
<!-- 7370086985228654517 -->
<g id="node46" class="node">
<title>7370086985228654517</title>
<g id="a_node46"><a xlink:href="covid_vax_pfizer_1_date.svg" xlink:title="Variable(covid_vax_pfizer_...)">
<path fill="lightgrey" stroke="black" d="M8493.5,-828C8493.5,-828 8334.5,-828 8334.5,-828 8328.5,-828 8322.5,-822 8322.5,-816 8322.5,-816 8322.5,-804 8322.5,-804 8322.5,-798 8328.5,-792 8334.5,-792 8334.5,-792 8493.5,-792 8493.5,-792 8499.5,-792 8505.5,-798 8505.5,-804 8505.5,-804 8505.5,-816 8505.5,-816 8505.5,-822 8499.5,-828 8493.5,-828"/>
<text text-anchor="middle" x="8414" y="-806.3" font-family="Times,serif" font-size="14.00">Variable(covid_vax_pfizer_...)</text>
</a>
</g>
</g>
<!-- 7370086985228654517&#45;&gt;3509576877858601689 -->
<g id="edge67" class="edge">
<title>7370086985228654517&#45;&gt;3509576877858601689</title>
<path fill="none" stroke="lightgrey" d="M8398.38,-791.62C8377.2,-766.19 8342,-716.48 8342,-667 8342,-667 8342,-667 8342,-377 8342,-238.35 8179.96,-309.57 8043,-288 7811.87,-251.6 6070.27,-237.33 5790.79,-235.27"/>
<polygon fill="lightgrey" stroke="lightgrey" points="5790.77,-231.77 5780.74,-235.19 5790.71,-238.77 5790.77,-231.77"/>
</g>
<!-- 4225002590628906338 -->
<g id="node77" class="node">
<title>4225002590628906338</title>
<path fill="none" stroke="black" d="M9254.5,-324C9254.5,-324 9097.5,-324 9097.5,-324 9091.5,-324 9085.5,-318 9085.5,-312 9085.5,-312 9085.5,-300 9085.5,-300 9085.5,-294 9091.5,-288 9097.5,-288 9097.5,-288 9254.5,-288 9254.5,-288 9260.5,-288 9266.5,-294 9266.5,-300 9266.5,-300 9266.5,-312 9266.5,-312 9266.5,-318 9260.5,-324 9254.5,-324"/>
<text text-anchor="middle" x="9176" y="-302.3" font-family="Times,serif" font-size="14.00">SelectColumn(product_name)</text>
</g>
<!-- 7370086985228654517&#45;&gt;4225002590628906338 -->
<g id="edge68" class="edge">
<title>7370086985228654517&#45;&gt;4225002590628906338</title>
<path fill="none" stroke="lightgrey" d="M8429.84,-791.65C8451.31,-766.27 8487,-716.62 8487,-667 8487,-667 8487,-667 8487,-449 8487,-330.36 8883.8,-310.01 9075.15,-307.09"/>
<polygon fill="lightgrey" stroke="lightgrey" points="9075.27,-310.59 9085.22,-306.95 9075.17,-303.59 9075.27,-310.59"/>
</g>
<!-- 8208274307224574846 -->
<g id="node47" class="node">
<title>8208274307224574846</title>
<g id="a_node47"><a xlink:href="asthma.svg" xlink:title="Variable(asthma)">
<path fill="lightgrey" stroke="black" d="M6582,-828C6582,-828 6496,-828 6496,-828 6490,-828 6484,-822 6484,-816 6484,-816 6484,-804 6484,-804 6484,-798 6490,-792 6496,-792 6496,-792 6582,-792 6582,-792 6588,-792 6594,-798 6594,-804 6594,-804 6594,-816 6594,-816 6594,-822 6588,-828 6582,-828"/>
<text text-anchor="middle" x="6539" y="-806.3" font-family="Times,serif" font-size="14.00">Variable(asthma)</text>
</a>
</g>
</g>
<!-- 8208274307224574846&#45;&gt;3509576877858601689 -->
<g id="edge69" class="edge">
<title>8208274307224574846&#45;&gt;3509576877858601689</title>
<path fill="none" stroke="lightgrey" d="M6539,-791.95C6539,-765.29 6539,-712.11 6539,-667 6539,-667 6539,-667 6539,-377 6539,-284.15 6439.62,-312.26 6350,-288 6243.7,-259.23 5905.04,-241.8 5790.94,-236.63"/>
<polygon fill="lightgrey" stroke="lightgrey" points="5790.76,-233.12 5780.61,-236.17 5790.45,-240.11 5790.76,-233.12"/>
</g>
<!-- 2961624694875422536 -->
<g id="node48" class="node">
<title>2961624694875422536</title>
<g id="a_node48"><a xlink:href="covid_vax_pfizer_3_date.svg" xlink:title="Variable(covid_vax_pfizer_...)">
<path fill="lightgrey" stroke="black" d="M8905.5,-828C8905.5,-828 8746.5,-828 8746.5,-828 8740.5,-828 8734.5,-822 8734.5,-816 8734.5,-816 8734.5,-804 8734.5,-804 8734.5,-798 8740.5,-792 8746.5,-792 8746.5,-792 8905.5,-792 8905.5,-792 8911.5,-792 8917.5,-798 8917.5,-804 8917.5,-804 8917.5,-816 8917.5,-816 8917.5,-822 8911.5,-828 8905.5,-828"/>
<text text-anchor="middle" x="8826" y="-806.3" font-family="Times,serif" font-size="14.00">Variable(covid_vax_pfizer_...)</text>
</a>
</g>
</g>
<!-- 2961624694875422536&#45;&gt;3509576877858601689 -->
<g id="edge70" class="edge">
<title>2961624694875422536&#45;&gt;3509576877858601689</title>
<path fill="none" stroke="lightgrey" d="M8807.36,-791.69C8782.61,-766.72 8742,-717.98 8742,-667 8742,-667 8742,-667 8742,-377 8742,-184.45 8509.31,-309.86 8318,-288 7797.79,-228.55 6069.65,-233.59 5791.06,-234.81"/>
<polygon fill="lightgrey" stroke="lightgrey" points="5790.66,-231.32 5780.68,-234.86 5790.7,-238.32 5790.66,-231.32"/>
</g>
<!-- 2961624694875422536&#45;&gt;4225002590628906338 -->
<g id="edge71" class="edge">
<title>2961624694875422536&#45;&gt;4225002590628906338</title>
<path fill="none" stroke="lightgrey" d="M8855.84,-791.83C8891.96,-768.57 8948,-723.39 8948,-667 8948,-667 8948,-667 8948,-521 8948,-425.08 9056.61,-359.62 9123.91,-328.27"/>
<polygon fill="lightgrey" stroke="lightgrey" points="9125.47,-331.41 9133.11,-324.08 9122.56,-325.04 9125.47,-331.41"/>
</g>
<!-- 8916256095301715678 -->
<g id="node49" class="node">
<title>8916256095301715678</title>
<g id="a_node49"><a xlink:href="potentialcovidcritcare_3_ccdays.svg" xlink:title="Variable(potentialcovidcri...)">
<path fill="lightgrey" stroke="black" d="M6773.5,-828C6773.5,-828 6624.5,-828 6624.5,-828 6618.5,-828 6612.5,-822 6612.5,-816 6612.5,-816 6612.5,-804 6612.5,-804 6612.5,-798 6618.5,-792 6624.5,-792 6624.5,-792 6773.5,-792 6773.5,-792 6779.5,-792 6785.5,-798 6785.5,-804 6785.5,-804 6785.5,-816 6785.5,-816 6785.5,-822 6779.5,-828 6773.5,-828"/>
<text text-anchor="middle" x="6699" y="-806.3" font-family="Times,serif" font-size="14.00">Variable(potentialcovidcri...)</text>
</a>
</g>
</g>
<!-- 8916256095301715678&#45;&gt;3509576877858601689 -->
<g id="edge72" class="edge">
<title>8916256095301715678&#45;&gt;3509576877858601689</title>
<path fill="none" stroke="lightgrey" d="M6699,-791.95C6699,-765.29 6699,-712.11 6699,-667 6699,-667 6699,-667 6699,-377 6699,-259.06 6564.38,-312.47 6449,-288 6202.02,-235.61 5896.05,-233.39 5790.7,-234.38"/>
<polygon fill="lightgrey" stroke="lightgrey" points="5790.53,-230.88 5780.57,-234.49 5790.6,-237.88 5790.53,-230.88"/>
</g>
<!-- 8860865523904995829 -->
<g id="node50" class="node">
<title>8860865523904995829</title>
<g id="a_node50"><a xlink:href="covid_vax_moderna_2_date.svg" xlink:title="Variable(covid_vax_moderna...)">
<path fill="lightgrey" stroke="black" d="M9116.5,-828C9116.5,-828 8947.5,-828 8947.5,-828 8941.5,-828 8935.5,-822 8935.5,-816 8935.5,-816 8935.5,-804 8935.5,-804 8935.5,-798 8941.5,-792 8947.5,-792 8947.5,-792 9116.5,-792 9116.5,-792 9122.5,-792 9128.5,-798 9128.5,-804 9128.5,-804 9128.5,-816 9128.5,-816 9128.5,-822 9122.5,-828 9116.5,-828"/>
<text text-anchor="middle" x="9032" y="-806.3" font-family="Times,serif" font-size="14.00">Variable(covid_vax_moderna...)</text>
</a>
</g>
</g>
<!-- 8860865523904995829&#45;&gt;3509576877858601689 -->
<g id="edge73" class="edge">
<title>8860865523904995829&#45;&gt;3509576877858601689</title>
<path fill="none" stroke="lightgrey" d="M9022.47,-791.66C9009,-765.47 8986,-713.9 8986,-667 8986,-667 8986,-667 8986,-521 8986,-297.36 8760.4,-325.92 8540,-288 8257.05,-239.32 6103.76,-235.35 5790.87,-235.03"/>
<polygon fill="lightgrey" stroke="lightgrey" points="5790.52,-231.53 5780.52,-235.02 5790.52,-238.53 5790.52,-231.53"/>
</g>
<!-- 8860865523904995829&#45;&gt;4225002590628906338 -->
<g id="edge74" class="edge">
<title>8860865523904995829&#45;&gt;4225002590628906338</title>
<path fill="none" stroke="lightgrey" d="M9035.24,-791.58C9039.91,-764.87 9048,-712.15 9048,-667 9048,-667 9048,-667 9048,-593 9048,-488.78 9119.68,-380.38 9155.76,-332.42"/>
<polygon fill="lightgrey" stroke="lightgrey" points="9158.77,-334.25 9162.06,-324.18 9153.2,-330 9158.77,-334.25"/>
</g>
<!-- 5286539410835567020 -->
<g id="node51" class="node">
<title>5286539410835567020</title>
<g id="a_node51"><a xlink:href="covid_vax_disease_4_date.svg" xlink:title="Variable(covid_vax_disease...)">
<path fill="lightgrey" stroke="black" d="M6976,-828C6976,-828 6816,-828 6816,-828 6810,-828 6804,-822 6804,-816 6804,-816 6804,-804 6804,-804 6804,-798 6810,-792 6816,-792 6816,-792 6976,-792 6976,-792 6982,-792 6988,-798 6988,-804 6988,-804 6988,-816 6988,-816 6988,-822 6982,-828 6976,-828"/>
<text text-anchor="middle" x="6896" y="-806.3" font-family="Times,serif" font-size="14.00">Variable(covid_vax_disease...)</text>
</a>
</g>
</g>
<!-- 5286539410835567020&#45;&gt;3509576877858601689 -->
<g id="edge75" class="edge">
<title>5286539410835567020&#45;&gt;3509576877858601689</title>
<path fill="none" stroke="lightgrey" d="M6896,-791.95C6896,-765.29 6896,-712.11 6896,-667 6896,-667 6896,-667 6896,-377 6896,-262.99 5988.93,-239.42 5790.89,-235.63"/>
<polygon fill="lightgrey" stroke="lightgrey" points="5790.75,-232.13 5780.69,-235.44 5790.62,-239.13 5790.75,-232.13"/>
</g>
<!-- 4664077085798517115 -->
<g id="node52" class="node">
<title>4664077085798517115</title>
<g id="a_node52"><a xlink:href="immunosuppressed.svg" xlink:title="Variable(immunosuppressed)">
<path fill="lightgrey" stroke="black" d="M7170,-828C7170,-828 7018,-828 7018,-828 7012,-828 7006,-822 7006,-816 7006,-816 7006,-804 7006,-804 7006,-798 7012,-792 7018,-792 7018,-792 7170,-792 7170,-792 7176,-792 7182,-798 7182,-804 7182,-804 7182,-816 7182,-816 7182,-822 7176,-828 7170,-828"/>
<text text-anchor="middle" x="7094" y="-806.3" font-family="Times,serif" font-size="14.00">Variable(immunosuppressed)</text>
</a>
</g>
</g>
<!-- 4664077085798517115&#45;&gt;3509576877858601689 -->
<g id="edge76" class="edge">
<title>4664077085798517115&#45;&gt;3509576877858601689</title>
<path fill="none" stroke="lightgrey" d="M7094,-791.95C7094,-765.29 7094,-712.11 7094,-667 7094,-667 7094,-667 7094,-377 7094,-242.24 6009.32,-235.02 5791.01,-234.93"/>
<polygon fill="lightgrey" stroke="lightgrey" points="5790.7,-231.43 5780.7,-234.93 5790.7,-238.43 5790.7,-231.43"/>
</g>
<!-- 4643035591650878662 -->
<g id="node53" class="node">
<title>4643035591650878662</title>
<g id="a_node53"><a xlink:href="covidemergencyhosp_date.svg" xlink:title="Variable(covidemergencyhos...)">
<path fill="lightgrey" stroke="black" d="M7379.5,-828C7379.5,-828 7212.5,-828 7212.5,-828 7206.5,-828 7200.5,-822 7200.5,-816 7200.5,-816 7200.5,-804 7200.5,-804 7200.5,-798 7206.5,-792 7212.5,-792 7212.5,-792 7379.5,-792 7379.5,-792 7385.5,-792 7391.5,-798 7391.5,-804 7391.5,-804 7391.5,-816 7391.5,-816 7391.5,-822 7385.5,-828 7379.5,-828"/>
<text text-anchor="middle" x="7296" y="-806.3" font-family="Times,serif" font-size="14.00">Variable(covidemergencyhos...)</text>
</a>
</g>
</g>
<!-- 4643035591650878662&#45;&gt;3509576877858601689 -->
<g id="edge77" class="edge">
<title>4643035591650878662&#45;&gt;3509576877858601689</title>
<path fill="none" stroke="lightgrey" d="M7296,-791.95C7296,-765.29 7296,-712.11 7296,-667 7296,-667 7296,-667 7296,-377 7296,-222.52 7112.72,-311.3 6960,-288 6726.45,-252.37 5969.29,-238.41 5790.9,-235.57"/>
<polygon fill="lightgrey" stroke="lightgrey" points="5790.75,-232.06 5780.7,-235.41 5790.64,-239.06 5790.75,-232.06"/>
</g>
<!-- 5466229545929283277 -->
<g id="node54" class="node">
<title>5466229545929283277</title>
<g id="a_node54"><a xlink:href="covid_vax_pfizer_4_date.svg" xlink:title="Variable(covid_vax_pfizer_...)">
<path fill="lightgrey" stroke="black" d="M9317.5,-828C9317.5,-828 9158.5,-828 9158.5,-828 9152.5,-828 9146.5,-822 9146.5,-816 9146.5,-816 9146.5,-804 9146.5,-804 9146.5,-798 9152.5,-792 9158.5,-792 9158.5,-792 9317.5,-792 9317.5,-792 9323.5,-792 9329.5,-798 9329.5,-804 9329.5,-804 9329.5,-816 9329.5,-816 9329.5,-822 9323.5,-828 9317.5,-828"/>
<text text-anchor="middle" x="9238" y="-806.3" font-family="Times,serif" font-size="14.00">Variable(covid_vax_pfizer_...)</text>
</a>
</g>
</g>
<!-- 5466229545929283277&#45;&gt;3509576877858601689 -->
<g id="edge78" class="edge">
<title>5466229545929283277&#45;&gt;3509576877858601689</title>
<path fill="none" stroke="lightgrey" d="M9196.87,-791.9C9151.85,-770.12 9086,-727.85 9086,-667 9086,-667 9086,-667 9086,-593 9086,-368.73 8905.9,-320.54 8684,-288 8384.64,-244.1 6112.39,-236.03 5790.8,-235.1"/>
<polygon fill="lightgrey" stroke="lightgrey" points="5790.61,-231.6 5780.6,-235.07 5790.59,-238.6 5790.61,-231.6"/>
</g>
<!-- 5466229545929283277&#45;&gt;4225002590628906338 -->
<g id="edge79" class="edge">
<title>5466229545929283277&#45;&gt;4225002590628906338</title>
<path fill="none" stroke="lightgrey" d="M9227.64,-791.76C9212.99,-765.7 9188,-714.31 9188,-667 9188,-667 9188,-667 9188,-449 9188,-408.85 9183.18,-362.55 9179.65,-334.02"/>
<polygon fill="lightgrey" stroke="lightgrey" points="9183.11,-333.49 9178.37,-324.01 9176.16,-334.37 9183.11,-333.49"/>
</g>
<!-- 5396064260671611635 -->
<g id="node55" class="node">
<title>5396064260671611635</title>
<g id="a_node55"><a xlink:href="sev_obesity.svg" xlink:title="Variable(sev_obesity)">
<path fill="lightgrey" stroke="black" d="M7532,-828C7532,-828 7422,-828 7422,-828 7416,-828 7410,-822 7410,-816 7410,-816 7410,-804 7410,-804 7410,-798 7416,-792 7422,-792 7422,-792 7532,-792 7532,-792 7538,-792 7544,-798 7544,-804 7544,-804 7544,-816 7544,-816 7544,-822 7538,-828 7532,-828"/>
<text text-anchor="middle" x="7477" y="-806.3" font-family="Times,serif" font-size="14.00">Variable(sev_obesity)</text>
</a>
</g>
</g>
<!-- 5396064260671611635&#45;&gt;3509576877858601689 -->
<g id="edge80" class="edge">
<title>5396064260671611635&#45;&gt;3509576877858601689</title>
<path fill="none" stroke="lightgrey" d="M7477,-791.95C7477,-765.29 7477,-712.11 7477,-667 7477,-667 7477,-667 7477,-377 7477,-220.37 7290.95,-310.91 7136,-288 6865.83,-248.05 5984.93,-237.26 5790.99,-235.34"/>
<polygon fill="lightgrey" stroke="lightgrey" points="5790.77,-231.84 5780.74,-235.24 5790.71,-238.84 5790.77,-231.84"/>
</g>
<!-- 8148583382169038695 -->
<g id="node56" class="node">
<title>8148583382169038695</title>
<g id="a_node56"><a xlink:href="potentialcovidcritcare_1_date.svg" xlink:title="Variable(potentialcovidcri...)">
<path fill="lightgrey" stroke="black" d="M7723.5,-828C7723.5,-828 7574.5,-828 7574.5,-828 7568.5,-828 7562.5,-822 7562.5,-816 7562.5,-816 7562.5,-804 7562.5,-804 7562.5,-798 7568.5,-792 7574.5,-792 7574.5,-792 7723.5,-792 7723.5,-792 7729.5,-792 7735.5,-798 7735.5,-804 7735.5,-804 7735.5,-816 7735.5,-816 7735.5,-822 7729.5,-828 7723.5,-828"/>
<text text-anchor="middle" x="7649" y="-806.3" font-family="Times,serif" font-size="14.00">Variable(potentialcovidcri...)</text>
</a>
</g>
</g>
<!-- 8148583382169038695&#45;&gt;3509576877858601689 -->
<g id="edge81" class="edge">
<title>8148583382169038695&#45;&gt;3509576877858601689</title>
<path fill="none" stroke="lightgrey" d="M7649,-791.95C7649,-765.29 7649,-712.11 7649,-667 7649,-667 7649,-667 7649,-377 7649,-222.95 7466.4,-310.53 7314,-288 7006.67,-242.55 5998.88,-236 5790.79,-235.13"/>
<polygon fill="lightgrey" stroke="lightgrey" points="5790.69,-231.63 5780.67,-235.09 5790.66,-238.63 5790.69,-231.63"/>
</g>
<!-- 1286195963700239727 -->
<g id="node57" class="node">
<title>1286195963700239727</title>
<g id="a_node57"><a xlink:href="covid_vax_disease_3_date.svg" xlink:title="Variable(covid_vax_disease...)">
<path fill="lightgrey" stroke="black" d="M7926,-828C7926,-828 7766,-828 7766,-828 7760,-828 7754,-822 7754,-816 7754,-816 7754,-804 7754,-804 7754,-798 7760,-792 7766,-792 7766,-792 7926,-792 7926,-792 7932,-792 7938,-798 7938,-804 7938,-804 7938,-816 7938,-816 7938,-822 7932,-828 7926,-828"/>
<text text-anchor="middle" x="7846" y="-806.3" font-family="Times,serif" font-size="14.00">Variable(covid_vax_disease...)</text>
</a>
</g>
</g>
<!-- 1286195963700239727&#45;&gt;3509576877858601689 -->
<g id="edge82" class="edge">
<title>1286195963700239727&#45;&gt;3509576877858601689</title>
<path fill="none" stroke="lightgrey" d="M7846,-791.95C7846,-765.29 7846,-712.11 7846,-667 7846,-667 7846,-667 7846,-377 7846,-213.48 7650.98,-310.4 7489,-288 7144.62,-240.37 6012.07,-235.54 5790.71,-235.06"/>
<polygon fill="lightgrey" stroke="lightgrey" points="5790.58,-231.56 5780.58,-235.03 5790.57,-238.56 5790.58,-231.56"/>
</g>
<!-- 5930452930145504719 -->
<g id="node58" class="node">
<title>5930452930145504719</title>
<g id="a_node58"><a xlink:href="postest_date.svg" xlink:title="Variable(postest_date)">
<path fill="lightgrey" stroke="black" d="M8081.5,-828C8081.5,-828 7968.5,-828 7968.5,-828 7962.5,-828 7956.5,-822 7956.5,-816 7956.5,-816 7956.5,-804 7956.5,-804 7956.5,-798 7962.5,-792 7968.5,-792 7968.5,-792 8081.5,-792 8081.5,-792 8087.5,-792 8093.5,-798 8093.5,-804 8093.5,-804 8093.5,-816 8093.5,-816 8093.5,-822 8087.5,-828 8081.5,-828"/>
<text text-anchor="middle" x="8025" y="-806.3" font-family="Times,serif" font-size="14.00">Variable(postest_date)</text>
</a>
</g>
</g>
<!-- 5930452930145504719&#45;&gt;3509576877858601689 -->
<g id="edge83" class="edge">
<title>5930452930145504719&#45;&gt;3509576877858601689</title>
<path fill="none" stroke="lightgrey" d="M8025,-791.95C8025,-765.29 8025,-712.11 8025,-667 8025,-667 8025,-667 8025,-377 8025,-217.36 7835.11,-310.11 7677,-288 7293.22,-234.32 6025.57,-234.4 5790.63,-234.89"/>
<polygon fill="lightgrey" stroke="lightgrey" points="5790.53,-231.39 5780.54,-234.92 5790.55,-238.39 5790.53,-231.39"/>
</g>
<!-- 833848849304129238 -->
<g id="node59" class="node">
<title>833848849304129238</title>
<g id="a_node59"><a xlink:href="covidemergency_0_date.svg" xlink:title="Variable(covidemergency_0_...)">
<path fill="lightgrey" stroke="black" d="M8292,-828C8292,-828 8124,-828 8124,-828 8118,-828 8112,-822 8112,-816 8112,-816 8112,-804 8112,-804 8112,-798 8118,-792 8124,-792 8124,-792 8292,-792 8292,-792 8298,-792 8304,-798 8304,-804 8304,-804 8304,-816 8304,-816 8304,-822 8298,-828 8292,-828"/>
<text text-anchor="middle" x="8208" y="-806.3" font-family="Times,serif" font-size="14.00">Variable(covidemergency_0_...)</text>
</a>
</g>
</g>
<!-- 833848849304129238&#45;&gt;3509576877858601689 -->
<g id="edge84" class="edge">
<title>833848849304129238&#45;&gt;3509576877858601689</title>
<path fill="none" stroke="lightgrey" d="M8208,-791.95C8208,-765.29 8208,-712.11 8208,-667 8208,-667 8208,-667 8208,-377 8208,-217.36 8018.13,-309.92 7860,-288 7437.91,-229.48 6039.77,-233.57 5791.02,-234.79"/>
<polygon fill="lightgrey" stroke="lightgrey" points="5790.68,-231.29 5780.7,-234.84 5790.71,-238.29 5790.68,-231.29"/>
</g>
<!-- 7179311433147611179 -->
<g id="node60" class="node">
<title>7179311433147611179</title>
<g id="a_node60"><a xlink:href="covid_vax_moderna_4_date.svg" xlink:title="Variable(covid_vax_moderna...)">
<path fill="lightgrey" stroke="black" d="M8704.5,-828C8704.5,-828 8535.5,-828 8535.5,-828 8529.5,-828 8523.5,-822 8523.5,-816 8523.5,-816 8523.5,-804 8523.5,-804 8523.5,-798 8529.5,-792 8535.5,-792 8535.5,-792 8704.5,-792 8704.5,-792 8710.5,-792 8716.5,-798 8716.5,-804 8716.5,-804 8716.5,-816 8716.5,-816 8716.5,-822 8710.5,-828 8704.5,-828"/>
<text text-anchor="middle" x="8620" y="-806.3" font-family="Times,serif" font-size="14.00">Variable(covid_vax_moderna...)</text>
</a>
</g>
</g>
<!-- 7179311433147611179&#45;&gt;3509576877858601689 -->
<g id="edge85" class="edge">
<title>7179311433147611179&#45;&gt;3509576877858601689</title>
<path fill="none" stroke="lightgrey" d="M8557.82,-791.97C8501.07,-772.19 8426,-733.47 8426,-667 8426,-667 8426,-667 8426,-377 8426,-269.05 8305.83,-309.28 8200,-288 7954.13,-238.57 6080.69,-235.23 5790.67,-235.01"/>
<polygon fill="lightgrey" stroke="lightgrey" points="5790.65,-231.51 5780.65,-235.01 5790.64,-238.51 5790.65,-231.51"/>
</g>
<!-- 7179311433147611179&#45;&gt;4225002590628906338 -->
<g id="edge86" class="edge">
<title>7179311433147611179&#45;&gt;4225002590628906338</title>
<path fill="none" stroke="lightgrey" d="M8628.5,-791.99C8640.77,-765.82 8662,-713.79 8662,-667 8662,-667 8662,-667 8662,-449 8662,-364.16 8925.48,-328.01 9075.16,-314.33"/>
<polygon fill="lightgrey" stroke="lightgrey" points="9075.64,-317.8 9085.29,-313.42 9075.02,-310.82 9075.64,-317.8"/>
</g>
<!-- 8535355595810854744 -->
<g id="node61" class="node">
<title>8535355595810854744</title>
<g id="a_node61"><a xlink:href="chronic_liver_disease.svg" xlink:title="Variable(chronic_liver_dis...)">
<path fill="lightgrey" stroke="black" d="M10959,-828C10959,-828 10807,-828 10807,-828 10801,-828 10795,-822 10795,-816 10795,-816 10795,-804 10795,-804 10795,-798 10801,-792 10807,-792 10807,-792 10959,-792 10959,-792 10965,-792 10971,-798 10971,-804 10971,-804 10971,-816 10971,-816 10971,-822 10965,-828 10959,-828"/>
<text text-anchor="middle" x="10883" y="-806.3" font-family="Times,serif" font-size="14.00">Variable(chronic_liver_dis...)</text>
</a>
</g>
</g>
<!-- 8535355595810854744&#45;&gt;3509576877858601689 -->
<g id="edge87" class="edge">
<title>8535355595810854744&#45;&gt;3509576877858601689</title>
<path fill="none" stroke="lightgrey" d="M10883,-791.95C10883,-765.29 10883,-712.11 10883,-667 10883,-667 10883,-667 10883,-377 10883,-206.07 10289.58,-298.94 10119,-288 9210.73,-229.74 6164.95,-234.14 5790.79,-234.91"/>
<polygon fill="lightgrey" stroke="lightgrey" points="5790.74,-231.41 5780.74,-234.94 5790.75,-238.41 5790.74,-231.41"/>
</g>
<!-- 2440103852090598343 -->
<g id="node62" class="node">
<title>2440103852090598343</title>
<g id="a_node62"><a xlink:href="covid_vax_moderna_1_date.svg" xlink:title="Variable(covid_vax_moderna...)">
<path fill="lightgrey" stroke="black" d="M9729.5,-828C9729.5,-828 9560.5,-828 9560.5,-828 9554.5,-828 9548.5,-822 9548.5,-816 9548.5,-816 9548.5,-804 9548.5,-804 9548.5,-798 9554.5,-792 9560.5,-792 9560.5,-792 9729.5,-792 9729.5,-792 9735.5,-792 9741.5,-798 9741.5,-804 9741.5,-804 9741.5,-816 9741.5,-816 9741.5,-822 9735.5,-828 9729.5,-828"/>
<text text-anchor="middle" x="9645" y="-806.3" font-family="Times,serif" font-size="14.00">Variable(covid_vax_moderna...)</text>
</a>
</g>
</g>
<!-- 2440103852090598343&#45;&gt;3509576877858601689 -->
<g id="edge88" class="edge">
<title>2440103852090598343&#45;&gt;3509576877858601689</title>
<path fill="none" stroke="lightgrey" d="M9614.67,-791.96C9577.96,-768.82 9521,-723.79 9521,-667 9521,-667 9521,-667 9521,-377 9521,-278.49 9414.26,-308.92 9318,-288 9136.53,-248.56 6161.82,-236.49 5790.87,-235.13"/>
<polygon fill="lightgrey" stroke="lightgrey" points="5790.68,-231.63 5780.66,-235.1 5790.65,-238.63 5790.68,-231.63"/>
</g>
<!-- 2440103852090598343&#45;&gt;4225002590628906338 -->
<g id="edge89" class="edge">
<title>2440103852090598343&#45;&gt;4225002590628906338</title>
<path fill="none" stroke="lightgrey" d="M9579.24,-791.99C9520.94,-772.48 9445,-734.18 9445,-667 9445,-667 9445,-667 9445,-521 9445,-433.58 9401.95,-412.43 9332,-360 9312.87,-345.67 9289.61,-335.04 9266.95,-327.23"/>
<polygon fill="lightgrey" stroke="lightgrey" points="9267.89,-323.86 9257.29,-324.06 9265.7,-330.51 9267.89,-323.86"/>
</g>
<!-- 7471826420882206235 -->
<g id="node63" class="node">
<title>7471826420882206235</title>
<g id="a_node63"><a xlink:href="covid_vax_moderna_3_date.svg" xlink:title="Variable(covid_vax_moderna...)">
<path fill="lightgrey" stroke="black" d="M9940.5,-828C9940.5,-828 9771.5,-828 9771.5,-828 9765.5,-828 9759.5,-822 9759.5,-816 9759.5,-816 9759.5,-804 9759.5,-804 9759.5,-798 9765.5,-792 9771.5,-792 9771.5,-792 9940.5,-792 9940.5,-792 9946.5,-792 9952.5,-798 9952.5,-804 9952.5,-804 9952.5,-816 9952.5,-816 9952.5,-822 9946.5,-828 9940.5,-828"/>
<text text-anchor="middle" x="9856" y="-806.3" font-family="Times,serif" font-size="14.00">Variable(covid_vax_moderna...)</text>
</a>
</g>
</g>
<!-- 7471826420882206235&#45;&gt;3509576877858601689 -->
<g id="edge90" class="edge">
<title>7471826420882206235&#45;&gt;3509576877858601689</title>
<path fill="none" stroke="lightgrey" d="M9823.78,-791.87C9785.57,-768.95 9727,-724.45 9727,-667 9727,-667 9727,-667 9727,-377 9727,-236.64 9562.78,-308.98 9424,-288 9046.24,-230.88 6156.04,-234.26 5790.88,-234.92"/>
<polygon fill="lightgrey" stroke="lightgrey" points="5790.81,-231.42 5780.82,-234.94 5790.83,-238.42 5790.81,-231.42"/>
</g>
<!-- 7471826420882206235&#45;&gt;4225002590628906338 -->
<g id="edge91" class="edge">
<title>7471826420882206235&#45;&gt;4225002590628906338</title>
<path fill="none" stroke="lightgrey" d="M9791.19,-791.97C9703.8,-767.06 9559,-718.08 9559,-667 9559,-667 9559,-667 9559,-593 9559,-459.94 9486.11,-426.74 9371,-360 9342.26,-343.34 9308.09,-331.75 9276.45,-323.76"/>
<polygon fill="lightgrey" stroke="lightgrey" points="9277.27,-320.36 9266.73,-321.4 9275.62,-327.16 9277.27,-320.36"/>
</g>
<!-- 4443043171866605585 -->
<g id="node64" class="node">
<title>4443043171866605585</title>
<g id="a_node64"><a xlink:href="bmi.svg" xlink:title="Variable(bmi)">
<path fill="lightgrey" stroke="black" d="M11069,-828C11069,-828 11001,-828 11001,-828 10995,-828 10989,-822 10989,-816 10989,-816 10989,-804 10989,-804 10989,-798 10995,-792 11001,-792 11001,-792 11069,-792 11069,-792 11075,-792 11081,-798 11081,-804 11081,-804 11081,-816 11081,-816 11081,-822 11075,-828 11069,-828"/>
<text text-anchor="middle" x="11035" y="-806.3" font-family="Times,serif" font-size="14.00">Variable(bmi)</text>
</a>
</g>
</g>
<!-- 4443043171866605585&#45;&gt;3509576877858601689 -->
<g id="edge92" class="edge">
<title>4443043171866605585&#45;&gt;3509576877858601689</title>
<path fill="none" stroke="lightgrey" d="M11035,-791.95C11035,-765.29 11035,-712.11 11035,-667 11035,-667 11035,-667 11035,-377 11035,-135.08 10738.99,-309.19 10498,-288 10001.92,-244.38 6210.04,-235.88 5790.65,-235.07"/>
<polygon fill="lightgrey" stroke="lightgrey" points="5790.56,-231.57 5780.56,-235.05 5790.55,-238.57 5790.56,-231.57"/>
</g>
<!-- 341368748733155119 -->
<g id="node65" class="node">
<title>341368748733155119</title>
<g id="a_node65"><a xlink:href="admitted_unplanned_date.svg" xlink:title="Variable(admitted_unplanne...)">
<path fill="lightgrey" stroke="black" d="M11273,-828C11273,-828 11111,-828 11111,-828 11105,-828 11099,-822 11099,-816 11099,-816 11099,-804 11099,-804 11099,-798 11105,-792 11111,-792 11111,-792 11273,-792 11273,-792 11279,-792 11285,-798 11285,-804 11285,-804 11285,-816 11285,-816 11285,-822 11279,-828 11273,-828"/>
<text text-anchor="middle" x="11192" y="-806.3" font-family="Times,serif" font-size="14.00">Variable(admitted_unplanne...)</text>
</a>
</g>
</g>
<!-- 341368748733155119&#45;&gt;3509576877858601689 -->
<g id="edge93" class="edge">
<title>341368748733155119&#45;&gt;3509576877858601689</title>
<path fill="none" stroke="lightgrey" d="M11192,-791.95C11192,-765.29 11192,-712.11 11192,-667 11192,-667 11192,-667 11192,-377 11192,-187.93 10963.92,-308.88 10776,-288 10251.26,-229.7 6224.68,-234.27 5790.85,-234.94"/>
<polygon fill="lightgrey" stroke="lightgrey" points="5790.71,-231.44 5780.72,-234.95 5790.72,-238.44 5790.71,-231.44"/>
</g>
<!-- 2445506054941540525 -->
<g id="node66" class="node">
<title>2445506054941540525</title>
<g id="a_node66"><a xlink:href="covidadmitted_date.svg" xlink:title="Variable(covidadmitted_date)">
<path fill="lightgrey" stroke="black" d="M11469,-828C11469,-828 11315,-828 11315,-828 11309,-828 11303,-822 11303,-816 11303,-816 11303,-804 11303,-804 11303,-798 11309,-792 11315,-792 11315,-792 11469,-792 11469,-792 11475,-792 11481,-798 11481,-804 11481,-804 11481,-816 11481,-816 11481,-822 11475,-828 11469,-828"/>
<text text-anchor="middle" x="11392" y="-806.3" font-family="Times,serif" font-size="14.00">Variable(covidadmitted_date)</text>
</a>
</g>
</g>
<!-- 2445506054941540525&#45;&gt;3509576877858601689 -->
<g id="edge94" class="edge">
<title>2445506054941540525&#45;&gt;3509576877858601689</title>
<path fill="none" stroke="lightgrey" d="M11392,-791.95C11392,-765.29 11392,-712.11 11392,-667 11392,-667 11392,-667 11392,-377 11392,-195.31 11173.5,-308.81 10993,-288 10718.59,-256.36 6247.48,-237.05 5790.6,-235.15"/>
<polygon fill="lightgrey" stroke="lightgrey" points="5790.58,-231.65 5780.56,-235.11 5790.55,-238.65 5790.58,-231.65"/>
</g>
<!-- 7916876050339263411 -->
<g id="node67" class="node">
<title>7916876050339263411</title>
<g id="a_node67"><a xlink:href="primary_care_covid_case_0_date.svg" xlink:title="Variable(primary_care_covi...)">
<path fill="lightgrey" stroke="black" d="M11671.5,-828C11671.5,-828 11510.5,-828 11510.5,-828 11504.5,-828 11498.5,-822 11498.5,-816 11498.5,-816 11498.5,-804 11498.5,-804 11498.5,-798 11504.5,-792 11510.5,-792 11510.5,-792 11671.5,-792 11671.5,-792 11677.5,-792 11683.5,-798 11683.5,-804 11683.5,-804 11683.5,-816 11683.5,-816 11683.5,-822 11677.5,-828 11671.5,-828"/>
<text text-anchor="middle" x="11591" y="-806.3" font-family="Times,serif" font-size="14.00">Variable(primary_care_covi...)</text>
</a>
</g>
</g>
<!-- 7916876050339263411&#45;&gt;3509576877858601689 -->
<g id="edge95" class="edge">
<title>7916876050339263411&#45;&gt;3509576877858601689</title>
<path fill="none" stroke="lightgrey" d="M11591,-791.95C11591,-765.29 11591,-712.11 11591,-667 11591,-667 11591,-667 11591,-377 11591,-199.64 11378.14,-308.76 11202,-288 10916.51,-254.35 6260.09,-236.82 5791.02,-235.13"/>
<polygon fill="lightgrey" stroke="lightgrey" points="5790.74,-231.63 5780.72,-235.1 5790.71,-238.63 5790.74,-231.63"/>
</g>
<!-- 6581931883114407591 -->
<g id="node68" class="node">
<title>6581931883114407591</title>
<g id="a_node68"><a xlink:href="covid_vax_pfizer_2_date.svg" xlink:title="Variable(covid_vax_pfizer_...)">
<path fill="lightgrey" stroke="black" d="M9518.5,-828C9518.5,-828 9359.5,-828 9359.5,-828 9353.5,-828 9347.5,-822 9347.5,-816 9347.5,-816 9347.5,-804 9347.5,-804 9347.5,-798 9353.5,-792 9359.5,-792 9359.5,-792 9518.5,-792 9518.5,-792 9524.5,-792 9530.5,-798 9530.5,-804 9530.5,-804 9530.5,-816 9530.5,-816 9530.5,-822 9524.5,-828 9518.5,-828"/>
<text text-anchor="middle" x="9439" y="-806.3" font-family="Times,serif" font-size="14.00">Variable(covid_vax_pfizer_...)</text>
</a>
</g>
</g>
<!-- 6581931883114407591&#45;&gt;3509576877858601689 -->
<g id="edge96" class="edge">
<title>6581931883114407591&#45;&gt;3509576877858601689</title>
<path fill="none" stroke="lightgrey" d="M9432.52,-791.79C9423.17,-765.36 9407,-712.99 9407,-667 9407,-667 9407,-667 9407,-521 9407,-401.98 9381.75,-340.64 9275,-288 9192.66,-247.4 6164.39,-236.33 5790.69,-235.12"/>
<polygon fill="lightgrey" stroke="lightgrey" points="5790.67,-231.62 5780.66,-235.08 5790.65,-238.62 5790.67,-231.62"/>
</g>
<!-- 6581931883114407591&#45;&gt;4225002590628906338 -->
<g id="edge97" class="edge">
<title>6581931883114407591&#45;&gt;4225002590628906338</title>
<path fill="none" stroke="lightgrey" d="M9419.91,-791.77C9394.58,-766.91 9353,-718.3 9353,-667 9353,-667 9353,-667 9353,-449 9353,-388.55 9289.41,-349.55 9238.45,-328"/>
<polygon fill="lightgrey" stroke="lightgrey" points="9239.69,-324.72 9229.11,-324.18 9237.04,-331.2 9239.69,-324.72"/>
</g>
<!-- 7050449076563289034 -->
<g id="node69" class="node">
<title>7050449076563289034</title>
<g id="a_node69"><a xlink:href="cancer.svg" xlink:title="Variable(cancer)">
<path fill="lightgrey" stroke="black" d="M11795,-828C11795,-828 11713,-828 11713,-828 11707,-828 11701,-822 11701,-816 11701,-816 11701,-804 11701,-804 11701,-798 11707,-792 11713,-792 11713,-792 11795,-792 11795,-792 11801,-792 11807,-798 11807,-804 11807,-804 11807,-816 11807,-816 11807,-822 11801,-828 11795,-828"/>
<text text-anchor="middle" x="11754" y="-806.3" font-family="Times,serif" font-size="14.00">Variable(cancer)</text>
</a>
</g>
</g>
<!-- 7050449076563289034&#45;&gt;3509576877858601689 -->
<g id="edge98" class="edge">
<title>7050449076563289034&#45;&gt;3509576877858601689</title>
<path fill="none" stroke="lightgrey" d="M11754,-791.95C11754,-765.29 11754,-712.11 11754,-667 11754,-667 11754,-667 11754,-377 11754,-216.49 11563.17,-308.68 11404,-288 11108.06,-249.55 6269.15,-236.31 5790.97,-235.09"/>
<polygon fill="lightgrey" stroke="lightgrey" points="5790.8,-231.59 5780.8,-235.07 5790.79,-238.59 5790.8,-231.59"/>
</g>
<!-- 4956502834918862191 -->
<g id="node70" class="node">
<title>4956502834918862191</title>
<g id="a_node70"><a xlink:href="sev_mental.svg" xlink:title="Variable(sev_mental)">
<path fill="lightgrey" stroke="black" d="M11946.5,-828C11946.5,-828 11837.5,-828 11837.5,-828 11831.5,-828 11825.5,-822 11825.5,-816 11825.5,-816 11825.5,-804 11825.5,-804 11825.5,-798 11831.5,-792 11837.5,-792 11837.5,-792 11946.5,-792 11946.5,-792 11952.5,-792 11958.5,-798 11958.5,-804 11958.5,-804 11958.5,-816 11958.5,-816 11958.5,-822 11952.5,-828 11946.5,-828"/>
<text text-anchor="middle" x="11892" y="-806.3" font-family="Times,serif" font-size="14.00">Variable(sev_mental)</text>
</a>
</g>
</g>
<!-- 4956502834918862191&#45;&gt;3509576877858601689 -->
<g id="edge99" class="edge">
<title>4956502834918862191&#45;&gt;3509576877858601689</title>
<path fill="none" stroke="lightgrey" d="M11892,-791.95C11892,-765.29 11892,-712.11 11892,-667 11892,-667 11892,-667 11892,-377 11892,-235.79 11726.7,-308.61 11587,-288 11281.98,-242.99 6278.3,-235.65 5791.08,-235.04"/>
<polygon fill="lightgrey" stroke="lightgrey" points="5790.73,-231.54 5780.73,-235.03 5790.72,-238.54 5790.73,-231.54"/>
</g>
<!-- 6128523630570272357 -->
<g id="node82" class="node">
<title>6128523630570272357</title>
<path fill="none" stroke="black" d="M10284,-684C10284,-684 10070,-684 10070,-684 10064,-684 10058,-678 10058,-672 10058,-672 10058,-660 10058,-660 10058,-654 10064,-648 10070,-648 10070,-648 10284,-648 10284,-648 10290,-648 10296,-654 10296,-660 10296,-660 10296,-672 10296,-672 10296,-678 10290,-684 10284,-684"/>
<text text-anchor="middle" x="10177" y="-662.3" font-family="Times,serif" font-size="14.00">PickOneRowPerPatient(Position.FIRST)</text>
</g>
<!-- 7914976967183093818&#45;&gt;6128523630570272357 -->
<g id="edge1" class="edge">
<title>7914976967183093818&#45;&gt;6128523630570272357</title>
<path fill="none" stroke="black" d="M10312.97,-719.88C10288.03,-710.18 10256.66,-697.98 10230.34,-687.74"/>
<polygon fill="black" stroke="black" points="10231.48,-684.43 10220.89,-684.07 10228.94,-690.95 10231.48,-684.43"/>
</g>
<!-- 3556050648650672860 -->
<g id="node75" class="node">
<title>3556050648650672860</title>
<path fill="none" stroke="black" d="M5814,-180C5814,-180 5784,-180 5784,-180 5778,-180 5772,-174 5772,-168 5772,-168 5772,-156 5772,-156 5772,-150 5778,-144 5784,-144 5784,-144 5814,-144 5814,-144 5820,-144 5826,-150 5826,-156 5826,-156 5826,-168 5826,-168 5826,-174 5820,-180 5814,-180"/>
<text text-anchor="middle" x="5799" y="-158.3" font-family="Times,serif" font-size="14.00">GT()</text>
</g>
<!-- 3509576877858601689&#45;&gt;3556050648650672860 -->
<g id="edge3" class="edge">
<title>3509576877858601689&#45;&gt;3556050648650672860</title>
<path fill="none" stroke="black" d="M5764.37,-215.7C5769.72,-207.56 5776.2,-197.69 5782.11,-188.7"/>
<polygon fill="black" stroke="black" points="5785.19,-190.38 5787.76,-180.1 5779.34,-186.54 5785.19,-190.38"/>
</g>
<!-- 1436061678083452305 -->
<g id="node83" class="node">
<title>1436061678083452305</title>
<path fill="lightgrey" stroke="black" d="M5819.5,-36C5819.5,-36 5686.5,-36 5686.5,-36 5680.5,-36 5674.5,-30 5674.5,-24 5674.5,-24 5674.5,-12 5674.5,-12 5674.5,-6 5680.5,0 5686.5,0 5686.5,0 5819.5,0 5819.5,0 5825.5,0 5831.5,-6 5831.5,-12 5831.5,-12 5831.5,-24 5831.5,-24 5831.5,-30 5825.5,-36 5819.5,-36"/>
<text text-anchor="middle" x="5753" y="-14.3" font-family="Times,serif" font-size="14.00">SelectTable(vaccinations)</text>
</g>
<!-- 3509576877858601689&#45;&gt;1436061678083452305 -->
<g id="edge2" class="edge">
<title>3509576877858601689&#45;&gt;1436061678083452305</title>
<path fill="none" stroke="black" d="M5745.92,-215.93C5734.63,-186.37 5714.97,-123.85 5727,-72 5729.1,-62.96 5732.97,-53.68 5737.09,-45.47"/>
<polygon fill="black" stroke="black" points="5740.31,-46.86 5741.95,-36.39 5734.14,-43.55 5740.31,-46.86"/>
</g>
<!-- 8807977144297534015 -->
<g id="node73" class="node">
<title>8807977144297534015</title>
<path fill="none" stroke="black" d="M5986.5,-108C5986.5,-108 5891.5,-108 5891.5,-108 5885.5,-108 5879.5,-102 5879.5,-96 5879.5,-96 5879.5,-84 5879.5,-84 5879.5,-78 5885.5,-72 5891.5,-72 5891.5,-72 5986.5,-72 5986.5,-72 5992.5,-72 5998.5,-78 5998.5,-84 5998.5,-84 5998.5,-96 5998.5,-96 5998.5,-102 5992.5,-108 5986.5,-108"/>
<text text-anchor="middle" x="5939" y="-86.3" font-family="Times,serif" font-size="14.00">Value(1900&#45;01&#45;01)</text>
</g>
<!-- 1208929995529770341&#45;&gt;4146787177570061447 -->
<g id="edge4" class="edge">
<title>1208929995529770341&#45;&gt;4146787177570061447</title>
<path fill="none" stroke="black" d="M10294.89,-503.88C10278.72,-494.36 10258.45,-482.44 10241.26,-472.33"/>
<polygon fill="black" stroke="black" points="10242.98,-469.28 10232.58,-467.23 10239.43,-475.31 10242.98,-469.28"/>
</g>
<!-- 3556050648650672860&#45;&gt;8807977144297534015 -->
<g id="edge6" class="edge">
<title>3556050648650672860&#45;&gt;8807977144297534015</title>
<path fill="none" stroke="black" d="M5826.33,-147.34C5846.05,-137.48 5873.08,-123.96 5895.72,-112.64"/>
<polygon fill="black" stroke="black" points="5897.42,-115.7 5904.8,-108.1 5894.29,-109.44 5897.42,-115.7"/>
</g>
<!-- 7920881043569519933 -->
<g id="node80" class="node">
<title>7920881043569519933</title>
<path fill="none" stroke="black" d="M5849.5,-108C5849.5,-108 5748.5,-108 5748.5,-108 5742.5,-108 5736.5,-102 5736.5,-96 5736.5,-96 5736.5,-84 5736.5,-84 5736.5,-78 5742.5,-72 5748.5,-72 5748.5,-72 5849.5,-72 5849.5,-72 5855.5,-72 5861.5,-78 5861.5,-84 5861.5,-84 5861.5,-96 5861.5,-96 5861.5,-102 5855.5,-108 5849.5,-108"/>
<text text-anchor="middle" x="5799" y="-86.3" font-family="Times,serif" font-size="14.00">SelectColumn(date)</text>
</g>
<!-- 3556050648650672860&#45;&gt;7920881043569519933 -->
<g id="edge5" class="edge">
<title>3556050648650672860&#45;&gt;7920881043569519933</title>
<path fill="none" stroke="black" d="M5799,-143.7C5799,-135.98 5799,-126.71 5799,-118.11"/>
<polygon fill="black" stroke="black" points="5802.5,-118.1 5799,-108.1 5795.5,-118.1 5802.5,-118.1"/>
</g>
<!-- 333561329820129768 -->
<g id="node76" class="node">
<title>333561329820129768</title>
<path fill="none" stroke="black" d="M10060,-324C10060,-324 9906,-324 9906,-324 9900,-324 9894,-318 9894,-312 9894,-312 9894,-300 9894,-300 9894,-294 9900,-288 9906,-288 9906,-288 10060,-288 10060,-288 10066,-288 10072,-294 10072,-300 10072,-300 10072,-312 10072,-312 10072,-318 10066,-324 10060,-324"/>
<text text-anchor="middle" x="9983" y="-302.3" font-family="Times,serif" font-size="14.00">Value(COVID&#45;19 Vaccine ...)</text>
</g>
<!-- 4225002590628906338&#45;&gt;3509576877858601689 -->
<g id="edge7" class="edge">
<title>4225002590628906338&#45;&gt;3509576877858601689</title>
<path fill="none" stroke="black" d="M9085.21,-293.74C9063.55,-291.45 9040.48,-289.33 9019,-288 8346.73,-246.24 6109.86,-236.34 5790.96,-235.14"/>
<polygon fill="black" stroke="black" points="5790.86,-231.64 5780.85,-235.1 5790.83,-238.64 5790.86,-231.64"/>
</g>
<!-- 1374129740969955549 -->
<g id="node78" class="node">
<title>1374129740969955549</title>
<path fill="none" stroke="black" d="M10220,-612C10220,-612 10190,-612 10190,-612 10184,-612 10178,-606 10178,-600 10178,-600 10178,-588 10178,-588 10178,-582 10184,-576 10190,-576 10190,-576 10220,-576 10220,-576 10226,-576 10232,-582 10232,-588 10232,-588 10232,-600 10232,-600 10232,-606 10226,-612 10220,-612"/>
<text text-anchor="middle" x="10205" y="-590.3" font-family="Times,serif" font-size="14.00">Sort()</text>
</g>
<!-- 1374129740969955549&#45;&gt;1208929995529770341 -->
<g id="edge9" class="edge">
<title>1374129740969955549&#45;&gt;1208929995529770341</title>
<path fill="none" stroke="black" d="M10232,-577.12C10248,-567.7 10268.53,-555.63 10286.13,-545.28"/>
<polygon fill="black" stroke="black" points="10288.18,-548.13 10295.02,-540.04 10284.63,-542.1 10288.18,-548.13"/>
</g>
<!-- 1374129740969955549&#45;&gt;4146787177570061447 -->
<g id="edge8" class="edge">
<title>1374129740969955549&#45;&gt;4146787177570061447</title>
<path fill="none" stroke="black" d="M10205,-575.87C10205,-551.67 10205,-507.21 10205,-478.39"/>
<polygon fill="black" stroke="black" points="10208.5,-478.19 10205,-468.19 10201.5,-478.19 10208.5,-478.19"/>
</g>
<!-- 6522653508845074169 -->
<g id="node79" class="node">
<title>6522653508845074169</title>
<path fill="none" stroke="black" d="M9998,-396C9998,-396 9968,-396 9968,-396 9962,-396 9956,-390 9956,-384 9956,-384 9956,-372 9956,-372 9956,-366 9962,-360 9968,-360 9968,-360 9998,-360 9998,-360 10004,-360 10010,-366 10010,-372 10010,-372 10010,-384 10010,-384 10010,-390 10004,-396 9998,-396"/>
<text text-anchor="middle" x="9983" y="-374.3" font-family="Times,serif" font-size="14.00">EQ()</text>
</g>
<!-- 6522653508845074169&#45;&gt;333561329820129768 -->
<g id="edge11" class="edge">
<title>6522653508845074169&#45;&gt;333561329820129768</title>
<path fill="none" stroke="black" d="M9983,-359.7C9983,-351.98 9983,-342.71 9983,-334.11"/>
<polygon fill="black" stroke="black" points="9986.5,-334.1 9983,-324.1 9979.5,-334.1 9986.5,-334.1"/>
</g>
<!-- 6522653508845074169&#45;&gt;4225002590628906338 -->
<g id="edge10" class="edge">
<title>6522653508845074169&#45;&gt;4225002590628906338</title>
<path fill="none" stroke="black" d="M9955.69,-374.63C9849.71,-365.44 9462.4,-331.84 9276.67,-315.73"/>
<polygon fill="black" stroke="black" points="9276.89,-312.24 9266.63,-314.86 9276.29,-319.21 9276.89,-312.24"/>
</g>
<!-- 7920881043569519933&#45;&gt;1436061678083452305 -->
<g id="edge12" class="edge">
<title>7920881043569519933&#45;&gt;1436061678083452305</title>
<path fill="none" stroke="black" d="M5787.63,-71.7C5782.28,-63.56 5775.8,-53.69 5769.89,-44.7"/>
<polygon fill="black" stroke="black" points="5772.66,-42.54 5764.24,-36.1 5766.81,-46.38 5772.66,-42.54"/>
</g>
<!-- 4146787177570061447&#45;&gt;3509576877858601689 -->
<g id="edge14" class="edge">
<title>4146787177570061447&#45;&gt;3509576877858601689</title>
<path fill="none" stroke="black" d="M10198.07,-431.97C10182.89,-397.26 10143.02,-318.99 10081,-288 9979.42,-237.24 6208.83,-235.09 5790.58,-235"/>
<polygon fill="black" stroke="black" points="5790.52,-231.5 5780.52,-235 5790.52,-238.5 5790.52,-231.5"/>
</g>
<!-- 4146787177570061447&#45;&gt;6522653508845074169 -->
<g id="edge15" class="edge">
<title>4146787177570061447&#45;&gt;6522653508845074169</title>
<path fill="none" stroke="black" d="M10177.33,-440.28C10137.65,-427.76 10064.48,-404.69 10020.13,-390.71"/>
<polygon fill="black" stroke="black" points="10020.91,-387.28 10010.32,-387.61 10018.8,-393.96 10020.91,-387.28"/>
</g>
<!-- 6128523630570272357&#45;&gt;1374129740969955549 -->
<g id="edge16" class="edge">
<title>6128523630570272357&#45;&gt;1374129740969955549</title>
<path fill="none" stroke="black" d="M10183.92,-647.7C10187.07,-639.81 10190.88,-630.3 10194.38,-621.55"/>
<polygon fill="black" stroke="black" points="10197.69,-622.69 10198.16,-612.1 10191.19,-620.09 10197.69,-622.69"/>
</g>
</g>
</svg>
