<?xml version="1.0" encoding="UTF-8" standalone="no"?>
<!DOCTYPE svg PUBLIC "-//W3C//DTD SVG 1.1//EN"
 "http://www.w3.org/Graphics/SVG/1.1/DTD/svg11.dtd">
<!-- Generated by graphviz version 2.43.0 (0)
 -->
<!-- Title: %3 Pages: 1 -->
<svg width="416pt" height="260pt"
 viewBox="0.00 0.00 416.00 260.00" xmlns="http://www.w3.org/2000/svg" xmlns:xlink="http://www.w3.org/1999/xlink">
<g id="graph0" class="graph" transform="scale(1 1) rotate(0) translate(4 256)">
<title>%3</title>
<polygon fill="white" stroke="transparent" points="-4,4 -4,-256 412,-256 412,4 -4,4"/>
<!-- 3996360175836647291 -->
<g id="node1" class="node">
<title>3996360175836647291</title>
<g id="a_node1"><a xlink:href="death_date.svg" xlink:title="Variable(death_date)">
<path fill="lightgrey" stroke="black" d="M117,-252C117,-252 12,-252 12,-252 6,-252 0,-246 0,-240 0,-240 0,-228 0,-228 0,-222 6,-216 12,-216 12,-216 117,-216 117,-216 123,-216 129,-222 129,-228 129,-228 129,-240 129,-240 129,-246 123,-252 117,-252"/>
<text text-anchor="middle" x="64.5" y="-230.3" font-family="Times,serif" font-size="14.00">Variable(death_date)</text>
</a>
</g>
</g>
<!-- 3263103940790457955 -->
<g id="node5" class="node">
<title>3263103940790457955</title>
<path fill="none" stroke="black" d="M110.5,-180C110.5,-180 80.5,-180 80.5,-180 74.5,-180 68.5,-174 68.5,-168 68.5,-168 68.5,-156 68.5,-156 68.5,-150 74.5,-144 80.5,-144 80.5,-144 110.5,-144 110.5,-144 116.5,-144 122.5,-150 122.5,-156 122.5,-156 122.5,-168 122.5,-168 122.5,-174 116.5,-180 110.5,-180"/>
<text text-anchor="middle" x="95.5" y="-158.3" font-family="Times,serif" font-size="14.00">Max()</text>
</g>
<!-- 3996360175836647291&#45;&gt;3263103940790457955 -->
<g id="edge1" class="edge">
<title>3996360175836647291&#45;&gt;3263103940790457955</title>
<path fill="none" stroke="black" d="M72.16,-215.7C75.69,-207.73 79.96,-198.1 83.87,-189.26"/>
<polygon fill="black" stroke="black" points="87.08,-190.67 87.93,-180.1 80.68,-187.83 87.08,-190.67"/>
</g>
<!-- 2854687987532492382 -->
<g id="node2" class="node">
<title>2854687987532492382</title>
<g id="a_node2"><a xlink:href="population.svg" xlink:title="Population()">
<path fill="lightgrey" stroke="black" d="M219.5,-252C219.5,-252 159.5,-252 159.5,-252 153.5,-252 147.5,-246 147.5,-240 147.5,-240 147.5,-228 147.5,-228 147.5,-222 153.5,-216 159.5,-216 159.5,-216 219.5,-216 219.5,-216 225.5,-216 231.5,-222 231.5,-228 231.5,-228 231.5,-240 231.5,-240 231.5,-246 225.5,-252 219.5,-252"/>
<text text-anchor="middle" x="189.5" y="-230.3" font-family="Times,serif" font-size="14.00">Population()</text>
</a>
</g>
</g>
<!-- 5716828421079259125 -->
<g id="node4" class="node">
<title>5716828421079259125</title>
<path fill="none" stroke="black" d="M172,-108C172,-108 71,-108 71,-108 65,-108 59,-102 59,-96 59,-96 59,-84 59,-84 59,-78 65,-72 71,-72 71,-72 172,-72 172,-72 178,-72 184,-78 184,-84 184,-84 184,-96 184,-96 184,-102 178,-108 172,-108"/>
<text text-anchor="middle" x="121.5" y="-86.3" font-family="Times,serif" font-size="14.00">SelectColumn(date)</text>
</g>
<!-- 2854687987532492382&#45;&gt;5716828421079259125 -->
<g id="edge4" class="edge">
<title>2854687987532492382&#45;&gt;5716828421079259125</title>
<path fill="none" stroke="lightgrey" d="M181.3,-215.87C169.56,-191.35 147.85,-146.03 134.07,-117.26"/>
<polygon fill="lightgrey" stroke="lightgrey" points="137.21,-115.7 129.73,-108.19 130.89,-118.72 137.21,-115.7"/>
</g>
<!-- 4302003814488648782 -->
<g id="node6" class="node">
<title>4302003814488648782</title>
<path fill="lightgrey" stroke="black" d="M275,-36C275,-36 150,-36 150,-36 144,-36 138,-30 138,-24 138,-24 138,-12 138,-12 138,-6 144,0 150,0 150,0 275,0 275,0 281,0 287,-6 287,-12 287,-12 287,-24 287,-24 287,-30 281,-36 275,-36"/>
<text text-anchor="middle" x="212.5" y="-14.3" font-family="Times,serif" font-size="14.00">SelectTable(ons_deaths)</text>
</g>
<!-- 2854687987532492382&#45;&gt;4302003814488648782 -->
<g id="edge5" class="edge">
<title>2854687987532492382&#45;&gt;4302003814488648782</title>
<path fill="none" stroke="lightgrey" d="M191.34,-215.85C195.32,-178.83 204.74,-91.18 209.56,-46.39"/>
<polygon fill="lightgrey" stroke="lightgrey" points="213.06,-46.55 210.65,-36.23 206.1,-45.8 213.06,-46.55"/>
</g>
<!-- 6053892981929761181 -->
<g id="node3" class="node">
<title>6053892981929761181</title>
<g id="a_node3"><a xlink:href="coviddeath_date.svg" xlink:title="Variable(coviddeath_date)">
<path fill="lightgrey" stroke="black" d="M396,-252C396,-252 261,-252 261,-252 255,-252 249,-246 249,-240 249,-240 249,-228 249,-228 249,-222 255,-216 261,-216 261,-216 396,-216 396,-216 402,-216 408,-222 408,-228 408,-228 408,-240 408,-240 408,-246 402,-252 396,-252"/>
<text text-anchor="middle" x="328.5" y="-230.3" font-family="Times,serif" font-size="14.00">Variable(coviddeath_date)</text>
</a>
</g>
</g>
<!-- 6053892981929761181&#45;&gt;4302003814488648782 -->
<g id="edge6" class="edge">
<title>6053892981929761181&#45;&gt;4302003814488648782</title>
<path fill="none" stroke="lightgrey" d="M319.2,-215.85C298.97,-178.52 250.82,-89.69 226.73,-45.26"/>
<polygon fill="lightgrey" stroke="lightgrey" points="229.68,-43.36 221.84,-36.23 223.53,-46.69 229.68,-43.36"/>
</g>
<!-- 5716828421079259125&#45;&gt;4302003814488648782 -->
<g id="edge2" class="edge">
<title>5716828421079259125&#45;&gt;4302003814488648782</title>
<path fill="none" stroke="black" d="M143.99,-71.7C155.46,-62.88 169.56,-52.03 181.98,-42.47"/>
<polygon fill="black" stroke="black" points="184.47,-44.98 190.26,-36.1 180.2,-39.43 184.47,-44.98"/>
</g>
<!-- 3263103940790457955&#45;&gt;5716828421079259125 -->
<g id="edge3" class="edge">
<title>3263103940790457955&#45;&gt;5716828421079259125</title>
<path fill="none" stroke="black" d="M101.93,-143.7C104.86,-135.81 108.39,-126.3 111.64,-117.55"/>
<polygon fill="black" stroke="black" points="114.95,-118.7 115.15,-108.1 108.38,-116.26 114.95,-118.7"/>
</g>
</g>
</svg>
