<?xml version="1.0" encoding="UTF-8" standalone="no"?>
<!DOCTYPE svg PUBLIC "-//W3C//DTD SVG 1.1//EN"
 "http://www.w3.org/Graphics/SVG/1.1/DTD/svg11.dtd">
<!-- Generated by graphviz version 2.43.0 (0)
 -->
<!-- Title: %3 Pages: 1 -->
<svg width="822pt" height="404pt"
 viewBox="0.00 0.00 821.50 404.00" xmlns="http://www.w3.org/2000/svg" xmlns:xlink="http://www.w3.org/1999/xlink">
<g id="graph0" class="graph" transform="scale(1 1) rotate(0) translate(4 400)">
<title>%3</title>
<polygon fill="white" stroke="transparent" points="-4,4 -4,-400 817.5,-400 817.5,4 -4,4"/>
<!-- 9191059513179190768 -->
<g id="node1" class="node">
<title>9191059513179190768</title>
<g id="a_node1"><a xlink:href="dereg_date.svg" xlink:title="Variable(dereg_date)">
<path fill="lightgrey" stroke="black" d="M369.5,-396C369.5,-396 263.5,-396 263.5,-396 257.5,-396 251.5,-390 251.5,-384 251.5,-384 251.5,-372 251.5,-372 251.5,-366 257.5,-360 263.5,-360 263.5,-360 369.5,-360 369.5,-360 375.5,-360 381.5,-366 381.5,-372 381.5,-372 381.5,-384 381.5,-384 381.5,-390 375.5,-396 369.5,-396"/>
<text text-anchor="middle" x="316.5" y="-374.3" font-family="Times,serif" font-size="14.00">Variable(dereg_date)</text>
</a>
</g>
</g>
<!-- 1182963154155904489 -->
<g id="node7" class="node">
<title>1182963154155904489</title>
<path fill="none" stroke="black" d="M349,-324C349,-324 292,-324 292,-324 286,-324 280,-318 280,-312 280,-312 280,-300 280,-300 280,-294 286,-288 292,-288 292,-288 349,-288 349,-288 355,-288 361,-294 361,-300 361,-300 361,-312 361,-312 361,-318 355,-324 349,-324"/>
<text text-anchor="middle" x="320.5" y="-302.3" font-family="Times,serif" font-size="14.00">Case(None)</text>
</g>
<!-- 9191059513179190768&#45;&gt;1182963154155904489 -->
<g id="edge3" class="edge">
<title>9191059513179190768&#45;&gt;1182963154155904489</title>
<path fill="none" stroke="black" d="M317.49,-359.7C317.93,-351.98 318.46,-342.71 318.95,-334.11"/>
<polygon fill="black" stroke="black" points="322.45,-334.29 319.52,-324.1 315.46,-333.89 322.45,-334.29"/>
</g>
<!-- 4297692426829539203 -->
<g id="node2" class="node">
<title>4297692426829539203</title>
<g id="a_node2"><a xlink:href="practice_id.svg" xlink:title="Variable(practice_id)">
<path fill="lightgrey" stroke="black" d="M119,-396C119,-396 12,-396 12,-396 6,-396 0,-390 0,-384 0,-384 0,-372 0,-372 0,-366 6,-360 12,-360 12,-360 119,-360 119,-360 125,-360 131,-366 131,-372 131,-372 131,-384 131,-384 131,-390 125,-396 119,-396"/>
<text text-anchor="middle" x="65.5" y="-374.3" font-family="Times,serif" font-size="14.00">Variable(practice_id)</text>
</a>
</g>
</g>
<!-- 5690846846039333940 -->
<g id="node8" class="node">
<title>5690846846039333940</title>
<path fill="none" stroke="black" d="M478.5,-108C478.5,-108 350.5,-108 350.5,-108 344.5,-108 338.5,-102 338.5,-96 338.5,-96 338.5,-84 338.5,-84 338.5,-78 344.5,-72 350.5,-72 350.5,-72 478.5,-72 478.5,-72 484.5,-72 490.5,-78 490.5,-84 490.5,-84 490.5,-96 490.5,-96 490.5,-102 484.5,-108 478.5,-108"/>
<text text-anchor="middle" x="414.5" y="-86.3" font-family="Times,serif" font-size="14.00">SelectColumn(end_date)</text>
</g>
<!-- 4297692426829539203&#45;&gt;5690846846039333940 -->
<g id="edge9" class="edge">
<title>4297692426829539203&#45;&gt;5690846846039333940</title>
<path fill="none" stroke="lightgrey" d="M72.31,-359.98C92.07,-311.34 150.49,-173.36 188.5,-144 228.16,-113.37 282.61,-99.99 328.13,-94.33"/>
<polygon fill="lightgrey" stroke="lightgrey" points="328.75,-97.78 338.29,-93.17 327.96,-90.82 328.75,-97.78"/>
</g>
<!-- 7799264227346440860 -->
<g id="node12" class="node">
<title>7799264227346440860</title>
<path fill="lightgrey" stroke="black" d="M550,-36C550,-36 383,-36 383,-36 377,-36 371,-30 371,-24 371,-24 371,-12 371,-12 371,-6 377,0 383,0 383,0 550,0 550,0 556,0 562,-6 562,-12 562,-12 562,-24 562,-24 562,-30 556,-36 550,-36"/>
<text text-anchor="middle" x="466.5" y="-14.3" font-family="Times,serif" font-size="14.00">SelectTable(practice_registra...)</text>
</g>
<!-- 4297692426829539203&#45;&gt;7799264227346440860 -->
<g id="edge8" class="edge">
<title>4297692426829539203&#45;&gt;7799264227346440860</title>
<path fill="none" stroke="lightgrey" d="M66.29,-359.96C67.46,-333.3 69.5,-280.13 69.5,-235 69.5,-235 69.5,-235 69.5,-161 69.5,-101.5 115.98,-97.98 169.5,-72 228.96,-43.13 301.98,-29.85 360.73,-23.8"/>
<polygon fill="lightgrey" stroke="lightgrey" points="361.16,-27.27 370.78,-22.82 360.48,-20.3 361.16,-27.27"/>
</g>
<!-- 2854687987532492382 -->
<g id="node3" class="node">
<title>2854687987532492382</title>
<g id="a_node3"><a xlink:href="population.svg" xlink:title="Population()">
<path fill="lightgrey" stroke="black" d="M221.5,-396C221.5,-396 161.5,-396 161.5,-396 155.5,-396 149.5,-390 149.5,-384 149.5,-384 149.5,-372 149.5,-372 149.5,-366 155.5,-360 161.5,-360 161.5,-360 221.5,-360 221.5,-360 227.5,-360 233.5,-366 233.5,-372 233.5,-372 233.5,-384 233.5,-384 233.5,-390 227.5,-396 221.5,-396"/>
<text text-anchor="middle" x="191.5" y="-374.3" font-family="Times,serif" font-size="14.00">Population()</text>
</a>
</g>
</g>
<!-- 2854687987532492382&#45;&gt;5690846846039333940 -->
<g id="edge11" class="edge">
<title>2854687987532492382&#45;&gt;5690846846039333940</title>
<path fill="none" stroke="lightgrey" d="M187.22,-359.89C177.75,-317.63 159.88,-207.21 213.5,-144 228.78,-125.98 281.02,-112.53 328.4,-103.69"/>
<polygon fill="lightgrey" stroke="lightgrey" points="329.21,-107.1 338.42,-101.87 327.96,-100.21 329.21,-107.1"/>
</g>
<!-- 2854687987532492382&#45;&gt;7799264227346440860 -->
<g id="edge10" class="edge">
<title>2854687987532492382&#45;&gt;7799264227346440860</title>
<path fill="none" stroke="lightgrey" d="M184.42,-359.85C174.19,-333.49 156.5,-281.21 156.5,-235 156.5,-235 156.5,-235 156.5,-161 156.5,-68.85 271.12,-36.26 360.97,-24.87"/>
<polygon fill="lightgrey" stroke="lightgrey" points="361.45,-28.34 370.96,-23.68 360.62,-21.39 361.45,-28.34"/>
</g>
<!-- 8588281403506945925 -->
<g id="node4" class="node">
<title>8588281403506945925</title>
<g id="a_node4"><a xlink:href="has_follow_up_previous_6weeks.svg" xlink:title="Variable(has_follow_up_pre...)">
<path fill="lightgrey" stroke="black" d="M801.5,-396C801.5,-396 639.5,-396 639.5,-396 633.5,-396 627.5,-390 627.5,-384 627.5,-384 627.5,-372 627.5,-372 627.5,-366 633.5,-360 639.5,-360 639.5,-360 801.5,-360 801.5,-360 807.5,-360 813.5,-366 813.5,-372 813.5,-372 813.5,-384 813.5,-384 813.5,-390 807.5,-396 801.5,-396"/>
<text text-anchor="middle" x="720.5" y="-374.3" font-family="Times,serif" font-size="14.00">Variable(has_follow_up_pre...)</text>
</a>
</g>
</g>
<!-- 8588281403506945925&#45;&gt;5690846846039333940 -->
<g id="edge13" class="edge">
<title>8588281403506945925&#45;&gt;5690846846039333940</title>
<path fill="none" stroke="lightgrey" d="M702.27,-359.97C650.31,-311.4 501.27,-172.1 440.63,-115.42"/>
<polygon fill="lightgrey" stroke="lightgrey" points="442.71,-112.58 433.02,-108.31 437.93,-117.69 442.71,-112.58"/>
</g>
<!-- 8588281403506945925&#45;&gt;7799264227346440860 -->
<g id="edge12" class="edge">
<title>8588281403506945925&#45;&gt;7799264227346440860</title>
<path fill="none" stroke="lightgrey" d="M716.05,-359.65C709.62,-333.02 698.5,-280.4 698.5,-235 698.5,-235 698.5,-235 698.5,-161 698.5,-94.41 628.11,-58.09 564.87,-38.91"/>
<polygon fill="lightgrey" stroke="lightgrey" points="565.78,-35.53 555.2,-36.08 563.82,-42.25 565.78,-35.53"/>
</g>
<!-- 5798290827974159016 -->
<g id="node5" class="node">
<title>5798290827974159016</title>
<g id="a_node5"><a xlink:href="stp.svg" xlink:title="Variable(stp)">
<path fill="lightgrey" stroke="black" d="M473.5,-396C473.5,-396 411.5,-396 411.5,-396 405.5,-396 399.5,-390 399.5,-384 399.5,-384 399.5,-372 399.5,-372 399.5,-366 405.5,-360 411.5,-360 411.5,-360 473.5,-360 473.5,-360 479.5,-360 485.5,-366 485.5,-372 485.5,-372 485.5,-384 485.5,-384 485.5,-390 479.5,-396 473.5,-396"/>
<text text-anchor="middle" x="442.5" y="-374.3" font-family="Times,serif" font-size="14.00">Variable(stp)</text>
</a>
</g>
</g>
<!-- 5798290827974159016&#45;&gt;5690846846039333940 -->
<g id="edge15" class="edge">
<title>5798290827974159016&#45;&gt;5690846846039333940</title>
<path fill="none" stroke="lightgrey" d="M441.62,-359.99C439.52,-321.45 433.6,-224.54 423.5,-144 422.44,-135.54 420.99,-126.36 419.56,-118.06"/>
<polygon fill="lightgrey" stroke="lightgrey" points="422.99,-117.36 417.8,-108.13 416.1,-118.59 422.99,-117.36"/>
</g>
<!-- 5798290827974159016&#45;&gt;7799264227346440860 -->
<g id="edge14" class="edge">
<title>5798290827974159016&#45;&gt;7799264227346440860</title>
<path fill="none" stroke="lightgrey" d="M458.99,-359.77C481.34,-334.53 518.5,-285.05 518.5,-235 518.5,-235 518.5,-235 518.5,-161 518.5,-120.55 514.64,-109.51 499.5,-72 495.75,-62.7 490.39,-53.2 485.09,-44.86"/>
<polygon fill="lightgrey" stroke="lightgrey" points="487.88,-42.72 479.43,-36.32 482.04,-46.59 487.88,-42.72"/>
</g>
<!-- 6935829087527829727 -->
<g id="node6" class="node">
<title>6935829087527829727</title>
<g id="a_node6"><a xlink:href="region.svg" xlink:title="Variable(region)">
<path fill="lightgrey" stroke="black" d="M597,-396C597,-396 516,-396 516,-396 510,-396 504,-390 504,-384 504,-384 504,-372 504,-372 504,-366 510,-360 516,-360 516,-360 597,-360 597,-360 603,-360 609,-366 609,-372 609,-372 609,-384 609,-384 609,-390 603,-396 597,-396"/>
<text text-anchor="middle" x="556.5" y="-374.3" font-family="Times,serif" font-size="14.00">Variable(region)</text>
</a>
</g>
</g>
<!-- 6935829087527829727&#45;&gt;5690846846039333940 -->
<g id="edge17" class="edge">
<title>6935829087527829727&#45;&gt;5690846846039333940</title>
<path fill="none" stroke="lightgrey" d="M548.04,-359.97C524.22,-311.99 456.45,-175.5 427.68,-117.54"/>
<polygon fill="lightgrey" stroke="lightgrey" points="430.67,-115.71 423.09,-108.31 424.4,-118.82 430.67,-115.71"/>
</g>
<!-- 6935829087527829727&#45;&gt;7799264227346440860 -->
<g id="edge16" class="edge">
<title>6935829087527829727&#45;&gt;7799264227346440860</title>
<path fill="none" stroke="lightgrey" d="M556.5,-359.95C556.5,-333.29 556.5,-280.11 556.5,-235 556.5,-235 556.5,-235 556.5,-161 556.5,-113.71 520.46,-69.41 493.99,-43.25"/>
<polygon fill="lightgrey" stroke="lightgrey" points="496.12,-40.44 486.47,-36.05 491.27,-45.49 496.12,-40.44"/>
</g>
<!-- 2257121799704255320 -->
<g id="node10" class="node">
<title>2257121799704255320</title>
<path fill="none" stroke="black" d="M335.5,-252C335.5,-252 305.5,-252 305.5,-252 299.5,-252 293.5,-246 293.5,-240 293.5,-240 293.5,-228 293.5,-228 293.5,-222 299.5,-216 305.5,-216 305.5,-216 335.5,-216 335.5,-216 341.5,-216 347.5,-222 347.5,-228 347.5,-228 347.5,-240 347.5,-240 347.5,-246 341.5,-252 335.5,-252"/>
<text text-anchor="middle" x="320.5" y="-230.3" font-family="Times,serif" font-size="14.00">LT()</text>
</g>
<!-- 1182963154155904489&#45;&gt;2257121799704255320 -->
<g id="edge1" class="edge">
<title>1182963154155904489&#45;&gt;2257121799704255320</title>
<path fill="none" stroke="black" d="M320.5,-287.7C320.5,-279.98 320.5,-270.71 320.5,-262.11"/>
<polygon fill="black" stroke="black" points="324,-262.1 320.5,-252.1 317,-262.1 324,-262.1"/>
</g>
<!-- 8985490606287045741 -->
<g id="node11" class="node">
<title>8985490606287045741</title>
<path fill="none" stroke="black" d="M402.5,-180C402.5,-180 372.5,-180 372.5,-180 366.5,-180 360.5,-174 360.5,-168 360.5,-168 360.5,-156 360.5,-156 360.5,-150 366.5,-144 372.5,-144 372.5,-144 402.5,-144 402.5,-144 408.5,-144 414.5,-150 414.5,-156 414.5,-156 414.5,-168 414.5,-168 414.5,-174 408.5,-180 402.5,-180"/>
<text text-anchor="middle" x="387.5" y="-158.3" font-family="Times,serif" font-size="14.00">Max()</text>
</g>
<!-- 1182963154155904489&#45;&gt;8985490606287045741 -->
<g id="edge2" class="edge">
<title>1182963154155904489&#45;&gt;8985490606287045741</title>
<path fill="none" stroke="black" d="M334.05,-287.57C341.38,-277.56 350.2,-264.52 356.5,-252 366.56,-231.99 374.73,-207.93 380.15,-189.87"/>
<polygon fill="black" stroke="black" points="383.51,-190.85 382.94,-180.27 376.79,-188.89 383.51,-190.85"/>
</g>
<!-- 5690846846039333940&#45;&gt;7799264227346440860 -->
<g id="edge4" class="edge">
<title>5690846846039333940&#45;&gt;7799264227346440860</title>
<path fill="none" stroke="black" d="M427.35,-71.7C433.53,-63.39 441.04,-53.28 447.82,-44.14"/>
<polygon fill="black" stroke="black" points="450.64,-46.22 453.79,-36.1 445.02,-42.04 450.64,-46.22"/>
</g>
<!-- 4458003565068099742 -->
<g id="node9" class="node">
<title>4458003565068099742</title>
<path fill="none" stroke="black" d="M330,-180C330,-180 235,-180 235,-180 229,-180 223,-174 223,-168 223,-168 223,-156 223,-156 223,-150 229,-144 235,-144 235,-144 330,-144 330,-144 336,-144 342,-150 342,-156 342,-156 342,-168 342,-168 342,-174 336,-180 330,-180"/>
<text text-anchor="middle" x="282.5" y="-158.3" font-family="Times,serif" font-size="14.00">Value(3000&#45;01&#45;01)</text>
</g>
<!-- 2257121799704255320&#45;&gt;4458003565068099742 -->
<g id="edge6" class="edge">
<title>2257121799704255320&#45;&gt;4458003565068099742</title>
<path fill="none" stroke="black" d="M311.11,-215.7C306.74,-207.64 301.44,-197.89 296.6,-188.98"/>
<polygon fill="black" stroke="black" points="299.63,-187.22 291.79,-180.1 293.48,-190.56 299.63,-187.22"/>
</g>
<!-- 2257121799704255320&#45;&gt;8985490606287045741 -->
<g id="edge5" class="edge">
<title>2257121799704255320&#45;&gt;8985490606287045741</title>
<path fill="none" stroke="black" d="M337.06,-215.7C345.18,-207.22 355.09,-196.86 363.97,-187.58"/>
<polygon fill="black" stroke="black" points="366.74,-189.75 371.13,-180.1 361.69,-184.91 366.74,-189.75"/>
</g>
<!-- 8985490606287045741&#45;&gt;5690846846039333940 -->
<g id="edge7" class="edge">
<title>8985490606287045741&#45;&gt;5690846846039333940</title>
<path fill="none" stroke="black" d="M394.17,-143.7C397.21,-135.81 400.88,-126.3 404.26,-117.55"/>
<polygon fill="black" stroke="black" points="407.57,-118.69 407.9,-108.1 401.04,-116.17 407.57,-118.69"/>
</g>
</g>
</svg>
