<?xml version="1.0" encoding="UTF-8" standalone="no"?>
<!DOCTYPE svg PUBLIC "-//W3C//DTD SVG 1.1//EN"
 "http://www.w3.org/Graphics/SVG/1.1/DTD/svg11.dtd">
<!-- Generated by graphviz version 2.43.0 (0)
 -->
<!-- Title: %3 Pages: 1 -->
<svg width="290pt" height="332pt"
 viewBox="0.00 0.00 289.50 332.00" xmlns="http://www.w3.org/2000/svg" xmlns:xlink="http://www.w3.org/1999/xlink">
<g id="graph0" class="graph" transform="scale(1 1) rotate(0) translate(4 328)">
<title>%3</title>
<polygon fill="white" stroke="transparent" points="-4,4 -4,-328 285.5,-328 285.5,4 -4,4"/>
<!-- 377038147782281232 -->
<g id="node1" class="node">
<title>377038147782281232</title>
<g id="a_node1"><a xlink:href="hscworker.svg" xlink:title="Variable(hscworker)">
<path fill="lightgrey" stroke="black" d="M230,-324C230,-324 127,-324 127,-324 121,-324 115,-318 115,-312 115,-312 115,-300 115,-300 115,-294 121,-288 127,-288 127,-288 230,-288 230,-288 236,-288 242,-294 242,-300 242,-300 242,-312 242,-312 242,-318 236,-324 230,-324"/>
<text text-anchor="middle" x="178.5" y="-302.3" font-family="Times,serif" font-size="14.00">Variable(hscworker)</text>
</a>
</g>
</g>
<!-- 660580819668907805 -->
<g id="node2" class="node">
<title>660580819668907805</title>
<path fill="none" stroke="black" d="M196,-252C196,-252 161,-252 161,-252 155,-252 149,-246 149,-240 149,-240 149,-228 149,-228 149,-222 155,-216 161,-216 161,-216 196,-216 196,-216 202,-216 208,-222 208,-228 208,-228 208,-240 208,-240 208,-246 202,-252 196,-252"/>
<text text-anchor="middle" x="178.5" y="-230.3" font-family="Times,serif" font-size="14.00">Exists()</text>
</g>
<!-- 377038147782281232&#45;&gt;660580819668907805 -->
<g id="edge1" class="edge">
<title>377038147782281232&#45;&gt;660580819668907805</title>
<path fill="none" stroke="black" d="M178.5,-287.7C178.5,-279.98 178.5,-270.71 178.5,-262.11"/>
<polygon fill="black" stroke="black" points="182,-262.1 178.5,-252.1 175,-262.1 182,-262.1"/>
</g>
<!-- 3578471493086553828 -->
<g id="node3" class="node">
<title>3578471493086553828</title>
<path fill="none" stroke="black" d="M194,-180C194,-180 163,-180 163,-180 157,-180 151,-174 151,-168 151,-168 151,-156 151,-156 151,-150 157,-144 163,-144 163,-144 194,-144 194,-144 200,-144 206,-150 206,-156 206,-156 206,-168 206,-168 206,-174 200,-180 194,-180"/>
<text text-anchor="middle" x="178.5" y="-158.3" font-family="Times,serif" font-size="14.00">Filter()</text>
</g>
<!-- 660580819668907805&#45;&gt;3578471493086553828 -->
<g id="edge2" class="edge">
<title>660580819668907805&#45;&gt;3578471493086553828</title>
<path fill="none" stroke="black" d="M178.5,-215.7C178.5,-207.98 178.5,-198.71 178.5,-190.11"/>
<polygon fill="black" stroke="black" points="182,-190.1 178.5,-180.1 175,-190.1 182,-190.1"/>
</g>
<!-- 273499507620489023 -->
<g id="node4" class="node">
<title>273499507620489023</title>
<path fill="none" stroke="black" d="M207,-108C207,-108 12,-108 12,-108 6,-108 0,-102 0,-96 0,-96 0,-84 0,-84 0,-78 6,-72 12,-72 12,-72 207,-72 207,-72 213,-72 219,-78 219,-84 219,-84 219,-96 219,-96 219,-102 213,-108 207,-108"/>
<text text-anchor="middle" x="109.5" y="-86.3" font-family="Times,serif" font-size="14.00">SelectColumn(is_healthcare_worker)</text>
</g>
<!-- 3578471493086553828&#45;&gt;273499507620489023 -->
<g id="edge4" class="edge">
<title>3578471493086553828&#45;&gt;273499507620489023</title>
<path fill="none" stroke="black" d="M161.44,-143.7C153,-135.14 142.68,-124.66 133.46,-115.3"/>
<polygon fill="black" stroke="black" points="135.87,-112.77 126.36,-108.1 130.89,-117.68 135.87,-112.77"/>
</g>
<!-- 115166095396108220 -->
<g id="node5" class="node">
<title>115166095396108220</title>
<path fill="lightgrey" stroke="black" d="M269.5,-36C269.5,-36 87.5,-36 87.5,-36 81.5,-36 75.5,-30 75.5,-24 75.5,-24 75.5,-12 75.5,-12 75.5,-6 81.5,0 87.5,0 87.5,0 269.5,0 269.5,0 275.5,0 281.5,-6 281.5,-12 281.5,-12 281.5,-24 281.5,-24 281.5,-30 275.5,-36 269.5,-36"/>
<text text-anchor="middle" x="178.5" y="-14.3" font-family="Times,serif" font-size="14.00">SelectTable(occupation_on_cov...)</text>
</g>
<!-- 3578471493086553828&#45;&gt;115166095396108220 -->
<g id="edge3" class="edge">
<title>3578471493086553828&#45;&gt;115166095396108220</title>
<path fill="none" stroke="black" d="M201.1,-143.96C211.56,-134.63 222.9,-122.11 228.5,-108 234.41,-93.13 234.41,-86.87 228.5,-72 224.21,-61.2 216.56,-51.32 208.51,-43.1"/>
<polygon fill="black" stroke="black" points="210.75,-40.4 201.1,-36.04 205.92,-45.47 210.75,-40.4"/>
</g>
<!-- 273499507620489023&#45;&gt;115166095396108220 -->
<g id="edge5" class="edge">
<title>273499507620489023&#45;&gt;115166095396108220</title>
<path fill="none" stroke="black" d="M126.56,-71.7C135,-63.14 145.32,-52.66 154.54,-43.3"/>
<polygon fill="black" stroke="black" points="157.11,-45.68 161.64,-36.1 152.13,-40.77 157.11,-45.68"/>
</g>
</g>
</svg>
