<?xml version="1.0" encoding="UTF-8" standalone="no"?>
<!DOCTYPE svg PUBLIC "-//W3C//DTD SVG 1.1//EN"
 "http://www.w3.org/Graphics/SVG/1.1/DTD/svg11.dtd">
<!-- Generated by graphviz version 2.43.0 (0)
 -->
<!-- Title: %3 Pages: 1 -->
<svg width="599pt" height="188pt"
 viewBox="0.00 0.00 598.50 188.00" xmlns="http://www.w3.org/2000/svg" xmlns:xlink="http://www.w3.org/1999/xlink">
<g id="graph0" class="graph" transform="scale(1 1) rotate(0) translate(4 184)">
<title>%3</title>
<polygon fill="white" stroke="transparent" points="-4,4 -4,-184 594.5,-184 594.5,4 -4,4"/>
<!-- 3893726134244767521 -->
<g id="node1" class="node">
<title>3893726134244767521</title>
<g id="a_node1"><a xlink:href="sex.svg" xlink:title="Variable(sex)">
<path fill="lightgrey" stroke="black" d="M84,-180C84,-180 19,-180 19,-180 13,-180 7,-174 7,-168 7,-168 7,-156 7,-156 7,-150 13,-144 19,-144 19,-144 84,-144 84,-144 90,-144 96,-150 96,-156 96,-156 96,-168 96,-168 96,-174 90,-180 84,-180"/>
<text text-anchor="middle" x="51.5" y="-158.3" font-family="Times,serif" font-size="14.00">Variable(sex)</text>
</a>
</g>
</g>
<!-- 7686422252949024285 -->
<g id="node6" class="node">
<title>7686422252949024285</title>
<path fill="none" stroke="black" d="M109,-108C109,-108 12,-108 12,-108 6,-108 0,-102 0,-96 0,-96 0,-84 0,-84 0,-78 6,-72 12,-72 12,-72 109,-72 109,-72 115,-72 121,-78 121,-84 121,-84 121,-96 121,-96 121,-102 115,-108 109,-108"/>
<text text-anchor="middle" x="60.5" y="-86.3" font-family="Times,serif" font-size="14.00">SelectColumn(sex)</text>
</g>
<!-- 3893726134244767521&#45;&gt;7686422252949024285 -->
<g id="edge2" class="edge">
<title>3893726134244767521&#45;&gt;7686422252949024285</title>
<path fill="none" stroke="black" d="M53.72,-143.7C54.72,-135.98 55.91,-126.71 57.01,-118.11"/>
<polygon fill="black" stroke="black" points="60.5,-118.47 58.3,-108.1 53.55,-117.58 60.5,-118.47"/>
</g>
<!-- 1204418980975433034 -->
<g id="node2" class="node">
<title>1204418980975433034</title>
<g id="a_node2"><a xlink:href="age.svg" xlink:title="Variable(age)">
<path fill="lightgrey" stroke="black" d="M191,-180C191,-180 126,-180 126,-180 120,-180 114,-174 114,-168 114,-168 114,-156 114,-156 114,-150 120,-144 126,-144 126,-144 191,-144 191,-144 197,-144 203,-150 203,-156 203,-156 203,-168 203,-168 203,-174 197,-180 191,-180"/>
<text text-anchor="middle" x="158.5" y="-158.3" font-family="Times,serif" font-size="14.00">Variable(age)</text>
</a>
</g>
</g>
<!-- 4269434575030179451 -->
<g id="node7" class="node">
<title>4269434575030179451</title>
<path fill="lightgrey" stroke="black" d="M335,-36C335,-36 190,-36 190,-36 184,-36 178,-30 178,-24 178,-24 178,-12 178,-12 178,-6 184,0 190,0 190,0 335,0 335,0 341,0 347,-6 347,-12 347,-12 347,-24 347,-24 347,-30 341,-36 335,-36"/>
<text text-anchor="middle" x="262.5" y="-14.3" font-family="Times,serif" font-size="14.00">SelectPatientTable(patients)</text>
</g>
<!-- 1204418980975433034&#45;&gt;4269434575030179451 -->
<g id="edge3" class="edge">
<title>1204418980975433034&#45;&gt;4269434575030179451</title>
<path fill="none" stroke="lightgrey" d="M171.04,-143.87C189.16,-119.14 222.77,-73.24 243.82,-44.51"/>
<polygon fill="lightgrey" stroke="lightgrey" points="246.83,-46.33 249.91,-36.19 241.18,-42.19 246.83,-46.33"/>
</g>
<!-- 2854687987532492382 -->
<g id="node3" class="node">
<title>2854687987532492382</title>
<g id="a_node3"><a xlink:href="population.svg" xlink:title="Population()">
<path fill="lightgrey" stroke="black" d="M292.5,-180C292.5,-180 232.5,-180 232.5,-180 226.5,-180 220.5,-174 220.5,-168 220.5,-168 220.5,-156 220.5,-156 220.5,-150 226.5,-144 232.5,-144 232.5,-144 292.5,-144 292.5,-144 298.5,-144 304.5,-150 304.5,-156 304.5,-156 304.5,-168 304.5,-168 304.5,-174 298.5,-180 292.5,-180"/>
<text text-anchor="middle" x="262.5" y="-158.3" font-family="Times,serif" font-size="14.00">Population()</text>
</a>
</g>
</g>
<!-- 2854687987532492382&#45;&gt;4269434575030179451 -->
<g id="edge4" class="edge">
<title>2854687987532492382&#45;&gt;4269434575030179451</title>
<path fill="none" stroke="lightgrey" d="M262.5,-143.87C262.5,-119.67 262.5,-75.21 262.5,-46.39"/>
<polygon fill="lightgrey" stroke="lightgrey" points="266,-46.19 262.5,-36.19 259,-46.19 266,-46.19"/>
</g>
<!-- 8246584443075253643 -->
<g id="node4" class="node">
<title>8246584443075253643</title>
<g id="a_node4"><a xlink:href="age_august2021.svg" xlink:title="Variable(age_august2021)">
<path fill="lightgrey" stroke="black" d="M468.5,-180C468.5,-180 334.5,-180 334.5,-180 328.5,-180 322.5,-174 322.5,-168 322.5,-168 322.5,-156 322.5,-156 322.5,-150 328.5,-144 334.5,-144 334.5,-144 468.5,-144 468.5,-144 474.5,-144 480.5,-150 480.5,-156 480.5,-156 480.5,-168 480.5,-168 480.5,-174 474.5,-180 468.5,-180"/>
<text text-anchor="middle" x="401.5" y="-158.3" font-family="Times,serif" font-size="14.00">Variable(age_august2021)</text>
</a>
</g>
</g>
<!-- 8246584443075253643&#45;&gt;4269434575030179451 -->
<g id="edge5" class="edge">
<title>8246584443075253643&#45;&gt;4269434575030179451</title>
<path fill="none" stroke="lightgrey" d="M384.73,-143.87C360.21,-118.82 314.43,-72.05 286.39,-43.41"/>
<polygon fill="lightgrey" stroke="lightgrey" points="288.82,-40.89 279.33,-36.19 283.82,-45.78 288.82,-40.89"/>
</g>
<!-- 4443043171866605585 -->
<g id="node5" class="node">
<title>4443043171866605585</title>
<g id="a_node5"><a xlink:href="bmi.svg" xlink:title="Variable(bmi)">
<path fill="lightgrey" stroke="black" d="M578.5,-180C578.5,-180 510.5,-180 510.5,-180 504.5,-180 498.5,-174 498.5,-168 498.5,-168 498.5,-156 498.5,-156 498.5,-150 504.5,-144 510.5,-144 510.5,-144 578.5,-144 578.5,-144 584.5,-144 590.5,-150 590.5,-156 590.5,-156 590.5,-168 590.5,-168 590.5,-174 584.5,-180 578.5,-180"/>
<text text-anchor="middle" x="544.5" y="-158.3" font-family="Times,serif" font-size="14.00">Variable(bmi)</text>
</a>
</g>
</g>
<!-- 4443043171866605585&#45;&gt;4269434575030179451 -->
<g id="edge6" class="edge">
<title>4443043171866605585&#45;&gt;4269434575030179451</title>
<path fill="none" stroke="lightgrey" d="M510.48,-143.87C459.14,-118.02 361.88,-69.04 305.63,-40.72"/>
<polygon fill="lightgrey" stroke="lightgrey" points="307.14,-37.56 296.64,-36.19 303.99,-43.81 307.14,-37.56"/>
</g>
<!-- 7686422252949024285&#45;&gt;4269434575030179451 -->
<g id="edge1" class="edge">
<title>7686422252949024285&#45;&gt;4269434575030179451</title>
<path fill="none" stroke="black" d="M109.66,-71.97C138,-62.14 173.82,-49.73 203.66,-39.39"/>
<polygon fill="black" stroke="black" points="204.82,-42.69 213.12,-36.11 202.53,-36.08 204.82,-42.69"/>
</g>
</g>
</svg>
